<svg width="400" height="400" viewBox="0 0 400 400" fill="none" xmlns="http://www.w3.org/2000/svg">
<path d="M141.872 350.264C160.456 334.208 162.32 307.768 159.12 284.504C158.584 280.624 158.592 276.504 156.384 273.248C154.176 269.992 149.608 268.128 146.288 270.128C143.536 271.792 142.624 275.288 141.296 278.24C139.514 282.173 136.658 285.523 133.056 287.904C130.704 289.448 127.72 290.552 125.128 289.456C121.576 287.952 120.704 283.344 120.328 279.472C119.624 272.24 118.923 265.011 118.224 257.784C117.848 253.912 117.424 249.952 115.872 246.4C114.32 242.848 111.272 239.704 107.48 239.048C103.688 238.392 99.344 240.992 98.96 244.864C98.792 246.464 99.288 248.064 99.344 249.704C99.4 251.344 98.84 253.184 97.352 253.784C95.864 254.384 94.152 253.464 92.912 252.448C88.512 248.944 85.28 244.184 82.224 239.432C79.168 234.68 76.176 229.832 72.112 225.912C68.048 221.992 62.672 219.152 57.088 219.416C51.504 219.68 45.944 223.704 45.088 229.304C44.232 234.904 48.008 240.12 51.928 244.192C57.753 250.217 64.4162 255.372 71.712 259.496C73.024 260.24 74.448 261.04 75.056 262.424C76.168 264.92 73.984 267.744 71.52 268.824C68.728 270.08 65.568 270.104 62.584 270.776C59.6 271.448 56.464 273.112 55.616 276.088C54.432 280.208 58.176 284.016 61.712 286.4C68.805 291.174 76.6663 294.692 84.952 296.8C87.912 297.552 91.008 298.152 93.512 299.92C96.016 301.688 97.76 305.024 96.656 307.92C95.552 310.816 92.072 312.04 89.032 311.792C85.992 311.544 83.144 310.192 80.232 309.392C74.696 307.928 67.856 309.008 64.92 313.96C62.992 317.216 63.232 321.448 64.736 324.944C66.24 328.44 68.864 331.296 71.6 333.912C81.2 343.048 92.928 349.984 105.72 352.992C118.512 356 130.08 355.976 141.896 350.224" fill="#59C9A5"/>
<path d="M144 367.536C141.806 356.824 138.592 346.347 134.4 336.248C129.752 324.824 123.616 312.72 116.8 300.288L111.696 291.096C110.008 288.08 108.344 285.096 106.528 282.296C103.038 276.886 99.2483 271.675 95.176 266.688C91.328 261.888 87.504 257.488 83.888 253.392C80.272 249.296 76.824 245.56 73.536 242.28C68.3485 237.063 62.752 232.269 56.8 227.944C54.712 226.408 53.048 225.28 51.912 224.528L50.616 223.672C50.4728 223.57 50.3201 223.481 50.16 223.408C50.292 223.526 50.4309 223.635 50.576 223.736L51.832 224.648C52.944 225.448 54.576 226.608 56.632 228.168C62.4688 232.565 67.9669 237.395 73.08 242.616C76.336 245.912 79.752 249.672 83.344 253.768C86.936 257.864 90.736 262.296 94.544 267.08C98.5822 272.063 102.345 277.263 105.816 282.656C107.616 285.464 109.272 288.432 110.952 291.456L116.056 300.648C122.904 313.072 129.04 325.136 133.712 336.512C137.929 346.559 141.192 356.981 143.456 367.64" fill="#E0E0E0"/>
<path d="M106.216 282.272C106.346 281.716 106.415 281.147 106.424 280.576C106.52 279.488 106.6 277.904 106.672 275.944C106.824 272.024 106.848 266.616 106.848 260.648C106.848 254.68 106.952 249.28 107.16 245.376C107.256 243.424 107.352 241.848 107.432 240.752C107.506 240.187 107.522 239.616 107.48 239.048C107.308 239.594 107.201 240.157 107.16 240.728C106.992 241.808 106.816 243.384 106.656 245.336C106.312 249.248 106.136 254.664 106.136 260.64C106.136 266.616 106.136 271.84 106.136 275.928C106.136 277.768 106.136 279.32 106.136 280.568C106.102 281.137 106.129 281.708 106.216 282.272Z" fill="#E0E0E0"/>
<path d="M55.432 278.096C56.1027 278.156 56.7773 278.156 57.448 278.096C58.736 278.096 60.6 278.04 62.912 278.096C67.52 278.096 73.896 278.376 80.912 278.96C87.928 279.544 94.264 280.376 98.824 281.096C101.112 281.44 102.952 281.768 104.224 281.984C104.878 282.137 105.545 282.231 106.216 282.264C105.591 282.012 104.943 281.825 104.28 281.704C103.016 281.4 101.184 281 98.904 280.584C94.352 279.736 88.016 278.84 80.968 278.232C74.9614 277.714 68.9322 277.503 62.904 277.6C60.592 277.64 58.72 277.752 57.432 277.856C56.7593 277.874 56.0898 277.954 55.432 278.096Z" fill="#E0E0E0"/>
<path d="M133.6 335.392C133.724 335.193 133.818 334.978 133.88 334.752C134.056 334.24 134.28 333.616 134.544 332.864C135.112 331.216 135.88 328.816 136.784 325.84C138.6 319.88 140.848 311.576 143.184 302.376C145.52 293.176 147.712 284.864 149.4 278.88C150.2 275.968 150.912 273.576 151.416 271.792C151.632 270.992 151.808 270.384 151.952 269.864C152.033 269.643 152.081 269.411 152.096 269.176C151.972 269.375 151.878 269.59 151.816 269.816C151.64 270.328 151.416 270.952 151.152 271.704C150.584 273.352 149.816 275.752 148.912 278.728C147.096 284.688 144.848 292.992 142.512 302.192C140.176 311.392 137.984 319.704 136.296 325.696C135.496 328.6 134.784 331 134.28 332.776C134.064 333.576 133.888 334.184 133.744 334.704C133.664 334.925 133.615 335.157 133.6 335.392Z" fill="#E0E0E0"/>
<path d="M65.224 320.888C65.4399 320.987 65.6689 321.054 65.904 321.088L67.896 321.536L75.224 323.136C81.408 324.456 89.936 326.384 99.352 328.528C108.768 330.672 117.32 332.528 123.536 333.712C126.64 334.312 129.136 334.776 130.904 335.056L132.92 335.368C133.153 335.426 133.393 335.444 133.632 335.424C133.411 335.331 133.18 335.264 132.944 335.224L130.96 334.776L123.632 333.216C117.448 331.888 108.92 329.96 99.504 327.816C90.088 325.672 81.536 323.816 75.32 322.632C72.216 322.032 69.72 321.576 67.944 321.288L65.936 320.976C65.7041 320.913 65.4643 320.883 65.224 320.888Z" fill="#E0E0E0"/>
<path d="M122.856 173.456C122.553 173.457 122.256 173.371 122 173.21C121.744 173.048 121.538 172.817 121.408 172.544L117.936 165.344C117.827 165.12 117.771 164.874 117.774 164.625C117.777 164.375 117.838 164.13 117.952 163.909C118.066 163.687 118.231 163.496 118.432 163.349C118.633 163.202 118.866 163.105 119.112 163.064C119.787 162.934 120.427 162.666 120.993 162.276C121.559 161.887 122.038 161.384 122.4 160.8C122.748 160.294 122.989 159.722 123.108 159.119C123.226 158.517 123.219 157.896 123.088 157.296C122.918 156.702 122.631 156.148 122.244 155.667C121.856 155.186 121.376 154.788 120.832 154.496C120.246 154.15 119.596 153.925 118.922 153.833C118.248 153.741 117.562 153.784 116.904 153.96C115.624 154.427 114.541 155.314 113.83 156.477C113.12 157.639 112.824 159.008 112.992 160.36C113.021 160.57 113.009 160.784 112.956 160.989C112.903 161.195 112.81 161.388 112.682 161.557C112.554 161.726 112.394 161.869 112.211 161.976C112.028 162.084 111.826 162.155 111.616 162.184C111.406 162.213 111.192 162.201 110.987 162.148C110.781 162.095 110.588 162.002 110.419 161.874C110.25 161.746 110.107 161.586 110 161.403C109.892 161.22 109.821 161.018 109.792 160.808C109.525 158.69 109.997 156.545 111.128 154.735C112.259 152.925 113.98 151.561 116 150.872C117.074 150.566 118.198 150.48 119.305 150.617C120.413 150.755 121.482 151.113 122.448 151.672C123.367 152.178 124.175 152.864 124.824 153.688C125.472 154.513 125.949 155.46 126.224 156.472C126.461 157.5 126.484 158.566 126.293 159.603C126.102 160.641 125.7 161.628 125.112 162.504C124.258 163.848 123.04 164.921 121.6 165.6L124.272 171.2C124.364 171.39 124.418 171.596 124.43 171.807C124.442 172.018 124.413 172.229 124.343 172.429C124.273 172.628 124.164 172.811 124.023 172.969C123.882 173.126 123.711 173.253 123.52 173.344C123.31 173.429 123.083 173.468 122.856 173.456Z" fill="#E0E0E0"/>
<path d="M126.312 175.536C126.443 175.843 126.452 176.189 126.338 176.502C126.224 176.816 125.996 177.075 125.699 177.227C125.402 177.38 125.058 177.413 124.737 177.322C124.416 177.231 124.141 177.022 123.968 176.736C123.874 176.581 123.813 176.408 123.789 176.229C123.765 176.049 123.778 175.866 123.827 175.692C123.877 175.518 123.962 175.355 124.077 175.215C124.192 175.075 124.334 174.96 124.496 174.877C124.657 174.795 124.834 174.746 125.015 174.735C125.195 174.724 125.377 174.75 125.547 174.811C125.718 174.873 125.873 174.969 126.005 175.094C126.137 175.219 126.241 175.369 126.312 175.536Z" fill="#E0E0E0"/>
<path d="M78.888 149.264C78.6754 149.265 78.4669 149.205 78.287 149.092C78.1071 148.978 77.9631 148.816 77.872 148.624L75.472 143.584C75.3951 143.429 75.3551 143.257 75.3551 143.084C75.3551 142.911 75.3951 142.739 75.472 142.584C75.5497 142.43 75.6626 142.296 75.8015 142.193C75.9405 142.09 76.1016 142.021 76.272 141.992C76.7428 141.897 77.189 141.706 77.5827 141.43C77.9763 141.155 78.309 140.802 78.56 140.392C78.7999 140.037 78.9659 139.637 79.0484 139.217C79.1308 138.796 79.128 138.363 79.04 137.944C78.9196 137.527 78.7156 137.139 78.4406 136.804C78.1655 136.468 77.8251 136.192 77.44 135.992C77.0306 135.75 76.5771 135.592 76.1059 135.528C75.6347 135.463 75.1554 135.493 74.696 135.616C73.8036 135.951 73.0512 136.579 72.5615 137.397C72.0719 138.215 71.874 139.175 72 140.12C72.0414 140.415 71.9639 140.714 71.7846 140.952C71.6053 141.19 71.3389 141.347 71.044 141.388C70.7491 141.429 70.4498 141.352 70.212 141.173C69.9742 140.993 69.8174 140.727 69.776 140.432C69.5898 138.955 69.9176 137.458 70.7042 136.194C71.4908 134.929 72.6884 133.974 74.096 133.488C74.8463 133.279 75.631 133.223 76.4034 133.323C77.1757 133.423 77.92 133.678 78.592 134.072C79.2378 134.426 79.8053 134.906 80.2604 135.485C80.7155 136.064 81.0487 136.729 81.24 137.44C81.4012 138.159 81.4134 138.903 81.2758 139.627C81.1382 140.351 80.8538 141.038 80.44 141.648C79.8509 142.563 79.0203 143.296 78.04 143.768L79.904 147.656C79.9692 147.788 80.0074 147.932 80.0165 148.079C80.0256 148.226 80.0054 148.374 79.957 148.513C79.9086 148.652 79.833 148.78 79.7347 148.89C79.6363 149 79.5171 149.089 79.384 149.152C79.2286 149.224 79.0594 149.263 78.888 149.264Z" fill="#F5F5F5"/>
<path d="M81.304 150.712C81.366 150.917 81.3547 151.137 81.2721 151.334C81.1894 151.531 81.0406 151.694 80.8512 151.793C80.6617 151.893 80.4436 151.923 80.2342 151.879C80.0248 151.835 79.8374 151.719 79.704 151.552C79.6196 151.446 79.5596 151.323 79.5283 151.191C79.4971 151.059 79.4953 150.922 79.5232 150.789C79.5511 150.657 79.6079 150.532 79.6896 150.424C79.7713 150.316 79.8759 150.227 79.9959 150.164C80.1158 150.101 80.2482 150.065 80.3836 150.059C80.519 150.054 80.654 150.078 80.7789 150.13C80.9039 150.182 81.0158 150.262 81.1066 150.362C81.1973 150.463 81.2647 150.582 81.304 150.712Z" fill="#F5F5F5"/>
<path d="M278.504 152C278.596 152.192 278.631 152.406 278.605 152.617C278.58 152.828 278.495 153.027 278.36 153.192L274.84 157.536C274.73 157.67 274.59 157.777 274.432 157.849C274.274 157.921 274.102 157.956 273.928 157.952C273.755 157.947 273.585 157.902 273.432 157.82C273.279 157.738 273.148 157.622 273.048 157.48C272.767 157.093 272.408 156.769 271.995 156.528C271.582 156.287 271.123 156.135 270.648 156.08C270.228 156.013 269.798 156.032 269.385 156.136C268.973 156.241 268.586 156.429 268.248 156.688C267.922 156.972 267.657 157.319 267.468 157.708C267.28 158.097 267.172 158.52 267.152 158.952C267.105 159.423 267.152 159.899 267.289 160.352C267.426 160.805 267.652 161.226 267.952 161.592C268.632 162.258 269.516 162.676 270.463 162.778C271.409 162.879 272.362 162.659 273.168 162.152C273.288 162.047 273.429 161.969 273.582 161.923C273.734 161.877 273.895 161.864 274.053 161.885C274.211 161.906 274.362 161.961 274.498 162.045C274.633 162.129 274.749 162.241 274.837 162.374C274.925 162.507 274.984 162.657 275.01 162.814C275.036 162.971 275.028 163.132 274.987 163.286C274.945 163.44 274.872 163.583 274.77 163.706C274.669 163.829 274.543 163.93 274.4 164C273.146 164.801 271.654 165.147 270.175 164.978C268.697 164.809 267.321 164.136 266.28 163.072C265.77 162.482 265.384 161.795 265.144 161.053C264.903 160.312 264.814 159.529 264.88 158.752C264.926 158.019 265.119 157.303 265.447 156.646C265.776 155.989 266.233 155.404 266.792 154.928C267.371 154.471 268.037 154.138 268.75 153.95C269.463 153.761 270.207 153.721 270.936 153.832C272.017 153.971 273.038 154.412 273.88 155.104L276.592 151.752C276.685 151.634 276.8 151.536 276.931 151.463C277.063 151.39 277.207 151.345 277.356 151.329C277.506 151.314 277.657 151.328 277.8 151.372C277.944 151.416 278.077 151.488 278.192 151.584C278.326 151.698 278.432 151.84 278.504 152Z" fill="#F5F5F5"/>
<path d="M278.784 149.184C278.895 149.039 279.046 148.931 279.218 148.873C279.391 148.814 279.577 148.808 279.753 148.855C279.929 148.902 280.086 149.001 280.206 149.138C280.326 149.275 280.403 149.444 280.426 149.625C280.45 149.805 280.419 149.989 280.339 150.152C280.258 150.315 280.13 150.451 279.973 150.541C279.815 150.632 279.633 150.674 279.452 150.662C279.27 150.649 279.096 150.583 278.952 150.472C278.856 150.399 278.775 150.308 278.714 150.203C278.654 150.098 278.614 149.983 278.599 149.863C278.583 149.743 278.591 149.621 278.623 149.505C278.655 149.388 278.71 149.279 278.784 149.184Z" fill="#F5F5F5"/>
<path d="M266.776 47.624C266.866 47.8163 266.9 48.0299 266.874 48.2406C266.849 48.4512 266.765 48.6506 266.632 48.816L263.112 53.16C263.002 53.2945 262.863 53.4019 262.706 53.4739C262.548 53.5459 262.376 53.5805 262.202 53.5751C262.029 53.5697 261.859 53.5243 261.706 53.4426C261.553 53.3609 261.421 53.245 261.32 53.104C261.037 52.7186 260.678 52.3955 260.265 52.1547C259.853 51.9139 259.395 51.7604 258.92 51.704C258.499 51.6392 258.069 51.6604 257.657 51.7663C257.244 51.8721 256.858 52.0605 256.52 52.32C256.195 52.6028 255.93 52.9484 255.742 53.3361C255.553 53.7238 255.445 54.1455 255.424 54.576C255.377 55.047 255.423 55.5228 255.56 55.9758C255.698 56.4289 255.923 56.8504 256.224 57.216C256.9 57.8855 257.784 58.3056 258.73 58.4073C259.676 58.509 260.629 58.2864 261.432 57.776C261.681 57.6319 261.976 57.5885 262.256 57.6546C262.536 57.7206 262.78 57.8912 262.938 58.1314C263.097 58.3715 263.157 58.6631 263.108 58.9465C263.058 59.23 262.902 59.4837 262.672 59.656C261.417 60.4578 259.925 60.8025 258.446 60.632C256.966 60.4615 255.591 59.7862 254.552 58.72C254.039 58.1318 253.65 57.4458 253.41 56.7033C253.169 55.9608 253.081 55.1773 253.152 54.4C253.199 53.6671 253.392 52.951 253.72 52.2941C254.049 51.6373 254.506 51.053 255.064 50.576C255.642 50.1211 256.308 49.7893 257.019 49.6008C257.73 49.4124 258.472 49.3712 259.2 49.48C260.279 49.6258 261.298 50.0659 262.144 50.752L264.856 47.4C264.949 47.2828 265.065 47.1854 265.196 47.1134C265.328 47.0414 265.472 46.9962 265.621 46.9806C265.77 46.965 265.92 46.9791 266.064 47.0223C266.207 47.0654 266.34 47.1367 266.456 47.232C266.589 47.3386 266.698 47.4722 266.776 47.624Z" fill="#F5F5F5"/>
<path d="M267.056 44.8C267.167 44.6555 267.318 44.5471 267.49 44.4885C267.663 44.43 267.849 44.4239 268.025 44.4711C268.2 44.5183 268.358 44.6166 268.478 44.7536C268.598 44.8906 268.675 45.0601 268.698 45.2407C268.722 45.4213 268.691 45.6048 268.611 45.7679C268.53 45.9311 268.402 46.0666 268.245 46.1574C268.087 46.2481 267.905 46.2899 267.724 46.2776C267.542 46.2652 267.368 46.1992 267.224 46.088C267.031 45.9392 266.905 45.7201 266.874 45.4787C266.842 45.2373 266.908 44.9932 267.056 44.8Z" fill="#F5F5F5"/>
<path d="M177.96 63.672C178.233 63.6701 178.5 63.7438 178.733 63.8851C178.966 64.0263 179.156 64.2295 179.28 64.472L182.4 71.048C182.501 71.2505 182.553 71.4737 182.553 71.7C182.553 71.9262 182.501 72.1494 182.4 72.352C182.301 72.5588 182.155 72.7391 181.972 72.8782C181.79 73.0173 181.578 73.1111 181.352 73.152C180.75 73.2682 180.178 73.5054 179.671 73.8492C179.163 74.1929 178.731 74.6362 178.4 75.152C178.081 75.6134 177.86 76.1357 177.751 76.6862C177.642 77.2367 177.648 77.8038 177.768 78.352C177.921 78.8917 178.182 79.395 178.534 79.8321C178.885 80.2691 179.322 80.6309 179.816 80.896C180.349 81.2094 180.938 81.4146 181.551 81.4997C182.163 81.5848 182.786 81.5482 183.384 81.392C184.546 80.9659 185.529 80.1593 186.174 79.1033C186.819 78.0473 187.088 76.804 186.936 75.576C186.91 75.3863 186.921 75.1934 186.969 75.0082C187.018 74.8229 187.102 74.649 187.218 74.4963C187.333 74.3437 187.478 74.2153 187.643 74.1184C187.808 74.0216 187.99 73.9582 188.18 73.932C188.37 73.9057 188.563 73.9171 188.748 73.9654C188.933 74.0137 189.107 74.098 189.26 74.2135C189.412 74.329 189.541 74.4735 189.638 74.6386C189.734 74.8037 189.798 74.9863 189.824 75.176C190.068 77.0933 189.644 79.0362 188.624 80.678C187.605 82.3199 186.051 83.5607 184.224 84.192C183.248 84.4654 182.227 84.539 181.223 84.4084C180.218 84.2779 179.249 83.9457 178.376 83.432C177.54 82.9702 176.805 82.3447 176.215 81.5929C175.626 80.8411 175.193 79.9783 174.944 79.056C174.729 78.1265 174.707 77.1628 174.879 76.2244C175.051 75.2861 175.414 74.3929 175.944 73.6C176.713 72.4114 177.795 71.4589 179.072 70.848L176.672 65.8C176.588 65.6279 176.539 65.4408 176.527 65.2496C176.516 65.0584 176.543 64.8668 176.606 64.686C176.669 64.5052 176.768 64.3387 176.896 64.1962C177.024 64.0538 177.179 63.9381 177.352 63.856C177.538 63.7489 177.746 63.6859 177.96 63.672Z" fill="#E0E0E0"/>
<path d="M174.824 61.784C174.686 61.502 174.663 61.1773 174.76 60.8786C174.857 60.5799 175.066 60.3308 175.344 60.184C175.625 60.0414 175.952 60.0161 176.251 60.1135C176.551 60.211 176.8 60.4233 176.944 60.704C177.015 60.8437 177.059 60.9961 177.071 61.1526C177.084 61.309 177.065 61.4664 177.017 61.6157C176.969 61.765 176.892 61.9033 176.79 62.0228C176.688 62.1423 176.564 62.2405 176.424 62.312C176.284 62.3834 176.132 62.4266 175.975 62.4392C175.819 62.4517 175.662 62.4333 175.512 62.385C175.363 62.3367 175.225 62.2595 175.105 62.1577C174.986 62.056 174.887 61.9317 174.816 61.792L174.824 61.784Z" fill="#E0E0E0"/>
<path d="M286.488 193.112C286.761 193.11 287.028 193.184 287.261 193.325C287.494 193.466 287.684 193.67 287.808 193.912L290.952 200.464C291.053 200.667 291.105 200.89 291.105 201.116C291.105 201.342 291.053 201.565 290.952 201.768C290.853 201.975 290.707 202.155 290.524 202.294C290.342 202.433 290.13 202.527 289.904 202.568C289.296 202.685 288.719 202.926 288.209 203.275C287.698 203.625 287.265 204.076 286.936 204.6C286.617 205.061 286.396 205.584 286.287 206.134C286.178 206.685 286.184 207.252 286.304 207.8C286.457 208.34 286.718 208.843 287.07 209.28C287.421 209.717 287.858 210.079 288.352 210.344C288.885 210.657 289.474 210.863 290.087 210.948C290.699 211.033 291.322 210.996 291.92 210.84C293.082 210.414 294.065 209.607 294.71 208.551C295.355 207.495 295.624 206.252 295.472 205.024C295.419 204.641 295.52 204.253 295.754 203.944C295.987 203.636 296.333 203.433 296.716 203.38C297.099 203.327 297.487 203.428 297.796 203.661C298.104 203.895 298.307 204.241 298.36 204.624C298.604 206.541 298.18 208.484 297.16 210.126C296.141 211.768 294.587 213.009 292.76 213.64C291.784 213.913 290.763 213.987 289.759 213.856C288.754 213.726 287.785 213.394 286.912 212.88C286.076 212.418 285.341 211.793 284.751 211.041C284.161 210.289 283.729 209.426 283.48 208.504C283.265 207.571 283.245 206.604 283.419 205.662C283.594 204.721 283.961 203.826 284.496 203.032C285.265 201.843 286.347 200.891 287.624 200.28L285.224 195.232C285.14 195.06 285.091 194.873 285.079 194.682C285.068 194.49 285.095 194.299 285.158 194.118C285.221 193.937 285.32 193.771 285.448 193.628C285.576 193.486 285.731 193.37 285.904 193.288C286.083 193.187 286.283 193.127 286.488 193.112Z" fill="#E0E0E0"/>
<path d="M283.352 191.2C283.214 190.918 283.191 190.593 283.288 190.295C283.385 189.996 283.594 189.747 283.872 189.6C284.153 189.457 284.48 189.432 284.779 189.53C285.079 189.627 285.328 189.839 285.472 190.12C285.616 190.402 285.643 190.73 285.545 191.032C285.448 191.333 285.234 191.584 284.952 191.728C284.67 191.872 284.342 191.899 284.04 191.801C283.739 191.704 283.488 191.49 283.344 191.208L283.352 191.2Z" fill="#E0E0E0"/>
<path d="M308.328 235.456C308.328 235.456 302.176 230.728 293.208 245.608C284.24 260.488 280.616 269.176 280.616 269.176C280.616 269.176 278.304 272.264 276.232 269.976C274.16 267.688 271.552 261.488 267.696 262.296C263.696 263.136 262.096 267.416 262.384 273.896C262.672 280.376 262.784 294.584 262.792 295.872C262.8 297.16 261.944 298.928 260.288 297.608C258.632 296.288 249.384 284.408 244 289.128C238.616 293.848 242.4 311.76 242.76 313.728C243.12 315.696 242.696 316.496 241.744 316.928C240.792 317.36 238.072 313.048 235.304 309.776C232.536 306.504 228.752 303.192 225.88 306.176C223.008 309.16 221.216 322.264 232.224 344.576L238 354.568L249.592 354.752C274.392 353.632 285.048 345.736 286.272 341.776C287.496 337.816 282.768 336.104 278.568 335.264C274.368 334.424 269.288 334.104 269.192 333.072C269.096 332.04 269.576 331.272 271.48 330.672C273.384 330.072 290.888 324.704 292.432 317.712C293.976 310.72 279.088 308.376 277.128 307.56C275.168 306.744 276.328 305.16 277.44 304.528C278.552 303.896 291.04 297.144 296.888 294.272C302.736 291.4 305.688 287.928 304.48 284.024C303.328 280.256 296.624 280.968 293.632 280.248C290.64 279.528 292.24 276 292.24 276C292.24 276 298.104 268.632 306.8 253.6C315.496 238.568 308.192 235.416 308.192 235.416" fill="#59C9A5"/>
<path d="M300.272 248.8L300.104 249.128C299.976 249.344 299.808 249.656 299.584 250.056L297.552 253.6C295.784 256.696 293.2 261.168 289.984 266.672C283.584 277.696 274.536 292.84 264.528 309.536C254.52 326.232 245.472 341.368 238.984 352.352L231.312 365.368C230.416 366.896 229.712 368.088 229.224 368.904L228.68 369.824L228.48 370.128C228.53 370.018 228.586 369.912 228.648 369.808L229.168 368.872L231.192 365.296C232.96 362.2 235.544 357.736 238.768 352.224C245.168 341.208 254.208 326.056 264.224 309.352C274.24 292.648 283.272 277.528 289.76 266.544L297.432 253.528C298.336 252 299.032 250.808 299.52 249.992C299.76 249.6 299.936 249.296 300.072 249.072L300.272 248.8Z" fill="#E0E0E0"/>
<path d="M271 271.152C271.11 271.409 271.191 271.677 271.24 271.952C271.368 272.48 271.536 273.232 271.728 274.176C272.12 276.048 272.592 278.656 273.064 281.544C273.536 284.432 273.928 286.968 274.24 288.944C274.384 289.824 274.512 290.544 274.608 291.176C274.67 291.438 274.705 291.706 274.712 291.976C274.606 291.718 274.526 291.45 274.472 291.176C274.344 290.656 274.176 289.896 273.992 288.952C273.616 287.072 273.192 284.456 272.712 281.568C272.232 278.68 271.808 276.152 271.48 274.192C271.328 273.304 271.208 272.592 271.104 271.952C271.042 271.69 271.007 271.422 271 271.152Z" fill="#E0E0E0"/>
<path d="M275.76 292.288C275.76 292.192 281.072 290.976 287.664 289.584C294.256 288.192 299.664 287.128 299.664 287.184C299.664 287.24 294.352 288.496 287.752 289.888C281.152 291.28 275.776 292.384 275.76 292.288Z" fill="#E0E0E0"/>
<path d="M259.2 317.24C259.482 317.21 259.766 317.21 260.048 317.24L262.36 317.416C264.312 317.56 267.008 317.744 269.984 317.84C272.96 317.936 275.664 317.944 277.624 317.928H279.936C280.22 317.891 280.508 317.891 280.792 317.928C280.513 317.99 280.229 318.025 279.944 318.032C279.4 318.072 278.608 318.12 277.624 318.16C275.672 318.24 272.96 318.28 269.976 318.16C266.992 318.04 264.288 317.84 262.336 317.632C261.36 317.52 260.576 317.424 260.032 317.344C259.752 317.34 259.473 317.305 259.2 317.24Z" fill="#E0E0E0"/>
<path d="M250.72 299.072C250.884 299.278 251.021 299.503 251.128 299.744C251.392 300.264 251.728 300.896 252.112 301.648C252.912 303.248 254.032 305.504 255.24 307.984C256.448 310.464 257.512 312.728 258.264 314.384C258.616 315.184 258.912 315.808 259.144 316.336C259.27 316.568 259.364 316.815 259.424 317.072C259.271 316.861 259.137 316.636 259.024 316.4L258.04 314.496C257.24 312.896 256.112 310.64 254.912 308.16C253.712 305.68 252.64 303.416 251.88 301.76L251 299.808C250.883 299.573 250.789 299.326 250.72 299.072Z" fill="#E0E0E0"/>
<path d="M233.336 319.24C233.529 319.515 233.698 319.807 233.84 320.112L235.112 322.512C236.176 324.576 237.608 327.44 239.184 330.608C240.76 333.776 242.16 336.648 243.184 338.744L244.352 341.224C244.504 341.526 244.632 341.839 244.736 342.16C244.538 341.886 244.366 341.594 244.224 341.288L242.952 338.888C241.896 336.824 240.456 333.968 238.888 330.8C237.32 327.632 235.912 324.752 234.888 322.664L233.72 320.176C233.559 319.878 233.431 319.565 233.336 319.24Z" fill="#E0E0E0"/>
<path d="M244.592 341.6C244.951 341.569 245.313 341.569 245.672 341.6L248.608 341.712C251.088 341.808 254.512 341.92 258.296 341.944C262.08 341.968 265.496 341.904 267.992 341.832L270.928 341.76C271.287 341.727 271.649 341.727 272.008 341.76C271.655 341.83 271.296 341.87 270.936 341.88C270.248 341.944 269.24 342.008 268 342.072C265.52 342.2 262.088 342.312 258.296 342.28C254.504 342.248 251.096 342.104 248.6 341.952C247.36 341.864 246.352 341.792 245.664 341.72C245.304 341.71 244.945 341.67 244.592 341.6Z" fill="#E0E0E0"/>
<path d="M346.12 367.488C346.12 367.608 281.256 367.696 201.264 367.696C121.272 367.696 56.392 367.608 56.392 367.488C56.392 367.368 121.24 367.28 201.264 367.28C281.288 367.28 346.12 367.376 346.12 367.488Z" fill="#263238"/>
<path d="M275.904 318.04L263.72 259.928C263.72 259.928 256.576 231.928 231.984 222.264L230.288 221.744L227.888 221.016C226.896 220.632 222.864 219.352 221.8 219.016C188.648 207.528 179.848 210.52 145.304 222.304C145.304 222.304 129.952 226.44 122.512 246.456C115.072 266.472 100.84 297.792 100.84 297.792L135.304 309.968L141.912 300.152V367.296H236.712L234.096 336.384L233.64 298.312" fill="#234F5B"/>
<path d="M179.408 225.872C179.173 226.15 178.905 226.397 178.608 226.608C178.291 226.895 177.957 227.162 177.608 227.408C177.163 227.749 176.701 228.067 176.224 228.36C174.991 229.142 173.693 229.817 172.344 230.376C170.686 231.049 168.969 231.568 167.216 231.928C165.456 232.253 163.67 232.419 161.88 232.424C160.42 232.412 158.964 232.275 157.528 232.016C156.904 231.928 156.368 231.768 155.888 231.656C155.472 231.568 155.063 231.45 154.664 231.304C154.314 231.215 153.976 231.086 153.656 230.92C153.656 230.84 155.136 231.352 157.576 231.72C159.001 231.931 160.44 232.035 161.88 232.032C163.644 232.008 165.402 231.831 167.136 231.504C168.863 231.153 170.557 230.655 172.2 230.016C173.536 229.475 174.83 228.836 176.072 228.104C178.2 226.824 179.36 225.808 179.408 225.872Z" fill="#FAFAFA"/>
<g opacity="0.3">
<path d="M141.944 325.704L149.712 334.68H157.352V344.448L236.352 362.72L235.712 355.112L161.384 329.592H148.928L142.928 324.792L141.944 325.704Z" fill="black"/>
</g>
<path d="M165.208 317.712L158.616 316.496C158.616 316.496 143 299.408 140.072 299.2C137.672 299 124.368 299.128 119.744 299.2C119.32 299.2 118.913 299.369 118.613 299.669C118.313 299.969 118.144 300.376 118.144 300.8C118.144 301.216 118.306 301.616 118.596 301.915C118.885 302.213 119.28 302.388 119.696 302.4L135.392 303.008L135.464 304.272L119.744 304.48C118.144 304.6 117.12 307.136 122.248 307.592L135.392 308.064V308.864L122.064 310.728C121.384 310.824 119.616 311.168 119.6 311.848C119.6 311.848 118.8 313.52 122.592 313.992C123.896 314.152 135.464 313.768 135.464 313.768L135.024 314.808L123.024 317.392C122.603 317.483 122.232 317.73 121.986 318.083C121.739 318.436 121.636 318.87 121.696 319.296C121.756 319.73 121.98 320.124 122.323 320.396C122.666 320.669 123.1 320.799 123.536 320.76L136.336 319.568L148.928 329.6H165.728L165.208 317.712Z" fill="#FFBE9D"/>
<path d="M275.904 318.04L237.56 325.584L233.672 298.312" fill="#234F5B"/>
<path d="M232.456 319.08L161.384 316.8V341.36L208.536 350.728L241.656 356C262.232 356 278.688 337.112 275.504 316.8H275.416L232.456 319.08Z" fill="#234F5B"/>
<path d="M252 318.632C251.695 318.676 251.388 318.697 251.08 318.696L248.44 318.768L238.72 318.944C230.52 319.064 219.184 319.2 206.656 319.08C194.128 318.96 182.792 318.504 174.6 317.952C170.504 317.68 167.192 317.416 164.912 317.152L162.28 316.88C161.973 316.861 161.668 316.818 161.368 316.752C161.677 316.727 161.987 316.727 162.296 316.752L164.928 316.92C167.216 317.08 170.528 317.288 174.624 317.512C182.816 317.96 194.144 318.352 206.664 318.48C219.184 318.608 230.512 318.48 238.72 318.48H248.44H251.08C251.391 318.499 251.699 318.55 252 318.632Z" fill="#263238"/>
<path d="M161.392 317.008C161.403 317.152 161.403 317.296 161.392 317.44C161.392 317.749 161.392 318.173 161.392 318.712C161.392 319.856 161.392 321.488 161.44 323.56C161.44 327.76 161.488 333.728 161.528 340.92L161.384 340.744C169.384 342.464 179.032 344.6 189.384 346.768C203.576 349.776 216.504 352.144 225.896 353.6C230.6 354.32 234.408 354.848 237.048 355.2L240.08 355.6L240.88 355.712C240.97 355.717 241.059 355.736 241.144 355.768H240.872L240.072 355.696L237.024 355.376C234.384 355.072 230.56 354.576 225.824 353.904C216.408 352.528 203.464 350.2 189.264 347.192C178.904 345.024 169.264 342.864 161.264 341.104H161.128V340.968C161.128 333.768 161.176 327.808 161.192 323.608C161.192 321.536 161.192 319.904 161.24 318.76C161.24 318.227 161.24 317.803 161.24 317.488C161.265 317.321 161.316 317.159 161.392 317.008Z" fill="#263238"/>
<path d="M155.32 249.824C155.299 249.423 155.315 249.022 155.368 248.624C155.424 247.824 155.496 246.744 155.528 245.368C155.622 241.787 155.373 238.205 154.784 234.672C154.056 230.56 153.136 226.808 151.704 224.472C151.162 223.54 150.442 222.725 149.584 222.072C148.96 221.632 148.56 221.464 148.576 221.432C148.592 221.4 148.688 221.432 148.88 221.528C149.159 221.638 149.427 221.775 149.68 221.936C150.602 222.565 151.379 223.383 151.96 224.336C152.808 225.731 153.455 227.24 153.88 228.816C155.44 234.199 156.099 239.802 155.832 245.4C155.76 246.776 155.64 247.896 155.544 248.656C155.507 249.052 155.432 249.443 155.32 249.824Z" fill="#263238"/>
<path d="M233.472 228.232C233.592 228.232 233.68 244.56 233.68 264.704C233.68 284.848 233.592 301.176 233.472 301.176C233.352 301.176 233.264 284.848 233.264 264.704C233.264 244.56 233.36 228.232 233.472 228.232Z" fill="#263238"/>
<path d="M258 310.264C258 310.336 256.792 310.304 254.872 310.536C253.747 310.681 252.633 310.898 251.536 311.184C250.202 311.551 248.897 312.017 247.632 312.576C246.372 313.158 245.158 313.835 244 314.6C243.062 315.231 242.167 315.923 241.32 316.672C239.872 317.96 239.104 318.888 239.04 318.84C239.18 318.594 239.347 318.363 239.536 318.152C240.031 317.552 240.566 316.986 241.136 316.456C241.966 315.662 242.856 314.934 243.8 314.28C244.966 313.488 246.194 312.793 247.472 312.2C248.764 311.627 250.102 311.164 251.472 310.816C252.589 310.537 253.725 310.347 254.872 310.248C255.64 310.17 256.413 310.146 257.184 310.176C257.459 310.171 257.733 310.201 258 310.264Z" fill="#263238"/>
<g opacity="0.3">
<path d="M156 313.664C168 306.512 175.456 294.672 182.76 282.784C190.064 270.896 196.872 258.424 207 248.84C211.648 244.432 217.088 240.72 218.808 234.544L200.6 249.016L149.88 307.344L156 313.664Z" fill="black"/>
</g>
<path d="M123.104 282.4C123.104 282.552 120.24 282.44 116.968 283.56C115.579 284.06 114.226 284.656 112.92 285.344C112.393 285.67 111.833 285.938 111.248 286.144C111.712 285.731 112.225 285.376 112.776 285.088C114.058 284.309 115.417 283.665 116.832 283.168C118.258 282.684 119.744 282.401 121.248 282.328C121.867 282.258 122.493 282.282 123.104 282.4Z" fill="#263238"/>
<path d="M123.104 282.4C123.104 282.552 120.24 282.44 116.968 283.56C115.579 284.06 114.226 284.656 112.92 285.344C112.393 285.67 111.833 285.938 111.248 286.144C111.712 285.731 112.225 285.376 112.776 285.088C114.058 284.309 115.417 283.665 116.832 283.168C118.258 282.684 119.744 282.401 121.248 282.328C121.867 282.258 122.493 282.282 123.104 282.4Z" fill="#263238"/>
<path d="M233.168 308.512C232.315 307.956 231.385 307.527 230.408 307.24C228.528 306.656 225.608 306.664 222.224 307.752C218.84 308.84 215.32 311.152 210.968 312.96C208.701 313.953 206.241 314.426 203.768 314.344C201.117 314.091 198.545 313.302 196.208 312.024C193.808 310.808 191.528 309.448 189.232 308.384C187.034 307.322 184.668 306.651 182.24 306.4C178.117 306.013 173.967 306.763 170.24 308.568C167.721 309.755 165.456 311.417 163.568 313.464L162.696 314.448L162.12 315.248L161.76 315.712L161.624 315.864C161.646 315.8 161.678 315.741 161.72 315.688C161.808 315.56 161.92 315.4 162.048 315.2L162.6 314.4L163.448 313.392C165.308 311.275 167.574 309.553 170.112 308.328C171.849 307.458 173.695 306.823 175.6 306.44C177.786 305.974 180.03 305.842 182.256 306.048C184.718 306.289 187.12 306.958 189.352 308.024C191.68 309.104 193.944 310.464 196.344 311.664C198.631 312.918 201.148 313.696 203.744 313.952C206.167 314.044 208.579 313.588 210.8 312.616C215.104 310.856 218.664 308.464 222.112 307.488C225.56 306.512 228.512 306.456 230.424 307.096C231.157 307.318 231.857 307.638 232.504 308.048L232.992 308.4C233.12 308.464 233.176 308.504 233.168 308.512Z" fill="#FAFAFA"/>
<path d="M267.92 278.92C267.451 278.78 266.968 278.689 266.48 278.648C265.143 278.668 263.839 279.067 262.72 279.8C261.24 280.6 259.816 282.136 257.8 283.264C256.741 283.888 255.524 284.193 254.296 284.144C253.002 284.011 251.75 283.614 250.616 282.976C249.44 282.384 248.352 281.72 247.224 281.272C246.142 280.827 245.012 280.51 243.856 280.328C242.812 280.159 241.752 280.103 240.696 280.16C239.772 280.19 238.853 280.31 237.952 280.52C236.642 280.807 235.373 281.259 234.176 281.864C233.32 282.296 232.888 282.592 232.864 282.56C232.84 282.528 232.96 282.464 233.16 282.32C233.459 282.102 233.771 281.904 234.096 281.728C236.113 280.596 238.363 279.942 240.672 279.816C242.96 279.666 245.251 280.035 247.376 280.896C248.544 281.352 249.648 282.016 250.8 282.6C251.885 283.211 253.082 283.598 254.32 283.736C255.473 283.791 256.617 283.513 257.616 282.936C259.568 281.864 261.032 280.376 262.568 279.552C263.741 278.82 265.106 278.453 266.488 278.496C266.862 278.525 267.229 278.612 267.576 278.752C267.697 278.794 267.812 278.85 267.92 278.92Z" fill="#FAFAFA"/>
<path d="M232.736 268C232.552 267.985 232.37 267.953 232.192 267.904C232.016 267.904 231.8 267.808 231.536 267.768L230.64 267.648C228.719 267.485 226.784 267.683 224.936 268.232C222.204 269.078 219.587 270.258 217.144 271.744C214.171 273.646 211.067 275.336 207.856 276.8C206.163 277.527 204.379 278.017 202.552 278.256C200.838 278.465 199.101 278.345 197.432 277.904C195.946 277.469 194.504 276.893 193.128 276.184C191.832 275.544 190.648 274.912 189.544 274.392C187.835 273.499 185.973 272.938 184.056 272.736C183.522 272.704 182.987 272.72 182.456 272.784C182.275 272.802 182.093 272.802 181.912 272.784C182.085 272.722 182.265 272.682 182.448 272.664C182.976 272.57 183.512 272.527 184.048 272.536C186 272.678 187.904 273.208 189.648 274.096C190.776 274.6 191.968 275.216 193.264 275.84C194.624 276.527 196.046 277.081 197.512 277.496C199.136 277.914 200.824 278.023 202.488 277.816C204.279 277.581 206.029 277.099 207.688 276.384C211.128 274.968 214.088 273 216.936 271.392C219.416 269.905 222.074 268.738 224.848 267.92C226.73 267.389 228.698 267.234 230.64 267.464L231.544 267.624C231.808 267.68 232.016 267.752 232.192 267.8C232.38 267.848 232.562 267.915 232.736 268Z" fill="#FAFAFA"/>
<path d="M257.512 243.36C257.248 243.56 256.961 243.727 256.656 243.856C256.088 244.152 255.272 244.568 254.256 245.024C253.033 245.571 251.764 246.01 250.464 246.336C248.86 246.74 247.196 246.853 245.552 246.672C243.808 246.488 242.2 246.12 240.752 245.92C239.453 245.711 238.13 245.686 236.824 245.848C235.623 246.019 234.472 246.444 233.448 247.096C233.448 247.096 233.504 247.016 233.624 246.904C233.814 246.747 234.015 246.602 234.224 246.472C235.013 246.009 235.881 245.697 236.784 245.552C238.11 245.356 239.458 245.356 240.784 245.552C242.288 245.736 243.904 246.096 245.584 246.272C249.016 246.68 252.056 245.584 254.136 244.768C255.184 244.352 256.024 243.968 256.608 243.728C256.896 243.575 257.199 243.452 257.512 243.36Z" fill="#FAFAFA"/>
<path d="M154.072 256.68C153.621 256.494 153.143 256.381 152.656 256.344C151.314 256.372 150.021 256.851 148.984 257.704C148.296 258.192 147.576 258.8 146.72 259.36C145.798 259.958 144.768 260.371 143.688 260.576C141.208 260.928 138.679 260.625 136.352 259.696C133.872 258.8 131.656 257.664 129.528 256.912C128.531 256.559 127.506 256.292 126.464 256.112C125.556 255.953 124.633 255.896 123.712 255.944C122.371 255.988 121.057 256.338 119.872 256.968C119.072 257.432 118.664 257.808 118.64 257.768C118.616 257.728 118.72 257.664 118.904 257.488C119.177 257.235 119.475 257.01 119.792 256.816C120.977 256.116 122.314 255.713 123.688 255.64C124.634 255.575 125.583 255.615 126.52 255.76C127.587 255.933 128.637 256.201 129.656 256.56C131.816 257.296 134.048 258.432 136.496 259.312C138.753 260.216 141.206 260.522 143.616 260.2C144.654 260.018 145.646 259.635 146.536 259.072C147.376 258.544 148.136 257.952 148.816 257.472C149.909 256.607 151.271 256.154 152.664 256.192C153.04 256.215 153.407 256.313 153.744 256.48C153.865 256.526 153.976 256.594 154.072 256.68Z" fill="#FAFAFA"/>
<path d="M199.136 317.96C199.136 317.96 199.232 318.024 199.392 318.176C199.625 318.405 199.836 318.654 200.024 318.92C200.886 320.153 201.369 321.611 201.414 323.115C201.458 324.619 201.061 326.103 200.272 327.384C199.208 329.104 197.392 330.472 196.376 332.448C195.902 333.413 195.761 334.507 195.976 335.56C196.2 336.555 196.549 337.517 197.016 338.424C197.888 340.168 198.696 341.864 198.664 343.432C198.673 344.044 198.543 344.65 198.283 345.204C198.024 345.758 197.643 346.246 197.168 346.632C196.905 346.83 196.606 346.974 196.288 347.056C196.064 347.096 195.952 347.104 195.944 347.056C196.35 346.926 196.731 346.728 197.072 346.472C197.497 346.085 197.833 345.611 198.058 345.082C198.283 344.553 198.391 343.982 198.376 343.408C198.376 341.936 197.576 340.32 196.672 338.568C196.179 337.636 195.81 336.644 195.576 335.616C195.338 334.475 195.488 333.287 196 332.24C196.543 331.251 197.215 330.339 198 329.528C198.712 328.782 199.362 327.979 199.944 327.128C200.875 325.673 201.263 323.937 201.04 322.224C200.903 321.064 200.51 319.949 199.888 318.96C199.44 318.312 199.104 317.984 199.136 317.96Z" fill="#FAFAFA"/>
<path d="M232.672 353.08C232.56 353.004 232.458 352.916 232.368 352.816C232.108 352.535 231.899 352.21 231.752 351.856C231.272 350.507 231.344 349.024 231.952 347.728C232.329 346.827 232.856 345.996 233.512 345.272C234.192 344.472 234.992 343.72 235.808 342.872C236.672 342.043 237.42 341.101 238.032 340.072C238.633 338.945 238.995 337.706 239.096 336.432C239.368 333.8 238.888 331.272 238.76 328.944C238.534 326.867 238.808 324.766 239.56 322.816C240.094 321.508 241.012 320.393 242.192 319.616C242.515 319.412 242.861 319.248 243.224 319.128C243.347 319.079 243.476 319.05 243.608 319.04C243.147 319.241 242.703 319.48 242.28 319.752C241.171 320.559 240.32 321.671 239.832 322.952C239.146 324.867 238.919 326.917 239.168 328.936C239.32 331.232 239.816 333.776 239.544 336.496C239.433 337.824 239.049 339.115 238.416 340.288C237.78 341.365 236.993 342.345 236.08 343.2C234.416 344.8 232.88 346.248 232.224 347.872C231.743 348.683 231.527 349.624 231.607 350.564C231.688 351.504 232.06 352.395 232.672 353.112V353.08Z" fill="#FAFAFA"/>
<path d="M236.8 363.688C236.523 363.91 236.223 364.1 235.904 364.256C234.999 364.714 234.012 364.986 233 365.056C231.399 365.19 229.788 365.01 228.256 364.528C226.238 363.879 224.307 362.987 222.504 361.872C220.354 360.511 218.074 359.37 215.696 358.464C212.912 357.6 209.948 357.498 207.112 358.168C203.977 358.941 200.919 359.999 197.976 361.328C194.799 362.806 191.484 363.969 188.08 364.8C186.332 365.165 184.538 365.265 182.76 365.096C181.026 364.909 179.34 364.411 177.784 363.624C174.728 362.096 172.28 359.88 169.784 358.072C168.588 357.161 167.314 356.358 165.976 355.672L165 355.208C164.672 355.064 164.336 354.96 164.008 354.832C163.358 354.591 162.692 354.393 162.016 354.24C159.541 353.66 156.978 353.555 154.464 353.928C152.389 354.225 150.369 354.829 148.472 355.72C148.048 355.904 147.672 356.144 147.28 356.336C146.911 356.522 146.556 356.733 146.216 356.968C145.888 357.192 145.568 357.392 145.272 357.6L144.472 358.232C144.015 358.587 143.582 358.972 143.176 359.384C142.86 359.665 142.565 359.97 142.296 360.296L141.768 360.88C141.648 361.008 141.584 361.072 141.576 361.064L141.736 360.848L142.232 360.24C142.493 359.904 142.779 359.588 143.088 359.296C143.489 358.875 143.917 358.479 144.368 358.112L145.168 357.448L146.12 356.8C146.461 356.563 146.817 356.347 147.184 356.152C147.568 355.944 147.984 355.704 148.376 355.512C150.275 354.573 152.307 353.928 154.4 353.6C156.948 353.193 159.55 353.282 162.064 353.864C162.754 354.016 163.433 354.214 164.096 354.456C164.44 354.584 164.784 354.688 165.12 354.832L166.112 355.304C167.471 355.989 168.766 356.792 169.984 357.704C172.504 359.52 174.944 361.704 177.936 363.2C179.436 363.962 181.063 364.445 182.736 364.624C184.474 364.792 186.228 364.692 187.936 364.328C191.307 363.523 194.592 362.392 197.744 360.952C200.707 359.6 203.789 358.529 206.952 357.752C209.863 357.077 212.902 357.196 215.752 358.096C218.146 359.023 220.44 360.189 222.6 361.576C224.372 362.699 226.274 363.601 228.264 364.264C229.77 364.755 231.355 364.956 232.936 364.856C233.935 364.794 234.912 364.542 235.816 364.112C236.472 363.888 236.8 363.664 236.8 363.688Z" fill="#FAFAFA"/>
<path d="M192.272 230.248C196.568 230.459 200.779 228.998 204.022 226.172C207.265 223.345 209.287 219.373 209.664 215.088C210.128 209.808 210.464 205.296 210.464 205.296C210.464 205.296 224.064 204.952 225.992 191.616C227.92 178.28 229.6 147.304 229.6 147.304C222.429 143.054 214.254 140.795 205.918 140.761C197.582 140.727 189.389 142.92 182.184 147.112L180 148.384L176.496 212.728C176.376 214.915 176.69 217.105 177.419 219.171C178.148 221.237 179.278 223.138 180.743 224.766C182.209 226.394 183.982 227.716 185.961 228.657C187.939 229.598 190.084 230.139 192.272 230.248Z" fill="#FFBE9D"/>
<path d="M212.384 182.4C212.384 182.248 213.552 182.168 215.44 182.152C215.928 182.152 216.32 182.104 216.384 181.848C216.464 181.368 216.409 180.875 216.224 180.424L215.248 176.496C213.928 170.896 213.088 166.328 213.376 166.264C213.664 166.2 214.976 170.672 216.28 176.256C216.584 177.616 216.88 178.92 217.168 180.2C217.397 180.861 217.397 181.579 217.168 182.24C217.075 182.414 216.942 182.564 216.781 182.677C216.62 182.791 216.435 182.866 216.24 182.896C215.975 182.933 215.705 182.933 215.44 182.896C213.528 182.72 212.376 182.544 212.384 182.4Z" fill="#263238"/>
<path d="M210.544 205.112C204.354 204.432 198.505 201.926 193.744 197.912C193.744 197.912 196.616 208.064 210.096 208.592L210.544 205.112Z" fill="#EB996E"/>
<path d="M229.424 150.696C229.424 150.696 221.024 154.208 210.664 148.296C203.864 144.424 195.816 142.272 193.936 143.576C192.056 144.88 191.288 152.064 184.248 153.784C184.248 153.784 183.968 167.552 178.512 166.76C173.056 165.968 177.664 144.872 177.664 144.872L191.424 139.064L206.2 137.112L219.88 139.816L230.4 143.328L229.424 150.696Z" fill="#263238"/>
<path d="M179.848 162.4C179.632 162.272 171.048 158.496 170.128 167.664C169.208 176.832 178.624 175.84 178.664 175.584C178.704 175.328 179.848 162.4 179.848 162.4Z" fill="#FFBE9D"/>
<path d="M176.2 171.864C176.2 171.864 176.032 171.96 175.752 172.056C175.356 172.184 174.925 172.152 174.552 171.968C173.616 171.52 172.952 169.896 173.072 168.24C173.122 167.453 173.349 166.687 173.736 166C173.85 165.722 174.03 165.476 174.26 165.282C174.489 165.088 174.763 164.953 175.056 164.888C175.245 164.853 175.44 164.887 175.606 164.984C175.772 165.081 175.898 165.234 175.96 165.416C176.056 165.688 175.96 165.864 176.032 165.888C176.104 165.912 176.24 165.752 176.2 165.368C176.175 165.133 176.067 164.915 175.896 164.752C175.663 164.538 175.356 164.423 175.04 164.432C174.656 164.472 174.289 164.609 173.972 164.83C173.656 165.051 173.401 165.349 173.232 165.696C172.765 166.453 172.49 167.313 172.432 168.2C172.304 170.048 173.088 171.872 174.376 172.384C174.614 172.479 174.871 172.519 175.127 172.503C175.383 172.486 175.632 172.413 175.856 172.288C176.16 172.088 176.232 171.888 176.2 171.864Z" fill="#EB996E"/>
<path d="M190.344 145.056C188.553 147.132 186.501 148.969 184.24 150.52C181.943 152.073 179.129 152.668 176.4 152.176C173.736 151.56 171.376 149.256 171.264 146.512C171.152 143.768 173.832 141.112 176.504 141.712C176.049 141.719 175.599 141.617 175.191 141.414C174.783 141.211 174.43 140.914 174.16 140.548C173.891 140.181 173.713 139.755 173.641 139.305C173.57 138.856 173.607 138.396 173.749 137.963C173.891 137.531 174.135 137.139 174.46 136.82C174.784 136.501 175.18 136.264 175.615 136.129C176.05 135.994 176.51 135.965 176.959 136.044C177.407 136.123 177.83 136.308 178.192 136.584C175.864 136.144 175.608 132.456 177.456 130.984C179.304 129.512 182.024 129.832 184.208 130.72C186.392 131.608 188.416 132.984 190.728 133.48C194.352 134.28 198.072 132.752 201.28 130.888C204.488 129.024 207.528 126.752 211.104 125.76C215.488 124.552 220.232 125.44 224.424 127.2C227.972 128.558 231.095 130.836 233.472 133.8C235.736 136.824 236.856 140.84 235.872 144.48C234.888 148.12 231.48 151.144 227.696 151.16C227.696 151.16 219.208 152.008 212.296 146.88C205.384 141.752 190.792 142.4 190.792 142.4L190.344 145.056Z" fill="#263238"/>
<path d="M177.6 134.4C177.6 134.4 177.768 134.576 178.128 134.824C178.488 135.072 179.048 135.416 179.776 135.832C181.869 136.969 184.09 137.853 186.392 138.464C189.819 139.381 193.374 139.719 196.912 139.464C200.912 139.2 205.144 137.864 209.536 136.832C213.928 135.8 218.256 135.232 222.016 136.144C225.776 137.056 228.72 139.28 230.016 141.848C231.082 143.899 231.331 146.277 230.712 148.504C230.425 149.307 230.069 150.083 229.648 150.824C229.648 150.824 229.84 150.688 230.128 150.344C230.525 149.82 230.843 149.24 231.072 148.624C231.473 147.474 231.642 146.256 231.568 145.041C231.494 143.825 231.178 142.636 230.64 141.544C229.312 138.712 226.168 136.224 222.224 135.264C218.28 134.304 213.728 134.784 209.296 135.88C204.864 136.976 200.72 138.28 196.832 138.56C193.385 138.836 189.915 138.566 186.552 137.76C180.752 136.368 177.648 134.184 177.6 134.4Z" fill="#455A64"/>
<path d="M173.44 148.552C173.344 148.6 173.64 149.496 174.632 150.64C175.95 152.124 177.707 153.15 179.647 153.568C181.588 153.987 183.611 153.777 185.424 152.968C186.8 152.344 187.44 151.648 187.368 151.56C187.296 151.472 186.512 151.904 185.176 152.36C183.459 152.93 181.621 153.029 179.852 152.648C178.084 152.267 176.45 151.419 175.12 150.192C174.08 149.216 173.6 148.472 173.44 148.552Z" fill="#455A64"/>
<path d="M176.304 144C176.072 144.112 176.776 145.776 178.552 147C180.328 148.224 182.128 148.304 182.144 148.04C182.16 147.776 180.672 147.288 179.104 146.192C177.536 145.096 176.544 143.872 176.304 144Z" fill="#455A64"/>
<path d="M233.928 156.8C234.048 156.8 234.312 156.376 234.376 155.552C234.444 154.465 234.16 153.384 233.567 152.471C232.973 151.557 232.101 150.859 231.08 150.48C230.28 150.208 229.784 150.264 229.76 150.384C229.68 150.648 231.568 151.184 232.744 153.008C233.92 154.832 233.656 156.8 233.928 156.8Z" fill="#263238"/>
<path d="M238.68 143.664C238.408 143.552 237.4 145.976 235 147.976C232.6 149.976 230.08 150.632 230.152 150.92C230.224 151.208 233.04 150.92 235.64 148.728C238.24 146.536 238.936 143.696 238.68 143.664Z" fill="#455A64"/>
<path d="M224.8 167.624C224.738 168.159 224.468 168.647 224.049 168.985C223.63 169.323 223.096 169.484 222.56 169.432C222.297 169.419 222.039 169.353 221.801 169.239C221.564 169.125 221.352 168.964 221.177 168.766C221.003 168.569 220.87 168.338 220.786 168.089C220.702 167.839 220.668 167.575 220.688 167.312C220.752 166.778 221.022 166.291 221.441 165.953C221.859 165.615 222.393 165.454 222.928 165.504C223.191 165.517 223.449 165.583 223.687 165.697C223.924 165.811 224.136 165.972 224.311 166.17C224.485 166.367 224.618 166.598 224.702 166.847C224.786 167.097 224.82 167.361 224.8 167.624Z" fill="#263238"/>
<path d="M226.4 167.448C226.112 167.68 224.712 166.328 222.512 166.048C220.312 165.768 218.552 166.656 218.344 166.36C218.248 166.224 218.568 165.776 219.336 165.352C220.376 164.819 221.554 164.618 222.712 164.776C223.86 164.917 224.932 165.425 225.768 166.224C226.4 166.832 226.544 167.344 226.4 167.448Z" fill="#263238"/>
<path d="M204.736 164.84C204.674 165.375 204.404 165.863 203.985 166.202C203.566 166.54 203.032 166.7 202.496 166.648C202.233 166.635 201.975 166.569 201.737 166.455C201.5 166.341 201.288 166.18 201.113 165.982C200.939 165.785 200.806 165.554 200.722 165.305C200.638 165.055 200.604 164.791 200.624 164.528C200.69 163.994 200.962 163.506 201.382 163.169C201.801 162.831 202.336 162.67 202.872 162.72C203.135 162.733 203.392 162.799 203.63 162.913C203.867 163.028 204.078 163.188 204.252 163.386C204.426 163.584 204.558 163.814 204.641 164.064C204.724 164.314 204.757 164.578 204.736 164.84Z" fill="#263238"/>
<path d="M206.176 164.8C205.888 165.032 204.48 163.688 202.28 163.4C200.08 163.112 198.32 164.016 198.112 163.712C198.016 163.576 198.336 163.128 199.104 162.712C200.142 162.172 201.322 161.971 202.48 162.136C203.626 162.278 204.697 162.782 205.536 163.576C206.144 164.168 206.312 164.68 206.176 164.8Z" fill="#263238"/>
<path d="M205.328 158.728C204.888 159.112 203.24 157.928 201.008 157.704C198.776 157.48 196.92 158.264 196.576 157.8C196.416 157.576 196.712 157 197.536 156.464C198.643 155.788 199.942 155.496 201.231 155.632C202.521 155.767 203.73 156.324 204.672 157.216C205.36 157.92 205.528 158.544 205.328 158.728Z" fill="#263238"/>
<path d="M226.264 162.4C226.36 162.664 225.976 163.104 225.176 163.448C224.114 163.856 222.964 163.977 221.841 163.8C220.718 163.623 219.661 163.154 218.776 162.44C218.12 161.864 217.896 161.336 218.064 161.112C218.448 160.664 220.088 161.44 222.168 161.736C224.248 162.032 226.04 161.832 226.264 162.4Z" fill="#263238"/>
<path d="M210.696 186.064C210.92 186.064 211.08 186.488 211.056 186.984C211.032 187.48 210.816 187.872 210.584 187.864C210.352 187.856 210.192 187.432 210.224 186.936C210.256 186.44 210.464 186.048 210.696 186.064Z" fill="#263238"/>
<path d="M178.216 179.104C178.195 179.297 178.127 179.481 178.016 179.64C177.736 180.097 177.331 180.463 176.848 180.696C176.491 180.88 176.099 180.987 175.698 181.01C175.297 181.034 174.896 180.973 174.52 180.832C174.055 180.662 173.633 180.391 173.286 180.038C172.939 179.685 172.674 179.26 172.512 178.792C172.345 178.241 172.31 177.658 172.41 177.091C172.51 176.524 172.742 175.989 173.086 175.528C173.431 175.067 173.88 174.694 174.396 174.438C174.912 174.182 175.48 174.051 176.056 174.056C176.25 174.038 176.445 174.068 176.624 174.144C175.945 174.199 175.28 174.367 174.656 174.64C174.005 174.963 173.472 175.484 173.136 176.128C172.933 176.513 172.807 176.935 172.768 177.369C172.728 177.803 172.774 178.24 172.904 178.656C173.049 179.066 173.281 179.441 173.583 179.754C173.885 180.067 174.251 180.312 174.656 180.472C174.986 180.605 175.34 180.671 175.696 180.664C176.052 180.657 176.403 180.578 176.728 180.432C177.337 180.135 177.852 179.675 178.216 179.104Z" fill="#455A64"/>
<path d="M187.064 233.888C187.064 233.888 191.528 227.584 194.336 224.04C197.736 219.752 199.76 216.04 199.76 214.048V203.424C199.76 203.424 203.992 202.424 204.56 207.232C205.128 212.04 204.56 213.248 204.56 213.248C204.56 213.248 222.328 201.248 223.528 202.152C225.648 203.672 221.632 206.872 221.632 206.872L210.808 216.656L216.968 214.704C217.686 214.473 218.467 214.532 219.142 214.87C219.816 215.209 220.331 215.798 220.576 216.512C220.778 217.106 220.781 217.749 220.583 218.344C220.385 218.94 219.998 219.454 219.48 219.808L215.832 222.968L217.664 222.232C218.319 221.967 219.05 221.957 219.712 222.204C220.374 222.452 220.919 222.938 221.24 223.568C221.505 224.083 221.603 224.669 221.52 225.242C221.437 225.816 221.177 226.349 220.776 226.768L217.456 230.312L219.008 229.512C219.246 229.385 219.508 229.306 219.777 229.281C220.046 229.257 220.317 229.285 220.575 229.367C220.833 229.448 221.072 229.58 221.278 229.754C221.484 229.929 221.654 230.143 221.776 230.384C221.98 230.797 222.037 231.268 221.937 231.718C221.836 232.167 221.585 232.569 221.224 232.856L201.336 248.576L187.064 233.888Z" fill="#FFBE9D"/>
<path d="M201.368 248.52L201.12 248.288C200.952 248.112 200.704 247.872 200.392 247.568C199.744 246.904 198.792 245.968 197.568 244.72L186.976 233.984L186.896 233.904L186.96 233.816C188.256 231.965 189.672 229.997 191.208 227.912C191.976 226.845 192.776 225.779 193.608 224.712C194.456 223.624 195.328 222.528 196.144 221.336C196.994 220.136 197.761 218.88 198.44 217.576C199.222 216.265 199.616 214.758 199.576 213.232C199.576 210.08 199.576 206.811 199.576 203.424V203.264H199.72C200.815 203.033 201.957 203.221 202.92 203.792C203.392 204.109 203.788 204.527 204.08 205.016C204.358 205.515 204.555 206.055 204.664 206.616C204.86 207.713 204.981 208.822 205.024 209.936C205.024 210.496 205.024 211.064 205.024 211.632C205.02 212.224 204.928 212.811 204.752 213.376L204.456 213.12C207.2 211.28 210.056 209.416 212.984 207.52C214.448 206.592 215.944 205.664 217.464 204.76C218.996 203.825 220.58 202.978 222.208 202.224C222.431 202.125 222.661 202.042 222.896 201.976C223.021 201.938 223.15 201.914 223.28 201.904C223.362 201.889 223.446 201.889 223.528 201.904C223.612 201.927 223.687 201.975 223.744 202.04C223.96 202.201 224.129 202.416 224.234 202.663C224.34 202.91 224.377 203.181 224.344 203.448C224.129 204.401 223.633 205.268 222.92 205.936C222.272 206.632 221.536 207.2 220.88 207.824L218.848 209.656L210.976 216.8L210.776 216.456L214.384 215.32L216.168 214.76C216.464 214.664 216.744 214.568 217.056 214.48C217.371 214.394 217.698 214.359 218.024 214.376C218.672 214.395 219.297 214.62 219.809 215.019C220.321 215.417 220.693 215.968 220.871 216.591C221.049 217.215 221.025 217.879 220.8 218.487C220.576 219.096 220.164 219.617 219.624 219.976L216 223.104L215.808 222.8L217.6 222.08C218.224 221.823 218.916 221.778 219.568 221.952C220.039 222.077 220.472 222.317 220.828 222.649C221.185 222.981 221.454 223.396 221.612 223.857C221.77 224.318 221.813 224.811 221.735 225.292C221.658 225.773 221.463 226.228 221.168 226.616C220.76 227.096 220.368 227.488 219.968 227.92C219.168 228.76 218.368 229.584 217.64 230.392L217.44 230.136L219.112 229.264C219.408 229.127 219.731 229.058 220.056 229.063C220.382 229.068 220.703 229.145 220.995 229.29C221.287 229.436 221.542 229.644 221.742 229.902C221.943 230.159 222.083 230.458 222.152 230.776C222.218 231.083 222.216 231.4 222.145 231.705C222.075 232.011 221.938 232.297 221.744 232.544C221.55 232.769 221.329 232.97 221.088 233.144L220.424 233.664L219.128 234.688L216.648 236.632L208.424 243.032L203.2 247.136L201.848 248.176C201.544 248.416 201.384 248.52 201.384 248.52L201.848 248.128L203.2 247.04L208.376 242.888L216.504 236.408L218.952 234.456L220.24 233.432L220.896 232.912C221.118 232.756 221.319 232.573 221.496 232.368C221.749 232.037 221.884 231.631 221.88 231.214C221.875 230.797 221.731 230.394 221.47 230.069C221.209 229.744 220.847 229.516 220.442 229.421C220.036 229.325 219.61 229.369 219.232 229.544L217.6 230.4L216.744 230.856L217.408 230.144L219.728 227.664C220.112 227.248 220.528 226.816 220.896 226.392C221.156 226.05 221.328 225.649 221.397 225.225C221.466 224.801 221.43 224.367 221.292 223.96C221.153 223.553 220.917 223.186 220.604 222.892C220.291 222.598 219.911 222.385 219.496 222.272C218.92 222.119 218.31 222.161 217.76 222.392L215.968 223.112L214.952 223.528L215.752 222.8L219.392 219.64C219.857 219.324 220.211 218.868 220.403 218.339C220.594 217.81 220.614 217.234 220.458 216.693C220.303 216.152 219.981 215.674 219.538 215.327C219.096 214.98 218.554 214.781 217.992 214.76C217.4 214.77 216.816 214.895 216.272 215.128L214.488 215.696L210.88 216.84L210 217.12L210.688 216.496L218.584 209.352L220.616 207.512C221.288 206.88 222.008 206.32 222.624 205.664C223.271 205.058 223.727 204.277 223.936 203.416C223.966 203.217 223.939 203.014 223.86 202.829C223.781 202.644 223.652 202.484 223.488 202.368C223.44 202.248 223.232 202.32 223.016 202.368C222.798 202.432 222.584 202.51 222.376 202.6C220.765 203.343 219.199 204.182 217.688 205.112C216.168 206.016 214.68 206.936 213.208 207.864C210.272 209.712 207.432 211.568 204.688 213.408L204.184 213.744L204.4 213.144C204.549 212.623 204.627 212.085 204.632 211.544C204.66 210.99 204.66 210.434 204.632 209.88C204.588 208.788 204.473 207.701 204.288 206.624C204.181 206.113 204 205.62 203.752 205.16C203.487 204.725 203.133 204.351 202.712 204.064C201.835 203.547 200.798 203.373 199.8 203.576L199.952 203.392C199.952 206.773 199.952 210.043 199.952 213.2C199.952 213.6 199.952 214 199.952 214.4C199.904 214.797 199.818 215.188 199.696 215.568C199.452 216.303 199.15 217.017 198.792 217.704C198.103 219.021 197.322 220.288 196.456 221.496C195.656 222.688 194.744 223.8 193.904 224.872C193.064 225.944 192.264 227.016 191.504 228.072C189.968 230.152 188.544 232.12 187.232 233.952V233.784L197.6 244.584L200.392 247.488L201.12 248.248L201.368 248.52Z" fill="#EB996E"/>
<path d="M201.368 248.52L146.864 320.52C138.584 331.44 123.664 335.44 111.288 329.512C102.232 325.176 95.592 316.072 101.144 297.336L153.36 261.6L185.104 230.968L201.368 248.52Z" fill="#234F5B"/>
<path d="M111.288 329.48L111.872 329.776L113.584 330.68C115.839 331.695 118.244 332.34 120.704 332.592C122.484 332.753 124.275 332.721 126.048 332.496C127.059 332.37 128.063 332.191 129.056 331.96C129.576 331.848 130.088 331.672 130.656 331.528C131.198 331.384 131.733 331.21 132.256 331.008C134.557 330.199 136.756 329.125 138.808 327.808C141.131 326.36 143.205 324.547 144.952 322.44C148.672 318.04 152.52 313.016 156.68 307.656C160.84 302.296 165.16 296.48 169.768 290.4C178.968 278.224 189.024 264.8 199.528 250.656L201.2 248.408V248.672L184.936 231.072H185.216C174.104 240.248 163.816 249 154.496 256.8C145.176 264.6 136.832 271.464 129.776 277.048C122.72 282.632 116.976 286.992 112.976 289.912C110.984 291.392 109.416 292.48 108.368 293.24L107.168 294.088L106.752 294.36L107.144 294.056L108.328 293.176C109.36 292.376 110.912 291.288 112.888 289.8C116.888 286.84 122.568 282.464 129.6 276.848C136.632 271.232 144.96 264.36 154.264 256.528C163.568 248.696 173.84 239.944 184.944 230.76L185.096 230.64L185.224 230.776L201.496 248.376L201.616 248.504L201.512 248.648L199.84 250.904C189.328 265.032 179.264 278.464 170.048 290.624C165.432 296.704 161.048 302.48 156.888 307.84C152.728 313.2 148.888 318.24 145.112 322.608C143.34 324.73 141.239 326.553 138.888 328.008C136.816 329.33 134.595 330.404 132.272 331.208C131.748 331.41 131.214 331.584 130.672 331.728C130.136 331.872 129.616 332.04 129.072 332.16C128.072 332.388 127.059 332.558 126.04 332.672C124.253 332.896 122.447 332.917 120.656 332.736C118.181 332.466 115.768 331.79 113.512 330.736C112.76 330.336 112.2 330.008 111.824 329.8C111.448 329.592 111.288 329.48 111.288 329.48Z" fill="#263238"/>
<path d="M152.616 310.728C152.008 310.32 151.372 309.956 150.712 309.64C148.855 308.887 146.834 308.631 144.848 308.896C143.477 309.045 142.124 309.329 140.808 309.744C139.384 310.176 137.904 310.784 136.336 311.4C134.702 312.078 133.03 312.66 131.328 313.144C129.482 313.676 127.554 313.866 125.64 313.704C123.741 313.463 121.887 312.948 120.136 312.176C118.432 311.472 116.856 310.664 115.336 309.976C112.304 308.56 109.352 307.648 106.824 307.784C104.821 307.835 102.889 308.537 101.32 309.784C100.772 310.255 100.286 310.792 99.872 311.384C99.9416 311.205 100.03 311.033 100.136 310.872C100.443 310.413 100.806 309.994 101.216 309.624C102.784 308.289 104.758 307.525 106.816 307.456C109.416 307.264 112.416 308.184 115.496 309.584C117.04 310.272 118.624 311.064 120.296 311.76C122.013 312.51 123.829 313.011 125.688 313.248C127.551 313.407 129.427 313.225 131.224 312.712C132.914 312.236 134.575 311.664 136.2 311C137.8 310.392 139.256 309.792 140.712 309.4C142.052 308.995 143.43 308.727 144.824 308.6C146.851 308.354 148.907 308.658 150.776 309.48C151.456 309.788 152.078 310.21 152.616 310.728Z" fill="#FAFAFA"/>
<path d="M171.88 286.6C172.063 286.149 172.134 285.661 172.088 285.176C171.961 284.528 171.675 283.921 171.256 283.41C170.838 282.899 170.299 282.5 169.688 282.248C168.836 281.889 167.948 281.62 167.04 281.448C165.974 281.236 164.935 280.903 163.944 280.456C161.733 279.306 159.755 277.754 158.112 275.88C156.312 273.968 154.712 272.064 153 270.592C151.531 269.249 149.782 268.249 147.88 267.664C146.585 267.269 145.217 267.176 143.88 267.392C142.944 267.56 142.464 267.792 142.448 267.752C142.432 267.712 142.56 267.68 142.792 267.576C143.131 267.426 143.485 267.31 143.848 267.232C145.2 266.954 146.6 267.006 147.928 267.384C149.894 267.939 151.706 268.938 153.224 270.304C155.042 271.971 156.765 273.739 158.384 275.6C159.995 277.434 161.925 278.96 164.08 280.104C166.08 281.096 168.208 281.176 169.784 281.984C170.428 282.268 170.99 282.71 171.417 283.269C171.843 283.829 172.121 284.488 172.224 285.184C172.265 285.563 172.207 285.946 172.056 286.296C172.016 286.407 171.957 286.51 171.88 286.6Z" fill="#FAFAFA"/>
<path d="M324.968 97.064L322.568 97.216L317.856 104.816L318.168 109.568C318.168 109.568 314.504 110.04 314.52 103.784C314.536 97.528 314.176 99.144 314.176 99.144C314.176 99.144 306.352 99.632 305.656 98.992C305.152 98.536 304.424 90.776 304.056 86.568C303.939 85.556 304.163 84.5339 304.694 83.6642C305.225 82.7944 306.031 82.127 306.984 81.768C307.243 81.6795 307.511 81.6231 307.784 81.6C309.736 81.472 319.784 82.4 319.784 82.4L323.896 82.128L324.968 97.064Z" fill="#455A64"/>
<path d="M331.88 97.912L329.328 81.712L325.248 81.984L326.312 97.952L331.88 97.912Z" fill="#455A64"/>
<path d="M269.16 111.616C269.276 111.625 269.389 111.652 269.496 111.696C269.635 111.734 269.769 111.788 269.896 111.856C270.078 111.929 270.252 112.02 270.416 112.128C271.322 112.693 272.06 113.491 272.554 114.437C273.047 115.384 273.279 116.446 273.224 117.512C273.147 118.525 272.781 119.494 272.168 120.304C271.488 121.192 270.582 121.88 269.544 122.296C268.426 122.756 267.191 122.851 266.016 122.568C264.855 122.237 263.829 121.545 263.088 120.592C262.383 119.721 261.934 118.671 261.792 117.56C261.655 116.555 261.813 115.532 262.248 114.616C262.727 113.66 263.452 112.85 264.35 112.269C265.247 111.688 266.284 111.357 267.352 111.312C267.546 111.295 267.742 111.295 267.936 111.312C268.079 111.317 268.221 111.339 268.36 111.376C268.477 111.389 268.59 111.421 268.696 111.472C268.696 111.52 268.216 111.392 267.36 111.472C266.152 111.582 265.005 112.056 264.072 112.832C263.434 113.357 262.918 114.015 262.56 114.76C262.169 115.621 262.033 116.576 262.168 117.512C262.274 118.598 262.709 119.625 263.416 120.457C264.123 121.288 265.067 121.883 266.122 122.161C267.176 122.44 268.291 122.389 269.316 122.016C270.341 121.642 271.228 120.964 271.856 120.072C272.442 119.329 272.798 118.431 272.88 117.488C272.935 116.671 272.812 115.852 272.52 115.088C272.092 113.953 271.327 112.976 270.328 112.288C269.6 111.784 269.144 111.656 269.16 111.616Z" fill="#263238"/>
<path d="M252.504 125.864C252.791 125.895 253.066 125.997 253.304 126.16C253.885 126.516 254.361 127.021 254.68 127.624C255 128.226 255.151 128.903 255.12 129.584C255.075 130.234 254.841 130.857 254.448 131.376C254.019 131.993 253.41 132.463 252.704 132.722C251.999 132.981 251.231 133.017 250.504 132.825C249.777 132.633 249.128 132.222 248.642 131.648C248.157 131.074 247.86 130.364 247.792 129.616C247.706 128.971 247.809 128.316 248.088 127.728C248.338 127.227 248.699 126.789 249.144 126.448C249.772 125.94 250.552 125.659 251.36 125.648C251.65 125.624 251.942 125.674 252.208 125.792C252.208 125.792 251.896 125.792 251.408 125.792C250.656 125.868 249.945 126.169 249.368 126.656C248.94 126.997 248.608 127.443 248.405 127.95C248.201 128.458 248.133 129.01 248.208 129.552C248.269 130.224 248.535 130.86 248.97 131.376C249.404 131.892 249.986 132.262 250.638 132.436C251.289 132.611 251.979 132.581 252.613 132.352C253.247 132.122 253.795 131.703 254.184 131.152C254.515 130.717 254.727 130.204 254.8 129.663C254.873 129.122 254.804 128.571 254.6 128.064C254.342 127.354 253.873 126.74 253.256 126.304C252.8 125.992 252.488 125.904 252.504 125.864Z" fill="#263238"/>
<path d="M276.752 87.2C276.752 87.2 276.752 86.976 276.848 86.536L277.16 84.584L277.4 83.144C277.512 82.616 277.688 82.056 277.848 81.44L278.4 79.44C278.496 79.0724 278.616 78.7116 278.76 78.36L279.2 77.24C280.603 73.4695 282.578 69.9375 285.056 66.768C288.305 62.5309 292.345 58.9638 296.952 56.264L298.904 55.144C299.576 54.808 300.288 54.512 300.984 54.184C301.68 53.856 302.392 53.496 303.144 53.256L305.416 52.456L306.568 52.072L307.768 51.784L310.168 51.216C310.968 51.048 311.84 50.976 312.688 50.856C313.537 50.7088 314.395 50.6179 315.256 50.584C317.024 50.4601 318.799 50.4601 320.568 50.584C321.464 50.656 322.368 50.68 323.28 50.8L326 51.272C326.456 51.36 326.92 51.408 327.368 51.528L328.728 51.904C329.632 52.168 330.552 52.384 331.456 52.704C333.286 53.3593 335.071 54.1343 336.8 55.024L338.112 55.688C338.336 55.808 338.56 55.912 338.776 56.032L339.4 56.432L341.92 58.032C342.72 58.608 343.52 59.264 344.32 59.88C344.712 60.2 345.12 60.488 345.504 60.848L346.616 61.904C348.117 63.3328 349.525 64.8559 350.832 66.464C351.432 67.32 352.04 68.176 352.656 69.04L353.112 69.688L353.512 70.376L354.312 71.76L355.112 73.144L355.784 74.608L356.448 76.088L356.784 76.824C356.88 77.072 356.96 77.336 357.048 77.624L358.104 80.712C358.352 81.776 358.6 82.848 358.856 83.912C360.666 92.7426 359.542 101.923 355.656 110.056L354.16 112.984L352.392 115.736L351.952 116.416L351.448 117.056L350.448 118.328L349.448 119.584L348.336 120.744L347.232 121.896L346.68 122.472L346.08 122.992L343.68 125.048C342.032 126.303 340.3 127.444 338.496 128.464L337.16 129.264C336.72 129.52 336.24 129.696 335.784 129.912C334.856 130.32 333.944 130.768 333.016 131.136L330.184 132.096L329.48 132.336L328.76 132.512L327.32 132.848C325.436 133.284 323.525 133.597 321.6 133.784C320.648 133.864 319.696 133.856 318.76 133.888L317.352 133.936C316.888 133.936 316.424 133.88 315.96 133.848L313.2 133.656C312.296 133.552 311.408 133.36 310.52 133.216C308.773 132.916 307.049 132.497 305.36 131.96C304.542 131.719 303.74 131.425 302.96 131.08C302.16 130.76 301.36 130.488 300.6 130.128L298.4 128.952L297.312 128.384L296.28 127.736L294.224 126.4C293.544 125.984 292.968 125.448 292.352 124.984C291.736 124.52 291.136 124.04 290.56 123.552L288.96 121.992C285.134 118.267 282.067 113.836 279.928 108.944C278.279 105.273 277.2 101.372 276.728 97.376C276.672 96.96 276.624 96.576 276.576 96.176C276.513 95.8033 276.481 95.426 276.48 95.048C276.48 94.32 276.48 93.632 276.432 92.992C276.384 92.352 276.384 91.776 276.432 91.24C276.48 90.704 276.512 90.216 276.544 89.784C276.616 88.928 276.672 88.272 276.704 87.816C276.736 87.36 276.776 87.144 276.776 87.144C276.776 87.144 276.776 87.376 276.776 87.816C276.776 88.256 276.712 88.928 276.664 89.792C276.664 90.224 276.6 90.704 276.568 91.24C276.536 91.776 276.568 92.36 276.616 92.992C276.664 93.624 276.664 94.312 276.688 95.04C276.692 95.4156 276.726 95.7902 276.792 96.16C276.84 96.552 276.896 96.96 276.952 97.352C277.431 101.326 278.51 105.205 280.152 108.856C282.299 113.706 285.363 118.096 289.176 121.784L290.776 123.32C291.352 123.808 291.96 124.264 292.568 124.744C293.176 125.224 293.752 125.736 294.424 126.144L296.432 127.424L297.456 128.072L298.544 128.624L300.752 129.752C301.504 130.104 302.304 130.376 303.088 130.696C303.871 131.03 304.672 131.318 305.488 131.56C307.164 132.088 308.875 132.5 310.608 132.792C311.488 132.928 312.368 133.128 313.264 133.224L316 133.416C316.456 133.416 316.92 133.496 317.384 133.496L318.776 133.448C319.712 133.448 320.648 133.448 321.592 133.336C323.498 133.149 325.391 132.836 327.256 132.4L328.68 132.064C328.92 132.008 329.16 131.96 329.392 131.896L330.088 131.656L332.896 130.696C333.824 130.336 334.72 129.896 335.64 129.488C336.088 129.264 336.568 129.096 337.008 128.84L338.32 128.04C340.106 127.026 341.822 125.892 343.456 124.648L345.856 122.608L346.448 122.096L347 121.528L348.088 120.384L349.184 119.24L350.176 117.992L351.168 116.728L351.664 116.104L352.104 115.424L353.848 112.704C354.336 111.736 354.832 110.768 355.328 109.8C357.189 105.78 358.435 101.503 359.024 97.112C359.506 92.7096 359.323 88.2598 358.48 83.912C358.232 82.856 357.984 81.792 357.736 80.712C357.488 79.632 357.04 78.664 356.696 77.648C356.608 77.392 356.528 77.136 356.432 76.848L356.104 76.112L355.44 74.656L354.784 73.208L353.984 71.832L353.184 70.456L352.784 69.776L352.328 69.136L350.528 66.584C349.235 64.9891 347.84 63.4793 346.352 62.064L345.256 61.016C344.896 60.664 344.456 60.376 344.088 60.056C343.288 59.448 342.528 58.8 341.688 58.224L339.2 56.8L338.576 56.4C338.368 56.28 338.144 56.176 337.928 56.064L336.632 55.392C334.923 54.5232 333.159 53.767 331.352 53.128C330.456 52.824 329.544 52.6 328.648 52.328L327.304 51.952C326.856 51.832 326.392 51.776 325.944 51.696L323.256 51.2C322.36 51.072 321.456 51.056 320.568 50.976C318.815 50.8562 317.057 50.8562 315.304 50.976C314.449 51.0112 313.596 51.0994 312.752 51.24C311.912 51.36 311.072 51.424 310.256 51.592L307.856 52.152L306.664 52.432C306.28 52.544 305.904 52.688 305.52 52.808L303.264 53.608C302.512 53.84 301.832 54.224 301.12 54.52C300.408 54.816 299.72 55.136 299.048 55.472L297.112 56.576C292.528 59.2508 288.5 62.7814 285.248 66.976C282.77 70.1245 280.785 73.6312 279.36 77.376L278.912 78.496C278.766 78.8421 278.643 79.1975 278.544 79.56C278.344 80.264 278.16 80.92 277.984 81.528C277.808 82.136 277.64 82.696 277.52 83.224C277.4 83.752 277.336 84.224 277.264 84.656C277.104 85.456 276.984 86.144 276.904 86.592C276.824 87.04 276.752 87.2 276.752 87.2Z" fill="#263238"/>
<path d="M151.112 100.864C151.112 100.912 150.632 100.976 149.864 101.36C148.792 101.925 147.918 102.804 147.36 103.88C146.966 104.622 146.742 105.441 146.704 106.28C146.674 107.225 146.919 108.159 147.408 108.968C147.922 109.931 148.718 110.713 149.691 111.209C150.663 111.705 151.764 111.892 152.845 111.742C153.926 111.593 154.936 111.116 155.737 110.376C156.539 109.635 157.094 108.666 157.328 107.6C157.577 106.689 157.561 105.726 157.28 104.824C157.013 104.041 156.579 103.326 156.008 102.728C155.179 101.844 154.098 101.235 152.912 100.984C152.112 100.816 151.584 100.888 151.584 100.84C151.695 100.802 151.811 100.783 151.928 100.784C152.072 100.767 152.216 100.767 152.36 100.784C152.556 100.782 152.751 100.798 152.944 100.832C154.191 101.03 155.341 101.625 156.224 102.528C156.842 103.15 157.314 103.902 157.608 104.728C157.929 105.689 157.963 106.724 157.704 107.704C157.427 108.788 156.853 109.774 156.048 110.552C155.2 111.41 154.097 111.971 152.904 112.152C151.702 112.294 150.486 112.05 149.432 111.456C148.448 110.924 147.631 110.129 147.072 109.16C146.562 108.286 146.314 107.283 146.36 106.272C146.434 105.206 146.792 104.18 147.395 103.298C147.998 102.416 148.826 101.711 149.792 101.256C149.97 101.172 150.155 101.103 150.344 101.048C150.479 100.999 150.618 100.964 150.76 100.944C150.872 100.897 150.991 100.87 151.112 100.864Z" fill="#263238"/>
<path d="M166.296 113.784C166.296 113.784 166 113.872 165.496 114.12C164.833 114.487 164.296 115.045 163.952 115.72C163.688 116.199 163.553 116.739 163.562 117.286C163.57 117.834 163.721 118.369 164 118.84C164.317 119.433 164.808 119.915 165.408 120.22C166.007 120.525 166.685 120.639 167.352 120.547C168.018 120.455 168.64 120.16 169.133 119.703C169.627 119.246 169.968 118.649 170.112 117.992C170.254 117.464 170.254 116.909 170.114 116.381C169.973 115.853 169.697 115.372 169.312 114.984C168.801 114.43 168.135 114.042 167.4 113.872C166.872 113.76 166.6 113.792 166.6 113.76C166.876 113.666 167.172 113.65 167.456 113.712C168.13 113.815 168.765 114.098 169.291 114.532C169.818 114.966 170.218 115.534 170.448 116.176C170.657 116.793 170.682 117.457 170.52 118.088C170.363 118.824 169.983 119.494 169.431 120.006C168.88 120.519 168.184 120.849 167.439 120.952C166.693 121.055 165.934 120.926 165.264 120.583C164.595 120.239 164.047 119.698 163.696 119.032C163.367 118.468 163.211 117.82 163.248 117.168C163.295 116.486 163.525 115.829 163.914 115.266C164.302 114.703 164.835 114.255 165.456 113.968C165.715 113.833 166.005 113.77 166.296 113.784Z" fill="#263238"/>
<path d="M107.264 69.872H104.68L99.08 62.008V56.856C99.08 56.856 95.08 56.608 95.552 63.36C96.024 70.112 95.512 68.392 95.512 68.392C95.512 68.392 87.032 68.392 86.328 69.192C85.816 69.728 85.584 78.152 85.528 82.72C85.473 83.8225 85.788 84.9117 86.4228 85.8146C87.0576 86.7176 87.976 87.3826 89.032 87.704C89.3296 87.7827 89.6361 87.823 89.944 87.824C92.064 87.824 102.864 86.104 102.864 86.104H107.328L107.264 69.872Z" fill="#234F5B"/>
<path d="M114.664 68.456L113.072 86.12H108.648V68.808L114.664 68.456Z" fill="#234F5B"/>
<path d="M146.528 72.32C146.528 72.32 146.528 72.08 146.464 71.6C146.4 71.12 146.392 70.392 146.336 69.464C146.336 68.992 146.28 68.472 146.248 67.864C146.216 67.256 146.072 66.664 145.968 65.984C145.864 65.304 145.752 64.576 145.624 63.792C145.572 63.3883 145.486 62.9896 145.368 62.6C145.264 62.192 145.152 61.8 145.04 61.344C143.998 57.1404 142.326 53.1188 140.08 49.416C137.135 44.4884 133.27 40.1728 128.696 36.704L126.76 35.264C126.08 34.816 125.36 34.408 124.656 33.968L123.584 33.32C123.229 33.0868 122.858 32.8809 122.472 32.704L120.152 31.592C119.76 31.408 119.352 31.208 118.968 31.032L117.728 30.576L115.2 29.688C114.344 29.408 113.448 29.224 112.568 28.984L111.2 28.64C110.976 28.584 110.752 28.52 110.52 28.472L109.832 28.368C107.964 28.0222 106.074 27.803 104.176 27.712C103.208 27.712 102.24 27.584 101.256 27.6L98.296 27.752C97.8 27.752 97.304 27.752 96.8 27.848L95.312 28.08C94.32 28.24 93.304 28.36 92.304 28.568C90.3005 29.0218 88.3284 29.6043 86.4 30.312L84.92 30.856C84.672 30.952 84.416 31.032 84.176 31.136L83.456 31.48L80.568 32.88C79.624 33.392 78.72 33.984 77.784 34.544C77.328 34.832 76.84 35.08 76.4 35.416L75.056 36.4C73.2679 37.7218 71.5707 39.1624 69.976 40.712L67.704 43.2L67.136 43.824C66.96 44.048 66.792 44.28 66.624 44.504L65.6 45.896L64.568 47.272L63.664 48.736L62.768 50.224L62.32 50.96C62.184 51.216 62.064 51.488 61.936 51.76L60.416 54.912C60.016 56.016 59.616 57.12 59.2 58.224C57.7307 62.7809 56.954 67.5325 56.896 72.32C56.9569 77.102 57.7335 81.848 59.2 86.4L60.416 89.712L61.928 92.864L62.312 93.664L62.768 94.408L63.664 95.888L64.568 97.36L65.6 98.752L66.624 100.12L67.136 100.8L67.712 101.432L69.984 103.936C71.5778 105.484 73.2721 106.924 75.056 108.248L76.376 109.232C76.808 109.56 77.304 109.816 77.76 110.104C78.696 110.664 79.6 111.256 80.544 111.768L83.432 113.16L84.152 113.512L84.896 113.792L86.376 114.336C88.3253 115.046 90.3189 115.629 92.344 116.08C93.344 116.288 94.36 116.408 95.352 116.568L96.848 116.8C97.344 116.864 97.84 116.864 98.336 116.896L101.304 117.048C102.28 117.048 103.256 116.968 104.216 116.936C106.114 116.845 108.004 116.626 109.872 116.28L110.568 116.176L111.2 116L112.544 115.656C113.432 115.416 114.328 115.232 115.176 114.944L117.696 114.032L118.936 113.576L120.12 113.016L122.44 111.904C122.824 111.724 123.196 111.518 123.552 111.288L124.624 110.64C125.336 110.2 126.048 109.792 126.728 109.344L128.664 107.904C133.251 104.443 137.127 100.129 140.08 95.2C140.408 94.656 140.736 94.136 141.04 93.6C141.344 93.064 141.568 92.512 141.84 92L142.592 90.44C142.712 90.184 142.848 89.936 142.952 89.64L143.24 88.84C143.616 87.824 143.968 86.848 144.312 85.92C144.656 84.992 144.816 84.064 145.056 83.208C145.168 82.776 145.28 82.36 145.384 81.952C145.486 81.5743 145.558 81.1891 145.6 80.8C145.728 80 145.84 79.296 145.944 78.616C146.048 77.936 146.168 77.312 146.224 76.736C146.28 76.16 146.288 75.64 146.312 75.136C146.368 74.208 146.416 73.536 146.44 73C146.464 72.464 146.504 72.272 146.504 72.272C146.504 72.272 146.504 72.52 146.504 73C146.504 73.48 146.456 74.208 146.416 75.144C146.416 75.608 146.368 76.136 146.344 76.744C146.32 77.352 146.176 77.944 146.088 78.624C146 79.304 145.872 80.04 145.76 80.824C145.707 81.2295 145.624 81.6306 145.512 82.024C145.408 82.432 145.304 82.824 145.192 83.288C144.96 84.144 144.776 85.08 144.464 86.016C144.152 86.952 143.768 87.928 143.4 88.952L143.112 89.752C143.016 90.008 142.88 90.256 142.76 90.552C142.52 91.064 142.264 91.584 142.008 92.152C141.752 92.72 141.496 93.224 141.208 93.752C140.92 94.28 140.568 94.816 140.248 95.352C137.307 100.313 133.436 104.659 128.848 108.152L126.936 109.6C126.248 110.056 125.528 110.464 124.816 110.912L123.736 111.568C123.381 111.801 123.01 112.007 122.624 112.184L120.288 113.32C119.888 113.504 119.488 113.704 119.096 113.88L117.848 114.344L115.312 115.272C114.448 115.56 113.552 115.744 112.656 115.992L111.304 116.344C111.08 116.4 110.856 116.464 110.624 116.512L109.928 116.616C108.047 116.971 106.144 117.196 104.232 117.288C103.256 117.288 102.28 117.424 101.288 117.408L98.304 117.264C97.808 117.224 97.296 117.264 96.8 117.168L95.296 116.936C94.288 116.776 93.272 116.656 92.256 116.448C90.2141 115.998 88.2043 115.413 86.24 114.696L84.744 114.144C84.496 114.056 84.24 113.968 83.992 113.864L83.264 113.52L80.352 112.112C79.4 111.6 78.48 111 77.536 110.44C77.08 110.144 76.584 109.896 76.144 109.56L74.816 108.568C73.01 107.235 71.2967 105.781 69.688 104.216L67.392 101.696L66.816 101.064L66.296 100.376L65.264 98.992L64.224 97.6L63.312 96.12L62.4 94.624L61.944 93.872L61.56 93.072L60.024 89.872L58.8 86.528C57.3193 81.935 56.5372 77.1455 56.48 72.32C56.5366 67.4834 57.3214 62.6829 58.808 58.08C59.216 56.96 59.608 55.848 60.032 54.736C60.456 53.624 61.064 52.608 61.568 51.536C61.696 51.28 61.816 51.008 61.952 50.736L62.408 49.984L63.32 48.488L64.232 47.008L65.264 45.616L66.304 44.24C66.472 44.008 66.64 43.776 66.824 43.552L67.4 42.92L69.696 40.392C71.3059 38.8336 73.0162 37.3825 74.816 36.048L76.144 35.056C76.584 34.72 77.08 34.472 77.544 34.176C78.488 33.616 79.4 33.016 80.352 32.504L83.272 31.096L83.992 30.752C84.24 30.648 84.496 30.56 84.744 30.472L86.24 29.92C88.2043 29.2034 90.2141 28.6181 92.256 28.168C93.264 27.96 94.288 27.84 95.296 27.68L96.8 27.448C97.296 27.384 97.8 27.392 98.304 27.352L101.288 27.208C102.272 27.208 103.256 27.288 104.224 27.328C106.139 27.4199 108.044 27.6444 109.928 28L110.624 28.104C110.856 28.152 111.08 28.216 111.304 28.272L112.656 28.624C113.544 28.864 114.448 29.056 115.312 29.344L117.848 30.272L119.096 30.728L120.28 31.296L122.624 32.424C123.008 32.6067 123.38 32.8152 123.736 33.048L124.816 33.704C125.528 34.144 126.248 34.56 126.928 35.008L128.872 36.472C133.463 39.9644 137.337 44.3107 140.28 49.272C142.521 52.9984 144.18 57.045 145.2 61.272C145.312 61.704 145.416 62.128 145.52 62.536C145.632 62.9295 145.715 63.3305 145.768 63.736C145.88 64.536 145.992 65.256 146.096 65.936C146.2 66.616 146.304 67.24 146.352 67.816C146.4 68.392 146.4 68.92 146.424 69.416C146.464 70.352 146.488 71.064 146.512 71.552C146.536 72.04 146.528 72.32 146.528 72.32Z" fill="#263238"/>
<path d="M218.352 87.928C218.194 87.9239 218.039 87.8887 217.895 87.8245C217.751 87.7604 217.621 87.6685 217.513 87.554C217.404 87.4396 217.319 87.305 217.263 87.1577C217.207 87.0105 217.18 86.8536 217.184 86.696L217.424 76C217.428 75.815 217.474 75.6333 217.561 75.4695C217.647 75.3056 217.77 75.1641 217.92 75.056C218.071 74.9489 218.245 74.878 218.428 74.8488C218.612 74.8197 218.799 74.8331 218.976 74.888C219.975 75.1785 221.022 75.2616 222.054 75.1323C223.086 75.003 224.08 74.6639 224.976 74.136C225.808 73.6811 226.539 73.0613 227.124 72.3144C227.708 71.5675 228.134 70.7092 228.376 69.792C228.566 68.8601 228.566 67.8996 228.376 66.9677C228.186 66.0358 227.811 65.1516 227.272 64.368C226.721 63.4893 225.999 62.731 225.148 62.1385C224.297 61.5459 223.335 61.1315 222.32 60.92C218.392 60.192 214.088 62.808 212.72 66.76C212.614 67.0613 212.392 67.3081 212.104 67.4461C211.816 67.5842 211.485 67.6021 211.184 67.496C210.883 67.3899 210.636 67.1685 210.498 66.8805C210.36 66.5924 210.342 66.2613 210.448 65.96C212.192 60.936 217.712 57.608 222.76 58.544C224.093 58.8166 225.358 59.3552 226.478 60.1277C227.598 60.9002 228.551 61.8908 229.28 63.04C230.025 64.082 230.539 65.2714 230.786 66.5283C231.033 67.7852 231.009 69.0805 230.714 70.3271C230.419 71.5737 229.861 72.7428 229.077 73.7558C228.293 74.7688 227.301 75.6022 226.168 76.2C224.235 77.3234 221.986 77.7788 219.768 77.496L219.536 86.728C219.536 87.0435 219.412 87.3464 219.19 87.5709C218.969 87.7955 218.667 87.9238 218.352 87.928Z" fill="#263238"/>
<path d="M220.208 93.208C220.208 93.5565 220.105 93.897 219.911 94.1866C219.717 94.4762 219.442 94.7018 219.12 94.8348C218.798 94.9678 218.443 95.0022 218.102 94.9336C217.76 94.865 217.446 94.6966 217.201 94.4497C216.955 94.2027 216.788 93.8884 216.721 93.5464C216.654 93.2045 216.69 92.8504 216.824 92.5289C216.959 92.2075 217.186 91.9332 217.476 91.7407C217.766 91.5483 218.108 91.4464 218.456 91.448C218.687 91.448 218.915 91.4936 219.128 91.5821C219.341 91.6707 219.535 91.8005 219.698 91.964C219.86 92.1275 219.989 92.3216 220.077 92.5351C220.164 92.7486 220.209 92.9773 220.208 93.208Z" fill="#263238"/>
<path d="M87.04 211.056C85.2446 211.075 83.4911 210.513 82.04 209.456C81.1915 208.797 80.4834 207.974 79.9572 207.037C79.431 206.1 79.0974 205.068 78.976 204C78.8191 202.993 78.878 201.964 79.1486 200.981C79.4193 199.998 79.8956 199.084 80.546 198.299C81.1964 197.514 82.006 196.876 82.9214 196.427C83.8368 195.978 84.8371 195.729 85.856 195.696C87.5197 195.589 89.1761 195.997 90.6 196.864L93.8 190.872C93.8735 190.732 93.9739 190.608 94.0953 190.507C94.2167 190.406 94.3568 190.33 94.5076 190.284C94.6584 190.237 94.817 190.22 94.9742 190.235C95.1314 190.249 95.2843 190.294 95.424 190.368C95.5637 190.442 95.6876 190.542 95.7885 190.663C95.8895 190.785 95.9655 190.925 96.0123 191.076C96.0591 191.226 96.0758 191.385 96.0613 191.542C96.0468 191.699 96.0015 191.852 95.928 191.992L92.064 199.2C91.976 199.364 91.8517 199.505 91.7005 199.613C91.5493 199.721 91.3754 199.794 91.192 199.824C91.0094 199.855 90.822 199.842 90.6454 199.787C90.4687 199.731 90.3078 199.634 90.176 199.504C89.6146 198.992 88.9548 198.599 88.2369 198.351C87.519 198.102 86.7579 198.001 86 198.056C85.3115 198.083 84.6358 198.251 84.0141 198.548C83.3924 198.845 82.8377 199.265 82.384 199.784C81.9616 200.332 81.6533 200.959 81.4774 201.628C81.3015 202.297 81.2616 202.995 81.36 203.68C81.4347 204.433 81.661 205.162 82.0254 205.825C82.3897 206.488 82.8846 207.07 83.48 207.536C84.729 208.366 86.2226 208.747 87.7165 208.618C89.2103 208.488 90.6161 207.856 91.704 206.824C91.9334 206.614 92.2355 206.501 92.5466 206.509C92.8577 206.517 93.1534 206.646 93.3714 206.868C93.5893 207.09 93.7125 207.388 93.7148 207.699C93.7172 208.011 93.5986 208.311 93.384 208.536C91.6771 210.168 89.4018 211.072 87.04 211.056Z" fill="#263238"/>
<path d="M95.752 186.312C95.8698 186.074 96.0557 185.876 96.2861 185.743C96.5165 185.61 96.7811 185.549 97.0464 185.567C97.3116 185.584 97.5657 185.68 97.7764 185.843C97.9871 186.005 98.145 186.226 98.2301 186.478C98.3151 186.73 98.3236 187.001 98.2544 187.258C98.1852 187.514 98.0414 187.745 97.8412 187.92C97.641 188.095 97.3934 188.206 97.1297 188.241C96.8661 188.275 96.5982 188.23 96.36 188.112C96.0408 187.954 95.7974 187.675 95.6834 187.338C95.5694 187 95.5941 186.631 95.752 186.312Z" fill="#263238"/>
<path d="M329.232 190.864C329.041 190.866 328.853 190.822 328.683 190.736C328.513 190.649 328.367 190.523 328.256 190.368L323.456 183.728C323.346 183.578 323.272 183.405 323.242 183.221C323.211 183.038 323.224 182.849 323.28 182.672C323.332 182.49 323.425 182.323 323.553 182.185C323.681 182.046 323.839 181.939 324.016 181.872C324.729 181.606 325.38 181.197 325.928 180.668C326.476 180.139 326.909 179.503 327.2 178.8C327.484 178.173 327.635 177.494 327.645 176.806C327.654 176.118 327.522 175.435 327.256 174.8C326.956 174.175 326.533 173.618 326.012 173.162C325.491 172.705 324.883 172.359 324.224 172.144C323.515 171.879 322.76 171.76 322.004 171.793C321.249 171.826 320.507 172.011 319.824 172.336C318.529 173.084 317.525 174.249 316.975 175.641C316.426 177.032 316.365 178.569 316.8 180C316.9 180.302 316.875 180.632 316.732 180.916C316.589 181.201 316.338 181.416 316.036 181.516C315.734 181.616 315.404 181.591 315.12 181.448C314.835 181.305 314.62 181.054 314.52 180.752C313.897 178.774 313.975 176.642 314.74 174.714C315.505 172.786 316.91 171.181 318.72 170.168C319.694 169.698 320.753 169.429 321.833 169.377C322.913 169.325 323.993 169.49 325.008 169.864C325.972 170.187 326.86 170.702 327.621 171.377C328.381 172.052 328.997 172.873 329.432 173.792C329.836 174.727 330.044 175.734 330.044 176.752C330.044 177.77 329.836 178.777 329.432 179.712C328.788 181.248 327.691 182.551 326.288 183.448L330.288 188.936C330.381 189.064 330.448 189.209 330.484 189.363C330.521 189.517 330.527 189.676 330.501 189.833C330.476 189.989 330.42 190.138 330.337 190.273C330.254 190.407 330.145 190.524 330.016 190.616C329.793 190.79 329.515 190.878 329.232 190.864Z" fill="#263238"/>
<path d="M333.376 192.752C333.536 192.964 333.63 193.218 333.646 193.483C333.662 193.748 333.599 194.012 333.465 194.241C333.331 194.471 333.132 194.655 332.894 194.772C332.655 194.888 332.387 194.931 332.124 194.895C331.861 194.86 331.614 194.747 331.415 194.571C331.216 194.395 331.074 194.165 331.006 193.908C330.937 193.651 330.947 193.38 331.033 193.129C331.119 192.878 331.277 192.657 331.488 192.496C331.773 192.281 332.131 192.187 332.485 192.235C332.838 192.283 333.159 192.469 333.376 192.752Z" fill="#263238"/>
</svg>
