<svg width="500" height="500" viewBox="0 0 500 500" fill="none" xmlns="http://www.w3.org/2000/svg">
<path d="M407.33 398.84C319.91 449.06 178.18 449.06 90.76 398.84C3.34 348.62 3.35 267.21 90.76 217C178.17 166.79 319.92 166.79 407.33 217C494.74 267.21 494.75 348.63 407.33 398.84Z" fill="#FAFAFA"/>
<path d="M274.58 307.92C256.21 297.32 226.43 297.32 208.06 307.92C192.49 316.92 190.13 330.63 200.95 341.07C200.338 341.23 199.75 341.469 199.2 341.78L141.2 375.28C138.74 376.7 138.74 379.01 141.2 380.43L144.84 382.53C146.206 383.225 147.725 383.566 149.257 383.522C150.789 383.478 152.286 383.051 153.61 382.28L207.61 346.91C207.831 346.765 208.038 346.601 208.23 346.42C226.61 356.93 256.23 356.9 274.57 346.33C292.91 335.76 293 318.53 274.58 307.92Z" fill="#E6E6E6"/>
<path d="M403.7 269.35L329.78 312.12C328.858 312.588 327.839 312.832 326.805 312.832C325.771 312.832 324.752 312.588 323.83 312.12L195.24 237.87C193.6 236.93 193.6 235.39 195.24 234.44L269.16 191.67C270.082 191.202 271.101 190.958 272.135 190.958C273.169 190.958 274.188 191.202 275.11 191.67L403.7 265.92C405.34 266.86 405.34 268.4 403.7 269.35Z" fill="#E6E6E6"/>
<path d="M74.53 350.24L54.76 338.82C52.37 337.44 52.37 335.2 54.76 333.82L192.33 254.39C193.672 253.709 195.155 253.354 196.66 253.354C198.165 253.354 199.648 253.709 200.99 254.39L220.77 265.81C223.16 267.19 223.16 269.43 220.77 270.81L83.19 350.24C81.8482 350.921 80.3647 351.276 78.86 351.276C77.3553 351.276 75.8718 350.921 74.53 350.24Z" fill="#E6E6E6"/>
<path d="M403.9 372.94C424.075 372.94 440.43 364.004 440.43 352.98C440.43 341.956 424.075 333.02 403.9 333.02C383.725 333.02 367.37 341.956 367.37 352.98C367.37 364.004 383.725 372.94 403.9 372.94Z" fill="#E6E6E6"/>
<path d="M419.89 333.16C420.24 328.73 424.18 319.82 429.24 314.44C434.3 309.06 441.85 305.44 446.84 307.61C451.49 309.61 450.47 315.86 444.33 319.54C438.19 323.22 429.07 327.75 425.94 334.72L419.89 343.1V333.16Z" fill="#59C9A5"/>
<path opacity="0.1" d="M419.89 333.16C420.24 328.73 424.18 319.82 429.24 314.44C434.3 309.06 441.85 305.44 446.84 307.61C451.49 309.61 450.47 315.86 444.33 319.54C438.19 323.22 429.07 327.75 425.94 334.72L419.89 343.1V333.16Z" fill="black"/>
<path d="M419.07 339.19C419.142 339.191 419.213 339.167 419.271 339.124C419.328 339.081 419.37 339.02 419.39 338.95C423.57 324.08 436.78 312.78 444.31 310.66C444.384 310.629 444.445 310.571 444.479 310.499C444.514 310.426 444.521 310.343 444.499 310.265C444.477 310.188 444.427 310.121 444.359 310.078C444.291 310.034 444.21 310.017 444.13 310.03C436.46 312.2 423 323.68 418.76 338.78C418.748 338.821 418.744 338.865 418.75 338.908C418.755 338.95 418.768 338.992 418.79 339.029C418.811 339.066 418.84 339.099 418.875 339.125C418.909 339.151 418.948 339.17 418.99 339.18L419.07 339.19Z" fill="white"/>
<path d="M420.55 349C421.46 346.57 424.83 342.71 430.02 339.71C435.76 336.4 442.78 335.23 444.6 332.43C446.79 329.08 444.1 325.53 438.45 325.77C432.8 326.01 422.38 332.84 419.89 344.19L420.55 349Z" fill="#59C9A5"/>
<path d="M419.68 346.34C419.742 346.341 419.802 346.323 419.854 346.289C419.906 346.255 419.946 346.207 419.97 346.15C425.65 333.58 435.89 329.83 440.51 329.6C440.595 329.6 440.676 329.566 440.736 329.506C440.796 329.446 440.83 329.365 440.83 329.28C440.83 329.195 440.796 329.114 440.736 329.054C440.676 328.994 440.595 328.96 440.51 328.96C435.4 329.21 425.21 333.05 419.41 345.88C419.392 345.919 419.382 345.962 419.381 346.005C419.38 346.048 419.387 346.091 419.403 346.131C419.419 346.171 419.443 346.208 419.473 346.239C419.504 346.269 419.54 346.294 419.58 346.31C419.611 346.326 419.645 346.336 419.68 346.34Z" fill="white"/>
<path d="M56.39 308.47C56.39 308.47 55.39 299.28 50.77 292.14C46.15 285 39.91 280.56 34.05 280.09C28.19 279.62 23.46 285.02 29.73 288.73C36 292.44 47.14 296.21 52.27 310.06L56.39 308.47Z" fill="#59C9A5"/>
<path opacity="0.1" d="M56.39 308.47C56.39 308.47 55.39 299.28 50.77 292.14C46.15 285 39.91 280.56 34.05 280.09C28.19 279.62 23.46 285.02 29.73 288.73C36 292.44 47.14 296.21 52.27 310.06L56.39 308.47Z" fill="black"/>
<path d="M54.67 306.08H54.73C54.7684 306.065 54.8034 306.042 54.8328 306.013C54.8622 305.984 54.8856 305.949 54.9014 305.911C54.9173 305.873 54.9253 305.832 54.9251 305.79C54.9248 305.749 54.9163 305.708 54.9 305.67C48.72 290.43 36.9 284.07 31.58 282.83C31.502 282.822 31.4238 282.842 31.3601 282.888C31.2964 282.934 31.2516 283.001 31.2344 283.078C31.2171 283.154 31.2285 283.234 31.2664 283.303C31.3043 283.372 31.3661 283.424 31.44 283.45C36.69 284.65 48.23 290.91 54.32 305.9C54.3499 305.965 54.4006 306.018 54.4641 306.05C54.5275 306.083 54.5999 306.093 54.67 306.08Z" fill="white"/>
<path d="M26.55 306C27.12 307.28 28.55 307.94 29.8 308.46C31.1506 308.825 32.3425 309.627 33.19 310.74C34.6 313.17 32.29 316.59 33.8 318.95C34.1542 319.428 34.6036 319.828 35.1199 320.124C35.6363 320.42 36.2083 320.606 36.8 320.67C37.768 320.81 38.7427 320.901 39.72 320.94C40.185 320.929 40.649 320.892 41.11 320.83C42.4542 320.528 43.8607 320.679 45.11 321.26C47.04 322.34 47.63 324.78 48.8 326.66C49.5274 327.769 50.4857 328.707 51.6093 329.411C52.7328 330.115 53.9951 330.569 55.31 330.74C56.4297 330.966 57.5894 330.89 58.67 330.52L58.86 330.4C58.9818 330.271 59.0954 330.134 59.2 329.99V329.93C59.54 328.67 58.98 327.36 58.96 326.06V325.82C58.96 324.31 59.06 322.82 59.09 321.3C59.1567 318.52 59.1833 315.74 59.17 312.96C59.17 311.16 59.37 309.18 58.61 307.48C57.76 305.61 55.66 305.57 54.87 303.73C54.55 303 54.38 302.22 54.07 301.48C53.5936 300.397 52.8285 299.466 51.8584 298.789C50.8884 298.112 49.7508 297.714 48.57 297.64C44.89 297.45 41.57 300.42 37.93 300.15C36.9847 300.023 36.0467 299.846 35.12 299.62C32.12 299.06 28.71 299.91 27.04 302.42C26.6717 302.931 26.4344 303.525 26.3489 304.149C26.2635 304.773 26.3325 305.409 26.55 306Z" fill="#59C9A5"/>
<path d="M59.54 324.16C59.5802 324.151 59.618 324.133 59.6511 324.109C59.6843 324.085 59.712 324.054 59.7327 324.018C59.7533 323.982 59.7664 323.943 59.7711 323.902C59.7758 323.861 59.772 323.819 59.76 323.78C54.71 304.74 34.66 302 30 302.33C29.9593 302.333 29.9194 302.343 29.8828 302.361C29.8461 302.379 29.8134 302.404 29.7865 302.435C29.7595 302.465 29.7389 302.501 29.7258 302.54C29.7126 302.578 29.7073 302.619 29.71 302.66C29.7044 302.702 29.7076 302.744 29.7195 302.785C29.7314 302.825 29.7517 302.863 29.7791 302.895C29.8064 302.927 29.8402 302.953 29.8783 302.971C29.9164 302.989 29.9578 302.999 30 303C34.59 302.67 54.21 305.36 59.17 324C59.2025 324.066 59.2576 324.119 59.3254 324.148C59.3933 324.178 59.4694 324.182 59.54 324.16Z" fill="white"/>
<path d="M37.26 314.52C37.3246 314.508 37.3839 314.477 37.43 314.43C39.2812 312.826 41.4634 311.65 43.8211 310.987C46.1788 310.323 48.6539 310.187 51.07 310.59C51.153 310.599 51.2364 310.576 51.3032 310.526C51.37 310.476 51.4153 310.402 51.43 310.32C51.4356 310.279 51.433 310.238 51.4225 310.198C51.4119 310.158 51.3935 310.121 51.3683 310.088C51.3432 310.056 51.3118 310.029 51.2761 310.008C51.2403 309.988 51.2008 309.975 51.16 309.97C48.6486 309.558 46.0773 309.706 43.6296 310.403C41.1819 311.099 38.9182 312.328 37 314C36.971 314.029 36.9479 314.063 36.9322 314.101C36.9165 314.139 36.9084 314.179 36.9084 314.22C36.9084 314.261 36.9165 314.301 36.9322 314.339C36.9479 314.377 36.971 314.411 37 314.44C37.0352 314.471 37.0765 314.494 37.1214 314.508C37.1662 314.522 37.2135 314.526 37.26 314.52Z" fill="white"/>
<path d="M401 255.5L329.58 296.83C328.688 297.278 327.703 297.512 326.705 297.512C325.707 297.512 324.722 297.278 323.83 296.83L199.53 225.08C197.94 224.17 197.94 222.68 199.53 221.77L271 180.43C271.89 179.982 272.873 179.748 273.87 179.748C274.867 179.748 275.85 179.982 276.74 180.43L401 252.18C402.54 253.1 402.54 254.58 401 255.5Z" fill="#37474F"/>
<path d="M362.79 274.45C361.551 275.08 360.18 275.408 358.79 275.408C357.4 275.408 356.029 275.08 354.79 274.45C352.59 273.18 352.59 271.12 354.79 269.85C356.028 269.216 357.399 268.885 358.79 268.885C360.181 268.885 361.552 269.216 362.79 269.85C365 271.12 365 273.18 362.79 274.45Z" fill="#263238"/>
<path d="M329.53 296.83L401 255.5C402.42 254.68 402.57 253.4 401.45 252.5C402.16 253.062 402.744 253.767 403.163 254.57C403.582 255.373 403.826 256.256 403.88 257.16V259.86C403.829 260.862 403.541 261.837 403.041 262.706C402.54 263.575 401.841 264.313 401 264.86L329.58 306.19C328.697 306.66 327.71 306.897 326.71 306.88V297.55C327.695 297.55 328.665 297.302 329.53 296.83Z" fill="#455A64"/>
<path d="M199.53 234.42C198.691 233.872 197.994 233.133 197.495 232.264C196.996 231.395 196.71 230.421 196.66 229.42V226.72C196.713 225.814 196.956 224.93 197.375 224.125C197.794 223.32 198.378 222.613 199.09 222.05C197.97 222.97 198.09 224.24 199.53 225.05L323.78 296.8C324.666 297.271 325.657 297.509 326.66 297.49V306.82C325.657 306.839 324.666 306.601 323.78 306.13L199.53 234.42Z" fill="#263238"/>
<path d="M317.6 288.17L384.97 249.17C385.182 249.102 385.367 248.969 385.498 248.789C385.629 248.609 385.7 248.393 385.7 248.17C385.7 247.947 385.629 247.731 385.498 247.551C385.367 247.371 385.182 247.238 384.97 247.17L285.39 189.57C284.857 189.299 284.268 189.157 283.67 189.157C283.072 189.157 282.483 189.299 281.95 189.57L214.55 228.57C214.338 228.638 214.153 228.771 214.022 228.951C213.891 229.131 213.82 229.347 213.82 229.57C213.82 229.793 213.891 230.009 214.022 230.189C214.153 230.369 214.338 230.502 214.55 230.57L314.15 288.17C314.685 288.441 315.276 288.583 315.875 288.583C316.474 288.583 317.065 288.441 317.6 288.17Z" fill="#FAFAFA"/>
<path d="M225 230.34L257.18 249C257.851 249.34 258.593 249.517 259.345 249.517C260.097 249.517 260.839 249.34 261.51 249L318.11 216.33C318.371 216.241 318.598 216.073 318.759 215.849C318.919 215.625 319.006 215.356 319.006 215.08C319.006 214.804 318.919 214.535 318.759 214.311C318.598 214.087 318.371 213.919 318.11 213.83L285.89 195.21C285.219 194.87 284.477 194.693 283.725 194.693C282.973 194.693 282.231 194.87 281.56 195.21L225 227.84C224.739 227.929 224.512 228.097 224.351 228.321C224.191 228.545 224.104 228.814 224.104 229.09C224.104 229.366 224.191 229.635 224.351 229.859C224.512 230.083 224.739 230.251 225 230.34Z" fill="#EBEBEB"/>
<path d="M248.63 221.45L256.89 223.06C257.406 223.167 257.942 223.119 258.43 222.92L265.43 219.92C266.54 219.44 268.12 219.92 268.1 220.71L267.99 225.71C267.99 226.03 268.25 226.33 268.7 226.52L275.82 229.43C276.95 229.89 276.68 230.9 275.35 231.14L267 232.65C266.781 232.671 266.57 232.739 266.38 232.849C266.19 232.96 266.026 233.11 265.9 233.29L263.31 238.1C262.89 238.86 261.14 239.02 260.31 238.37L255.31 234.26C254.91 233.971 254.423 233.826 253.93 233.85L245.2 233.91C243.81 233.91 243.01 233.01 243.84 232.37L249.06 228.37C249.134 228.327 249.2 228.271 249.252 228.203C249.304 228.135 249.343 228.058 249.365 227.975C249.387 227.892 249.393 227.806 249.382 227.721C249.371 227.636 249.343 227.554 249.3 227.48L246.5 222.71C246.06 221.91 247.31 221.19 248.63 221.45Z" fill="#FAFAFA"/>
<path d="M267 210.91L284.72 200.68C285.068 200.475 285.458 200.354 285.861 200.326C286.264 200.298 286.667 200.365 287.04 200.52C287.6 200.85 287.47 201.45 286.76 201.86L269.05 212.09C268.701 212.292 268.311 212.411 267.909 212.439C267.506 212.467 267.103 212.402 266.73 212.25C266.17 211.92 266.3 211.32 267 210.91Z" fill="#FAFAFA"/>
<path d="M271.48 213.49L289.19 203.26C289.538 203.055 289.928 202.934 290.331 202.906C290.734 202.878 291.137 202.945 291.51 203.1C292.07 203.43 291.95 204.03 291.23 204.44L273.52 214.67C273.171 214.872 272.781 214.991 272.379 215.019C271.976 215.047 271.573 214.982 271.2 214.83C270.63 214.5 270.76 213.9 271.48 213.49Z" fill="#FAFAFA"/>
<path d="M275.94 216.07L293.65 205.84C293.997 205.633 294.388 205.51 294.791 205.483C295.194 205.455 295.598 205.522 295.97 205.68C296.54 206.01 296.41 206.61 295.69 207.02L278 217.25C277.651 217.452 277.261 217.571 276.859 217.599C276.456 217.627 276.053 217.562 275.68 217.41C275.1 217.08 275.22 216.48 275.94 216.07Z" fill="#FAFAFA"/>
<path d="M280.4 218.64L298.12 208.42C298.465 208.213 298.854 208.09 299.256 208.063C299.657 208.035 300.06 208.102 300.43 208.26C301 208.58 300.87 209.18 300.16 209.6L282.44 219.82C282.093 220.027 281.702 220.15 281.299 220.177C280.896 220.205 280.492 220.138 280.12 219.98C279.56 219.66 279.69 219.06 280.4 218.64Z" fill="#FAFAFA"/>
<path d="M284.87 221.22L302.58 211C302.927 210.793 303.318 210.67 303.721 210.643C304.124 210.615 304.528 210.682 304.9 210.84C305.46 211.16 305.34 211.76 304.62 212.18L286.91 222.4C286.563 222.607 286.172 222.73 285.769 222.757C285.366 222.785 284.962 222.718 284.59 222.56C284 222.24 284.15 221.64 284.87 221.22Z" fill="#FAFAFA"/>
<path d="M289.33 223.8L307 213.58C307.347 213.373 307.738 213.25 308.141 213.223C308.544 213.195 308.948 213.262 309.32 213.42C309.88 213.74 309.76 214.34 309.04 214.76L291.37 225C291.023 225.207 290.632 225.33 290.229 225.357C289.826 225.385 289.422 225.318 289.05 225.16C288.49 224.82 288.61 224.22 289.33 223.8Z" fill="#FAFAFA"/>
<path d="M264.71 253.3L266.17 254.15C266.573 254.352 267.019 254.458 267.47 254.458C267.921 254.458 268.366 254.352 268.77 254.15L302.77 234.54C303.49 234.12 303.49 233.45 302.77 233.04L301.3 232.19C300.896 231.988 300.451 231.882 300 231.882C299.549 231.882 299.103 231.988 298.7 232.19L264.7 251.8C264.543 251.853 264.406 251.955 264.31 252.09C264.213 252.225 264.162 252.388 264.163 252.554C264.164 252.72 264.218 252.881 264.316 253.015C264.414 253.149 264.552 253.249 264.71 253.3Z" fill="#E0E0E0"/>
<path d="M325.64 218.12L327.1 218.97C327.82 219.38 327.82 220.05 327.1 220.47L313.45 228.35C313.047 228.552 312.601 228.658 312.15 228.658C311.699 228.658 311.253 228.552 310.85 228.35L309.39 227.5C308.67 227.09 308.67 226.42 309.39 226L323 218.12C323.409 217.911 323.861 217.802 324.32 217.802C324.779 217.802 325.231 217.911 325.64 218.12Z" fill="#E0E0E0"/>
<path d="M273.74 258.49L306 277.1C306.671 277.44 307.413 277.617 308.165 277.617C308.917 277.617 309.659 277.44 310.33 277.1L366.93 244.43C367.191 244.341 367.418 244.173 367.579 243.949C367.739 243.725 367.826 243.456 367.826 243.18C367.826 242.904 367.739 242.635 367.579 242.411C367.418 242.187 367.191 242.019 366.93 241.93L334.71 223.31C334.039 222.97 333.297 222.793 332.545 222.793C331.793 222.793 331.051 222.97 330.38 223.31L273.74 256C273.482 256.091 273.259 256.259 273.101 256.482C272.943 256.705 272.859 256.972 272.859 257.245C272.859 257.518 272.943 257.785 273.101 258.008C273.259 258.231 273.482 258.399 273.74 258.49Z" fill="#EBEBEB"/>
<path d="M297.4 249.59L305.67 251.21C306.186 251.317 306.722 251.268 307.21 251.07L314.21 248.07C315.33 247.59 316.91 248.07 316.89 248.85L316.78 253.85C316.78 254.17 317.03 254.47 317.48 254.65L324.61 257.56C325.74 258.03 325.46 259.04 324.14 259.28L315.8 260.77C315.582 260.793 315.371 260.862 315.182 260.973C314.992 261.083 314.828 261.232 314.7 261.41L312.11 266.22C311.7 266.98 309.95 267.14 309.11 266.49L304.11 262.38C303.706 262.091 303.216 261.947 302.72 261.97L293.99 262.03C292.61 262.03 291.8 261.13 292.63 260.49L297.85 256.49C297.998 256.402 298.107 256.261 298.153 256.095C298.2 255.929 298.181 255.752 298.1 255.6L295.29 250.83C294.84 250.06 296.09 249.34 297.4 249.59Z" fill="#FAFAFA"/>
<path d="M315.79 239.06L333.5 228.83C333.848 228.625 334.238 228.504 334.641 228.476C335.044 228.448 335.447 228.515 335.82 228.67C336.39 229 336.26 229.6 335.54 230.01L317.83 240.24C317.481 240.442 317.091 240.561 316.689 240.589C316.286 240.617 315.883 240.552 315.51 240.4C315 240.07 315.07 239.47 315.79 239.06Z" fill="#FAFAFA"/>
<path d="M320.25 241.64L338 231.41C338.348 231.205 338.738 231.084 339.141 231.056C339.544 231.028 339.947 231.095 340.32 231.25C340.88 231.58 340.75 232.18 340.04 232.59L322.32 242.82C321.974 243.027 321.584 243.152 321.181 243.183C320.779 243.214 320.374 243.151 320 243C319.41 242.65 319.54 242.05 320.25 241.64Z" fill="#FAFAFA"/>
<path d="M324.72 244.21L342.43 234C342.777 233.793 343.168 233.67 343.571 233.643C343.974 233.615 344.378 233.682 344.75 233.84C345.31 234.16 345.19 234.76 344.47 235.18L326.76 245.4C326.411 245.602 326.021 245.721 325.619 245.749C325.216 245.777 324.813 245.712 324.44 245.56C323.87 245.23 324 244.63 324.72 244.21Z" fill="#FAFAFA"/>
<path d="M329.18 246.79L346.89 236.57C347.237 236.363 347.628 236.24 348.031 236.213C348.434 236.185 348.838 236.252 349.21 236.41C349.78 236.73 349.65 237.33 348.93 237.75L331.22 248C330.873 248.207 330.482 248.33 330.079 248.357C329.676 248.385 329.272 248.318 328.9 248.16C328.34 247.81 328.46 247.21 329.18 246.79Z" fill="#FAFAFA"/>
<path d="M333.64 249.37L351.36 239.15C351.705 238.943 352.094 238.82 352.496 238.793C352.897 238.765 353.3 238.833 353.67 238.99C354.24 239.31 354.11 239.91 353.4 240.33L335.68 250.55C335.333 250.757 334.942 250.88 334.539 250.907C334.136 250.935 333.732 250.868 333.36 250.71C332.8 250.39 332.93 249.79 333.64 249.37Z" fill="#FAFAFA"/>
<path d="M338.11 252L355.82 241.78C356.167 241.573 356.558 241.45 356.961 241.423C357.364 241.395 357.768 241.462 358.14 241.62C358.7 241.94 358.58 242.54 357.86 242.96L340.15 253.18C339.803 253.387 339.412 253.51 339.009 253.537C338.606 253.565 338.202 253.498 337.83 253.34C337.26 253 337.39 252.37 338.11 252Z" fill="#FAFAFA"/>
<path d="M313.48 281.45L314.95 282.3C315.353 282.502 315.799 282.608 316.25 282.608C316.701 282.608 317.147 282.502 317.55 282.3L351.55 262.69C351.708 262.638 351.845 262.537 351.942 262.403C352.039 262.268 352.092 262.106 352.092 261.94C352.092 261.774 352.039 261.612 351.942 261.477C351.845 261.343 351.708 261.242 351.55 261.19L350.08 260.34C349.677 260.138 349.231 260.032 348.78 260.032C348.329 260.032 347.883 260.138 347.48 260.34L313.48 279.95C313.322 280.002 313.185 280.103 313.088 280.237C312.991 280.372 312.938 280.534 312.938 280.7C312.938 280.866 312.991 281.028 313.088 281.163C313.185 281.297 313.322 281.398 313.48 281.45Z" fill="#E0E0E0"/>
<path d="M374.41 246.27L375.88 247.12C376.6 247.53 376.6 248.2 375.88 248.62L362.23 256.5C361.827 256.702 361.381 256.808 360.93 256.808C360.479 256.808 360.033 256.702 359.63 256.5L358.16 255.65C358.002 255.598 357.865 255.497 357.768 255.363C357.671 255.228 357.618 255.066 357.618 254.9C357.618 254.734 357.671 254.572 357.768 254.437C357.865 254.303 358.002 254.202 358.16 254.15L371.82 246.27C372.222 246.068 372.665 245.962 373.115 245.962C373.565 245.962 374.008 246.068 374.41 246.27Z" fill="#E0E0E0"/>
<path d="M241.28 204.19C241.006 204.324 240.705 204.394 240.4 204.394C240.095 204.394 239.794 204.324 239.52 204.19C239.416 204.154 239.327 204.086 239.263 203.996C239.2 203.907 239.166 203.8 239.166 203.69C239.166 203.58 239.2 203.473 239.263 203.384C239.327 203.294 239.416 203.226 239.52 203.19C239.794 203.056 240.095 202.986 240.4 202.986C240.705 202.986 241.006 203.056 241.28 203.19C241.77 203.46 241.77 203.91 241.28 204.19Z" fill="#263238"/>
<path d="M238.47 212.18C237.924 212.456 237.321 212.6 236.71 212.6C236.099 212.6 235.496 212.456 234.95 212.18C234.751 212.099 234.581 211.961 234.462 211.782C234.342 211.604 234.278 211.395 234.278 211.18C234.278 210.965 234.342 210.756 234.462 210.578C234.581 210.399 234.751 210.261 234.95 210.18C235.496 209.904 236.099 209.76 236.71 209.76C237.321 209.76 237.924 209.904 238.47 210.18C238.669 210.261 238.839 210.399 238.958 210.578C239.078 210.756 239.142 210.965 239.142 211.18C239.142 211.395 239.078 211.604 238.958 211.782C238.839 211.961 238.669 212.099 238.47 212.18Z" fill="#263238"/>
<path d="M241 208.64C240.35 208.26 240.39 207.64 241.08 207.24L252.66 200.55C253.036 200.358 253.453 200.258 253.875 200.258C254.297 200.258 254.714 200.358 255.09 200.55C255.73 200.92 255.7 201.55 255.01 201.95L243.43 208.63C243.054 208.821 242.638 208.922 242.216 208.924C241.794 208.926 241.378 208.828 241 208.64Z" fill="#263238"/>
<path d="M212.91 110.81V113.16L204.79 117.85L192.61 124.85L85.09 187C84.4529 187.4 83.9268 187.953 83.56 188.61C83.1649 189.256 82.9444 189.993 82.92 190.75V333.65C82.92 341.42 77.46 344.57 70.74 340.65C64.02 336.73 58.55 327.32 58.55 319.55V176.64C58.5916 175.888 58.8098 175.157 59.1868 174.506C59.5638 173.854 60.0891 173.301 60.72 172.89L180.41 103.78L192 97.1C192.387 97.7518 192.601 98.4921 192.62 99.25V101.43L64.78 175.43C64.1801 175.802 63.6819 176.318 63.33 176.93C62.8929 177.601 62.6474 178.379 62.62 179.18V321.89C62.62 327.07 66.26 333.36 70.75 335.95C75.24 338.54 78.87 336.44 78.87 331.26V188.36C78.9048 187.611 79.1158 186.882 79.4859 186.23C79.8561 185.578 80.3748 185.023 81 184.61L212.28 108.81C212.657 109.412 212.874 110.1 212.91 110.81Z" fill="#E0E0E0"/>
<path d="M200.72 103.93V110.81L77 182.27C76.3643 182.674 75.8328 183.223 75.4488 183.871C75.0648 184.519 74.8391 185.248 74.79 186V328.9C74.79 331.49 72.98 332.54 70.74 331.24C69.5605 330.475 68.5781 329.442 67.8727 328.226C67.1672 327.009 66.7586 325.644 66.68 324.24V181.33C66.7058 180.575 66.9225 179.839 67.31 179.19C67.6828 178.538 68.2077 177.986 68.84 177.58L200.11 101.79C200.49 102.441 200.7 103.177 200.72 103.93Z" fill="#E0E0E0"/>
<path d="M87.61 190.92C87.2213 191.564 87.0044 192.298 86.98 193.05V334.72C86.9821 335.75 86.9153 336.779 86.78 337.8C86.74 338.067 86.7 338.327 86.66 338.58C86.66 338.82 86.57 339.05 86.52 339.29C86.47 339.53 86.42 339.71 86.36 339.91C86.3 340.11 86.26 340.3 86.2 340.49C85.5375 342.923 83.9802 345.016 81.84 346.35C78.93 348.02 75.03 347.82 70.74 345.35C61.74 340.17 54.49 327.01 54.49 315.97V174.29C54.5144 173.538 54.7313 172.804 55.12 172.16L59.19 174.5C58.7949 175.146 58.5744 175.883 58.55 176.64V319.54C58.55 327.31 64.01 336.76 70.74 340.64C77.47 344.52 82.92 341.38 82.92 333.64V190.71C82.9444 189.953 83.1649 189.216 83.56 188.57L87.61 190.92Z" fill="#EBEBEB"/>
<path d="M79.49 186.23C79.1025 186.875 78.8857 187.608 78.86 188.36V331.26C78.86 336.44 75.22 338.54 70.74 335.95C66.26 333.36 62.61 327.07 62.61 321.89V179.14C62.6374 178.339 62.8829 177.561 63.32 176.89L67.32 179.19C66.9325 179.839 66.7158 180.575 66.69 181.33V324.23C66.7686 325.634 67.1772 326.999 67.8826 328.216C68.5881 329.432 69.5705 330.465 70.75 331.23C72.99 332.53 74.8 331.48 74.8 328.89V186C74.8244 185.243 75.0449 184.506 75.44 183.86L79.49 186.23Z" fill="#EBEBEB"/>
<path d="M192 97.1L180.43 103.78L60.72 172.89C60.0807 173.287 59.5539 173.841 59.19 174.5L55.12 172.16C55.4836 171.498 56.0103 170.941 56.65 170.54L176.35 101.43L178.66 100.09L181 98.77L183 97.61L184.19 96.92L186.4 95.65C187.044 95.3073 187.761 95.1214 188.49 95.1075C189.22 95.0936 189.943 95.252 190.6 95.57C191.192 95.9499 191.674 96.4771 192 97.1Z" fill="#FAFAFA"/>
<path d="M220.41 113.51L208.84 120.19L188.53 131.91L89.15 189.3C88.5097 189.703 87.9803 190.26 87.61 190.92L83.61 188.57C83.9681 187.934 84.4761 187.395 85.09 187L192.6 124.89L204.78 117.89L212.9 113.2L214.79 112.11L215 112C215.624 111.701 216.308 111.546 217 111.546C217.692 111.546 218.376 111.701 219 112L219.21 112.13C219.705 112.498 220.114 112.969 220.41 113.51Z" fill="#FAFAFA"/>
<path d="M200.11 101.79L68.84 177.58C68.2077 177.986 67.6828 178.538 67.31 179.19L63.31 176.89C63.6619 176.278 64.1601 175.762 64.76 175.39L192.6 101.39L194.48 100.3C195.124 99.9573 195.841 99.7714 196.57 99.7575C197.3 99.7436 198.023 99.9021 198.68 100.22C199.285 100.61 199.778 101.151 200.11 101.79Z" fill="#FAFAFA"/>
<path d="M212.31 108.81L81 184.61C80.3575 185.011 79.8275 185.568 79.46 186.23L75.4 183.88C75.7834 183.213 76.335 182.658 77 182.27L200.76 110.81L206.76 107.37C207.405 107.029 208.122 106.845 208.852 106.833C209.581 106.82 210.304 106.981 210.96 107.3C211.532 107.679 211.997 108.199 212.31 108.81Z" fill="#FAFAFA"/>
<path d="M221 115.66V257.33C221 263.14 219 267.21 215.77 269.01L81.65 346.45C82.8374 345.736 83.8672 344.788 84.6769 343.664C85.4866 342.54 86.0592 341.262 86.36 339.91C86.42 339.71 86.47 339.5 86.52 339.29C86.57 339.08 86.61 338.82 86.66 338.58C86.71 338.34 86.74 338.07 86.78 337.8C86.9153 336.779 86.9821 335.75 86.98 334.72V193.05C87.0044 192.298 87.2213 191.564 87.61 190.92C87.9803 190.26 88.5097 189.703 89.15 189.3L188.53 131.92L208.84 120.2L220.41 113.52C220.787 114.171 220.99 114.908 221 115.66Z" fill="#F5F5F5"/>
<path d="M101.34 191.65L121.34 180.08C122.54 179.39 123.5 179.94 123.5 181.33V209.16C123.461 209.911 123.245 210.642 122.87 211.294C122.494 211.946 121.97 212.499 121.34 212.91L101.34 224.48C100.14 225.17 99.17 224.61 99.17 223.23V195.4C99.2108 194.648 99.4286 193.917 99.8057 193.265C100.183 192.613 100.709 192.06 101.34 191.65Z" fill="#455A64"/>
<path d="M99.17 235.11L208.85 171.79V176.48L99.17 239.8V235.11Z" fill="#59C9A5"/>
<path opacity="0.4" d="M99.17 235.11L208.85 171.79V176.48L99.17 239.8V235.11Z" fill="white"/>
<path d="M100.47 248.43L122.25 235.86C122.96 235.44 123.54 235.78 123.54 236.61V280.51C123.517 280.96 123.388 281.398 123.164 281.789C122.94 282.18 122.627 282.513 122.25 282.76L100.47 295.33C99.75 295.75 99.17 295.41 99.17 294.58V250.68C99.1936 250.229 99.3237 249.79 99.5497 249.399C99.7757 249.008 100.091 248.676 100.47 248.43Z" fill="#F0F0F0"/>
<path d="M100.47 300L122.25 287.42C122.96 287.01 123.54 287.35 123.54 288.17V322.53L99.17 336.63V302.28C99.1889 301.824 99.3169 301.379 99.543 300.982C99.7692 300.585 100.087 300.249 100.47 300Z" fill="#F0F0F0"/>
<path d="M128.91 232L150.68 219.43C151.4 219.02 151.98 219.35 151.98 220.18V278.18C151.956 278.631 151.825 279.07 151.599 279.461C151.373 279.852 151.058 280.184 150.68 280.43L128.91 293C128.19 293.41 127.61 293.08 127.61 292.25V234.25C127.636 233.8 127.767 233.361 127.993 232.971C128.219 232.58 128.533 232.248 128.91 232Z" fill="#F0F0F0"/>
<path d="M157.34 215.6L179.11 203C179.83 202.58 180.41 202.92 180.41 203.75V247.65C180.386 248.101 180.256 248.54 180.03 248.931C179.804 249.322 179.489 249.654 179.11 249.9L157.34 262.5C156.62 262.92 156.04 262.58 156.04 261.75V217.85C156.064 217.399 156.194 216.96 156.42 216.569C156.646 216.178 156.961 215.846 157.34 215.6Z" fill="#F0F0F0"/>
<path d="M185.78 199.18L207.55 186.61C208.27 186.19 208.85 186.53 208.85 187.36V245.36C208.824 245.81 208.693 246.249 208.467 246.639C208.241 247.03 207.927 247.362 207.55 247.61L185.78 260.18C185.06 260.59 184.48 260.26 184.48 259.43V201.43C184.504 200.979 184.634 200.54 184.86 200.149C185.086 199.758 185.401 199.426 185.78 199.18Z" fill="#F0F0F0"/>
<path d="M128.91 297.68L150.68 285.11C151.4 284.69 151.98 285.03 151.98 285.86V306.14L127.61 320.22V299.93C127.634 299.479 127.764 299.04 127.99 298.649C128.216 298.258 128.531 297.926 128.91 297.68Z" fill="#F0F0F0"/>
<path d="M156 269.44V303.8L180.37 289.73V255.37C180.37 254.54 179.79 254.21 179.07 254.62L157.3 267.19C156.922 267.436 156.607 267.768 156.381 268.159C156.155 268.55 156.024 268.989 156 269.44Z" fill="#F0F0F0"/>
<path d="M185.77 264.85L207.55 252.28C208.27 251.86 208.85 252.2 208.85 253.03V273.31L184.48 287.38V267.1C184.503 266.65 184.632 266.212 184.856 265.821C185.08 265.43 185.393 265.097 185.77 264.85Z" fill="#F0F0F0"/>
<path d="M133 300L146.65 292.12C147.37 291.7 147.95 292.04 147.95 292.87V304C147.926 304.451 147.796 304.89 147.57 305.281C147.344 305.672 147.029 306.004 146.65 306.25L133 314.11C132.28 314.52 131.7 314.19 131.7 313.36V302.29C131.717 301.832 131.845 301.385 132.071 300.986C132.297 300.588 132.616 300.25 133 300Z" fill="#E0E0E0"/>
<path d="M189.84 267.21L203.49 259.33C204.2 258.91 204.79 259.25 204.79 260.08V271.15C204.763 271.6 204.632 272.038 204.406 272.429C204.18 272.819 203.867 273.152 203.49 273.4L189.84 281.28C189.12 281.69 188.54 281.36 188.54 280.53V269.46C188.564 269.009 188.694 268.57 188.92 268.179C189.146 267.788 189.461 267.456 189.84 267.21Z" fill="#E0E0E0"/>
<path d="M104.53 250.78L118.18 242.89C118.9 242.48 119.48 242.82 119.48 243.64V254.72C119.454 255.17 119.323 255.609 119.097 255.999C118.871 256.39 118.557 256.722 118.18 256.97L104.53 264.85C103.82 265.26 103.23 264.93 103.23 264.1V253C103.259 252.554 103.392 252.122 103.617 251.736C103.843 251.351 104.156 251.023 104.53 250.78Z" fill="#E0E0E0"/>
<path d="M104.1 267.44L118.62 259.06C119.1 258.79 119.48 259.01 119.48 259.56V259.91C119.465 260.21 119.379 260.502 119.229 260.763C119.08 261.024 118.871 261.245 118.62 261.41L104.1 269.79C103.62 270.07 103.23 269.79 103.23 269.29V268.94C103.247 268.639 103.335 268.347 103.486 268.086C103.637 267.826 103.847 267.604 104.1 267.44Z" fill="#E0E0E0"/>
<path d="M104.1 272.13L118.62 263.75C119.1 263.48 119.48 263.7 119.48 264.25V264.6C119.465 264.9 119.379 265.192 119.229 265.453C119.08 265.714 118.871 265.935 118.62 266.1L104.1 274.48C103.62 274.76 103.23 274.48 103.23 273.98V273.63C103.247 273.329 103.335 273.037 103.486 272.776C103.637 272.516 103.847 272.294 104.1 272.13Z" fill="#E0E0E0"/>
<path d="M104.1 276.82L118.62 268.44C119.1 268.17 119.48 268.39 119.48 268.94V269.29C119.465 269.59 119.379 269.882 119.229 270.143C119.08 270.404 118.871 270.625 118.62 270.79L104.1 279.17C103.62 279.45 103.23 279.22 103.23 278.67V278.32C103.247 278.019 103.335 277.727 103.486 277.466C103.637 277.206 103.847 276.984 104.1 276.82Z" fill="#E0E0E0"/>
<path d="M104.1 281.51L118.62 273.13C119.1 272.86 119.48 273.08 119.48 273.63V274C119.465 274.3 119.379 274.592 119.229 274.853C119.08 275.114 118.871 275.335 118.62 275.5L104.1 283.88C103.62 284.16 103.23 283.93 103.23 283.38V283C103.249 282.701 103.337 282.41 103.488 282.152C103.639 281.893 103.849 281.673 104.1 281.51Z" fill="#E0E0E0"/>
<path d="M104.1 286.2L118.62 277.82C119.1 277.55 119.48 277.77 119.48 278.32V278.67C119.465 278.97 119.379 279.262 119.229 279.523C119.08 279.784 118.871 280.005 118.62 280.17L104.1 288.55C103.62 288.83 103.23 288.6 103.23 288.05V287.7C103.247 287.399 103.335 287.107 103.486 286.846C103.637 286.586 103.847 286.364 104.1 286.2Z" fill="#E0E0E0"/>
<path d="M133 234.36L146.65 226.48C147.37 226.06 147.95 226.4 147.95 227.23V238.3C147.926 238.751 147.795 239.19 147.569 239.581C147.343 239.972 147.028 240.304 146.65 240.55L133 248.43C132.28 248.84 131.7 248.51 131.7 247.68V236.61C131.724 236.159 131.854 235.72 132.08 235.329C132.306 234.938 132.621 234.606 133 234.36Z" fill="#E0E0E0"/>
<path d="M132.53 251L147.05 242.62C147.53 242.34 147.92 242.56 147.92 243.12V243.46C147.904 243.761 147.816 244.054 147.665 244.314C147.514 244.575 147.303 244.796 147.05 244.96L132.53 253.34C132.06 253.62 131.67 253.34 131.67 252.84V252.5C131.685 252.2 131.771 251.908 131.921 251.647C132.07 251.386 132.279 251.165 132.53 251Z" fill="#E0E0E0"/>
<path d="M132.53 255.72L147.05 247.34C147.53 247.06 147.92 247.28 147.92 247.84V248.18C147.904 248.481 147.816 248.774 147.665 249.034C147.514 249.295 147.303 249.516 147.05 249.68L132.53 258.06C132.06 258.34 131.67 258.11 131.67 257.56V257.22C131.685 256.92 131.771 256.628 131.921 256.367C132.07 256.106 132.279 255.885 132.53 255.72Z" fill="#E0E0E0"/>
<path d="M132.53 260.41L147.05 252C147.53 251.72 147.92 251.94 147.92 252.5V252.84C147.904 253.141 147.816 253.434 147.665 253.694C147.514 253.955 147.303 254.176 147.05 254.34L132.53 262.72C132.06 263 131.67 262.77 131.67 262.22V261.88C131.69 261.585 131.778 261.299 131.927 261.044C132.076 260.789 132.283 260.572 132.53 260.41Z" fill="#E0E0E0"/>
<path d="M132.53 265.1L147.05 256.72C147.53 256.44 147.92 256.66 147.92 257.22V257.56C147.904 257.861 147.816 258.154 147.665 258.414C147.514 258.675 147.303 258.896 147.05 259.06L132.53 267.44C132.06 267.72 131.67 267.49 131.67 266.94V266.6C131.685 266.3 131.771 266.008 131.921 265.747C132.07 265.486 132.279 265.265 132.53 265.1Z" fill="#E0E0E0"/>
<path d="M132.53 269.79L147.05 261.41C147.53 261.13 147.92 261.35 147.92 261.91V262.25C147.904 262.551 147.816 262.844 147.665 263.104C147.514 263.365 147.303 263.586 147.05 263.75L132.53 272.13C132.06 272.41 131.67 272.18 131.67 271.63V271.29C131.685 270.99 131.771 270.698 131.921 270.437C132.07 270.176 132.279 269.955 132.53 269.79Z" fill="#E0E0E0"/>
<path d="M132.53 274.48L147.05 266.1C147.53 265.82 147.92 266.05 147.92 266.6V266.94C147.905 267.241 147.819 267.535 147.667 267.796C147.516 268.057 147.304 268.278 147.05 268.44L132.53 276.82C132.06 277.1 131.67 276.88 131.67 276.32V276C131.685 275.697 131.77 275.402 131.919 275.138C132.069 274.874 132.278 274.649 132.53 274.48Z" fill="#E0E0E0"/>
<path d="M132.53 279.17L147.05 270.79C147.53 270.51 147.92 270.74 147.92 271.29V271.63C147.905 271.931 147.819 272.225 147.667 272.486C147.516 272.747 147.304 272.968 147.05 273.13L132.53 281.51C132.06 281.79 131.67 281.57 131.67 281.01V280.67C131.688 280.371 131.774 280.079 131.924 279.819C132.073 279.559 132.28 279.337 132.53 279.17Z" fill="#E0E0E0"/>
<path d="M132.53 283.86L147.05 275.48C147.53 275.2 147.92 275.43 147.92 275.98V276.32C147.905 276.621 147.819 276.915 147.667 277.176C147.516 277.437 147.304 277.658 147.05 277.82L132.53 286.2C132.06 286.48 131.67 286.26 131.67 285.7V285.36C131.688 285.06 131.774 284.769 131.924 284.509C132.073 284.249 132.28 284.026 132.53 283.86Z" fill="#E0E0E0"/>
<path d="M104.53 302.38L118.18 294.49C118.9 294.08 119.48 294.42 119.48 295.24V306.32C119.456 306.771 119.325 307.21 119.099 307.601C118.873 307.992 118.558 308.324 118.18 308.57L104.53 316.45C103.82 316.86 103.23 316.53 103.23 315.7V304.63C103.254 304.179 103.385 303.74 103.611 303.349C103.837 302.958 104.152 302.626 104.53 302.38Z" fill="#E0E0E0"/>
<path d="M104.1 319L118.62 310.62C119.1 310.35 119.48 310.57 119.48 311.12V311.47C119.465 311.77 119.379 312.062 119.229 312.323C119.08 312.584 118.871 312.805 118.62 312.97L104.1 321.35C103.62 321.63 103.23 321.4 103.23 320.85V320.5C103.247 320.199 103.335 319.907 103.486 319.646C103.637 319.386 103.847 319.164 104.1 319Z" fill="#E0E0E0"/>
<path d="M104.1 323.73L118.62 315.35C119.1 315.08 119.48 315.3 119.48 315.85V316.2C119.465 316.5 119.379 316.792 119.229 317.053C119.08 317.314 118.871 317.535 118.62 317.7L104.1 326.08C103.62 326.36 103.23 326.13 103.23 325.58V325.23C103.247 324.929 103.335 324.637 103.486 324.376C103.637 324.116 103.847 323.894 104.1 323.73Z" fill="#E0E0E0"/>
<path d="M104.1 328.43L118.62 320C119.1 319.73 119.48 319.95 119.48 320.5V320.85C119.465 321.15 119.379 321.442 119.229 321.703C119.08 321.964 118.871 322.185 118.62 322.35L104.1 330.73C103.62 331.01 103.23 330.78 103.23 330.23V329.89C103.251 329.596 103.341 329.31 103.492 329.057C103.643 328.803 103.851 328.589 104.1 328.43Z" fill="#E0E0E0"/>
<path d="M161.4 217.94L175.05 210.06C175.77 209.65 176.35 209.98 176.35 210.81V221.88C176.326 222.331 176.196 222.77 175.97 223.161C175.744 223.552 175.429 223.884 175.05 224.13L161.4 232C160.69 232.41 160.1 232.07 160.1 231.25V220.19C160.128 219.74 160.259 219.302 160.485 218.912C160.711 218.521 161.024 218.189 161.4 217.94Z" fill="#E0E0E0"/>
<path d="M161 234.61L175.52 226.23C175.99 225.96 176.38 226.23 176.38 226.73V227.08C176.362 227.38 176.276 227.671 176.126 227.931C175.977 228.191 175.77 228.414 175.52 228.58L161 237C160.52 237.27 160.13 237 160.13 236.5V236.15C160.141 235.842 160.226 235.542 160.377 235.274C160.529 235.006 160.742 234.778 161 234.61Z" fill="#E0E0E0"/>
<path d="M161 239.3L175.52 230.92C175.99 230.65 176.38 230.92 176.38 231.42V231.77C176.362 232.07 176.276 232.361 176.126 232.621C175.977 232.881 175.77 233.104 175.52 233.27L161 241.65C160.52 241.92 160.13 241.65 160.13 241.15V240.8C160.147 240.499 160.235 240.207 160.386 239.946C160.537 239.686 160.747 239.464 161 239.3Z" fill="#E0E0E0"/>
<path d="M161 244L175.52 235.62C175.99 235.35 176.38 235.57 176.38 236.12V236.47C176.362 236.77 176.276 237.061 176.126 237.321C175.977 237.581 175.77 237.804 175.52 237.97L161 246.34C160.52 246.61 160.13 246.34 160.13 245.84V245.49C160.149 245.191 160.237 244.9 160.388 244.642C160.539 244.383 160.749 244.163 161 244Z" fill="#E0E0E0"/>
<path d="M161 248.68L175.52 240.3C175.99 240.03 176.38 240.25 176.38 240.8V241.15C176.362 241.449 176.276 241.741 176.126 242.001C175.977 242.261 175.77 242.483 175.52 242.65L161 251C160.52 251.27 160.13 251.05 160.13 250.5V250.15C160.152 249.854 160.242 249.568 160.393 249.313C160.543 249.058 160.751 248.841 161 248.68Z" fill="#E0E0E0"/>
<path d="M161 253.37L175.49 245C175.96 244.73 176.35 244.95 176.35 245.5V245.85C176.332 246.15 176.246 246.441 176.096 246.701C175.947 246.961 175.74 247.184 175.49 247.35L161 255.72C160.52 255.99 160.13 255.77 160.13 255.22V254.87C160.147 254.569 160.235 254.277 160.386 254.016C160.537 253.756 160.747 253.534 161 253.37Z" fill="#E0E0E0"/>
<path d="M189.84 201.53L203.49 193.65C204.2 193.23 204.79 193.57 204.79 194.4V205.47C204.763 205.92 204.632 206.358 204.406 206.749C204.18 207.139 203.867 207.472 203.49 207.72L189.84 215.6C189.12 216.01 188.54 215.68 188.54 214.85V203.78C188.564 203.329 188.694 202.89 188.92 202.499C189.146 202.108 189.461 201.776 189.84 201.53Z" fill="#E0E0E0"/>
<path d="M189.4 218.19L203.92 209.81C204.4 209.54 204.79 209.76 204.79 210.31V210.66C204.773 210.961 204.685 211.253 204.534 211.514C204.383 211.774 204.173 211.996 203.92 212.16L189.4 220.54C188.93 220.82 188.54 220.59 188.54 220.04V219.69C188.558 219.391 188.644 219.099 188.794 218.839C188.943 218.579 189.15 218.357 189.4 218.19Z" fill="#E0E0E0"/>
<path d="M189.4 222.89L203.92 214.5C204.4 214.23 204.79 214.45 204.79 215V215.35C204.773 215.651 204.685 215.943 204.534 216.204C204.383 216.464 204.173 216.686 203.92 216.85L189.4 225.23C188.93 225.51 188.54 225.28 188.54 224.73V224.39C188.555 224.09 188.641 223.798 188.791 223.537C188.94 223.276 189.149 223.055 189.4 222.89Z" fill="#E0E0E0"/>
<path d="M189.4 227.58L203.92 219.19C204.4 218.92 204.79 219.14 204.79 219.69V220C204.773 220.301 204.685 220.593 204.534 220.854C204.383 221.114 204.173 221.336 203.92 221.5L189.4 229.88C188.93 230.16 188.54 229.93 188.54 229.38V229.04C188.561 228.747 188.65 228.463 188.799 228.209C188.948 227.956 189.154 227.741 189.4 227.58Z" fill="#E0E0E0"/>
<path d="M189.4 232.27L203.92 223.88C204.4 223.61 204.79 223.88 204.79 224.38V224.73C204.773 225.031 204.685 225.323 204.534 225.584C204.383 225.844 204.173 226.066 203.92 226.23L189.4 234.61C188.93 234.89 188.54 234.61 188.54 234.11V233.77C188.555 233.47 188.641 233.178 188.791 232.917C188.94 232.656 189.149 232.435 189.4 232.27Z" fill="#E0E0E0"/>
<path d="M189.4 237L203.92 228.61C204.4 228.34 204.79 228.61 204.79 229.11V229.46C204.773 229.761 204.685 230.053 204.534 230.314C204.383 230.574 204.173 230.796 203.92 230.96L189.4 239.3C188.93 239.58 188.54 239.3 188.54 238.8V238.46C188.561 238.167 188.65 237.883 188.799 237.629C188.948 237.376 189.154 237.161 189.4 237Z" fill="#E0E0E0"/>
<path d="M189.4 241.65L203.92 233.27C204.4 232.99 204.79 233.21 204.79 233.77V234.11C204.774 234.411 204.686 234.704 204.535 234.964C204.384 235.225 204.173 235.446 203.92 235.61L189.4 244C188.93 244.28 188.54 244 188.54 243.5V243.16C188.554 242.858 188.64 242.565 188.789 242.302C188.939 242.04 189.148 241.816 189.4 241.65Z" fill="#E0E0E0"/>
<path d="M189.4 246.34L203.92 238C204.4 237.72 204.79 237.94 204.79 238.5V238.84C204.774 239.141 204.686 239.434 204.535 239.694C204.384 239.955 204.173 240.176 203.92 240.34L189.4 248.72C188.93 249 188.54 248.72 188.54 248.22V247.88C188.55 247.573 188.633 247.273 188.783 247.005C188.932 246.737 189.144 246.509 189.4 246.34Z" fill="#E0E0E0"/>
<path d="M189.4 251L203.92 242.62C204.4 242.34 204.79 242.56 204.79 243.12V243.46C204.774 243.761 204.686 244.054 204.535 244.314C204.384 244.575 204.173 244.796 203.92 244.96L189.4 253.34C188.93 253.62 188.54 253.4 188.54 252.84V252.5C188.556 252.2 188.642 251.908 188.792 251.648C188.941 251.387 189.149 251.165 189.4 251Z" fill="#E0E0E0"/>
<path d="M161.4 269.54L175.05 261.66C175.77 261.25 176.35 261.58 176.35 262.41V273.48C176.326 273.931 176.196 274.37 175.97 274.761C175.744 275.152 175.429 275.484 175.05 275.73L161.4 283.62C160.69 284.03 160.1 283.69 160.1 282.87V271.79C160.128 271.34 160.259 270.902 160.485 270.512C160.711 270.121 161.024 269.789 161.4 269.54Z" fill="#E0E0E0"/>
<path d="M161 286.21L175.52 277.83C175.99 277.56 176.38 277.78 176.38 278.33V278.68C176.362 278.979 176.276 279.271 176.126 279.531C175.977 279.791 175.77 280.013 175.52 280.18L161 288.56C160.52 288.83 160.13 288.61 160.13 288.06V287.71C160.147 287.409 160.235 287.117 160.386 286.856C160.537 286.596 160.747 286.374 161 286.21Z" fill="#E0E0E0"/>
<path d="M161 290.9L175.52 282.52C175.99 282.25 176.38 282.52 176.38 283.02V283.37C176.362 283.669 176.276 283.961 176.126 284.221C175.977 284.481 175.77 284.703 175.52 284.87L161 293.25C160.52 293.52 160.13 293.3 160.13 292.75V292.4C160.147 292.099 160.235 291.807 160.386 291.546C160.537 291.286 160.747 291.064 161 290.9Z" fill="#E0E0E0"/>
<path d="M161 295.59L175.52 287.21C175.99 286.94 176.38 287.21 176.38 287.71V288.06C176.362 288.359 176.276 288.651 176.126 288.911C175.977 289.171 175.77 289.393 175.52 289.56L161 297.94C160.52 298.21 160.13 297.99 160.13 297.44V297.09C160.147 296.789 160.235 296.497 160.386 296.236C160.537 295.976 160.747 295.754 161 295.59Z" fill="#E0E0E0"/>
<path d="M132.3 204.06C132.1 203.993 132 203.803 132 203.49C132.012 203.186 132.073 202.885 132.18 202.6L133.26 199.16C133.329 198.849 133.485 198.565 133.71 198.34C133.784 198.3 133.866 198.279 133.95 198.279C134.034 198.279 134.116 198.3 134.19 198.34C134.746 198.573 135.352 198.662 135.951 198.599C136.551 198.536 137.124 198.323 137.62 197.98C138.514 197.459 139.215 196.662 139.62 195.71C140.088 194.541 140.309 193.288 140.27 192.03V171.86C140.251 171.278 140.357 170.698 140.58 170.16C140.82 169.664 141.212 169.257 141.7 169L143.92 167.72C144.42 167.43 144.78 167.39 144.99 167.61C145.254 168.007 145.368 168.486 145.31 168.96V189.2C145.346 192.04 144.745 194.853 143.55 197.43C142.462 199.802 140.662 201.777 138.4 203.08C135.993 204.473 133.96 204.8 132.3 204.06Z" fill="#455A64"/>
<path d="M150.31 191.91C148.517 190.07 147.62 186.547 147.62 181.34C147.518 176.642 148.436 171.979 150.31 167.67C151.908 163.985 154.636 160.903 158.1 158.87C161.49 156.87 164.1 156.87 165.87 158.69C167.64 160.51 168.56 164.04 168.56 169.25C168.662 173.948 167.744 178.611 165.87 182.92C164.276 186.599 161.556 189.677 158.1 191.71C154.7 193.67 152.103 193.737 150.31 191.91ZM162.23 181.07C163.247 178.182 163.722 175.131 163.63 172.07C163.63 168.463 163.163 166.01 162.23 164.71C161.3 163.41 159.93 163.29 158.1 164.34C156.16 165.529 154.69 167.352 153.94 169.5C152.925 172.388 152.453 175.44 152.55 178.5C152.55 182.1 153.01 184.56 153.94 185.85C154.87 187.14 156.26 187.27 158.1 186.2C160.032 185.023 161.492 183.209 162.23 181.07Z" fill="#455A64"/>
<path d="M171.34 182.89C171.076 182.504 170.962 182.034 171.02 181.57V154.14C171.003 153.554 171.113 152.971 171.34 152.43C171.547 151.966 171.898 151.58 172.34 151.33L181.14 146.24C183.353 144.967 185.02 144.793 186.14 145.72C187.26 146.647 187.81 148.48 187.79 151.22C187.791 152.67 187.565 154.11 187.12 155.49C186.731 156.77 186.104 157.964 185.27 159.01C187.33 158.87 188.36 160.603 188.36 164.21C188.359 165.98 188.093 167.739 187.57 169.43C187.044 171.136 186.229 172.739 185.16 174.17C184.088 175.61 182.725 176.81 181.16 177.69L172.36 182.78C171.89 183.05 171.55 183.09 171.34 182.89ZM180.34 159.45C181.143 158.98 181.79 158.285 182.2 157.45C182.668 156.496 182.897 155.442 182.87 154.38C182.87 153.12 182.66 152.38 182.25 152.03C181.84 151.68 181.2 151.83 180.34 152.32L176 154.84V162L180.34 159.45ZM180.82 172.31C181.713 171.806 182.416 171.023 182.82 170.08C183.261 169.065 183.483 167.967 183.47 166.86C183.47 165.54 183.22 164.69 182.72 164.32C182.22 163.95 181.51 164.02 180.61 164.54L176 167.19V175.1L180.82 172.31Z" fill="#455A64"/>
<path d="M192.81 170.9C191.669 171.234 190.45 171.185 189.34 170.76C189.209 170.703 189.097 170.609 189.017 170.491C188.937 170.372 188.893 170.233 188.89 170.09C188.903 169.84 188.953 169.594 189.04 169.36L190.28 165.64C190.33 165.373 190.467 165.131 190.67 164.95C190.739 164.913 190.817 164.894 190.895 164.894C190.973 164.894 191.051 164.913 191.12 164.95C191.952 165.173 192.823 165.207 193.67 165.05C194.696 164.866 195.682 164.5 196.58 163.97C197.621 163.409 198.51 162.602 199.17 161.62C199.749 160.659 200.04 159.552 200.01 158.43C200.061 157.802 199.918 157.174 199.6 156.63C199.308 156.248 198.876 155.997 198.4 155.93C197.588 155.822 196.769 155.768 195.95 155.77C194.851 155.796 193.754 155.668 192.69 155.39C191.771 155.11 190.99 154.496 190.5 153.67C189.845 152.443 189.547 151.058 189.64 149.67C189.603 146.89 190.322 144.153 191.72 141.75C193.022 139.469 194.906 137.574 197.18 136.26C200.18 134.53 202.45 134.08 204.03 134.89C204.156 134.954 204.263 135.049 204.342 135.167C204.421 135.284 204.468 135.419 204.48 135.56C204.467 135.81 204.417 136.056 204.33 136.29L203.1 140.01C203.051 140.274 202.913 140.514 202.71 140.69C202.642 140.729 202.564 140.75 202.485 140.75C202.406 140.75 202.328 140.729 202.26 140.69C201.04 140.163 199.56 140.4 197.82 141.4C196.817 141.917 195.98 142.706 195.405 143.677C194.83 144.648 194.541 145.762 194.57 146.89C194.525 147.495 194.657 148.099 194.95 148.63C195.18 148.984 195.539 149.235 195.95 149.33C196.636 149.454 197.333 149.511 198.03 149.5H198.87C200.04 149.505 201.203 149.683 202.32 150.03C203.175 150.341 203.872 150.977 204.26 151.8C204.78 153.066 205.009 154.433 204.93 155.8C204.932 158.445 204.243 161.044 202.93 163.34C201.59 165.72 199.617 167.683 197.23 169.01C195.865 169.867 194.373 170.505 192.81 170.9Z" fill="#455A64"/>
<path d="M317.77 74.67L313.71 72.32C313.415 72.1829 313.089 72.1273 312.765 72.159C312.442 72.1906 312.133 72.3084 311.87 72.5L260.2 102.4C259.445 102.894 258.816 103.559 258.365 104.341C257.913 105.122 257.651 105.999 257.6 106.9V213.4C257.566 213.722 257.618 214.048 257.751 214.343C257.885 214.639 258.095 214.893 258.36 215.08L262.36 217.42H262.42C262.707 217.536 263.019 217.578 263.327 217.541C263.635 217.504 263.928 217.39 264.18 217.21L277.83 209.33V217.54C277.83 218.99 278.06 219.83 278.44 220.06L282.44 222.39C282.9 222.64 283.57 222 284.32 220.39L294 199.89L315.77 187.25C316.525 186.756 317.154 186.091 317.605 185.309C318.057 184.528 318.319 183.651 318.37 182.75V76.34C318.42 76.0336 318.391 75.7196 318.286 75.4274C318.181 75.1353 318.003 74.8746 317.77 74.67Z" fill="#59C9A5"/>
<path opacity="0.4" d="M317.67 74.61C317.383 74.5073 317.075 74.4746 316.772 74.5146C316.47 74.5546 316.181 74.6661 315.93 74.84L264.25 104.75C263.499 105.217 262.88 105.867 262.45 106.64L258.39 104.29C258.817 103.515 259.437 102.864 260.19 102.4L311.86 72.49C312.207 72.2769 312.603 72.1564 313.01 72.14C313.251 72.1355 313.489 72.1941 313.7 72.31L317.67 74.61Z" fill="white"/>
<path opacity="0.2" d="M278.51 220.1C278.14 219.87 277.91 219.03 277.91 217.58V209.38L282 207V219.9C282 221.28 282.21 222.12 282.54 222.4L278.51 220.1Z" fill="black"/>
<path opacity="0.1" d="M262.44 217.43L258.38 215.09C258.121 214.901 257.915 214.647 257.784 214.354C257.652 214.061 257.599 213.74 257.63 213.42V106.9C257.666 105.975 257.942 105.076 258.43 104.29L262.49 106.64C262.005 107.427 261.733 108.326 261.7 109.25V215.75C261.662 216.071 261.711 216.395 261.841 216.691C261.971 216.986 262.178 217.241 262.44 217.43Z" fill="black"/>
<path d="M271.94 109.68L308.23 88.68C309.43 87.99 310.4 88.55 310.4 89.93V113C310.359 113.753 310.141 114.486 309.764 115.139C309.387 115.793 308.862 116.348 308.23 116.76L271.94 137.76C270.75 138.45 269.78 137.89 269.78 136.51V113.43C269.821 112.679 270.038 111.949 270.413 111.298C270.789 110.646 271.311 110.092 271.94 109.68Z" fill="#455A64"/>
<path d="M310.4 122.59C310.347 123.319 310.123 124.024 309.746 124.65C309.369 125.275 308.85 125.803 308.23 126.19L271.94 147.14C270.75 147.83 269.78 147.34 269.78 146.04C269.834 145.314 270.058 144.611 270.433 143.988C270.808 143.364 271.324 142.838 271.94 142.45L308.23 121.5C309.43 120.81 310.4 121.3 310.4 122.59Z" fill="#455A64"/>
<path d="M310.4 132C310.347 132.729 310.123 133.434 309.746 134.06C309.369 134.685 308.85 135.213 308.23 135.6L271.94 156.6C270.75 157.29 269.78 156.8 269.78 155.5C269.834 154.774 270.058 154.071 270.433 153.448C270.808 152.824 271.324 152.298 271.94 151.91L308.23 130.91C309.43 130.19 310.4 130.68 310.4 132Z" fill="#455A64"/>
<path d="M310.4 141.35C310.347 142.079 310.123 142.784 309.746 143.41C309.369 144.035 308.85 144.563 308.23 144.95L271.94 165.95C270.75 166.64 269.78 166.15 269.78 164.85C269.834 164.124 270.058 163.421 270.433 162.798C270.808 162.174 271.324 161.648 271.94 161.26L308.23 140.26C309.43 139.57 310.4 140.06 310.4 141.35Z" fill="#455A64"/>
<path d="M310.4 150.73C310.347 151.459 310.123 152.164 309.746 152.79C309.369 153.415 308.85 153.943 308.23 154.33L271.94 175.28C270.75 175.97 269.78 175.48 269.78 174.18C269.834 173.454 270.058 172.751 270.433 172.128C270.808 171.504 271.324 170.978 271.94 170.59L308.23 149.59C309.43 149 310.4 149.44 310.4 150.73Z" fill="#455A64"/>
<path d="M269.78 183.57C269.78 184.86 270.78 185.35 271.94 184.66L275.74 182.47C276.356 182.082 276.872 181.556 277.247 180.932C277.622 180.309 277.846 179.606 277.9 178.88C277.9 177.58 276.9 177.09 275.74 177.78L271.94 179.97C271.323 180.359 270.806 180.887 270.431 181.512C270.055 182.138 269.833 182.843 269.78 183.57Z" fill="#455A64"/>
<path d="M283.4 175.72C283.4 177.01 284.4 177.5 285.57 176.81L308.23 163.71C308.85 163.323 309.369 162.795 309.746 162.17C310.123 161.544 310.347 160.839 310.4 160.11C310.4 158.82 309.4 158.33 308.23 159.02L285.57 172.12C284.95 172.507 284.431 173.035 284.054 173.66C283.677 174.286 283.453 174.992 283.4 175.72Z" fill="#455A64"/>
<path d="M269.78 193C269.78 194.29 270.78 194.78 271.94 194.09L275.74 191.9C276.356 191.512 276.872 190.986 277.247 190.362C277.622 189.739 277.846 189.036 277.9 188.31C277.9 187.01 276.9 186.52 275.74 187.21L271.94 189.4C271.323 189.789 270.806 190.317 270.431 190.942C270.055 191.568 269.833 192.273 269.78 193Z" fill="#455A64"/>
<path d="M283.4 185.1C283.4 186.39 284.4 186.88 285.57 186.19L308.23 173.09C308.85 172.703 309.369 172.175 309.746 171.55C310.123 170.924 310.347 170.219 310.4 169.49C310.4 168.2 309.4 167.71 308.23 168.4L285.57 181.5C284.95 181.887 284.431 182.415 284.054 183.04C283.677 183.666 283.453 184.372 283.4 185.1Z" fill="#455A64"/>
<path d="M269.78 202.33C269.78 203.62 270.78 204.11 271.94 203.42L275.74 201.23C276.356 200.842 276.872 200.316 277.247 199.692C277.622 199.069 277.846 198.366 277.9 197.64C277.9 196.34 276.9 195.85 275.74 196.54L271.94 198.73C271.323 199.119 270.806 199.647 270.431 200.272C270.055 200.898 269.833 201.603 269.78 202.33Z" fill="#455A64"/>
<path d="M283.4 194.48C283.4 195.77 284.4 196.26 285.57 195.57L308.23 182.47C308.848 182.084 309.367 181.558 309.744 180.934C310.121 180.311 310.346 179.607 310.4 178.88C310.4 177.58 309.4 177.09 308.23 177.78L285.57 190.88C284.95 191.267 284.431 191.795 284.054 192.42C283.677 193.046 283.453 193.752 283.4 194.48Z" fill="#455A64"/>
<path d="M366.54 102.75L362.54 100.4C362.245 100.263 361.919 100.207 361.595 100.239C361.272 100.271 360.963 100.388 360.7 100.58L309 130.47C308.245 130.964 307.616 131.629 307.165 132.411C306.713 133.192 306.451 134.069 306.4 134.97V241.47C306.366 241.792 306.418 242.118 306.551 242.413C306.685 242.709 306.895 242.963 307.16 243.15L311.21 245.49H311.26C311.549 245.607 311.863 245.649 312.172 245.612C312.481 245.576 312.777 245.461 313.03 245.28L326.68 237.4V245.61C326.68 247.06 326.91 247.9 327.28 248.13L331.28 250.46H331.33C331.79 250.71 332.46 250.07 333.2 248.46L342.89 227.96L364.66 215.32C365.415 214.826 366.044 214.161 366.495 213.379C366.947 212.598 367.209 211.721 367.26 210.82V104.42C367.296 104.103 367.248 103.782 367.122 103.489C366.996 103.196 366.795 102.941 366.54 102.75Z" fill="#59C9A5"/>
<path opacity="0.4" d="M366.43 102.69C366.143 102.587 365.835 102.555 365.532 102.595C365.23 102.635 364.941 102.746 364.69 102.92L313 132.83C312.249 133.297 311.63 133.947 311.2 134.72L307.14 132.37C307.57 131.597 308.189 130.947 308.94 130.48L360.62 100.57C360.966 100.355 361.363 100.234 361.77 100.22C362.008 100.217 362.242 100.275 362.45 100.39L366.43 102.69Z" fill="white"/>
<path opacity="0.2" d="M327.27 248.18C326.9 247.95 326.67 247.11 326.67 245.66V237.46L330.73 235.11V248C330.73 249.38 330.94 250.22 331.28 250.5L327.27 248.18Z" fill="black"/>
<path opacity="0.1" d="M311.2 245.51L307.15 243.17C306.889 242.982 306.683 242.729 306.551 242.436C306.42 242.142 306.367 241.82 306.4 241.5V135C306.433 134.076 306.705 133.177 307.19 132.39L311.25 134.74C310.765 135.527 310.493 136.426 310.46 137.35V243.85C310.426 244.167 310.477 244.488 310.607 244.78C310.736 245.071 310.941 245.323 311.2 245.51Z" fill="black"/>
<path d="M320.71 137.76L357 116.76C358.19 116.07 359.16 116.63 359.16 118.01V141.14C359.119 141.892 358.903 142.624 358.528 143.277C358.153 143.93 357.629 144.486 357 144.9L320.71 165.9C319.51 166.59 318.54 166.03 318.54 164.65V141.51C318.581 140.758 318.799 140.027 319.176 139.375C319.553 138.723 320.079 138.17 320.71 137.76Z" fill="#455A64"/>
<path d="M359.16 150.67C359.107 151.397 358.885 152.102 358.509 152.728C358.134 153.353 357.617 153.881 357 154.27L320.71 175.22C319.51 175.91 318.54 175.42 318.54 174.12C318.594 173.393 318.819 172.689 319.196 172.066C319.573 171.442 320.092 170.916 320.71 170.53L357 149.58C358.19 148.89 359.16 149.38 359.16 150.67Z" fill="#455A64"/>
<path d="M359.16 160.05C359.107 160.777 358.885 161.482 358.509 162.108C358.134 162.733 357.617 163.261 357 163.65L320.71 184.6C319.51 185.29 318.54 184.8 318.54 183.5C318.594 182.773 318.819 182.069 319.196 181.446C319.573 180.822 320.092 180.296 320.71 179.91L357 159C358.19 158.27 359.16 158.76 359.16 160.05Z" fill="#455A64"/>
<path d="M359.16 169.43C359.103 170.152 358.878 170.851 358.503 171.471C358.128 172.091 357.613 172.614 357 173L320.71 194C319.51 194.69 318.54 194.2 318.54 192.9C318.594 192.173 318.819 191.469 319.196 190.846C319.573 190.222 320.092 189.696 320.71 189.31L357 168.34C358.19 167.65 359.16 168.14 359.16 169.43Z" fill="#455A64"/>
<path d="M359.16 178.81C359.107 179.537 358.885 180.242 358.509 180.868C358.134 181.493 357.617 182.021 357 182.41L320.71 203.41C319.51 204.1 318.54 203.61 318.54 202.31C318.594 201.583 318.819 200.879 319.196 200.256C319.573 199.632 320.092 199.106 320.71 198.72L357 177.72C358.19 177 359.16 177.52 359.16 178.81Z" fill="#455A64"/>
<path d="M318.54 211.65C318.54 212.94 319.54 213.43 320.71 212.74L324.5 210.55C325.118 210.164 325.637 209.638 326.014 209.014C326.391 208.391 326.616 207.687 326.67 206.96C326.67 205.66 325.67 205.17 324.5 205.86L320.71 208.05C320.09 208.437 319.571 208.965 319.194 209.59C318.817 210.216 318.593 210.921 318.54 211.65Z" fill="#455A64"/>
<path d="M332.17 203.8C332.17 205.09 333.17 205.58 334.34 204.89L357 191.79C357.617 191.401 358.134 190.873 358.509 190.248C358.885 189.622 359.108 188.917 359.16 188.19C359.16 186.9 358.16 186.41 357 187.1L334.33 200.2C333.713 200.589 333.196 201.117 332.821 201.742C332.445 202.368 332.223 203.073 332.17 203.8Z" fill="#455A64"/>
<path d="M318.54 221C318.54 222.29 319.54 222.78 320.71 222.09L324.5 219.9C325.118 219.514 325.637 218.988 326.014 218.364C326.391 217.741 326.616 217.037 326.67 216.31C326.67 215.01 325.67 214.52 324.5 215.21L320.71 217.4C320.09 217.787 319.571 218.315 319.194 218.94C318.817 219.566 318.593 220.272 318.54 221Z" fill="#455A64"/>
<path d="M332.17 213.18C332.17 214.47 333.17 214.96 334.34 214.27L357 201.17C357.617 200.781 358.134 200.253 358.509 199.628C358.885 199.002 359.108 198.297 359.16 197.57C359.16 196.28 358.16 195.79 357 196.48L334.33 209.58C333.713 209.969 333.196 210.497 332.821 211.122C332.445 211.748 332.223 212.453 332.17 213.18Z" fill="#455A64"/>
<path d="M318.54 230.41C318.54 231.7 319.54 232.19 320.71 231.5L324.5 229.31C325.118 228.924 325.637 228.398 326.014 227.774C326.391 227.151 326.616 226.447 326.67 225.72C326.67 224.42 325.67 223.93 324.5 224.62L320.71 226.81C320.09 227.197 319.571 227.725 319.194 228.35C318.817 228.976 318.593 229.682 318.54 230.41Z" fill="#455A64"/>
<path d="M332.17 222.56C332.17 223.85 333.17 224.34 334.34 223.65L357 210.55C357.616 210.162 358.132 209.636 358.507 209.012C358.882 208.389 359.106 207.686 359.16 206.96C359.16 205.66 358.16 205.17 357 205.86L334.33 219C333.718 219.385 333.204 219.907 332.829 220.525C332.454 221.143 332.229 221.84 332.17 222.56Z" fill="#455A64"/>
<path d="M419.38 61.47L414 58.39H413.95C411.58 57.06 408.33 57.26 404.73 59.33C397.48 63.52 391.61 73.7 391.61 82.07C391.61 86.24 393.07 89.18 395.44 90.55L400.3 93.33L401.46 91.33C402.784 91.0397 404.056 90.5472 405.23 89.87C412.47 85.69 418.35 75.51 418.35 67.14C418.346 66.0111 418.209 64.8866 417.94 63.79L419.38 61.47Z" fill="#59C9A5"/>
<path d="M391.64 82C391.64 86.18 393.1 89.12 395.47 90.49L400.33 93.27L401.49 91.33C402.813 91.0313 404.084 90.5358 405.26 89.86C409.403 87.2523 412.768 83.5769 415 79.22L396 68.22C393.331 72.3363 391.825 77.0976 391.64 82Z" fill="#263238"/>
<path d="M419.39 61.47L414.05 58.39H414C411.63 57.05 408.38 57.25 404.78 59.33C401.177 61.5479 398.165 64.6049 396 68.24L415 79.24C417.068 75.568 418.22 71.4518 418.36 67.24C418.356 66.1111 418.219 64.9866 417.95 63.89L419.39 61.47Z" fill="#455A64"/>
<path d="M409.83 62.22C402.59 66.4 396.71 76.58 396.71 85C396.71 93.42 402.59 96.76 409.83 92.57C417.07 88.38 423 78.16 423 69.79C423 61.42 417.08 58 409.83 62.22Z" fill="#37474F"/>
<path d="M410.79 69.15C411.179 69.0146 411.596 68.9836 412 69.06C412.33 69.1364 412.633 69.2986 412.88 69.53C413.118 69.7622 413.3 70.0462 413.41 70.36C413.536 70.6794 413.611 71.0171 413.63 71.36C413.637 71.527 413.599 71.6926 413.52 71.84C413.459 71.9715 413.362 72.0826 413.24 72.16L412.24 72.73C412.08 72.83 411.96 72.85 411.88 72.8C411.782 72.7373 411.706 72.6468 411.66 72.54C411.591 72.4109 411.497 72.2968 411.384 72.2041C411.271 72.1114 411.14 72.0421 411 72C410.776 71.9678 410.548 71.9813 410.33 72.0398C410.112 72.0982 409.908 72.2004 409.73 72.34C409.476 72.4829 409.24 72.6576 409.03 72.86C408.81 73.0626 408.615 73.2909 408.45 73.54C408.285 73.7807 408.153 74.0432 408.06 74.32C407.969 74.5839 407.922 74.8609 407.92 75.14C407.899 75.3939 407.955 75.6482 408.08 75.87C408.138 75.9474 408.214 76.0102 408.301 76.0535C408.387 76.0969 408.483 76.1196 408.58 76.12C408.879 76.1334 409.179 76.103 409.47 76.03L410.79 75.72C411.256 75.5968 411.738 75.5428 412.22 75.56C412.584 75.5664 412.936 75.693 413.22 75.92C413.49 76.1643 413.678 76.4854 413.76 76.84C413.873 77.3284 413.927 77.8287 413.92 78.33C413.913 78.8934 413.839 79.454 413.7 80C413.554 80.5807 413.346 81.144 413.08 81.68C412.804 82.2318 412.469 82.7515 412.08 83.23C411.695 83.7121 411.255 84.1483 410.77 84.53V86C410.767 86.1639 410.726 86.3247 410.65 86.47C410.599 86.604 410.508 86.7192 410.39 86.8L409.24 87.46C409.203 87.4938 409.155 87.5125 409.105 87.5125C409.055 87.5125 409.007 87.4938 408.97 87.46C408.93 87.4136 408.9 87.3595 408.881 87.3011C408.862 87.2427 408.855 87.1812 408.86 87.12V85.64C408.478 85.774 408.074 85.8351 407.67 85.82C407.314 85.8043 406.969 85.6938 406.67 85.5C406.379 85.2901 406.148 85.0073 406 84.68C405.817 84.2533 405.722 83.7942 405.72 83.33C405.711 83.1629 405.749 82.9965 405.83 82.85C405.887 82.7168 405.981 82.6024 406.1 82.52L407.1 81.95C407.26 81.86 407.38 81.83 407.47 81.87C407.569 81.9332 407.643 82.0285 407.68 82.14C407.75 82.2886 407.83 82.4323 407.92 82.57C408.015 82.7004 408.147 82.7982 408.3 82.85C408.497 82.8961 408.703 82.8961 408.9 82.85C409.22 82.7759 409.524 82.6474 409.8 82.47C410.089 82.3029 410.363 82.1123 410.62 81.9C410.875 81.6853 411.106 81.4439 411.31 81.18C411.506 80.9186 411.667 80.6329 411.79 80.33C411.912 80.0318 411.973 79.7122 411.97 79.39C411.984 79.2706 411.974 79.1495 411.939 79.0343C411.905 78.9191 411.847 78.8121 411.77 78.72C411.686 78.6534 411.59 78.6041 411.487 78.575C411.384 78.5458 411.276 78.5373 411.17 78.55C410.832 78.5685 410.497 78.6222 410.17 78.71C409.77 78.81 409.32 78.9 408.8 79C408.394 79.0958 407.975 79.1262 407.56 79.09C407.237 79.0681 406.93 78.9378 406.69 78.72C406.439 78.4604 406.26 78.1399 406.17 77.79C406.046 77.2695 405.989 76.7351 406 76.2C405.999 75.6295 406.073 75.0614 406.22 74.51C406.359 73.949 406.554 73.403 406.8 72.88C407.045 72.3584 407.347 71.8654 407.7 71.41C408.038 70.9661 408.42 70.5574 408.84 70.19V68.72C408.844 68.5575 408.882 68.3975 408.95 68.25C409.007 68.1168 409.101 68.0024 409.22 67.92L410.37 67.26C410.405 67.227 410.452 67.2086 410.5 67.2086C410.548 67.2086 410.595 67.227 410.63 67.26C410.673 67.3046 410.707 67.3581 410.727 67.4168C410.748 67.4755 410.756 67.538 410.75 67.6L410.79 69.15Z" fill="#FAFAFA"/>
<path d="M419.38 159.32L414 156.24H413.95C411.58 154.9 408.33 155.1 404.73 157.18C397.48 161.36 391.61 171.54 391.61 179.91C391.61 184.09 393.07 187.02 395.44 188.4L400.3 191.17L401.46 189.23C402.783 188.935 404.054 188.443 405.23 187.77C412.47 183.58 418.35 173.4 418.35 165.03C418.345 163.901 418.208 162.777 417.94 161.68L419.38 159.32Z" fill="#59C9A5"/>
<path d="M391.64 179.89C391.64 184.07 393.1 187 395.47 188.38L400.33 191.15L401.49 189.21C402.813 188.911 404.084 188.416 405.26 187.74C409.407 185.128 412.772 181.445 415 177.08L396 166.08C393.329 170.206 391.822 174.978 391.64 179.89Z" fill="#263238"/>
<path d="M419.39 159.32L414.05 156.24H414C411.63 154.9 408.38 155.1 404.78 157.18C401.182 159.406 398.176 162.47 396.02 166.11L415.02 177.11C417.106 173.405 418.262 169.25 418.39 165C418.386 163.871 418.248 162.747 417.98 161.65L419.39 159.32Z" fill="#455A64"/>
<path d="M409.83 160.07C402.59 164.25 396.71 174.43 396.71 182.8C396.71 191.17 402.59 194.56 409.83 190.38C417.07 186.2 423 176 423 167.65C423 159.3 417.08 155.89 409.83 160.07Z" fill="#37474F"/>
<path d="M416.51 178.21L403.16 185.92C403 186.01 402.88 185.92 402.88 185.65V173.81C402.877 173.695 402.901 173.581 402.949 173.477C402.998 173.373 403.07 173.281 403.16 173.21L416.51 165.5C416.66 165.41 416.79 165.5 416.79 165.77V177.62C416.792 177.733 416.767 177.845 416.719 177.948C416.67 178.05 416.599 178.14 416.51 178.21Z" fill="#FAFAFA"/>
<path d="M412.46 168.62C412.31 168.71 412.18 168.62 412.18 168.35V166.55L407.49 169.26V171.06C407.492 171.176 407.467 171.29 407.416 171.394C407.366 171.499 407.292 171.59 407.2 171.66C407.05 171.75 406.92 171.66 406.92 171.39V169.15C406.918 169.037 406.943 168.925 406.991 168.822C407.04 168.72 407.111 168.63 407.2 168.56L412.46 165.56C412.62 165.47 412.74 165.56 412.74 165.83V168C412.748 168.118 412.727 168.237 412.678 168.345C412.629 168.453 412.554 168.548 412.46 168.62Z" fill="#FAFAFA"/>
<path d="M412.46 166.39L407.2 169.39C407.05 169.48 406.92 169.39 406.92 169.12V168.12C406.919 168.005 406.944 167.892 406.992 167.788C407.041 167.685 407.112 167.593 407.2 167.52L412.46 164.52C412.62 164.43 412.74 164.52 412.74 164.79V165.79C412.743 165.905 412.719 166.019 412.671 166.123C412.622 166.227 412.55 166.319 412.46 166.39Z" fill="#FAFAFA"/>
<path d="M411.74 173.78L407.92 175.98C407.81 176.05 407.72 175.98 407.72 175.78V175.06C407.718 174.978 407.736 174.896 407.77 174.822C407.805 174.747 407.856 174.682 407.92 174.63L411.74 172.43C411.86 172.36 411.95 172.43 411.95 172.62V173.34C411.952 173.425 411.934 173.509 411.898 173.585C411.861 173.662 411.807 173.728 411.74 173.78Z" fill="#37474F"/>
<path d="M419.38 110.4L414 107.31H413.95C411.58 105.97 408.33 106.17 404.73 108.25C397.48 112.44 391.61 122.61 391.61 130.98C391.61 135.16 393.07 138.1 395.44 139.47L400.3 142.24L401.46 140.3C402.784 140.01 404.056 139.517 405.23 138.84C412.47 134.65 418.35 124.48 418.35 116.11C418.346 114.978 418.208 113.85 417.94 112.75L419.38 110.4Z" fill="#59C9A5"/>
<path d="M391.64 131C391.64 135.18 393.1 138.12 395.47 139.49L400.33 142.26L401.49 140.32C402.814 140.03 404.086 139.537 405.26 138.86C409.413 136.233 412.778 132.533 415 128.15L396 117.15C393.322 121.288 391.815 126.074 391.64 131Z" fill="#263238"/>
<path d="M419.39 110.4L414.05 107.31H414C411.63 105.98 408.38 106.17 404.78 108.25C401.182 110.476 398.176 113.54 396.02 117.18L415.02 128.18C417.093 124.492 418.246 120.359 418.38 116.13C418.376 114.998 418.238 113.87 417.97 112.77L419.39 110.4Z" fill="#455A64"/>
<path d="M409.83 111.14C402.59 115.33 396.71 125.5 396.71 133.87C396.71 142.24 402.59 145.64 409.83 141.45C417.07 137.26 423 127.09 423 118.72C423 110.35 417.08 107 409.83 111.14Z" fill="#37474F"/>
<path d="M405 124.46C405 122.56 406 120.46 407.24 119.72C408.48 118.98 409.48 119.97 409.48 121.88C409.48 123.79 408.48 125.88 407.24 126.62C406 127.36 405 126.37 405 124.46Z" fill="white"/>
<path d="M411.24 134.06L403 138.82L403.44 133.34C403.63 131.01 404.86 128.62 406.32 127.78L407.91 126.86C409.37 126.02 410.6 126.98 410.79 129.1L411.24 134.06Z" fill="white"/>
<path d="M410.44 118.75C410.44 116.85 411.44 114.75 412.68 114.01C413.92 113.27 414.92 114.26 414.92 116.17C414.92 118.08 413.92 120.17 412.68 120.91C411.44 121.65 410.44 120.66 410.44 118.75Z" fill="white"/>
<path d="M416.66 128.35L411.61 131.27L411.38 128.65C411.21 126.81 410.38 125.65 409.28 125.65C409.667 124.216 410.54 122.961 411.75 122.1L413.34 121.19C414.8 120.34 416.03 121.3 416.22 123.42L416.66 128.35Z" fill="white"/>
<path d="M282.5 314.82C282.5 308.62 278.4 302.42 270.2 297.69C253.81 288.22 227.2 288.22 210.84 297.69C202.64 302.42 198.54 308.62 198.54 314.82V326.25C198.54 332.45 202.64 338.65 210.84 343.39C227.23 352.85 253.84 352.85 270.2 343.39C278.4 338.65 282.5 332.45 282.5 326.25V314.82ZM212.87 301.2C220.19 296.97 230.01 294.65 240.52 294.65C251.03 294.65 260.85 296.97 268.17 301.2C274.79 305.02 278.44 309.86 278.44 314.82C278.44 319.78 274.79 324.62 268.17 328.44C260.85 332.67 251 335 240.52 335C230.04 335 220.19 332.67 212.87 328.44C206.25 324.62 202.6 319.78 202.6 314.82C202.6 309.86 206.25 305 212.87 301.2Z" fill="#59C9A5"/>
<path opacity="0.3" d="M210.83 332C227.23 341.46 253.83 341.46 270.2 332C286.57 322.54 286.59 307.19 270.2 297.73C253.81 288.27 227.2 288.26 210.83 297.73C194.46 307.2 194.44 322.5 210.83 332ZM202.6 314.86C202.6 309.86 206.24 305.06 212.86 301.24C220.18 297.01 230.01 294.69 240.52 294.69C251.03 294.69 260.85 297.01 268.17 301.24C274.79 305.06 278.43 309.9 278.43 314.86C278.43 319.82 274.79 324.66 268.17 328.48C260.85 332.67 251 335 240.52 335C230.04 335 220.18 332.67 212.86 328.44C206.24 324.62 202.6 319.78 202.6 314.82V314.86Z" fill="white"/>
<path d="M202.6 314.82C202.624 316.839 203.191 318.815 204.24 320.54C205.9 317.66 208.83 314.95 212.87 312.63C220.18 308.4 230.01 306.07 240.52 306.07C251.03 306.07 260.85 308.4 268.17 312.63C271.682 314.48 274.658 317.204 276.81 320.54C277.852 318.812 278.415 316.838 278.44 314.82C278.44 309.82 274.79 305.02 268.17 301.2C260.85 296.98 251.03 294.65 240.52 294.65C230.01 294.65 220.18 296.98 212.87 301.2C206.24 305 202.6 309.86 202.6 314.82Z" fill="#59C9A5"/>
<path opacity="0.1" d="M202.6 314.82C202.624 316.839 203.191 318.815 204.24 320.54C205.9 317.66 208.83 314.95 212.87 312.63C220.18 308.4 230.01 306.07 240.52 306.07C251.03 306.07 260.85 308.4 268.17 312.63C271.682 314.48 274.658 317.204 276.81 320.54C277.852 318.812 278.415 316.838 278.44 314.82C278.44 309.82 274.79 305.02 268.17 301.2C260.85 296.98 251.03 294.65 240.52 294.65C230.01 294.65 220.18 296.98 212.87 301.2C206.24 305 202.6 309.86 202.6 314.82Z" fill="black"/>
<path opacity="0.4" d="M212.86 306.37C220.18 302.15 230.01 299.82 240.52 299.82C251.03 299.82 260.85 302.15 268.17 306.37C273.63 309.53 277.06 313.37 278.1 317.37C277.1 321.37 273.63 325.25 268.17 328.37C260.85 332.67 251 335 240.52 335C230.04 335 220.18 332.67 212.86 328.44C207.4 325.29 203.97 321.44 202.94 317.44C204 313.37 207.4 309.53 212.86 306.37Z" fill="white"/>
<path opacity="0.1" d="M230.63 338.38V349.8C223.686 348.939 216.97 346.764 210.84 343.39C202.64 338.65 198.54 332.45 198.54 326.25V314.82C198.543 313.557 198.711 312.3 199.04 311.08C197.04 318.46 200.98 326.27 210.83 331.96C216.962 335.339 223.682 337.517 230.63 338.38Z" fill="black"/>
<path d="M212.08 339.23C212.029 338.21 211.738 337.217 211.23 336.331C210.723 335.444 210.014 334.69 209.16 334.13C208.865 333.914 208.518 333.78 208.155 333.741C207.791 333.702 207.424 333.761 207.09 333.91L193 342C192.697 342.206 192.457 342.491 192.306 342.825C192.154 343.158 192.097 343.526 192.14 343.89C192.184 344.906 192.465 345.898 192.962 346.785C193.459 347.673 194.157 348.431 195 349C195.296 349.217 195.646 349.352 196.011 349.388C196.377 349.425 196.746 349.364 197.08 349.21L211.21 341.15C211.513 340.936 211.753 340.646 211.906 340.308C212.059 339.971 212.119 339.599 212.08 339.23Z" fill="#37474F"/>
<path d="M211.21 341.14C211.511 340.927 211.751 340.638 211.904 340.303C212.056 339.967 212.117 339.597 212.08 339.23C212.068 338.471 211.901 337.722 211.59 337.03L193.36 347.45C193.797 348.071 194.355 348.598 195 349C195.296 349.217 195.646 349.352 196.011 349.388C196.377 349.425 196.746 349.364 197.08 349.21L211.21 341.15V341.14Z" fill="#263238"/>
<path d="M197.38 349C197.315 347.671 196.937 346.375 196.277 345.22C195.616 344.064 194.692 343.081 193.58 342.35C193.2 342.074 192.755 341.902 192.289 341.851C191.822 341.8 191.35 341.872 190.92 342.06L144.05 367.06L151.05 379.42L196.29 351.42C196.667 351.147 196.966 350.78 197.157 350.355C197.348 349.931 197.425 349.463 197.38 349Z" fill="#59C9A5"/>
<path opacity="0.1" d="M151 379.41L196.24 351.41C196.632 351.137 196.944 350.764 197.143 350.329C197.341 349.895 197.42 349.415 197.37 348.94C197.313 347.517 196.874 346.135 196.1 344.94L147.4 373L151 379.41Z" fill="black"/>
<path d="M147.47 379C146.009 378.042 144.795 376.754 143.926 375.238C143.058 373.723 142.559 372.024 142.47 370.28C142.47 367.08 144.73 365.79 147.47 367.4C148.93 368.355 150.145 369.642 151.014 371.156C151.882 372.67 152.381 374.367 152.47 376.11C152.49 379.36 150.24 380.65 147.47 379Z" fill="#59C9A5"/>
<g opacity="0.2">
<path d="M147.47 379C146.009 378.042 144.795 376.754 143.926 375.238C143.058 373.723 142.559 372.024 142.47 370.28C142.47 367.08 144.73 365.79 147.47 367.4C148.93 368.355 150.145 369.642 151.014 371.156C151.882 372.67 152.381 374.367 152.47 376.11C152.49 379.36 150.24 380.65 147.47 379Z" fill="black"/>
</g>
<path d="M423.73 268.56C424.24 249.56 422.73 244.99 417.66 241.5L415.66 252.5C415.66 252.5 417.97 265.5 417.72 269.81C417.51 273.61 417.14 278.37 416.24 281.44C416.075 281.98 415.72 282.442 415.24 282.74C414.192 283.486 413.256 284.379 412.46 285.39C411.7 286.19 411.05 286.39 411.15 286.64C411.296 286.919 411.542 287.133 411.838 287.238C412.135 287.344 412.461 287.334 412.75 287.21C413.399 286.953 414.013 286.617 414.58 286.21C414.132 287.376 413.501 288.463 412.71 289.43C410.9 291.64 410.82 293 414.47 293.04C416.76 293.04 418.59 291.65 420.31 286.61C420.975 284.762 421.513 282.871 421.92 280.95C422.776 276.861 423.381 272.723 423.73 268.56Z" fill="#FFA8A7"/>
<path d="M413.4 240.06C414.955 239.782 416.559 240.017 417.97 240.729C419.38 241.442 420.521 242.593 421.22 244.01C423.34 247.8 423.86 254.33 424.1 260.82C424.1 260.82 419.89 264.35 414.83 262.62L413.4 240.06Z" fill="#59C9A5"/>
<path d="M420.51 344.66C420.89 344.81 420.99 345.54 421.05 346.99C421.05 348.09 421.32 349.99 420.05 350.4C418.78 350.81 416.87 350.58 416.05 349.55C415.05 348.25 414.32 347.12 412.85 345.55C411.57 344.18 410.19 342.9 409.68 340.98C409.21 339.24 409.6 338.49 410.78 337.98C412.41 337.29 414.97 339.56 416.25 339.91C417.33 340.21 420.12 344.52 420.51 344.66Z" fill="#263238"/>
<path d="M420.51 343.32V345.1C419.841 345.529 419.067 345.768 418.272 345.789C417.477 345.81 416.691 345.613 416 345.22C415.92 345.05 415.53 342.67 415.53 342.67L420.51 343.32Z" fill="#FFA8A7"/>
<path d="M406.05 355C406.366 355.955 406.629 356.926 406.84 357.91C407.06 358.99 407.38 360.79 407 361.6C406.62 362.41 405.15 362.94 402.86 362.92C400.96 363.152 399.132 363.79 397.5 364.79C395.371 365.694 393.054 366.061 390.75 365.86C388.75 365.63 386.61 364.45 386.28 363.61C385.95 362.77 386.39 361.89 391.18 359.85C391.18 359.85 397.84 357.68 400.18 355.12L406.05 355Z" fill="#263238"/>
<path d="M406.05 353V355.08C406.05 355.84 405.17 356.97 402.85 356.88C401.23 356.82 400.09 356.39 400.16 355.05V353.12L406.05 353Z" fill="#FFA8A7"/>
<path d="M421.67 319.64C421.274 316.478 420.567 313.363 419.56 310.34C419.56 310.34 420.2 302.34 420.5 294.72C420.83 286.51 420.5 276.18 420.64 274.13C420.64 274.13 394.14 268.77 393.64 278.27C393.14 287.77 394.64 311.93 395 316.1C395.36 320.27 396 323.95 396.89 330.71C397.78 337.47 400.13 353.14 400.13 353.14C401.046 353.607 402.063 353.84 403.09 353.819C404.118 353.798 405.124 353.523 406.02 353.02C406.02 353.02 407.89 334.02 407.69 329.23C407.54 325.663 406.928 322.13 405.87 318.72C405.87 318.72 406.37 310.89 406.81 304.08C407.25 297.27 407.73 294 407.81 291.08L408.38 290.8C408.38 290.8 408.96 302.55 409.28 306.72C409.6 310.89 410.28 314.89 411.46 322.63C412.51 329.35 415.62 343.57 415.62 343.57C418.62 345.21 420.46 343.36 420.46 343.36C420.46 343.36 422.48 325.47 421.67 319.64Z" fill="#37474F"/>
<path d="M407.86 291C407.86 291 414.29 287.83 417.51 285C417.51 285 414.51 289.21 410.6 291.07C410.6 291.07 409.2 305.67 409.21 305.38L408.4 291H407.86Z" fill="#263238"/>
<path d="M402.14 237.05L403.71 245.68L411.5 245.11L409.87 235.33L402.14 237.05Z" fill="#FFA8A7"/>
<path d="M419.74 244.48C418.96 242.13 415.99 239.58 413.01 240.13C408.597 240.887 404.248 241.976 400 243.39C397.27 244.39 394.79 246.72 394.56 255.69C394.56 255.69 393.65 276.61 393.63 280.69C399.322 282.923 405.521 283.536 411.54 282.46C419.74 280.67 420.73 277.27 420.73 277.27C420.73 277.27 420.83 262.27 420.59 255.73C420.34 250.18 420.27 246.09 419.74 244.48Z" fill="#F5F5F5"/>
<path d="M396.12 226.55C396.12 226.55 394.12 229.7 394.39 230C394.66 230.3 396.14 230.54 396.14 230.54L396.12 226.55Z" fill="#FFA8A7"/>
<path d="M401.61 217.83C397.49 218.83 396.34 220.65 396.09 227.23C395.84 234.12 396.59 236.23 397.52 237.17C398.14 237.78 401.52 237.82 403.23 237.31C405.36 236.67 410.15 234.85 412.34 231.31C414.91 227.18 415.49 221.65 412.58 219.45C408.5 216.39 403.29 217.44 401.61 217.83Z" fill="#FFA8A7"/>
<path d="M396.14 219.55C397.087 220.929 398.424 221.995 399.98 222.61C400.77 223.51 400.33 227.02 401.72 227.61C401.72 227.61 402.32 225.05 404.47 225.32C406.62 225.59 406.98 228.32 405.66 230.04C404.34 231.76 403.06 231.13 403.06 231.13C403.06 231.13 403.21 234.76 404.87 236.78C406.594 237.116 408.374 237.033 410.06 236.54C412.12 236.05 414.99 233.39 416.16 230.62C418.64 224.77 418.7 219.55 414.96 218.07C414.5 215.4 412.37 214.25 409.96 213.76C404.77 212.69 401.43 215.93 397.44 215.64C395.15 215.45 394.72 217.12 396.14 219.55Z" fill="#263238"/>
<path d="M415.05 218.93L417.49 217.41C417.396 217.237 417.268 217.086 417.114 216.964C416.96 216.843 416.782 216.754 416.592 216.704C416.402 216.654 416.204 216.643 416.01 216.672C415.815 216.701 415.629 216.77 415.462 216.874C415.296 216.978 415.152 217.115 415.04 217.276C414.928 217.437 414.851 217.62 414.812 217.813C414.773 218.005 414.775 218.204 414.815 218.396C414.856 218.588 414.936 218.77 415.05 218.93Z" fill="#263238"/>
<path d="M367 258.93C368.28 259.5 383.38 270.66 385.74 269.36C388.1 268.06 400.17 253.94 400.17 253.94C401.19 252.362 401.733 250.524 401.733 248.645C401.733 246.766 401.19 244.928 400.17 243.35C397.81 243.86 395.715 245.206 394.27 247.14C392.27 250.2 383.49 261.14 383.49 261.14C381.33 260.06 379.17 258.96 377.03 257.85C375.26 256.93 373.48 256.02 371.75 255.03C371.262 254.81 370.805 254.528 370.39 254.19C369.53 253.35 369.68 251.3 369.7 250.19C369.693 249.672 369.717 249.155 369.77 248.64C369.85 248 369.97 246.45 368.82 246.94C368.606 247.048 368.42 247.205 368.28 247.4C368.099 247.634 367.96 247.898 367.87 248.18C367.65 248.85 367.72 249.59 367.53 250.26C367.506 250.362 367.454 250.456 367.38 250.53C367.331 250.573 367.274 250.605 367.212 250.624C367.15 250.642 367.084 250.648 367.02 250.64C365.36 250.59 363.78 248.26 363.02 247.02C362.743 246.431 362.307 245.932 361.76 245.58C361.279 245.435 360.762 245.454 360.293 245.635C359.824 245.817 359.429 246.149 359.17 246.58C358.451 247.66 358.156 248.966 358.34 250.25C358.489 251.994 359.259 253.626 360.51 254.85C362.422 256.574 364.617 257.955 367 258.93Z" fill="#FFA8A7"/>
<path d="M401.52 242.9C399.86 243.09 397.52 242.78 394.26 246.29C391.628 249.294 389.174 252.45 386.91 255.74C387.34 257.467 388.258 259.034 389.554 260.254C390.851 261.474 392.47 262.295 394.22 262.62C394.22 262.62 399.93 256.76 401.52 253.54C403.11 250.32 403.49 245.08 401.52 242.9Z" fill="#59C9A5"/>
</svg>
