<svg width="500" height="500" viewBox="0 0 500 500" fill="none" xmlns="http://www.w3.org/2000/svg">
<path d="M97.75 412.85C181.83 456.78 318.17 456.78 402.25 412.85C486.33 368.92 486.34 297.7 402.25 253.77C318.16 209.84 181.83 209.84 97.75 253.77C13.67 297.7 13.66 368.92 97.75 412.85Z" fill="#F5F5F5"/>
<path d="M315.71 401.74C341.065 401.74 361.62 391.944 361.62 379.86C361.62 367.776 341.065 357.98 315.71 357.98C290.355 357.98 269.8 367.776 269.8 379.86C269.8 391.944 290.355 401.74 315.71 401.74Z" fill="#EBEBEB"/>
<path d="M397.04 351.84C416.602 351.84 432.46 344.283 432.46 334.96C432.46 325.638 416.602 318.08 397.04 318.08C377.478 318.08 361.62 325.638 361.62 334.96C361.62 344.283 377.478 351.84 397.04 351.84Z" fill="#EBEBEB"/>
<path d="M144.59 330.23C142.59 319.67 135.27 304.62 126.34 296.23C117.75 288.17 105 285.36 99.92 289.08C94.84 292.8 98.17 300.84 108.03 310.64C119.16 321.69 140.53 352.35 144.59 369.72V330.23Z" fill="#92E3A9"/>
<g opacity="0.2">
<path d="M144.59 330.23C142.59 319.67 135.27 304.62 126.34 296.23C117.75 288.17 105 285.36 99.92 289.08C94.84 292.8 98.17 300.84 108.03 310.64C119.16 321.69 140.53 352.35 144.59 369.72V330.23Z" fill="black"/>
</g>
<path d="M144.59 355.64C144.465 355.638 144.344 355.59 144.252 355.505C144.16 355.421 144.102 355.305 144.09 355.18C141.57 328.58 122.97 298.68 105.09 292.45C104.965 292.405 104.863 292.313 104.805 292.193C104.747 292.073 104.738 291.936 104.78 291.81C104.825 291.685 104.918 291.583 105.037 291.525C105.157 291.467 105.294 291.458 105.42 291.5C123.96 297.95 142.51 327.67 145.11 355.09C145.121 355.222 145.081 355.354 144.997 355.456C144.913 355.559 144.792 355.625 144.66 355.64H144.59Z" fill="white"/>
<path d="M144.59 382.49C144.59 382.49 141.13 385.25 129.59 384.17C118.05 383.09 112.1 374.84 112.1 371.3C112.1 367.76 122.71 367.15 125.01 358.37C122.67 360.878 119.558 362.529 116.17 363.06C110.17 364.19 105.35 362.27 103.98 351.34C106.937 351.772 109.954 351.523 112.8 350.61C117.55 349.08 118.68 346.47 117.44 345.91C116.2 345.35 109.58 345.91 105.34 344.3C101.1 342.69 104.34 320.61 107.12 319.04C109.9 317.47 123.05 321.17 125.61 323.15C127.89 324.91 131.09 327.96 129.61 334.41C131.363 332.771 132.73 330.763 133.61 328.53C134.85 325.53 135.75 326.23 137.61 327.38C138.727 328.01 139.696 328.871 140.453 329.906C141.211 330.94 141.738 332.125 142 333.38C142.45 336.18 141.72 345.84 137.78 348.98C137.78 348.98 141.56 349.46 144.65 343.08C144.65 343.08 150.65 345.5 152.01 349.42C153.37 353.34 154.85 372.53 144.59 382.49Z" fill="#92E3A9"/>
<path d="M145.61 384.67C145.488 384.669 145.37 384.624 145.278 384.543C145.186 384.462 145.127 384.351 145.11 384.23C142.47 362.62 126.04 334.23 109.93 323.57C109.819 323.496 109.741 323.38 109.715 323.249C109.689 323.118 109.716 322.981 109.79 322.87C109.864 322.759 109.98 322.681 110.111 322.655C110.242 322.629 110.379 322.656 110.49 322.73C126.8 333.58 143.49 362.26 146.1 384.11C146.117 384.241 146.081 384.374 146.001 384.479C145.92 384.584 145.801 384.653 145.67 384.67H145.61Z" fill="white"/>
<path d="M146.62 387.69C146.023 387.277 145.532 386.73 145.184 386.092C144.837 385.455 144.644 384.745 144.62 384.02V145.11C144.661 144.358 144.879 143.627 145.256 142.975C145.633 142.323 146.159 141.77 146.79 141.36L296.79 54.7399C297.417 54.3467 298.139 54.1318 298.879 54.1183C299.619 54.1049 300.348 54.2935 300.989 54.6637C301.63 55.034 302.158 55.5719 302.515 56.2196C302.873 56.8674 303.048 57.6004 303.02 58.3399L150.82 387.61C150.176 387.953 149.459 388.139 148.73 388.152C148 388.166 147.277 388.008 146.62 387.69Z" fill="#E0E0E0"/>
<path d="M148.65 149.65L209.58 109.78L205.52 107.43L146.76 141.36C146.129 141.77 145.603 142.323 145.226 142.975C144.849 143.627 144.631 144.358 144.59 145.11V147.3L148.65 149.65Z" fill="#37474F"/>
<path opacity="0.2" d="M148.65 149.65L209.58 109.78L205.52 107.43L146.76 141.36C146.129 141.77 145.603 142.323 145.226 142.975C144.849 143.627 144.631 144.358 144.59 145.11V147.3L148.65 149.65Z" fill="#37474F"/>
<path d="M169 156.68L145.22 143C144.833 143.645 144.616 144.378 144.59 145.13V384C144.564 384.739 144.74 385.47 145.099 386.117C145.457 386.763 145.985 387.299 146.625 387.668C147.266 388.037 147.995 388.225 148.734 388.211C149.473 388.197 150.194 387.983 150.82 387.59L169 377.14V156.68Z" fill="#263238"/>
<path opacity="0.4" d="M169 156.68L145.22 143C144.833 143.645 144.616 144.378 144.59 145.13V384C144.564 384.739 144.74 385.47 145.099 386.117C145.457 386.763 145.985 387.299 146.625 387.668C147.266 388.037 147.995 388.225 148.734 388.211C149.473 388.197 150.194 387.983 150.82 387.59L169 377.14V156.68Z" fill="#263238"/>
<path d="M150.82 387.61L300.82 300.99C301.451 300.58 301.977 300.026 302.354 299.375C302.731 298.723 302.949 297.992 302.99 297.24V58.3398C302.99 56.9598 301.99 56.3998 300.82 57.0898L150.82 143.71C150.189 144.12 149.663 144.673 149.286 145.325C148.909 145.977 148.691 146.708 148.65 147.46V386.36C148.65 387.74 149.62 388.3 150.82 387.61Z" fill="#455A64"/>
<path opacity="0.1" d="M150.82 387.61L300.82 300.99C301.451 300.58 301.977 300.026 302.354 299.375C302.731 298.723 302.949 297.992 302.99 297.24V58.3398C302.99 56.9598 301.99 56.3998 300.82 57.0898L150.82 143.71C150.189 144.12 149.663 144.673 149.286 145.325C148.909 145.977 148.691 146.708 148.65 147.46V386.36C148.65 387.74 149.62 388.3 150.82 387.61Z" fill="#455A64"/>
<path d="M161.11 202.64L197.11 181.84C199.5 180.46 201.44 181.44 201.44 184.03C201.333 185.484 200.885 186.893 200.133 188.142C199.381 189.391 198.345 190.445 197.11 191.22L161.11 212.02C158.71 213.4 156.78 212.42 156.78 209.83C156.884 208.375 157.331 206.966 158.084 205.716C158.836 204.467 159.873 203.413 161.11 202.64Z" fill="#92E3A9"/>
<path d="M161.11 217.4L184.94 203.64C187.33 202.26 189.27 203.24 189.27 205.83C189.163 207.284 188.716 208.693 187.963 209.942C187.211 211.191 186.175 212.245 184.94 213.02L161.11 226.78C158.71 228.16 156.78 227.18 156.78 224.59C156.884 223.135 157.331 221.726 158.084 220.476C158.836 219.227 159.873 218.173 161.11 217.4Z" fill="#92E3A9"/>
<path d="M158.51 242.66L163.17 239.97C164.17 239.42 164.9 239.87 164.9 240.97V246.35C164.868 246.951 164.694 247.535 164.393 248.057C164.093 248.578 163.674 249.021 163.17 249.35L158.51 252C157.51 252.56 156.78 252.11 156.78 251V245.62C156.819 245.026 156.996 244.45 157.296 243.936C157.597 243.422 158.012 242.985 158.51 242.66Z" fill="#92E3A9"/>
<path opacity="0.2" d="M158.51 242.66L163.17 239.97C164.17 239.42 164.9 239.87 164.9 240.97V246.35C164.868 246.951 164.694 247.535 164.393 248.057C164.093 248.578 163.674 249.021 163.17 249.35L158.51 252C157.51 252.56 156.78 252.11 156.78 251V245.62C156.819 245.026 156.996 244.45 157.296 243.936C157.597 243.422 158.012 242.985 158.51 242.66Z" fill="black"/>
<path d="M158.51 261.43L163.17 258.74C164.17 258.18 164.9 258.63 164.9 259.74V265.12C164.865 265.72 164.691 266.304 164.39 266.825C164.09 267.346 163.672 267.789 163.17 268.12L158.51 270.81C157.51 271.36 156.78 270.91 156.78 269.81V264.43C156.811 263.829 156.984 263.243 157.284 262.722C157.585 262.201 158.005 261.758 158.51 261.43Z" fill="#92E3A9"/>
<g opacity="0.2">
<path d="M158.51 261.43L163.17 258.74C164.17 258.18 164.9 258.63 164.9 259.74V265.12C164.865 265.72 164.691 266.304 164.39 266.825C164.09 267.346 163.672 267.789 163.17 268.12L158.51 270.81C157.51 271.36 156.78 270.91 156.78 269.81V264.43C156.811 263.829 156.984 263.243 157.284 262.722C157.585 262.201 158.005 261.758 158.51 261.43Z" fill="black"/>
</g>
<path d="M171.13 256.49L199.29 240.22C200.49 239.53 201.46 240.02 201.46 241.32C201.406 242.047 201.181 242.751 200.804 243.374C200.427 243.998 199.908 244.524 199.29 244.91L171.13 261.18C169.93 261.87 168.96 261.38 168.96 260.08C169.014 259.353 169.239 258.65 169.616 258.026C169.993 257.402 170.512 256.876 171.13 256.49Z" fill="#92E3A9"/>
<path opacity="0.2" d="M171.13 256.49L199.29 240.22C200.49 239.53 201.46 240.02 201.46 241.32C201.406 242.047 201.181 242.751 200.804 243.374C200.427 243.998 199.908 244.524 199.29 244.91L171.13 261.18C169.93 261.87 168.96 261.38 168.96 260.08C169.014 259.353 169.239 258.65 169.616 258.026C169.993 257.402 170.512 256.876 171.13 256.49Z" fill="black"/>
<path d="M158.51 280.19L163.17 277.5C164.17 276.94 164.9 277.39 164.9 278.5V283.88C164.866 284.48 164.692 285.064 164.391 285.585C164.091 286.106 163.673 286.55 163.17 286.88L158.51 289.57C157.51 290.12 156.78 289.67 156.78 288.57V283.19C156.811 282.589 156.984 282.004 157.284 281.482C157.585 280.961 158.005 280.518 158.51 280.19Z" fill="#E0E0E0"/>
<path d="M171.13 275.25L199.29 259C200.49 258.31 201.46 258.8 201.46 260.1C201.407 260.827 201.183 261.531 200.806 262.155C200.429 262.779 199.909 263.305 199.29 263.69L171.13 279.96C169.93 280.65 168.96 280.16 168.96 278.86C169.011 278.13 169.235 277.422 169.612 276.794C169.989 276.167 170.509 275.638 171.13 275.25Z" fill="#F0F0F0"/>
<path d="M158.51 299L163.17 296.31C164.17 295.75 164.9 296.2 164.9 297.31V302.69C164.866 303.29 164.692 303.875 164.391 304.396C164.091 304.916 163.673 305.36 163.17 305.69L158.51 308.38C157.51 308.93 156.78 308.48 156.78 307.38V302C156.811 301.399 156.984 300.814 157.284 300.292C157.585 299.771 158.005 299.328 158.51 299Z" fill="#E0E0E0"/>
<path d="M171.13 294.06L199.29 277.8C200.49 277.1 201.46 277.6 201.46 278.89C201.407 279.618 201.183 280.324 200.806 280.95C200.429 281.575 199.91 282.103 199.29 282.49L171.13 298.75C169.93 299.44 168.96 298.95 168.96 297.65C169.014 296.923 169.239 296.219 169.616 295.596C169.993 294.972 170.512 294.446 171.13 294.06Z" fill="#F0F0F0"/>
<path d="M158.51 317.76L163.17 315.07C164.17 314.51 164.9 314.96 164.9 316.07V321.45C164.866 322.05 164.692 322.635 164.391 323.156C164.091 323.676 163.673 324.12 163.17 324.45L158.51 327.14C157.51 327.69 156.78 327.24 156.78 326.14V320.76C156.811 320.159 156.984 319.574 157.284 319.052C157.585 318.531 158.005 318.088 158.51 317.76Z" fill="#E0E0E0"/>
<path d="M171.13 312.82L199.29 296.56C200.49 295.86 201.46 296.36 201.46 297.65C201.407 298.378 201.183 299.084 200.806 299.71C200.429 300.335 199.91 300.863 199.29 301.25L171.13 317.51C169.93 318.2 168.96 317.71 168.96 316.41C169.014 315.683 169.239 314.979 169.616 314.356C169.993 313.732 170.512 313.206 171.13 312.82Z" fill="#F0F0F0"/>
<path d="M158.94 336.22L178.94 324.65C180.14 323.96 181.11 324.45 181.11 325.75C181.056 326.477 180.831 327.18 180.454 327.804C180.077 328.428 179.558 328.954 178.94 329.34L158.94 340.91C157.75 341.6 156.78 341.11 156.78 339.82C156.833 339.093 157.055 338.388 157.431 337.762C157.806 337.137 158.323 336.609 158.94 336.22Z" fill="#92E3A9"/>
<path d="M158.94 345.6L199.29 322.31C200.49 321.62 201.46 322.11 201.46 323.4C201.407 324.128 201.183 324.834 200.806 325.46C200.429 326.085 199.91 326.613 199.29 327L158.94 350.29C157.75 350.98 156.78 350.49 156.78 349.2C156.833 348.473 157.055 347.768 157.431 347.142C157.806 346.517 158.323 345.989 158.94 345.6Z" fill="#92E3A9"/>
<path opacity="0.8" d="M158.94 345.6L199.29 322.31C200.49 321.62 201.46 322.11 201.46 323.4C201.407 324.128 201.183 324.834 200.806 325.46C200.429 326.085 199.91 326.613 199.29 327L158.94 350.29C157.75 350.98 156.78 350.49 156.78 349.2C156.833 348.473 157.055 347.768 157.431 347.142C157.806 346.517 158.323 345.989 158.94 345.6Z" fill="white"/>
<path d="M158.94 345.6L187.11 329.34C188.3 328.65 189.27 329.14 189.27 330.44C189.216 331.166 188.992 331.868 188.617 332.492C188.242 333.115 187.726 333.642 187.11 334.03L158.94 350.29C157.75 350.98 156.78 350.49 156.78 349.2C156.833 348.473 157.055 347.768 157.431 347.142C157.806 346.517 158.323 345.989 158.94 345.6Z" fill="#92E3A9"/>
<path d="M158.94 355L178.94 343.43C180.14 342.74 181.11 343.23 181.11 344.53C181.056 345.257 180.831 345.961 180.454 346.584C180.077 347.208 179.558 347.734 178.94 348.12L158.94 359.69C157.75 360.38 156.78 359.89 156.78 358.6C156.833 357.873 157.055 357.168 157.431 356.542C157.806 355.917 158.323 355.389 158.94 355Z" fill="#92E3A9"/>
<path d="M171.13 237.72L199.29 221.46C200.49 220.77 201.46 221.26 201.46 222.56C201.406 223.287 201.181 223.991 200.804 224.614C200.427 225.238 199.908 225.764 199.29 226.15L171.13 242.41C169.93 243.1 168.96 242.61 168.96 241.32C169.013 240.592 169.237 239.886 169.614 239.26C169.991 238.635 170.51 238.107 171.13 237.72Z" fill="#92E3A9"/>
<path opacity="0.2" d="M171.13 237.72L199.29 221.46C200.49 220.77 201.46 221.26 201.46 222.56C201.406 223.287 201.181 223.991 200.804 224.614C200.427 225.238 199.908 225.764 199.29 226.15L171.13 242.41C169.93 243.1 168.96 242.61 168.96 241.32C169.013 240.592 169.237 239.886 169.614 239.26C169.991 238.635 170.51 238.107 171.13 237.72Z" fill="black"/>
<path d="M158.94 355L178.94 343.43C180.14 342.74 181.11 343.23 181.11 344.53C181.056 345.257 180.831 345.961 180.454 346.584C180.077 347.208 179.558 347.734 178.94 348.12L158.94 359.69C157.75 360.38 156.78 359.89 156.78 358.6C156.833 357.873 157.055 357.168 157.431 356.542C157.806 355.917 158.323 355.389 158.94 355Z" fill="#92E3A9"/>
<path d="M158.94 364.35L199.29 341.06C200.49 340.37 201.46 340.86 201.46 342.15C201.407 342.878 201.183 343.584 200.806 344.21C200.429 344.835 199.91 345.363 199.29 345.75L158.94 369C157.75 369.7 156.78 369.2 156.78 367.91C156.839 367.189 157.064 366.493 157.439 365.875C157.814 365.257 158.328 364.735 158.94 364.35Z" fill="#92E3A9"/>
<path opacity="0.8" d="M158.94 364.35L199.29 341.06C200.49 340.37 201.46 340.86 201.46 342.15C201.407 342.878 201.183 343.584 200.806 344.21C200.429 344.835 199.91 345.363 199.29 345.75L158.94 369C157.75 369.7 156.78 369.2 156.78 367.91C156.839 367.189 157.064 366.493 157.439 365.875C157.814 365.257 158.328 364.735 158.94 364.35Z" fill="white"/>
<path d="M158.94 364.35L195.23 343.35C196.43 342.66 197.4 343.15 197.4 344.45C197.346 345.177 197.121 345.88 196.744 346.504C196.367 347.128 195.848 347.654 195.23 348.04L158.94 369.04C157.75 369.74 156.78 369.24 156.78 367.95C156.833 367.223 157.055 366.518 157.431 365.892C157.806 365.267 158.323 364.739 158.94 364.35Z" fill="#92E3A9"/>
<path d="M300.84 57.0899L209.58 109.78V353.68L300.84 301C301.471 300.59 301.997 300.036 302.374 299.385C302.751 298.733 302.969 298.002 303.01 297.25V58.3399C303 56.9999 302 56.3999 300.84 57.0899Z" fill="#EBEBEB"/>
<path opacity="0.6" d="M300.84 57.0899L209.58 109.78V353.68L300.84 301C301.471 300.59 301.997 300.036 302.374 299.385C302.751 298.733 302.969 298.002 303.01 297.25V58.3399C303 56.9999 302 56.3999 300.84 57.0899Z" fill="#FAFAFA"/>
<path d="M209.58 119.16V137.92L201.46 147.3H209.58V166.06L294.88 116.81V69.9099L209.58 119.16Z" fill="#92E3A9"/>
<g opacity="0.6">
<path d="M220.74 119.81L255.3 99.81C256.97 98.81 258.3 99.63 258.3 101.56C258.245 102.609 257.945 103.63 257.424 104.541C256.903 105.453 256.175 106.23 255.3 106.81L220.74 126.76C219.06 127.76 217.74 126.94 217.74 125.01C217.8 123.969 218.103 122.957 218.624 122.055C219.145 121.152 219.869 120.383 220.74 119.81Z" fill="white"/>
</g>
<path d="M218.79 135L285.68 96.3799C286.28 96.0399 286.76 96.2799 286.76 96.9299C286.734 97.2937 286.623 97.6463 286.435 97.959C286.248 98.2718 285.989 98.5359 285.68 98.7299L218.79 137.3C218.19 137.64 217.71 137.4 217.71 136.75C217.743 136.395 217.858 136.052 218.046 135.749C218.233 135.445 218.488 135.189 218.79 135Z" fill="#92E3A9"/>
<path d="M218.79 135L285.68 96.3799C286.28 96.0399 286.76 96.2799 286.76 96.9299C286.734 97.2937 286.623 97.6463 286.435 97.959C286.248 98.2718 285.989 98.5359 285.68 98.7299L218.79 137.3C218.19 137.64 217.71 137.4 217.71 136.75C217.743 136.395 217.858 136.052 218.046 135.749C218.233 135.445 218.488 135.189 218.79 135Z" fill="#92E3A9"/>
<path opacity="0.6" d="M218.79 135L285.68 96.3799C286.28 96.0399 286.76 96.2799 286.76 96.9299C286.734 97.2937 286.623 97.6463 286.435 97.959C286.248 98.2718 285.989 98.5359 285.68 98.7299L218.79 137.3C218.19 137.64 217.71 137.4 217.71 136.75C217.743 136.395 217.858 136.052 218.046 135.749C218.233 135.445 218.488 135.189 218.79 135Z" fill="white"/>
<path d="M218.79 142L285.68 103.38C286.28 103.03 286.76 103.28 286.76 103.93C286.734 104.292 286.623 104.644 286.435 104.955C286.247 105.266 285.989 105.528 285.68 105.72L218.79 144.34C218.19 144.69 217.71 144.44 217.71 143.79C217.736 143.427 217.847 143.076 218.035 142.765C218.223 142.454 218.481 142.192 218.79 142Z" fill="#92E3A9"/>
<path opacity="0.6" d="M218.79 142L285.68 103.38C286.28 103.03 286.76 103.28 286.76 103.93C286.734 104.292 286.623 104.644 286.435 104.955C286.247 105.266 285.989 105.528 285.68 105.72L218.79 144.34C218.19 144.69 217.71 144.44 217.71 143.79C217.736 143.427 217.847 143.076 218.035 142.765C218.223 142.454 218.481 142.192 218.79 142Z" fill="white"/>
<path opacity="0.6" d="M218.79 149L285.68 110.38C286.28 110.04 286.76 110.28 286.76 110.93C286.734 111.294 286.623 111.646 286.435 111.959C286.248 112.272 285.989 112.536 285.68 112.73L218.79 151.35C218.19 151.69 217.71 151.45 217.71 150.8C217.736 150.436 217.847 150.084 218.035 149.771C218.222 149.458 218.481 149.194 218.79 149Z" fill="white"/>
<path d="M221.31 168.7L226 166C227 165.44 227.73 165.89 227.73 167V172.38C227.697 172.981 227.523 173.565 227.222 174.086C226.922 174.607 226.503 175.05 226 175.38L221.34 178.07C220.34 178.62 219.61 178.17 219.61 177.07V171.7C219.638 171.101 219.806 170.518 220.101 169.997C220.397 169.475 220.811 169.031 221.31 168.7Z" fill="#92E3A9"/>
<path opacity="0.2" d="M221.31 168.7L226 166C227 165.44 227.73 165.89 227.73 167V172.38C227.697 172.981 227.523 173.565 227.222 174.086C226.922 174.607 226.503 175.05 226 175.38L221.34 178.07C220.34 178.62 219.61 178.17 219.61 177.07V171.7C219.638 171.101 219.806 170.518 220.101 169.997C220.397 169.475 220.811 169.031 221.31 168.7Z" fill="white"/>
<path d="M233.93 163.76L262.09 147.49C263.29 146.8 264.26 147.29 264.26 148.59C264.206 149.317 263.981 150.02 263.604 150.644C263.227 151.268 262.708 151.794 262.09 152.18L233.93 168.45C232.73 169.14 231.76 168.65 231.76 167.35C231.814 166.623 232.039 165.919 232.416 165.296C232.793 164.672 233.312 164.146 233.93 163.76Z" fill="#92E3A9"/>
<path opacity="0.8" d="M233.93 163.76L262.09 147.49C263.29 146.8 264.26 147.29 264.26 148.59C264.206 149.317 263.981 150.02 263.604 150.644C263.227 151.268 262.708 151.794 262.09 152.18L233.93 168.45C232.73 169.14 231.76 168.65 231.76 167.35C231.814 166.623 232.039 165.919 232.416 165.296C232.793 164.672 233.312 164.146 233.93 163.76Z" fill="white"/>
<path d="M220.66 185.5L291.66 144.5C292.26 144.15 292.74 144.4 292.74 145.04C292.715 145.404 292.604 145.757 292.416 146.07C292.229 146.382 291.969 146.646 291.66 146.84L220.66 187.84C220.06 188.19 219.58 187.94 219.58 187.29C219.606 186.927 219.717 186.576 219.905 186.265C220.093 185.954 220.351 185.692 220.66 185.5Z" fill="#92E3A9"/>
<path d="M220.66 192.53L291.66 151.53C292.26 151.19 292.74 151.43 292.74 152.08C292.714 152.444 292.603 152.796 292.415 153.109C292.228 153.422 291.969 153.686 291.66 153.88L220.66 194.88C220.06 195.22 219.58 194.98 219.58 194.33C219.606 193.966 219.717 193.614 219.905 193.301C220.092 192.988 220.351 192.724 220.66 192.53Z" fill="#92E3A9"/>
<path d="M220.66 199.57L291.66 158.57C292.26 158.22 292.74 158.47 292.74 159.11C292.715 159.474 292.604 159.827 292.416 160.14C292.229 160.453 291.969 160.716 291.66 160.91L220.66 201.91C220.06 202.26 219.58 202.01 219.58 201.37C219.605 201.006 219.716 200.653 219.904 200.34C220.091 200.027 220.351 199.763 220.66 199.57Z" fill="#92E3A9"/>
<path d="M220.66 206.62L291.66 165.62C292.26 165.28 292.74 165.52 292.74 166.17C292.714 166.534 292.603 166.886 292.415 167.199C292.228 167.512 291.969 167.776 291.66 167.97L220.66 208.97C220.06 209.31 219.58 209.07 219.58 208.42C219.606 208.056 219.717 207.704 219.905 207.391C220.092 207.078 220.351 206.814 220.66 206.62Z" fill="#92E3A9"/>
<path d="M220.66 185.5L291.66 144.5C292.26 144.15 292.74 144.4 292.74 145.04C292.715 145.404 292.604 145.757 292.416 146.07C292.229 146.382 291.969 146.646 291.66 146.84L220.66 187.84C220.06 188.19 219.58 187.94 219.58 187.29C219.606 186.927 219.717 186.576 219.905 186.265C220.093 185.954 220.351 185.692 220.66 185.5Z" fill="#E0E0E0"/>
<path d="M220.66 192.53L291.66 151.53C292.26 151.19 292.74 151.43 292.74 152.08C292.714 152.444 292.603 152.796 292.415 153.109C292.228 153.422 291.969 153.686 291.66 153.88L220.66 194.88C220.06 195.22 219.58 194.98 219.58 194.33C219.606 193.966 219.717 193.614 219.905 193.301C220.092 192.988 220.351 192.724 220.66 192.53Z" fill="#E0E0E0"/>
<path d="M220.66 199.57L291.66 158.57C292.26 158.22 292.74 158.47 292.74 159.11C292.715 159.474 292.604 159.827 292.416 160.14C292.229 160.453 291.969 160.716 291.66 160.91L220.66 201.91C220.06 202.26 219.58 202.01 219.58 201.37C219.605 201.006 219.716 200.653 219.904 200.34C220.091 200.027 220.351 199.763 220.66 199.57Z" fill="#E0E0E0"/>
<path d="M220.66 206.62L291.66 165.62C292.26 165.28 292.74 165.52 292.74 166.17C292.714 166.534 292.603 166.886 292.415 167.199C292.228 167.512 291.969 167.776 291.66 167.97L220.66 208.97C220.06 209.31 219.58 209.07 219.58 208.42C219.606 208.056 219.717 207.704 219.905 207.391C220.092 207.078 220.351 206.814 220.66 206.62Z" fill="#E0E0E0"/>
<path opacity="0.8" d="M220.66 185.5L291.66 144.5C292.26 144.15 292.74 144.4 292.74 145.04C292.715 145.404 292.604 145.757 292.416 146.07C292.229 146.382 291.969 146.646 291.66 146.84L220.66 187.84C220.06 188.19 219.58 187.94 219.58 187.29C219.606 186.927 219.717 186.576 219.905 186.265C220.093 185.954 220.351 185.692 220.66 185.5Z" fill="#E0E0E0"/>
<path opacity="0.8" d="M220.66 192.53L291.66 151.53C292.26 151.19 292.74 151.43 292.74 152.08C292.714 152.444 292.603 152.796 292.415 153.109C292.228 153.422 291.969 153.686 291.66 153.88L220.66 194.88C220.06 195.22 219.58 194.98 219.58 194.33C219.606 193.966 219.717 193.614 219.905 193.301C220.092 192.988 220.351 192.724 220.66 192.53Z" fill="#E0E0E0"/>
<path opacity="0.8" d="M220.66 199.57L291.66 158.57C292.26 158.22 292.74 158.47 292.74 159.11C292.715 159.474 292.604 159.827 292.416 160.14C292.229 160.453 291.969 160.716 291.66 160.91L220.66 201.91C220.06 202.26 219.58 202.01 219.58 201.37C219.605 201.006 219.716 200.653 219.904 200.34C220.091 200.027 220.351 199.763 220.66 199.57Z" fill="#E0E0E0"/>
<path opacity="0.8" d="M220.66 206.62L291.66 165.62C292.26 165.28 292.74 165.52 292.74 166.17C292.714 166.534 292.603 166.886 292.415 167.199C292.228 167.512 291.969 167.776 291.66 167.97L220.66 208.97C220.06 209.31 219.58 209.07 219.58 208.42C219.606 208.056 219.717 207.704 219.905 207.391C220.092 207.078 220.351 206.814 220.66 206.62Z" fill="#E0E0E0"/>
<path d="M220.66 236.5L291.66 195.5C292.26 195.15 292.74 195.4 292.74 196.04C292.715 196.404 292.604 196.757 292.416 197.07C292.229 197.382 291.969 197.646 291.66 197.84L220.66 238.84C220.06 239.19 219.58 238.94 219.58 238.29C219.606 237.927 219.717 237.576 219.905 237.265C220.093 236.954 220.351 236.692 220.66 236.5Z" fill="#E0E0E0"/>
<path d="M220.66 243.53L291.66 202.53C292.26 202.19 292.74 202.43 292.74 203.08C292.714 203.444 292.603 203.796 292.415 204.109C292.228 204.422 291.969 204.686 291.66 204.88L220.66 245.88C220.06 246.22 219.58 245.98 219.58 245.33C219.606 244.966 219.717 244.614 219.905 244.301C220.092 243.988 220.351 243.724 220.66 243.53Z" fill="#E0E0E0"/>
<path d="M220.66 250.57L291.66 209.57C292.26 209.22 292.74 209.47 292.74 210.11C292.715 210.474 292.604 210.827 292.416 211.14C292.229 211.453 291.969 211.716 291.66 211.91L220.66 252.91C220.06 253.26 219.58 253.01 219.58 252.37C219.605 252.006 219.716 251.653 219.904 251.34C220.091 251.027 220.351 250.763 220.66 250.57Z" fill="#E0E0E0"/>
<path d="M220.66 257.62L291.66 216.62C292.26 216.28 292.74 216.52 292.74 217.17C292.714 217.534 292.603 217.886 292.415 218.199C292.228 218.512 291.969 218.776 291.66 218.97L220.66 259.97C220.06 260.31 219.58 260.07 219.58 259.42C219.606 259.056 219.717 258.704 219.905 258.391C220.092 258.078 220.351 257.814 220.66 257.62Z" fill="#E0E0E0"/>
<path opacity="0.8" d="M220.66 236.5L291.66 195.5C292.26 195.15 292.74 195.4 292.74 196.04C292.715 196.404 292.604 196.757 292.416 197.07C292.229 197.382 291.969 197.646 291.66 197.84L220.66 238.84C220.06 239.19 219.58 238.94 219.58 238.29C219.606 237.927 219.717 237.576 219.905 237.265C220.093 236.954 220.351 236.692 220.66 236.5Z" fill="#E0E0E0"/>
<path opacity="0.8" d="M220.66 243.53L291.66 202.53C292.26 202.19 292.74 202.43 292.74 203.08C292.714 203.444 292.603 203.796 292.415 204.109C292.228 204.422 291.969 204.686 291.66 204.88L220.66 245.88C220.06 246.22 219.58 245.98 219.58 245.33C219.606 244.966 219.717 244.614 219.905 244.301C220.092 243.988 220.351 243.724 220.66 243.53Z" fill="#E0E0E0"/>
<path opacity="0.8" d="M220.66 250.57L291.66 209.57C292.26 209.22 292.74 209.47 292.74 210.11C292.715 210.474 292.604 210.827 292.416 211.14C292.229 211.453 291.969 211.716 291.66 211.91L220.66 252.91C220.06 253.26 219.58 253.01 219.58 252.37C219.605 252.006 219.716 251.653 219.904 251.34C220.091 251.027 220.351 250.763 220.66 250.57Z" fill="#E0E0E0"/>
<path opacity="0.8" d="M220.66 257.62L291.66 216.62C292.26 216.28 292.74 216.52 292.74 217.17C292.714 217.534 292.603 217.886 292.415 218.199C292.228 218.512 291.969 218.776 291.66 218.97L220.66 259.97C220.06 260.31 219.58 260.07 219.58 259.42C219.606 259.056 219.717 258.704 219.905 258.391C220.092 258.078 220.351 257.814 220.66 257.62Z" fill="#E0E0E0"/>
<path d="M220.66 288.5L291.66 247.5C292.26 247.15 292.74 247.4 292.74 248.04C292.715 248.404 292.604 248.757 292.416 249.07C292.229 249.382 291.969 249.646 291.66 249.84L220.66 290.84C220.06 291.19 219.58 290.94 219.58 290.29C219.606 289.927 219.717 289.576 219.905 289.265C220.093 288.954 220.351 288.692 220.66 288.5Z" fill="#E0E0E0"/>
<path d="M220.66 295.53L291.66 254.53C292.26 254.19 292.74 254.43 292.74 255.08C292.714 255.444 292.603 255.796 292.415 256.109C292.228 256.422 291.969 256.686 291.66 256.88L220.66 297.88C220.06 298.22 219.58 297.98 219.58 297.33C219.606 296.966 219.717 296.614 219.905 296.301C220.092 295.988 220.351 295.724 220.66 295.53Z" fill="#E0E0E0"/>
<path d="M220.66 302.57L291.66 261.57C292.26 261.22 292.74 261.47 292.74 262.11C292.715 262.474 292.604 262.827 292.416 263.14C292.229 263.453 291.969 263.716 291.66 263.91L220.66 304.91C220.06 305.26 219.58 305.01 219.58 304.37C219.605 304.006 219.716 303.653 219.904 303.34C220.091 303.027 220.351 302.763 220.66 302.57Z" fill="#E0E0E0"/>
<path d="M220.66 309.62L291.66 268.62C292.26 268.28 292.74 268.52 292.74 269.17C292.714 269.534 292.603 269.886 292.415 270.199C292.228 270.512 291.969 270.776 291.66 270.97L220.66 311.97C220.06 312.31 219.58 312.07 219.58 311.42C219.606 311.056 219.717 310.704 219.905 310.391C220.092 310.078 220.351 309.814 220.66 309.62Z" fill="#E0E0E0"/>
<path opacity="0.8" d="M220.66 288.5L291.66 247.5C292.26 247.15 292.74 247.4 292.74 248.04C292.715 248.404 292.604 248.757 292.416 249.07C292.229 249.382 291.969 249.646 291.66 249.84L220.66 290.84C220.06 291.19 219.58 290.94 219.58 290.29C219.606 289.927 219.717 289.576 219.905 289.265C220.093 288.954 220.351 288.692 220.66 288.5Z" fill="#E0E0E0"/>
<path opacity="0.8" d="M220.66 295.53L291.66 254.53C292.26 254.19 292.74 254.43 292.74 255.08C292.714 255.444 292.603 255.796 292.415 256.109C292.228 256.422 291.969 256.686 291.66 256.88L220.66 297.88C220.06 298.22 219.58 297.98 219.58 297.33C219.606 296.966 219.717 296.614 219.905 296.301C220.092 295.988 220.351 295.724 220.66 295.53Z" fill="#E0E0E0"/>
<path opacity="0.8" d="M220.66 302.57L291.66 261.57C292.26 261.22 292.74 261.47 292.74 262.11C292.715 262.474 292.604 262.827 292.416 263.14C292.229 263.453 291.969 263.716 291.66 263.91L220.66 304.91C220.06 305.26 219.58 305.01 219.58 304.37C219.605 304.006 219.716 303.653 219.904 303.34C220.091 303.027 220.351 302.763 220.66 302.57Z" fill="#E0E0E0"/>
<path opacity="0.8" d="M220.66 309.62L291.66 268.62C292.26 268.28 292.74 268.52 292.74 269.17C292.714 269.534 292.603 269.886 292.415 270.199C292.228 270.512 291.969 270.776 291.66 270.97L220.66 311.97C220.06 312.31 219.58 312.07 219.58 311.42C219.606 311.056 219.717 310.704 219.905 310.391C220.092 310.078 220.351 309.814 220.66 309.62Z" fill="#E0E0E0"/>
<path d="M221.31 220.29L226 217.6C227 217.05 227.73 217.5 227.73 218.6V224C227.699 224.601 227.526 225.186 227.226 225.708C226.925 226.229 226.505 226.672 226 227L221.34 229.69C220.34 230.24 219.61 229.8 219.61 228.69V223.31C219.635 222.708 219.802 222.121 220.098 221.596C220.393 221.071 220.809 220.624 221.31 220.29Z" fill="#92E3A9"/>
<path opacity="0.2" d="M221.31 220.29L226 217.6C227 217.05 227.73 217.5 227.73 218.6V224C227.699 224.601 227.526 225.186 227.226 225.708C226.925 226.229 226.505 226.672 226 227L221.34 229.69C220.34 230.24 219.61 229.8 219.61 228.69V223.31C219.635 222.708 219.802 222.121 220.098 221.596C220.393 221.071 220.809 220.624 221.31 220.29Z" fill="white"/>
<path d="M233.93 215.35L262.09 199.09C263.29 198.4 264.26 198.89 264.26 200.18C264.207 200.908 263.983 201.614 263.606 202.24C263.229 202.865 262.71 203.393 262.09 203.78L233.93 220C232.73 220.69 231.76 220.2 231.76 218.91C231.819 218.188 232.046 217.491 232.423 216.872C232.799 216.254 233.316 215.733 233.93 215.35Z" fill="#92E3A9"/>
<path opacity="0.8" d="M233.93 215.35L262.09 199.09C263.29 198.4 264.26 198.89 264.26 200.18C264.207 200.908 263.983 201.614 263.606 202.24C263.229 202.865 262.71 203.393 262.09 203.78L233.93 220C232.73 220.69 231.76 220.2 231.76 218.91C231.819 218.188 232.046 217.491 232.423 216.872C232.799 216.254 233.316 215.733 233.93 215.35Z" fill="white"/>
<path d="M221.31 271.89L226 269.2C227 268.64 227.73 269.09 227.73 270.2V275.58C227.698 276.181 227.525 276.766 227.224 277.287C226.924 277.809 226.504 278.251 226 278.58L221.34 281.27C220.34 281.82 219.61 281.37 219.61 280.27V274.89C219.638 274.291 219.806 273.708 220.101 273.187C220.397 272.665 220.811 272.221 221.31 271.89Z" fill="#92E3A9"/>
<path opacity="0.2" d="M221.31 271.89L226 269.2C227 268.64 227.73 269.09 227.73 270.2V275.58C227.698 276.181 227.525 276.766 227.224 277.287C226.924 277.809 226.504 278.251 226 278.58L221.34 281.27C220.34 281.82 219.61 281.37 219.61 280.27V274.89C219.638 274.291 219.806 273.708 220.101 273.187C220.397 272.665 220.811 272.221 221.31 271.89Z" fill="white"/>
<path d="M233.93 267L262.09 250.73C263.29 250.04 264.26 250.53 264.26 251.83C264.206 252.558 263.982 253.264 263.605 253.889C263.228 254.515 262.709 255.043 262.09 255.43L233.93 271.69C232.73 272.38 231.76 271.89 231.76 270.59C231.814 269.863 232.039 269.16 232.416 268.536C232.793 267.912 233.312 267.386 233.93 267Z" fill="#92E3A9"/>
<path opacity="0.8" d="M233.93 267L262.09 250.73C263.29 250.04 264.26 250.53 264.26 251.83C264.206 252.558 263.982 253.264 263.605 253.889C263.228 254.515 262.709 255.043 262.09 255.43L233.93 271.69C232.73 272.38 231.76 271.89 231.76 270.59C231.814 269.863 232.039 269.16 232.416 268.536C232.793 267.912 233.312 267.386 233.93 267Z" fill="white"/>
<path d="M227.94 317.31L232.6 314.62C233.6 314.07 234.34 314.52 234.34 315.62V321C234.307 321.602 234.132 322.187 233.83 322.709C233.528 323.23 233.106 323.673 232.6 324L227.94 326.69C226.99 327.25 226.21 326.8 226.21 325.69V320.31C226.245 319.71 226.419 319.126 226.72 318.605C227.02 318.084 227.438 317.641 227.94 317.31Z" fill="#92E3A9"/>
<path d="M220.66 335.59L239.89 324.49C240.49 324.15 240.97 324.39 240.97 325.04C240.944 325.404 240.833 325.756 240.645 326.069C240.458 326.382 240.199 326.646 239.89 326.84L220.66 337.94C220.06 338.28 219.58 338.04 219.58 337.39C219.606 337.026 219.717 336.674 219.905 336.361C220.092 336.048 220.351 335.784 220.66 335.59Z" fill="#E0E0E0"/>
<path d="M253.81 302.37L258.47 299.68C259.42 299.13 260.2 299.58 260.2 300.68V306.06C260.168 306.661 259.994 307.245 259.693 307.767C259.393 308.288 258.974 308.731 258.47 309.06L253.81 311.75C252.81 312.3 252.07 311.86 252.07 310.75V305.37C252.104 304.768 252.279 304.183 252.581 303.662C252.883 303.14 253.304 302.698 253.81 302.37Z" fill="#92E3A9"/>
<path d="M246.52 320.65L265.75 309.55C266.35 309.2 266.83 309.45 266.83 310.1C266.804 310.462 266.693 310.814 266.505 311.125C266.317 311.436 266.059 311.698 265.75 311.89L246.52 323C245.92 323.35 245.44 323.1 245.44 322.46C245.464 322.094 245.574 321.739 245.762 321.425C245.949 321.11 246.209 320.844 246.52 320.65Z" fill="#E0E0E0"/>
<path d="M279.67 287.43L284.33 284.74C285.28 284.18 286.06 284.63 286.06 285.74V291.12C286.026 291.72 285.852 292.304 285.551 292.825C285.251 293.346 284.833 293.79 284.33 294.12L279.67 296.81C278.67 297.36 277.94 296.91 277.94 295.81V290.43C277.971 289.829 278.144 289.243 278.444 288.722C278.745 288.201 279.165 287.758 279.67 287.43Z" fill="#92E3A9"/>
<path opacity="0.2" d="M227.94 317.31L232.6 314.62C233.6 314.07 234.34 314.52 234.34 315.62V321C234.307 321.602 234.132 322.187 233.83 322.709C233.528 323.23 233.106 323.673 232.6 324L227.94 326.69C226.99 327.25 226.21 326.8 226.21 325.69V320.31C226.245 319.71 226.419 319.126 226.72 318.605C227.02 318.084 227.438 317.641 227.94 317.31Z" fill="white"/>
<path opacity="0.2" d="M253.81 302.37L258.47 299.68C259.42 299.13 260.2 299.58 260.2 300.68V306.06C260.168 306.661 259.994 307.245 259.693 307.767C259.393 308.288 258.974 308.731 258.47 309.06L253.81 311.75C252.81 312.3 252.07 311.86 252.07 310.75V305.37C252.104 304.768 252.279 304.183 252.581 303.662C252.883 303.14 253.304 302.698 253.81 302.37Z" fill="white"/>
<path opacity="0.2" d="M279.67 287.43L284.33 284.74C285.28 284.18 286.06 284.63 286.06 285.74V291.12C286.026 291.72 285.852 292.304 285.551 292.825C285.251 293.346 284.833 293.79 284.33 294.12L279.67 296.81C278.67 297.36 277.94 296.91 277.94 295.81V290.43C277.971 289.829 278.144 289.243 278.444 288.722C278.745 288.201 279.165 287.758 279.67 287.43Z" fill="white"/>
<path d="M272.38 305.71L291.61 294.61C292.21 294.26 292.69 294.51 292.69 295.15C292.665 295.514 292.554 295.867 292.366 296.18C292.179 296.493 291.919 296.757 291.61 296.95L272.38 308.05C271.79 308.4 271.3 308.15 271.3 307.5C271.328 307.138 271.44 306.788 271.628 306.477C271.815 306.166 272.073 305.904 272.38 305.71Z" fill="#E0E0E0"/>
<mask id="mask0_196_421" style="mask-type:luminance" maskUnits="userSpaceOnUse" x="156" y="136" width="42" height="53">
<path d="M177.09 138.86C165.87 145.18 156.78 160.93 156.78 174.03C156.78 187.13 165.87 192.51 177.09 186.03C188.31 179.55 197.4 163.81 197.4 150.85C197.4 137.89 188.3 132.53 177.09 138.86Z" fill="white"/>
</mask>
<g mask="url(#mask0_196_421)">
<path d="M177.09 138.86C165.87 145.18 156.78 160.93 156.78 174.03C156.78 187.13 165.87 192.51 177.09 186.03C188.31 179.55 197.4 163.81 197.4 150.85C197.4 137.89 188.3 132.53 177.09 138.86Z" fill="#FAFAFA"/>
<path d="M186.93 179.23L170.67 183.59C170.39 183.681 170.092 183.701 169.802 183.648C169.512 183.595 169.24 183.471 169.011 183.286C168.782 183.101 168.602 182.862 168.488 182.59C168.375 182.319 168.331 182.023 168.36 181.73V154.05C168.417 151.759 169.183 149.542 170.551 147.703C171.919 145.864 173.822 144.494 176 143.78L181.56 142.29C185.79 141.16 189.22 143.92 189.22 148.45V176.14C189.202 176.828 188.972 177.493 188.563 178.046C188.153 178.599 187.583 179.012 186.93 179.23Z" fill="#37474F"/>
<path d="M187.71 186.39L186 178.84C186 178.84 186 168.65 184.55 167.71C183.1 166.77 182.68 166.59 182.68 166.59C184.54 165.95 188.46 165.47 189.68 169.05C190.85 172.43 192.6 180.76 193.43 184.86L187.71 186.39Z" fill="#F28F8F"/>
<path d="M187.57 186.43L181.77 166.68C184.34 165.68 187.64 164.85 189.24 167.5C190.68 169.88 192.98 182.35 193.43 184.86L187.57 186.43Z" fill="#92E3A9"/>
<g opacity="0.4">
<path d="M187.57 186.43L181.77 166.68C184.34 165.68 187.64 164.85 189.24 167.5C190.68 169.88 192.98 182.35 193.43 184.86L187.57 186.43Z" fill="black"/>
</g>
<path d="M188.35 186.22L182.65 187.75C182.88 186.113 183.419 184.535 184.24 183.1C185.381 181.456 187.022 180.225 188.92 179.59C188.509 181.775 188.318 183.996 188.35 186.22Z" fill="#92E3A9"/>
<path d="M188.35 186.22L182.65 187.75C182.88 186.113 183.419 184.535 184.24 183.1C185.381 181.456 187.022 180.225 188.92 179.59C188.509 181.775 188.318 183.996 188.35 186.22Z" fill="#92E3A9"/>
<g opacity="0.7">
<path d="M188.35 186.22L182.65 187.75C182.88 186.113 183.419 184.535 184.24 183.1C185.381 181.456 187.022 180.225 188.92 179.59C188.509 181.775 188.318 183.996 188.35 186.22Z" fill="black"/>
</g>
<path d="M187.13 186.55L171.13 190.82L169.37 185.37C169.37 185.37 174.04 174.44 168.27 171.63C169 171.08 175.15 168.68 175.15 168.68L181.76 166.68C183.02 166.34 188.11 168.6 189.4 173.61C189.86 175.38 189.7 176.97 187.11 186.19C187.14 186.31 187.13 186.43 187.13 186.55Z" fill="#92E3A9"/>
<path d="M185.81 145.69C186.91 146.09 188.27 148.69 188.14 154.96C188.03 160.28 186.43 161.96 185.63 162.6C184.432 163.2 183.11 163.511 181.77 163.51V166.68C181.77 166.68 183.85 168.68 183.72 170.2C183.59 171.72 180.72 172.8 178.78 171.9C177.363 171.101 176.138 170.002 175.19 168.68V161.38C175.044 161.548 174.866 161.686 174.666 161.785C174.466 161.883 174.249 161.942 174.026 161.956C173.804 161.969 173.581 161.939 173.37 161.866C173.16 161.793 172.966 161.679 172.8 161.53C172.488 161.316 172.221 161.042 172.017 160.723C171.813 160.405 171.674 160.049 171.61 159.676C171.545 159.303 171.557 158.921 171.642 158.552C171.728 158.184 171.887 157.836 172.11 157.53C173.11 156.22 174.86 156.03 175.54 157.34C176.386 155.285 177.902 153.576 179.84 152.49C183 150.57 184.72 148.86 185.81 145.69Z" fill="#FFA8A7"/>
<path d="M182.64 155.11C182.644 155.3 182.59 155.486 182.484 155.643C182.379 155.801 182.227 155.922 182.05 155.99C181.975 156.016 181.894 156.023 181.816 156.011C181.737 155.999 181.663 155.968 181.599 155.921C181.535 155.874 181.483 155.812 181.449 155.74C181.414 155.668 181.397 155.589 181.4 155.51C181.396 155.32 181.45 155.134 181.556 154.977C181.661 154.819 181.813 154.698 181.99 154.63C182.065 154.604 182.146 154.597 182.224 154.609C182.303 154.621 182.377 154.652 182.441 154.699C182.505 154.746 182.557 154.808 182.592 154.88C182.626 154.952 182.643 155.03 182.64 155.11Z" fill="#37474F"/>
<path d="M182.8 159.55L184.24 159.65C184.198 159.869 184.083 160.068 183.915 160.215C183.746 160.362 183.533 160.448 183.31 160.46C182.91 160.43 182.68 160 182.8 159.55Z" fill="#F28F8F"/>
<path d="M187.72 151.71L186.47 151.12C186.544 150.926 186.688 150.767 186.872 150.673C187.057 150.579 187.27 150.557 187.47 150.61C187.559 150.665 187.637 150.737 187.698 150.823C187.759 150.908 187.803 151.005 187.826 151.107C187.849 151.21 187.852 151.316 187.834 151.419C187.815 151.523 187.777 151.621 187.72 151.71Z" fill="#37474F"/>
<path d="M180.84 154.05L182.09 152.78C182.024 152.712 181.944 152.66 181.856 152.625C181.768 152.591 181.673 152.576 181.579 152.58C181.484 152.585 181.392 152.61 181.308 152.653C181.223 152.696 181.149 152.756 181.09 152.83C180.916 152.975 180.797 153.175 180.752 153.396C180.707 153.618 180.738 153.848 180.84 154.05Z" fill="#37474F"/>
<path d="M187.43 153.35C187.436 153.54 187.382 153.727 187.276 153.885C187.17 154.042 187.018 154.163 186.84 154.23C186.764 154.256 186.683 154.264 186.603 154.251C186.524 154.239 186.449 154.207 186.384 154.158C186.32 154.11 186.269 154.046 186.235 153.973C186.201 153.9 186.186 153.82 186.19 153.74C186.187 153.551 186.242 153.365 186.347 153.208C186.453 153.05 186.604 152.929 186.78 152.86C186.856 152.833 186.937 152.826 187.017 152.839C187.096 152.851 187.171 152.883 187.236 152.931C187.3 152.98 187.351 153.043 187.385 153.116C187.419 153.189 187.434 153.27 187.43 153.35Z" fill="#37474F"/>
<path d="M184.51 153.75L184.6 157.72L186.57 156.54L184.51 153.75Z" fill="#F28F8F"/>
<path d="M181.77 163.51C180.19 163.71 176.93 163.58 176.42 162.34C176.605 162.949 177.012 163.466 177.56 163.79C178.56 164.43 181.77 164.57 181.77 164.57V163.51Z" fill="#F28F8F"/>
<path d="M171.22 190.81L170.55 188.43L172.31 190.52L171.22 190.81Z" fill="#92E3A9"/>
<path d="M169.91 191.16C169.192 187.739 168.219 184.376 167 181.1C165.32 176.49 167.2 172.51 168.33 171.63C169.46 170.75 175.21 168.68 175.21 168.68C177.29 174.6 177.86 182.53 177.91 189.02L169.91 191.16Z" fill="#92E3A9"/>
<path opacity="0.4" d="M169.91 191.16C169.192 187.739 168.219 184.376 167 181.1C165.32 176.49 167.2 172.51 168.33 171.63C169.46 170.75 175.21 168.68 175.21 168.68C177.29 174.6 177.86 182.53 177.91 189.02L169.91 191.16Z" fill="black"/>
<path d="M167.07 191.92L161.36 193.45C161.2 193.342 161.05 193.222 160.91 193.09C160.91 193.09 163.61 182.67 164.47 179.21C165.33 175.75 165.99 173.37 168.31 171.63C172.48 174.34 170.55 181.87 170.55 181.87L167.07 191.92Z" fill="#92E3A9"/>
<path opacity="0.4" d="M167.07 191.92L161.36 193.45C161.2 193.342 161.05 193.222 160.91 193.09C160.91 193.09 163.61 182.67 164.47 179.21C165.33 175.75 165.99 173.37 168.31 171.63C172.48 174.34 170.55 181.87 170.55 181.87L167.07 191.92Z" fill="black"/>
</g>
<path d="M83.93 125.33V105.52C83.87 101.68 86.37 97.8299 91.44 94.9099C101.44 89.1199 117.7 89.1199 127.72 94.9099C132.79 97.8299 135.29 101.68 135.23 105.52V125.26C135.23 129.08 132.77 135.91 127.72 138.82C117.72 144.61 101.46 144.61 91.44 138.82C86.44 135.94 83.94 129.16 83.93 125.37V125.33Z" fill="#EBEBEB"/>
<path d="M109.58 80.9399L151.91 105.38L109.58 129.82L67.25 105.38L109.58 80.9399Z" fill="#F5F5F5"/>
<path d="M88.4 117.59L109.25 105.69C109.336 105.641 109.431 105.609 109.529 105.596C109.628 105.584 109.727 105.591 109.823 105.617C109.919 105.643 110.008 105.687 110.087 105.748C110.165 105.808 110.231 105.884 110.28 105.97C110.329 106.056 110.361 106.151 110.374 106.249C110.386 106.347 110.379 106.447 110.353 106.543C110.327 106.638 110.283 106.728 110.222 106.806C110.161 106.885 110.086 106.951 110 107L89.89 118.45L88.4 117.59Z" fill="#E0E0E0"/>
<path d="M151.91 105.38V107.13L109.58 131.56V129.82L151.91 105.38Z" fill="#E6E6E6"/>
<path d="M67.25 105.38V107.13L109.58 131.56V129.82L67.25 105.38Z" fill="#F0F0F0"/>
<path d="M87.35 118.73L88.64 119.47C88.835 119.151 89.1066 118.887 89.43 118.7L89.88 118.44L88.41 117.6C87.9758 117.892 87.6134 118.278 87.35 118.73Z" fill="#E0E0E0"/>
<path d="M135.28 116.73L109.58 134.18L83.95 116.77L109.58 131.56L135.28 116.73Z" fill="#E0E0E0"/>
<path d="M85.7 139.31C86.0587 139.495 86.4564 139.592 86.86 139.592C87.2636 139.592 87.6613 139.495 88.02 139.31L89.93 151.64C89.93 153.97 83.88 153.97 83.88 151.64L85.7 139.31Z" fill="#F5F5F5"/>
<path d="M85.59 146.35L85.21 153.11C85.0853 153.072 84.9647 153.022 84.85 152.96L85.59 146.35Z" fill="#EBEBEB"/>
<path d="M88.45 153.16L87.65 142.16L88.84 153C88.7133 153.061 88.5831 153.114 88.45 153.16Z" fill="#EBEBEB"/>
<path d="M87.09 153.38H86.71L86.91 144.65L87.09 153.38Z" fill="#EBEBEB"/>
<path d="M86.85 140.34C87.2933 140.329 87.7225 140.182 88.08 139.92C88.232 139.808 88.3353 139.642 88.3687 139.456C88.4022 139.27 88.3633 139.078 88.26 138.92C88.1509 138.764 87.9853 138.657 87.7986 138.622C87.6118 138.586 87.4186 138.625 87.26 138.73C87.1648 138.822 87.0375 138.874 86.905 138.874C86.7725 138.874 86.6452 138.822 86.55 138.73C86.4722 138.661 86.3809 138.608 86.2818 138.576C86.1827 138.544 86.078 138.533 85.9745 138.544C85.8709 138.555 85.7706 138.587 85.6802 138.638C85.5897 138.69 85.5109 138.76 85.4489 138.843C85.3868 138.927 85.3429 139.023 85.3199 139.124C85.2968 139.226 85.2952 139.331 85.315 139.433C85.3349 139.535 85.3758 139.632 85.4352 139.718C85.4946 139.803 85.5712 139.876 85.66 139.93C86.0042 140.187 86.4203 140.331 86.85 140.34Z" fill="#E0E0E0"/>
<path d="M86.9 138.42C86.998 138.421 87.0953 138.403 87.1863 138.367C87.2772 138.33 87.36 138.276 87.4297 138.207C87.4995 138.138 87.5549 138.056 87.5927 137.966C87.6305 137.875 87.65 137.778 87.65 137.68V120.2C87.651 119.807 87.7549 119.421 87.9514 119.081C88.1479 118.74 88.4301 118.457 88.77 118.26L110 106.16C110.169 106.064 110.292 105.905 110.345 105.717C110.397 105.53 110.374 105.33 110.28 105.16C110.233 105.076 110.17 105.001 110.094 104.941C110.018 104.882 109.931 104.837 109.838 104.811C109.745 104.785 109.648 104.778 109.552 104.79C109.456 104.801 109.364 104.832 109.28 104.88L88 117C87.4328 117.328 86.9615 117.798 86.6333 118.365C86.3051 118.932 86.1316 119.575 86.13 120.23V137.71C86.1339 137.807 86.1569 137.903 86.1977 137.991C86.2385 138.079 86.2963 138.159 86.3678 138.225C86.4393 138.291 86.5231 138.342 86.6144 138.375C86.7058 138.409 86.8028 138.424 86.9 138.42Z" fill="#FAFAFA"/>
<path d="M88.54 137.68C88.542 137.355 88.4475 137.037 88.2685 136.766C88.0895 136.495 87.8341 136.283 87.5346 136.158C87.2351 136.032 86.905 135.998 86.5862 136.06C86.2675 136.122 85.9743 136.278 85.7439 136.507C85.5136 136.736 85.3564 137.028 85.2923 137.346C85.2282 137.665 85.2601 137.995 85.3839 138.295C85.5077 138.596 85.7179 138.852 85.9878 139.033C86.2578 139.214 86.5752 139.31 86.9 139.31C87.1149 139.311 87.3279 139.27 87.5269 139.189C87.7258 139.108 87.9066 138.988 88.0591 138.836C88.2115 138.685 88.3324 138.505 88.415 138.306C88.4975 138.108 88.54 137.895 88.54 137.68Z" fill="#F5F5F5"/>
<path d="M85.28 137.77C85.3483 137.939 85.4523 138.092 85.5848 138.217C85.7174 138.342 85.8754 138.438 86.0481 138.497C86.2208 138.556 86.4041 138.576 86.5857 138.558C86.7672 138.54 86.9426 138.482 87.1 138.39C87.3008 138.269 87.467 138.098 87.5823 137.894C87.6977 137.69 87.7583 137.46 87.7583 137.225C87.7583 136.991 87.6977 136.76 87.5823 136.556C87.467 136.352 87.3008 136.181 87.1 136.06C87.4059 136.102 87.6936 136.231 87.9294 136.43C88.1653 136.629 88.3396 136.891 88.4322 137.186C88.5248 137.481 88.5318 137.796 88.4524 138.094C88.373 138.392 88.2104 138.662 87.9836 138.872C87.7568 139.081 87.4752 139.222 87.1714 139.278C86.8677 139.334 86.5543 139.302 86.2679 139.187C85.9815 139.071 85.7337 138.877 85.5535 138.626C85.3733 138.375 85.2681 138.078 85.25 137.77H85.28Z" fill="#EBEBEB"/>
<path d="M376.61 128.03L368.88 123.58L373.13 122.68L377.36 125.63L376.61 128.03Z" fill="#E0E0E0"/>
<path d="M363.08 88.1999C363.08 76.1999 355.73 70.6299 346.7 75.8399L333.36 83.5399C324.36 88.7499 316.99 102.79 316.99 114.83C316.99 115.32 316.99 115.83 316.99 116.26C316.99 116.53 316.99 116.76 316.99 117.02C316.99 117.28 317.04 117.49 317.06 117.72C317.08 117.95 317.12 118.25 317.16 118.51C317.361 119.931 317.717 121.326 318.22 122.67C318.43 123.17 318.65 123.67 318.89 124.09C319.001 124.322 319.128 124.546 319.27 124.76L319.4 124.97C319.623 125.328 319.881 125.663 320.17 125.97C320.33 126.15 320.48 126.34 320.65 126.51L321.17 127.01C321.35 127.15 321.52 127.32 321.71 127.46C321.89 127.605 322.08 127.735 322.28 127.85L322.87 128.19C323.634 128.602 324.462 128.883 325.32 129.02C325.386 129.004 325.454 129.004 325.52 129.02C325.75 129.02 325.96 129.07 326.19 129.07C326.433 129.09 326.677 129.09 326.92 129.07C327.563 129.077 328.204 129.006 328.83 128.86C329.204 128.785 329.575 128.692 329.94 128.58C331.109 128.222 332.23 127.725 333.28 127.1L346.62 119.4C347.534 118.869 348.41 118.274 349.24 117.62C349.24 117.46 349.24 117.32 349.24 117.17C349.24 117.02 349.24 116.7 349.24 116.52C349.24 116.12 349.24 115.71 349.24 115.3C349.21 105.07 355.37 92.9999 363.08 88.1999Z" fill="#E0E0E0"/>
<path d="M365.33 79.5499L357.58 75.0898C357.63 75.0898 358.37 80.4799 358.37 80.4799L364.12 81.1599L365.33 79.5499Z" fill="#E0E0E0"/>
<path d="M329.52 131.96L322.36 127.9L326.67 126.05L329.52 131.96Z" fill="#E0E0E0"/>
<path d="M333.36 127.22C333.309 130.183 332.357 133.061 330.63 135.47C330.31 135.89 330.8 136.26 331.16 136.07C332.794 135.222 334.243 134.056 335.42 132.64C337.682 129.967 339.263 126.786 340.03 123.37L333.36 127.22Z" fill="#E0E0E0"/>
<path d="M330.71 136.05L338.46 140.51C338.46 140.51 342.81 136.84 342.81 129.41L334.4 128.84C334.4 128.84 334.2 133.68 330.71 136.05Z" fill="#E0E0E0"/>
<path d="M351.35 114.19C351.35 114.563 351.35 114.923 351.35 115.27C351.35 115.47 351.35 115.64 351.35 115.83C351.35 116.02 351.35 116.18 351.41 116.36C351.47 116.54 351.41 116.76 351.48 116.96C351.596 117.846 351.804 118.717 352.1 119.56C352.143 119.713 352.196 119.864 352.26 120.01C352.333 120.211 352.416 120.408 352.51 120.6C352.588 120.786 352.678 120.966 352.78 121.14C352.859 121.314 352.953 121.481 353.06 121.64L353.16 121.8C353.336 122.075 353.53 122.339 353.74 122.59C353.849 122.736 353.97 122.873 354.1 123L354.48 123.37C354.61 123.492 354.747 123.605 354.89 123.71C355.027 123.816 355.171 123.913 355.32 124C355.47 124.09 355.61 124.18 355.77 124.26L356.23 124.48L356.71 124.65C357.003 124.739 357.3 124.812 357.6 124.87H357.75C357.916 124.885 358.084 124.885 358.25 124.87C358.429 124.89 358.611 124.89 358.79 124.87C359.22 124.87 359.649 124.826 360.07 124.74C360.408 124.683 360.741 124.606 361.07 124.51C361.948 124.241 362.79 123.868 363.58 123.4L373.58 117.62C374.472 117.105 375.313 116.506 376.09 115.83C376.37 115.59 376.65 115.33 376.93 115.07C377.434 114.6 377.911 114.103 378.36 113.58L379 113C379.17 112.8 379.33 112.59 379.5 112.38C379.541 112.307 379.592 112.24 379.65 112.18C380.316 111.3 380.93 110.381 381.49 109.43C381.64 109.18 381.78 108.92 381.93 108.66C382.08 108.4 382.22 108.14 382.36 107.87C382.5 107.6 382.63 107.33 382.77 107.07L383.15 106.25C383.28 105.98 383.4 105.69 383.52 105.43C383.73 104.95 383.92 104.43 384.09 103.97C384.09 103.88 384.16 103.79 384.19 103.7C384.3 103.42 384.39 103.14 384.48 102.86C384.66 102.32 384.82 101.78 384.98 101.22C385.332 99.9056 385.596 98.5693 385.77 97.2199C385.77 96.9899 385.82 96.7699 385.85 96.5399C385.88 96.3099 385.85 96.1499 385.9 95.9499C385.95 95.7499 385.9 95.5499 385.9 95.3499C385.9 94.9766 385.9 94.6066 385.9 94.2399C385.9 85.2399 380.39 81.0299 373.61 84.9399L363.61 90.7299C356.86 94.6199 351.35 105.15 351.35 114.19Z" fill="#E0E0E0"/>
<path d="M389.51 88.7799L381.82 84.3599L378.92 86.4099L387.89 91.8399L389.51 88.7799Z" fill="#E0E0E0"/>
<path d="M363.11 128.45L355.38 124L361.44 122.19L363.11 128.45Z" fill="#E0E0E0"/>
<path d="M372.13 118.59C372.13 120.19 374.13 122.37 376.42 122.78C376.73 122.84 376.65 123.52 376.28 123.78C374.915 124.521 373.341 124.782 371.81 124.52C370.816 124.49 369.847 124.197 369.004 123.67C368.16 123.142 367.472 122.401 367.01 121.52L372.13 118.59Z" fill="#92E3A9"/>
<path d="M354.44 80.2898L341.09 87.9998C332.09 93.2098 324.73 107.25 324.73 119.28C324.73 119.78 324.73 120.28 324.73 120.72C324.73 120.99 324.73 121.22 324.73 121.48C324.73 121.74 324.78 121.94 324.81 122.17C324.84 122.4 324.87 122.72 324.91 122.97C325.091 124.386 325.426 125.777 325.91 127.12C326.12 127.63 326.34 128.12 326.58 128.55C326.69 128.779 326.817 128.999 326.96 129.21C327.002 129.283 327.049 129.353 327.1 129.42C327.317 129.798 327.572 130.153 327.86 130.48C328.02 130.66 328.18 130.86 328.35 131.02L328.86 131.52C329.04 131.66 329.22 131.83 329.4 131.97C329.581 132.112 329.772 132.243 329.97 132.36L330.57 132.7C331.331 133.111 332.156 133.391 333.01 133.53C333.075 133.508 333.145 133.508 333.21 133.53C333.44 133.53 333.66 133.53 333.88 133.53C334.123 133.545 334.367 133.545 334.61 133.53C335.253 133.533 335.893 133.462 336.52 133.32C336.894 133.245 337.265 133.152 337.63 133.04C338.796 132.679 339.916 132.186 340.97 131.57C340.921 134.532 339.964 137.408 338.23 139.81C337.91 140.24 338.4 140.61 338.77 140.42C340.407 139.571 341.855 138.401 343.03 136.98C345.286 134.307 346.867 131.131 347.64 127.72L346.64 128.27L354.27 123.87C355.008 123.444 355.72 122.973 356.4 122.46C356.341 122.206 356.298 121.949 356.27 121.69C356.27 121.52 356.21 121.27 356.19 121.01C356.154 120.788 356.13 120.564 356.12 120.34V120.22C356.11 120.053 356.11 119.886 356.12 119.72C356.12 119.34 356.12 118.94 356.12 118.54C356.12 108.42 362.12 97.0098 369.84 92.5398L370.69 92.0398C370.61 80.4698 363.34 75.1498 354.44 80.2898Z" fill="#F0F0F0"/>
<path d="M381.39 89.37L371.39 95.15C364.62 99.07 359.1 109.6 359.1 118.64C359.1 119.01 359.1 119.37 359.1 119.72C359.1 120.07 359.1 120.09 359.1 120.28C359.1 120.47 359.1 120.63 359.15 120.81C359.166 121.008 359.193 121.205 359.23 121.4C359.34 122.29 359.548 123.165 359.85 124.01C359.888 124.165 359.942 124.316 360.01 124.46C360.078 124.658 360.158 124.852 360.25 125.04C360.33 125.228 360.42 125.412 360.52 125.59C360.602 125.764 360.7 125.932 360.81 126.09C360.833 126.147 360.864 126.2 360.9 126.25C361.09 126.53 361.28 126.79 361.48 127.04C361.596 127.183 361.719 127.32 361.85 127.45L362.23 127.82C362.36 127.942 362.497 128.055 362.64 128.16C362.772 128.268 362.912 128.365 363.06 128.45C363.21 128.54 363.35 128.63 363.51 128.71L363.97 128.93L364.45 129.1C364.743 129.189 365.04 129.262 365.34 129.32H365.49C365.656 129.335 365.824 129.335 365.99 129.32C366.172 129.345 366.358 129.345 366.54 129.32C366.97 129.322 367.398 129.282 367.82 129.2C368.157 129.142 368.491 129.065 368.82 128.97C369.699 128.705 370.542 128.332 371.33 127.86L374.71 125.92C375.179 126.791 375.87 127.523 376.713 128.041C377.556 128.559 378.521 128.845 379.51 128.87C381.042 129.128 382.616 128.864 383.98 128.12C384.34 127.89 384.43 127.21 384.11 127.12C381.82 126.71 379.83 124.53 379.83 122.93L381.35 122.05C382.241 121.533 383.081 120.933 383.86 120.26C384.14 120.02 384.42 119.76 384.69 119.5C385.197 119.031 385.678 118.533 386.13 118.01C386.31 117.8 386.49 117.6 386.67 117.36C386.85 117.12 387 116.96 387.17 116.75L387.32 116.55C387.986 115.67 388.6 114.751 389.16 113.8L389.61 113.03C389.76 112.77 389.9 112.51 390.04 112.24C390.18 111.97 390.3 111.7 390.44 111.44L390.83 110.62C390.96 110.34 391.07 110.06 391.19 109.8C391.4 109.32 391.6 108.8 391.77 108.34L391.86 108.07C391.97 107.79 392.07 107.51 392.15 107.23C392.34 106.68 392.49 106.15 392.66 105.59C393.012 104.276 393.276 102.939 393.45 101.59C393.45 101.36 393.5 101.14 393.52 100.91C393.54 100.68 393.52 100.51 393.57 100.32C393.62 100.13 393.57 99.92 393.57 99.72C393.57 99.35 393.57 98.97 393.57 98.6C393.68 89.63 388.16 85.46 381.39 89.37Z" fill="#F0F0F0"/>
<path d="M301.05 221.65C297.27 220.47 293.39 223.53 290.85 229.71C288.31 235.89 282.98 251.61 282.19 255.8C281.4 259.99 299.28 269.11 298.78 268.87C298.28 268.63 301.05 221.65 301.05 221.65Z" fill="#263238"/>
<path d="M292.74 367.11C292.2 367.31 292.07 368.33 291.99 370.35C291.93 371.88 291.6 374.55 293.39 375.08C295.18 375.61 297.81 375.34 298.96 373.9C300.39 372.1 301.36 370.52 303.4 368.32C305.18 366.42 307.09 364.64 307.81 361.97C308.46 359.55 307.92 358.51 306.27 357.81C304.01 356.81 300.45 359.99 298.68 360.49C297.15 360.92 293.27 366.91 292.74 367.11Z" fill="#263238"/>
<path d="M292.74 365.24V367.72C293.671 368.316 294.747 368.646 295.851 368.676C296.956 368.706 298.048 368.434 299.01 367.89C299.12 367.65 299.66 364.34 299.66 364.34L292.74 365.24Z" fill="#FFA8A7"/>
<path d="M312.83 381.41C312.83 381.41 312.12 383.57 311.74 385.41C311.43 386.91 311 389.41 311.52 390.55C312.04 391.69 314.1 392.41 317.27 392.38C319.33 392.38 322.54 393.77 324.73 394.99C326.92 396.21 331.73 396.76 334.12 396.48C336.94 396.15 339.87 394.48 340.33 393.34C340.79 392.2 340.18 390.95 333.52 388.11C333.46 388.11 324.26 385.11 321.03 381.54L312.83 381.41Z" fill="#263238"/>
<path d="M312.83 378.73C312.83 378.73 312.83 380.57 312.83 381.62C312.83 382.67 314.07 384.24 317.29 384.13C319.55 384.05 321.12 383.44 321.03 381.58V378.89L312.83 378.73Z" fill="#FFA8A7"/>
<path d="M291.12 332.31C291.673 327.915 292.654 323.584 294.05 319.38C294.05 319.38 293.17 308.23 292.74 297.66C292.28 286.24 292.74 271.88 292.55 269.04C292.55 269.04 329.4 261.58 330.06 274.78C330.72 287.98 328.6 321.58 328.17 327.38C327.74 333.18 326.73 338.31 325.53 347.71C324.33 357.11 321.03 378.89 321.03 378.89C319.755 379.54 318.34 379.865 316.91 379.837C315.48 379.809 314.078 379.429 312.83 378.73C312.83 378.73 310.24 352.33 310.51 345.64C310.721 340.671 311.574 335.75 313.05 331L311.74 310.65C311.12 301.18 310.47 296.65 310.32 292.52L309.53 292.12C309.53 292.12 308.72 308.46 308.29 314.26C307.86 320.06 306.93 325.62 305.29 336.39C303.83 345.73 299.5 365.5 299.5 365.5C295.29 367.78 292.78 365.21 292.78 365.21C292.78 365.21 290 340.41 291.12 332.31Z" fill="#455A64"/>
<path d="M310.32 292.55C310.32 292.55 301.38 288.14 296.91 284.17C296.91 284.17 301.06 290.02 306.52 292.62C306.52 292.62 308.46 312.91 308.45 312.51L309.57 292.51L310.32 292.55Z" fill="#37474F"/>
<path d="M318.28 217.47L316.1 229.47L305.26 228.68L307.53 215.07L318.28 217.47Z" fill="#FFA8A7"/>
<path d="M293.81 227.8C294.88 224.54 299.02 220.99 303.16 221.8C309.317 222.842 315.385 224.356 321.31 226.33C325.1 227.68 328.55 230.96 328.87 243.44L330.79 280.6L326.2 281.6L324.6 273.18L323.86 281.6C319.06 282.8 310.73 281.81 305.26 280.6C293.86 278.11 292.49 273.38 292.49 273.38C292.49 273.38 292.34 252.47 292.68 243.44C293 235.72 293.07 230 293.81 227.8Z" fill="#37474F"/>
<path d="M326.3 203.25C326.3 203.25 328.93 207.14 328.59 207.55C327.982 207.96 327.304 208.255 326.59 208.42L326.3 203.25Z" fill="#FFA8A7"/>
<path d="M318.28 190.93C320.81 192.21 325.18 194.57 326.38 203.82C327.62 213.32 325.99 216.38 324.71 217.64C323.84 218.49 319.12 218.54 316.76 217.83C313.76 216.94 307.14 214.41 304.1 209.53C300.52 203.79 299.72 196.1 303.76 193.04C309.43 188.74 316.14 189.85 318.28 190.93Z" fill="#FFA8A7"/>
<path d="M326.91 194.11C326.08 196.39 324.68 201.97 318.86 204.3C318.86 204.3 318.03 200.74 315.04 201.12C312.05 201.5 311.54 205.31 313.38 207.68C315.22 210.05 317 209.19 317 209.19C317 209.19 317.4 214.29 314 216.6C314 216.6 309.89 219.2 305.54 217.2C303.54 216.3 300.81 211.61 299.19 207.76C295.75 199.62 295.26 193.09 300.45 191.03C301.09 187.33 302.76 185.94 306.11 185.25C313.32 183.76 318.77 188.5 324.83 187.67C328 187.23 327.86 191.51 326.91 194.11Z" fill="#37474F"/>
<path d="M300.33 192.27L296.93 190.17C297.062 189.935 297.24 189.728 297.454 189.563C297.667 189.398 297.912 189.278 298.173 189.211C298.435 189.143 298.707 189.129 298.974 189.169C299.241 189.209 299.497 189.303 299.727 189.445C299.956 189.587 300.155 189.774 300.31 189.994C300.466 190.215 300.575 190.465 300.631 190.729C300.688 190.993 300.69 191.265 300.638 191.53C300.587 191.795 300.482 192.047 300.33 192.27Z" fill="#37474F"/>
<path d="M317.48 221.84L318.72 225.43C318.72 225.43 317.81 227.03 313.94 227.11C310.07 227.19 305.94 225.96 304.66 224.31C304.369 223.987 304.153 223.603 304.028 223.186C303.904 222.769 303.874 222.33 303.94 221.9C303.94 221.9 305.48 218.5 306.94 218.65L306.7 220.13C306.7 220.13 307.03 221.34 310.54 222.27C316 223.72 317.48 221.84 317.48 221.84Z" fill="#455A64"/>
<path d="M348.58 245.7C350.14 243.91 350.74 239.94 352.82 237.22C354.9 234.5 355.67 232.51 356.49 233.7C357.58 235.27 355.12 238.42 355.67 238.7C356.22 238.98 358.25 243.16 358.46 245.46C358.67 247.76 352.57 253.56 352.57 253.56L348.58 245.7Z" fill="#FFA8A7"/>
<path d="M317.48 221.84C317.732 221.835 317.98 221.899 318.198 222.024C318.417 222.149 318.597 222.331 318.72 222.55C319.332 223.654 319.879 224.793 320.36 225.96L318.72 225.43L317.48 221.84Z" fill="#455A64"/>
<path d="M355.5 238.38C355.5 238.38 362.87 237.74 363.94 238.38C365.01 239.02 364.69 242.21 363.94 244.17C363.19 246.13 359.43 247.4 355.94 249.76C355.94 249.4 355.5 238.38 355.5 238.38Z" fill="#FFA8A7"/>
<path d="M320.36 226C323.53 227.11 326.3 228.38 329.26 233.94C333.06 241.08 340.26 252.5 340.26 252.5L348.55 245.19C348.55 245.19 349.8 243.98 352.13 247.83C352.813 248.866 353.245 250.047 353.392 251.28C353.54 252.512 353.399 253.762 352.98 254.93C352.98 254.93 343.41 266.16 341.58 267.87C339.75 269.58 336.72 268.25 334.75 265.56C332.78 262.87 320.33 247.32 320.33 247.32C320.33 247.32 313.57 238.34 320.36 226Z" fill="#37474F"/>
<path d="M405.87 207.33H382.26C381.369 207.33 380.514 206.976 379.884 206.346C379.254 205.716 378.9 204.861 378.9 203.97V166.46C378.9 163.508 380.073 160.677 382.16 158.59C384.247 156.503 387.078 155.33 390.03 155.33H398.13C401.077 155.338 403.9 156.514 405.981 158.601C408.062 160.687 409.23 163.513 409.23 166.46V203.97C409.23 204.861 408.876 205.716 408.246 206.346C407.616 206.976 406.761 207.33 405.87 207.33Z" fill="#37474F"/>
<path d="M378.28 194.53C375.99 201.28 372.15 220.7 372.15 220.7C372.15 220.7 364.15 230.48 361.54 232.85C360.11 234.17 356.89 236.54 356.89 236.54L362.74 240.84C368.022 236.777 372.983 232.314 377.58 227.49C378.602 226.402 379.32 225.064 379.66 223.61L383.66 206.45C383.66 206.45 383.66 192.65 385.77 190.84C387.88 189.03 388.49 188.65 388.49 188.65C385.78 188.45 380.08 189.22 378.28 194.53Z" fill="#F28F8F"/>
<path d="M389.74 188.45C386.01 188.02 381.23 188.1 378.9 192.27C376.57 196.44 372.69 218 372.69 218C372.69 218 376.36 220.85 380.32 220.8L389.74 188.45Z" fill="#92E3A9"/>
<path d="M379.37 208.54C380.042 211.754 380.3 215.041 380.14 218.32C379.85 222.64 376.87 230.18 376.87 230.18C376.87 230.18 379.2 232.74 385.77 231.71C391.12 230.88 389.23 214.71 386.16 211.61C384.37 209.76 381.941 208.662 379.37 208.54Z" fill="#92E3A9"/>
<path opacity="0.3" d="M379.37 208.54C380.042 211.754 380.3 215.041 380.14 218.32C379.85 222.64 376.87 230.18 376.87 230.18C376.87 230.18 379.2 232.74 385.77 231.71C391.12 230.88 389.23 214.71 386.16 211.61C384.37 209.76 381.941 208.662 379.37 208.54Z" fill="black"/>
<path d="M391.73 322.74C391.772 323.478 391.587 324.211 391.2 324.84C390.211 326.474 389.047 327.997 387.73 329.38C385.88 331.38 383.11 333.73 381.12 335.46C380.02 336.46 379.98 337.88 381.56 338.39C384.505 339.107 387.613 338.675 390.25 337.18C392.25 336.12 395.03 331.18 396.67 330.48C398.56 329.63 399.61 329.21 400.25 328.34C400.734 327.846 401.036 327.202 401.107 326.513C401.178 325.825 401.013 325.133 400.64 324.55C399.75 322.89 398.41 320.34 397.86 320.63L398.03 321.15C397.6 322.5 393.92 324.07 392.03 323.7L391.73 322.74Z" fill="#37474F"/>
<path d="M411 266.32C411.85 257.32 414.29 242.84 411.79 232.12L378.59 233.88C377.67 244.45 376.59 277.45 377.75 281.23C379.09 285.69 391.06 316.56 391.75 322.77C391.798 323.499 391.612 324.224 391.22 324.84C390.232 326.478 389.069 328.004 387.75 329.39C386.85 330.39 385.75 331.39 384.59 332.39C384.493 332.533 384.434 332.698 384.42 332.87C384.42 333.87 386.94 334.18 388.42 333.75C390.266 333.099 391.856 331.876 392.96 330.26C393.81 329.13 395.72 326.96 396.96 325.33C397.374 324.827 397.726 324.277 398.01 323.69C398.341 322.958 398.398 322.131 398.17 321.36L398.09 321.11C397.441 319.086 397.038 316.991 396.89 314.87C396.43 308.06 395.26 292.33 394.18 288.14C393.43 285.087 392.291 282.143 390.79 279.38L394.58 249.89C394.58 249.89 394.98 275.89 396.16 282.52C397.09 287.83 397.45 294.47 398.54 303.58C399.54 312.3 400.7 327.66 400.7 327.66C400.73 327.666 400.76 327.666 400.79 327.66V335H407V330.74C407 328.817 407.161 326.897 407.48 325C408.48 319.2 410.56 305.93 410.99 301.44C411.67 294.32 409.1 285.37 409.1 285.37C409.1 285.37 410.17 275.1 411 266.32Z" fill="#FFA8A7"/>
<path d="M399.3 188.76C399.3 188.76 408.23 189.76 409.3 190.27C400.92 196.16 407.71 209.27 407.71 209.27L404.5 219.34C408.07 223.91 411.15 226.63 413.06 231.64C415.18 237.24 417.06 245.57 416.56 262.64C408.56 268.64 384.22 267.99 374.74 262.64C374.74 262.64 376.34 247.57 378.23 235.86C379.48 228.13 382.43 219.71 381.93 216.86C378.17 205.3 377.93 203.22 378.61 200.64C380.48 193.38 387.88 188.47 389.7 188.47L399.3 188.76Z" fill="#92E3A9"/>
<path opacity="0.6" d="M399.3 188.76C399.3 188.76 408.23 189.76 409.3 190.27C400.92 196.16 407.71 209.27 407.71 209.27L404.5 219.34C408.07 223.91 411.15 226.63 413.06 231.64C415.18 237.24 417.06 245.57 416.56 262.64C408.56 268.64 384.22 267.99 374.74 262.64C374.74 262.64 376.34 247.57 378.23 235.86C379.48 228.13 382.43 219.71 381.93 216.86C378.17 205.3 377.93 203.22 378.61 200.64C380.48 193.38 387.88 188.47 389.7 188.47L399.3 188.76Z" fill="white"/>
<path d="M400.73 331.89V331C399.95 333.99 398.39 336.72 396.21 338.91C394.21 340.72 391.51 342.82 390.81 344.85C390.11 346.88 394.02 347.79 396.6 347.53C399.1 347.225 401.403 346.02 403.08 344.14C404.72 342.26 404.69 340.98 405.45 339.94C406.21 338.9 407.98 337.76 408.39 336.56C408.518 335.44 408.395 334.306 408.03 333.24C407.74 332.13 407.42 330.9 407.03 331V331.69C406.13 332.398 405.015 332.776 403.87 332.76C403 332.78 400.72 332.59 400.73 331.89Z" fill="#37474F"/>
<path d="M407 331.67C406.1 332.378 404.985 332.756 403.84 332.74C402.92 332.74 400.68 332.59 400.69 331.89V331C399.91 333.99 398.35 336.72 396.17 338.91L394.66 340.26C393.6 341.44 393.9 342.47 396.39 342.68C398.88 342.89 401.07 341.39 402.95 339.08C404.553 336.757 405.91 334.274 407 331.67Z" fill="#FFA8A7"/>
<path d="M383.88 161.46C382.28 162.41 380.3 166.46 380.49 174.88C380.66 182.04 382.98 183.81 384.15 184.32C385.32 184.83 387.56 184.52 389.74 184.16V188.45C389.74 188.45 386.74 191.96 386.91 193.93C387.08 195.9 391.27 196.36 394.1 194.44C396.143 192.856 397.902 190.935 399.3 188.76L399.25 178.89C399.25 178.89 400.54 180.13 402.72 178.23C404.52 176.66 405.12 174 403.72 172.58C403.356 172.238 402.917 171.988 402.437 171.851C401.957 171.714 401.452 171.693 400.962 171.791C400.473 171.889 400.014 172.102 399.624 172.414C399.234 172.725 398.924 173.125 398.72 173.58C398.72 173.58 397.51 170.21 392.48 168.58C387.94 167.07 385.47 165.36 383.88 161.46Z" fill="#FFA8A7"/>
<path d="M388.49 173.09C388.49 173.266 388.542 173.439 388.639 173.586C388.737 173.733 388.875 173.848 389.037 173.917C389.199 173.986 389.378 174.006 389.551 173.975C389.725 173.943 389.885 173.861 390.012 173.739C390.14 173.617 390.228 173.461 390.268 173.289C390.307 173.117 390.294 172.938 390.232 172.773C390.17 172.608 390.061 172.464 389.919 172.361C389.776 172.257 389.606 172.198 389.43 172.19C389.309 172.188 389.189 172.209 389.076 172.252C388.964 172.296 388.861 172.362 388.774 172.445C388.686 172.529 388.616 172.629 388.568 172.74C388.519 172.85 388.493 172.969 388.49 173.09Z" fill="#37474F"/>
<path d="M388.25 179.15L386.16 179.82C386.197 179.96 386.261 180.09 386.35 180.204C386.438 180.318 386.549 180.413 386.675 180.483C386.801 180.553 386.94 180.597 387.084 180.612C387.227 180.627 387.372 180.613 387.51 180.57C387.792 180.474 388.027 180.273 388.164 180.008C388.302 179.744 388.333 179.437 388.25 179.15Z" fill="#F28F8F"/>
<path d="M381.11 170.32L382.93 169.06C382.853 168.937 382.752 168.831 382.633 168.748C382.514 168.666 382.379 168.608 382.237 168.579C382.094 168.55 381.948 168.55 381.806 168.58C381.664 168.609 381.529 168.667 381.41 168.75C381.166 168.922 380.999 169.182 380.943 169.475C380.887 169.767 380.947 170.071 381.11 170.32Z" fill="#37474F"/>
<path d="M391.11 171L389.28 169.74C389.357 169.617 389.458 169.511 389.577 169.428C389.696 169.346 389.83 169.287 389.972 169.258C390.114 169.228 390.26 169.227 390.403 169.255C390.545 169.282 390.68 169.339 390.8 169.42C391.042 169.595 391.209 169.856 391.266 170.149C391.324 170.442 391.268 170.746 391.11 171Z" fill="#37474F"/>
<path d="M381.53 172.43C381.528 172.607 381.578 172.78 381.674 172.928C381.771 173.077 381.908 173.193 382.07 173.264C382.232 173.335 382.411 173.356 382.585 173.326C382.759 173.295 382.92 173.214 383.049 173.093C383.177 172.971 383.267 172.815 383.307 172.643C383.347 172.47 383.335 172.29 383.273 172.125C383.212 171.959 383.102 171.816 382.96 171.712C382.817 171.608 382.646 171.548 382.47 171.54C382.228 171.535 381.993 171.625 381.817 171.792C381.641 171.958 381.538 172.188 381.53 172.43Z" fill="#37474F"/>
<path d="M385.77 171.92L385.63 177.34L382.78 176.46L385.77 171.92Z" fill="#F28F8F"/>
<path d="M389.74 184.16C392.04 183.85 396.74 182.49 397.52 180.62C397.223 181.567 396.644 182.401 395.86 183.01C394.44 184.22 389.74 185.59 389.74 185.59V184.16Z" fill="#F28F8F"/>
<path d="M406.05 213.85L399.74 222.39L404.5 219.34L406.05 213.85Z" fill="#92E3A9"/>
<path d="M356.34 236.54C354.99 238.28 354.16 241.66 353.45 242.8C352.74 243.94 351.89 244.93 353.45 245.14C355.01 245.35 357.29 242.3 358.14 240.45C358.57 239.407 359.382 238.566 360.41 238.1C359.68 237.85 360.06 234.92 359.55 234.51C359.55 234.51 356.89 235.6 356.34 236.54Z" fill="#F28F8F"/>
<path d="M355.94 249.74C357.35 248.69 357.4 247.4 357.67 245.35C357.94 243.3 363.59 241.08 363.77 242.61C363.95 244.14 364.46 245.42 362.77 247.28C361.08 249.14 358.52 251.12 355.94 249.74Z" fill="#F28F8F"/>
<path d="M399.3 188.76C399.3 188.76 407.66 189.49 409.3 190.27C410.94 191.05 413.67 195.77 411.23 202.62C408.79 209.47 406.57 217.53 406.82 219.15C407.07 220.77 412.9 229.15 412.9 229.15C411.292 230.337 409.473 231.209 407.54 231.72L404.54 225.2L405.24 232.13C402.227 232.863 399.13 233.199 396.03 233.13C396.03 233.13 393.2 206.51 399.3 188.76Z" fill="#92E3A9"/>
<path d="M419.9 221.41C420.57 217.47 419.9 216.18 418.52 212.32L411.52 216.85C412.094 218.307 412.432 219.847 412.52 221.41C412.46 222.55 410.91 233.85 409.46 237.79C409.199 238.491 408.685 239.068 408.02 239.41C406.578 240.291 405.271 241.375 404.14 242.63C403.07 243.63 402.21 243.81 402.32 244.15C402.485 244.519 402.781 244.813 403.15 244.978C403.519 245.142 403.936 245.164 404.32 245.04C405.191 244.757 406.027 244.375 406.81 243.9C406.116 245.371 405.191 246.721 404.07 247.9C401.5 250.64 401.27 252.42 406.07 252.79C409.07 253.02 411.58 251.34 414.29 244.89C415.13 242.525 415.821 240.111 416.36 237.66C417.82 232.07 419.24 225.38 419.9 221.41Z" fill="#FFA8A7"/>
<path d="M409.3 190.27C412.67 191.78 413.63 194.76 414.88 199.14C416.13 203.52 420.05 216.66 420.05 216.66C420.05 216.66 416.69 220.66 412.05 219.54L406.05 204.97C406.05 204.97 403.25 195.46 409.3 190.27Z" fill="#92E3A9"/>
</svg>
