<svg width="400" height="400" viewBox="0 0 400 400" fill="none" xmlns="http://www.w3.org/2000/svg">
<path d="M59.84 178.2C59.84 178.2 54.952 232.688 95.84 273.784C136.728 314.88 199.2 324.264 249.6 333.208C300 342.152 342.52 317.6 353.728 274.704C364.936 231.808 327.656 214.848 312.64 163.04C297.624 111.232 301.488 95.144 260.64 59.84C219.792 24.536 147.752 35.728 104.8 84C61.848 132.272 59.84 178.2 59.84 178.2Z" fill="#49A38E"/>
<path opacity="0.7" d="M59.84 178.2C59.84 178.2 54.952 232.688 95.84 273.784C136.728 314.88 199.2 324.264 249.6 333.208C300 342.152 342.52 317.6 353.728 274.704C364.936 231.808 327.656 214.848 312.64 163.04C297.624 111.232 301.488 95.144 260.64 59.84C219.792 24.536 147.752 35.728 104.8 84C61.848 132.272 59.84 178.2 59.84 178.2Z" fill="white"/>
<path d="M366.4 346.192C366.4 348.216 294.4 349.864 205.6 349.864C116.8 349.864 44.8 348.216 44.8 346.192C44.8 344.168 116.8 342.52 205.6 342.52C294.4 342.52 366.4 344.16 366.4 346.192Z" fill="#234F5B"/>
<path opacity="0.6" d="M366.4 346.192C366.4 348.216 294.4 349.864 205.6 349.864C116.8 349.864 44.8 348.216 44.8 346.192C44.8 344.168 116.8 342.52 205.6 342.52C294.4 342.52 366.4 344.16 366.4 346.192Z" fill="white"/>
<path d="M308.544 218.328C308.496 218.328 309.08 215.432 309.136 215.248C309.808 213.184 312.336 209.576 314.736 209.584C315.14 209.596 315.537 209.693 315.901 209.868C316.265 210.044 316.589 210.294 316.85 210.603C317.111 210.911 317.304 211.271 317.417 211.66C317.529 212.048 317.559 212.456 317.504 212.856C317.328 214.568 315.792 216.056 314.4 216.856C312.8 217.856 308.544 218.328 308.544 218.328Z" fill="#59C9A5"/>
<path d="M303.824 198.816C306.12 199.616 307.256 203.88 307.184 206.016C307.184 206.2 306.744 209.128 306.704 209.112H306.656C306.848 209.776 307.032 210.496 307.224 211.288C307.568 212.744 307.944 214.4 308.232 216.224C308.567 218.191 308.783 220.175 308.88 222.168C309.006 224.397 308.931 226.633 308.656 228.848C308.659 228.875 308.659 228.901 308.656 228.928C308.96 228.28 309.856 226.528 309.944 226.368C311.136 224.544 314.512 221.736 316.856 222.368C317.243 222.486 317.601 222.684 317.906 222.95C318.211 223.215 318.457 223.542 318.628 223.908C318.798 224.275 318.89 224.674 318.896 225.078C318.902 225.483 318.823 225.884 318.664 226.256C318.048 227.856 316.176 228.864 314.616 229.304C312.856 229.808 308.928 229.216 308.616 229.168C308.279 231.413 307.796 233.634 307.168 235.816C306.808 237.088 306.408 238.36 305.984 239.632C306.264 239.08 306.512 238.592 306.56 238.528C307.752 236.712 311.128 233.896 313.472 234.528C313.859 234.646 314.217 234.844 314.522 235.11C314.827 235.375 315.073 235.702 315.244 236.068C315.414 236.435 315.506 236.834 315.512 237.238C315.518 237.643 315.439 238.044 315.28 238.416C314.656 240.016 312.792 241.024 311.232 241.464C309.672 241.904 306.288 241.464 305.4 241.352L304.904 242.808C304.104 245.136 303.304 247.456 302.56 249.752C302.304 250.552 302.08 251.352 301.856 252.152C302.096 251.664 302.312 251.248 302.352 251.192C303.544 249.376 306.92 246.56 309.264 247.192C309.651 247.31 310.009 247.508 310.314 247.774C310.619 248.039 310.865 248.366 311.036 248.732C311.206 249.099 311.298 249.498 311.304 249.902C311.31 250.307 311.231 250.708 311.072 251.08C310.448 252.68 308.584 253.688 307.024 254.128C305.464 254.568 302.408 254.184 301.352 254.04C301.144 254.84 300.936 255.704 300.776 256.52C300.672 257.08 300.544 257.616 300.472 258.184C300.4 258.752 300.312 259.296 300.24 259.848C300.128 260.912 300.008 262.008 299.928 263.048C299.864 263.776 299.816 264.464 299.768 265.16C300.016 264.36 300.568 262.76 300.568 262.656C301.427 260.945 302.711 259.482 304.296 258.408C304.384 258.216 304.489 258.031 304.608 257.856C304.828 257.516 305.118 257.226 305.457 257.006C305.797 256.785 306.179 256.639 306.58 256.576C306.98 256.514 307.389 256.536 307.779 256.642C308.17 256.748 308.534 256.936 308.848 257.192C310.688 258.792 310.232 263.152 309.384 265.152C309.336 265.272 308.648 266.496 308.2 267.256C308.528 266.848 308.848 266.456 309.192 266.032C309.872 265.232 310.568 264.432 311.32 263.528L312.456 262.288C312.832 261.864 313.256 261.488 313.688 261.056C314.664 260.112 315.696 259.208 316.76 258.312C316.032 257.72 313.488 255.576 312.76 254.112C312.032 252.648 311.512 250.608 312.272 249.072C312.437 248.702 312.679 248.372 312.981 248.102C313.284 247.833 313.639 247.63 314.025 247.508C314.412 247.385 314.819 247.346 315.221 247.392C315.624 247.438 316.012 247.569 316.36 247.776C318.424 249.064 318.632 253.456 318.096 255.56C318.096 255.696 317.512 257.16 317.192 257.96C317.832 257.424 318.472 256.896 319.136 256.36C321.064 254.872 323.056 253.432 325.04 251.976C325.648 251.536 326.248 251.08 326.856 250.632C326.592 250.424 323.512 247.936 322.696 246.304C321.968 244.856 321.448 242.8 322.208 241.256C322.375 240.888 322.618 240.559 322.921 240.291C323.223 240.023 323.579 239.821 323.964 239.699C324.349 239.577 324.756 239.537 325.158 239.582C325.559 239.627 325.947 239.756 326.296 239.96C328.36 241.256 328.568 245.648 328.032 247.752C327.992 247.912 327.192 250.024 326.96 250.552C328.288 249.568 329.6 248.568 330.856 247.536C332.549 246.143 334.152 244.644 335.656 243.048C335.528 242.952 332.312 240.368 331.472 238.696C330.744 237.24 330.216 235.192 330.984 233.648C331.151 233.28 331.394 232.951 331.697 232.683C331.999 232.415 332.355 232.213 332.74 232.091C333.125 231.969 333.532 231.929 333.934 231.974C334.335 232.019 334.723 232.148 335.072 232.352C337.136 233.648 337.336 238.032 336.808 240.144C336.768 240.28 336.16 241.896 335.856 242.656L335.976 242.728C337.446 241.077 338.769 239.299 339.928 237.416C340.576 236.384 341.144 235.368 341.672 234.36C341.016 233.944 338.072 231.96 337.152 230.568C336.232 229.176 335.552 227.224 336.112 225.608C336.237 225.223 336.442 224.869 336.713 224.569C336.984 224.269 337.315 224.029 337.685 223.865C338.054 223.702 338.455 223.618 338.859 223.619C339.263 223.62 339.663 223.706 340.032 223.872C342.224 224.936 342.912 229.272 342.616 231.424C342.616 231.544 342.296 232.712 342.072 233.568C342.304 233.112 342.544 232.64 342.76 232.2C343.56 230.544 344.192 229 344.744 227.576C345.048 226.776 345.304 226.056 345.544 225.376C345.12 224.632 343.456 221.616 343.296 219.96C343.136 218.304 343.392 216.24 344.656 215.08C344.944 214.795 345.288 214.574 345.667 214.431C346.046 214.289 346.451 214.228 346.855 214.253C347.259 214.278 347.654 214.388 348.012 214.576C348.371 214.764 348.686 215.026 348.936 215.344C350.4 217.296 349.008 221.456 347.752 223.232C347.64 223.384 345.664 225.592 345.64 225.552V225.504C345.424 226.168 345.184 226.872 344.912 227.632C344.392 229.04 343.792 230.632 343.024 232.312C342.216 234.135 341.303 235.908 340.288 237.624C339.163 239.55 337.867 241.37 336.416 243.064L336.36 243.128C336.968 242.752 338.704 241.76 338.848 241.704C340.84 240.84 345.208 240.36 346.808 242.192C347.066 242.504 347.255 242.866 347.364 243.255C347.472 243.645 347.498 244.053 347.438 244.453C347.378 244.853 347.235 245.236 347.018 245.577C346.8 245.918 346.514 246.209 346.176 246.432C344.768 247.432 342.664 247.232 341.112 246.744C339.368 246.192 336.416 243.544 336.184 243.312C334.665 245.003 333.035 246.591 331.304 248.064C330.304 248.928 329.264 249.768 328.216 250.6C328.752 250.288 329.232 250.016 329.304 249.992C331.304 249.128 335.704 248.648 337.304 250.48C337.561 250.792 337.75 251.155 337.858 251.545C337.966 251.935 337.991 252.343 337.93 252.743C337.87 253.143 337.726 253.526 337.508 253.866C337.29 254.207 337.002 254.498 336.664 254.72C335.256 255.72 333.152 255.52 331.6 255.032C330.048 254.544 327.472 252.312 326.8 251.72L325.6 252.8C323.648 254.296 321.688 255.776 319.816 257.296C319.152 257.832 318.52 258.376 317.888 258.896L318.832 258.368C320.832 257.512 325.232 257.024 326.832 258.864C327.089 259.176 327.278 259.539 327.386 259.929C327.494 260.319 327.519 260.727 327.458 261.127C327.398 261.527 327.254 261.91 327.036 262.25C326.818 262.591 326.53 262.882 326.192 263.104C324.792 264.096 322.68 263.904 321.136 263.408C319.592 262.912 317.248 260.912 316.456 260.208C315.824 260.784 315.184 261.368 314.6 261.96C314.208 262.368 313.8 262.76 313.432 263.176L312.32 264.44C311.64 265.24 310.936 266.112 310.296 266.936C309.84 267.504 309.424 268.056 309 268.608C309.648 268.072 310.952 267.048 311.064 267.008C312.912 265.856 317.152 264.72 319.016 266.288C319.317 266.559 319.558 266.89 319.723 267.26C319.888 267.63 319.974 268.031 319.974 268.436C319.974 268.841 319.888 269.242 319.723 269.612C319.558 269.982 319.317 270.313 319.016 270.584C317.784 271.776 315.672 271.904 314.064 271.648C312.296 271.376 309.096 269.288 308.696 269.032C308 269.944 307.328 270.848 306.712 271.704C304.56 274.68 302.88 277.24 301.728 279.048L301.616 279.232L300.128 278.512C300.2 278.392 300.28 278.28 300.36 278.152C301.56 276.352 303.312 273.808 305.552 270.848C306.256 269.912 307.032 268.928 307.832 267.92C307.002 267.014 306.23 266.058 305.52 265.056C303.808 265.728 300.248 265.76 299.784 265.76C299.712 266.912 299.648 268.032 299.608 269.088C299.448 272.76 299.464 275.816 299.496 277.96C299.496 278.048 299.496 278.128 299.496 278.208L297.856 277.408C297.856 275.28 297.936 272.408 298.152 269.008C298.224 267.832 298.328 266.608 298.44 265.304C297.992 265.192 294.28 264.24 292.888 263.12C291.496 262 290.28 260.464 290.328 258.744C290.324 258.337 290.407 257.933 290.571 257.56C290.735 257.187 290.976 256.853 291.278 256.58C291.581 256.307 291.938 256.101 292.325 255.977C292.713 255.852 293.123 255.811 293.528 255.856C295.928 256.168 297.968 260.064 298.368 262.2C298.368 262.328 298.496 263.728 298.544 264.6C298.592 264.08 298.632 263.568 298.688 263C298.8 261.936 298.936 260.872 299.08 259.736C299.168 259.184 299.264 258.632 299.352 258.072C299.44 257.512 299.584 256.936 299.696 256.368C299.992 255.04 300.352 253.72 300.744 252.368C299.816 252.272 296.512 251.88 295.096 251.064C293.68 250.248 292.12 248.832 291.896 247.128C291.831 246.729 291.852 246.32 291.956 245.929C292.06 245.538 292.245 245.173 292.499 244.858C292.753 244.543 293.071 244.286 293.432 244.102C293.793 243.918 294.188 243.813 294.592 243.792C296.992 243.736 299.616 247.28 300.336 249.328C300.384 249.456 300.728 250.992 300.904 251.832C301.144 251.032 301.384 250.232 301.656 249.432C302.456 247.128 303.312 244.816 304.16 242.512C304.424 241.808 304.68 241.096 304.96 240.392C304.624 240.392 300.688 239.984 299.104 239.072C297.696 238.272 296.128 236.84 295.904 235.136C295.839 234.737 295.86 234.328 295.964 233.937C296.068 233.546 296.253 233.181 296.507 232.866C296.761 232.551 297.079 232.294 297.44 232.11C297.801 231.926 298.196 231.821 298.6 231.8C301 231.736 303.624 235.288 304.344 237.336C304.4 237.496 304.896 239.696 304.992 240.264C305.56 238.712 306.104 237.152 306.592 235.6C307.249 233.504 307.765 231.365 308.136 229.2C307.984 229.2 303.872 228.808 302.248 227.872C300.84 227.072 299.272 225.64 299.048 223.936C298.983 223.537 299.004 223.128 299.108 222.737C299.212 222.346 299.397 221.981 299.651 221.666C299.905 221.351 300.223 221.094 300.584 220.91C300.945 220.726 301.34 220.621 301.744 220.6C304.184 220.544 306.776 224.088 307.488 226.136C307.536 226.272 307.92 227.952 308.08 228.752H308.224C308.541 226.564 308.664 224.353 308.592 222.144C308.592 220.928 308.472 219.744 308.36 218.632C307.56 218.632 304.056 218.632 302.496 217.968C300.936 217.304 299.296 216.072 298.896 214.4C298.789 214.01 298.764 213.602 298.825 213.203C298.885 212.803 299.029 212.421 299.247 212.08C299.466 211.74 299.753 211.45 300.091 211.228C300.428 211.006 300.809 210.857 301.208 210.792C303.608 210.464 306.584 213.704 307.528 215.664C307.576 215.768 307.976 216.912 308.256 217.752C308.192 217.24 308.144 216.712 308.072 216.232C307.824 214.4 307.488 212.744 307.176 211.28C306.992 210.48 306.808 209.68 306.632 209.008C305.832 208.616 302.816 207.016 301.768 205.728C300.72 204.44 299.8 202.528 300.208 200.928C300.298 200.547 300.464 200.188 300.697 199.873C300.93 199.558 301.224 199.293 301.563 199.096C301.901 198.898 302.276 198.772 302.665 198.723C303.053 198.675 303.448 198.707 303.824 198.816Z" fill="#59C9A5"/>
<path d="M347.856 236.36C345.952 236.28 342.144 234.328 342.144 234.328C342.144 234.328 344.192 232.208 344.336 232.096C346.04 230.736 350.12 229.12 352.152 230.496C352.482 230.73 352.759 231.031 352.965 231.379C353.171 231.727 353.302 232.115 353.35 232.516C353.397 232.918 353.36 233.325 353.241 233.712C353.121 234.098 352.922 234.455 352.656 234.76C351.56 236.056 349.48 236.424 347.856 236.36Z" fill="#59C9A5"/>
<g opacity="0.5">
<path d="M308.544 218.328C308.496 218.328 309.08 215.432 309.136 215.248C309.808 213.184 312.336 209.576 314.736 209.584C315.14 209.596 315.537 209.693 315.901 209.868C316.265 210.044 316.589 210.294 316.85 210.603C317.111 210.911 317.304 211.271 317.417 211.66C317.529 212.048 317.559 212.456 317.504 212.856C317.328 214.568 315.792 216.056 314.4 216.856C312.8 217.856 308.544 218.328 308.544 218.328Z" fill="white"/>
<path d="M303.824 198.816C306.12 199.616 307.256 203.88 307.184 206.016C307.184 206.2 306.744 209.128 306.704 209.112H306.656C306.848 209.776 307.032 210.496 307.224 211.288C307.568 212.744 307.944 214.4 308.232 216.224C308.567 218.191 308.783 220.175 308.88 222.168C309.006 224.397 308.931 226.633 308.656 228.848C308.659 228.875 308.659 228.901 308.656 228.928C308.96 228.28 309.856 226.528 309.944 226.368C311.136 224.544 314.512 221.736 316.856 222.368C317.243 222.486 317.601 222.684 317.906 222.95C318.211 223.215 318.457 223.542 318.628 223.908C318.798 224.275 318.89 224.674 318.896 225.078C318.902 225.483 318.823 225.884 318.664 226.256C318.048 227.856 316.176 228.864 314.616 229.304C312.856 229.808 308.928 229.216 308.616 229.168C308.279 231.413 307.796 233.634 307.168 235.816C306.808 237.088 306.408 238.36 305.984 239.632C306.264 239.08 306.512 238.592 306.56 238.528C307.752 236.712 311.128 233.896 313.472 234.528C313.859 234.646 314.217 234.844 314.522 235.11C314.827 235.375 315.073 235.702 315.244 236.068C315.414 236.435 315.506 236.834 315.512 237.238C315.518 237.643 315.439 238.044 315.28 238.416C314.656 240.016 312.792 241.024 311.232 241.464C309.672 241.904 306.288 241.464 305.4 241.352L304.904 242.808C304.104 245.136 303.304 247.456 302.56 249.752C302.304 250.552 302.08 251.352 301.856 252.152C302.096 251.664 302.312 251.248 302.352 251.192C303.544 249.376 306.92 246.56 309.264 247.192C309.651 247.31 310.009 247.508 310.314 247.774C310.619 248.039 310.865 248.366 311.036 248.732C311.206 249.099 311.298 249.498 311.304 249.902C311.31 250.307 311.231 250.708 311.072 251.08C310.448 252.68 308.584 253.688 307.024 254.128C305.464 254.568 302.408 254.184 301.352 254.04C301.144 254.84 300.936 255.704 300.776 256.52C300.672 257.08 300.544 257.616 300.472 258.184C300.4 258.752 300.312 259.296 300.24 259.848C300.128 260.912 300.008 262.008 299.928 263.048C299.864 263.776 299.816 264.464 299.768 265.16C300.016 264.36 300.568 262.76 300.568 262.656C301.427 260.945 302.711 259.482 304.296 258.408C304.384 258.216 304.489 258.031 304.608 257.856C304.828 257.516 305.118 257.226 305.457 257.006C305.797 256.785 306.179 256.639 306.58 256.576C306.98 256.514 307.389 256.536 307.779 256.642C308.17 256.748 308.534 256.936 308.848 257.192C310.688 258.792 310.232 263.152 309.384 265.152C309.336 265.272 308.648 266.496 308.2 267.256C308.528 266.848 308.848 266.456 309.192 266.032C309.872 265.232 310.568 264.432 311.32 263.528L312.456 262.288C312.832 261.864 313.256 261.488 313.688 261.056C314.664 260.112 315.696 259.208 316.76 258.312C316.032 257.72 313.488 255.576 312.76 254.112C312.032 252.648 311.512 250.608 312.272 249.072C312.437 248.702 312.679 248.372 312.981 248.102C313.284 247.833 313.639 247.63 314.025 247.508C314.412 247.385 314.819 247.346 315.221 247.392C315.624 247.438 316.012 247.569 316.36 247.776C318.424 249.064 318.632 253.456 318.096 255.56C318.096 255.696 317.512 257.16 317.192 257.96C317.832 257.424 318.472 256.896 319.136 256.36C321.064 254.872 323.056 253.432 325.04 251.976C325.648 251.536 326.248 251.08 326.856 250.632C326.592 250.424 323.512 247.936 322.696 246.304C321.968 244.856 321.448 242.8 322.208 241.256C322.375 240.888 322.618 240.559 322.921 240.291C323.223 240.023 323.579 239.821 323.964 239.699C324.349 239.577 324.756 239.537 325.158 239.582C325.559 239.627 325.947 239.756 326.296 239.96C328.36 241.256 328.568 245.648 328.032 247.752C327.992 247.912 327.192 250.024 326.96 250.552C328.288 249.568 329.6 248.568 330.856 247.536C332.549 246.143 334.152 244.644 335.656 243.048C335.528 242.952 332.312 240.368 331.472 238.696C330.744 237.24 330.216 235.192 330.984 233.648C331.151 233.28 331.394 232.951 331.697 232.683C331.999 232.415 332.355 232.213 332.74 232.091C333.125 231.969 333.532 231.929 333.934 231.974C334.335 232.019 334.723 232.148 335.072 232.352C337.136 233.648 337.336 238.032 336.808 240.144C336.768 240.28 336.16 241.896 335.856 242.656L335.976 242.728C337.446 241.077 338.769 239.299 339.928 237.416C340.576 236.384 341.144 235.368 341.672 234.36C341.016 233.944 338.072 231.96 337.152 230.568C336.232 229.176 335.552 227.224 336.112 225.608C336.237 225.223 336.442 224.869 336.713 224.569C336.984 224.269 337.315 224.029 337.685 223.865C338.054 223.702 338.455 223.618 338.859 223.619C339.263 223.62 339.663 223.706 340.032 223.872C342.224 224.936 342.912 229.272 342.616 231.424C342.616 231.544 342.296 232.712 342.072 233.568C342.304 233.112 342.544 232.64 342.76 232.2C343.56 230.544 344.192 229 344.744 227.576C345.048 226.776 345.304 226.056 345.544 225.376C345.12 224.632 343.456 221.616 343.296 219.96C343.136 218.304 343.392 216.24 344.656 215.08C344.944 214.795 345.288 214.574 345.667 214.431C346.046 214.289 346.451 214.228 346.855 214.253C347.259 214.278 347.654 214.388 348.012 214.576C348.371 214.764 348.686 215.026 348.936 215.344C350.4 217.296 349.008 221.456 347.752 223.232C347.64 223.384 345.664 225.592 345.64 225.552V225.504C345.424 226.168 345.184 226.872 344.912 227.632C344.392 229.04 343.792 230.632 343.024 232.312C342.216 234.135 341.303 235.908 340.288 237.624C339.163 239.55 337.867 241.37 336.416 243.064L336.36 243.128C336.968 242.752 338.704 241.76 338.848 241.704C340.84 240.84 345.208 240.36 346.808 242.192C347.066 242.504 347.255 242.866 347.364 243.255C347.472 243.645 347.498 244.053 347.438 244.453C347.378 244.853 347.235 245.236 347.018 245.577C346.8 245.918 346.514 246.209 346.176 246.432C344.768 247.432 342.664 247.232 341.112 246.744C339.368 246.192 336.416 243.544 336.184 243.312C334.665 245.003 333.035 246.591 331.304 248.064C330.304 248.928 329.264 249.768 328.216 250.6C328.752 250.288 329.232 250.016 329.304 249.992C331.304 249.128 335.704 248.648 337.304 250.48C337.561 250.792 337.75 251.155 337.858 251.545C337.966 251.935 337.991 252.343 337.93 252.743C337.87 253.143 337.726 253.526 337.508 253.866C337.29 254.207 337.002 254.498 336.664 254.72C335.256 255.72 333.152 255.52 331.6 255.032C330.048 254.544 327.472 252.312 326.8 251.72L325.6 252.8C323.648 254.296 321.688 255.776 319.816 257.296C319.152 257.832 318.52 258.376 317.888 258.896L318.832 258.368C320.832 257.512 325.232 257.024 326.832 258.864C327.089 259.176 327.278 259.539 327.386 259.929C327.494 260.319 327.519 260.727 327.458 261.127C327.398 261.527 327.254 261.91 327.036 262.25C326.818 262.591 326.53 262.882 326.192 263.104C324.792 264.096 322.68 263.904 321.136 263.408C319.592 262.912 317.248 260.912 316.456 260.208C315.824 260.784 315.184 261.368 314.6 261.96C314.208 262.368 313.8 262.76 313.432 263.176L312.32 264.44C311.64 265.24 310.936 266.112 310.296 266.936C309.84 267.504 309.424 268.056 309 268.608C309.648 268.072 310.952 267.048 311.064 267.008C312.912 265.856 317.152 264.72 319.016 266.288C319.317 266.559 319.558 266.89 319.723 267.26C319.888 267.63 319.974 268.031 319.974 268.436C319.974 268.841 319.888 269.242 319.723 269.612C319.558 269.982 319.317 270.313 319.016 270.584C317.784 271.776 315.672 271.904 314.064 271.648C312.296 271.376 309.096 269.288 308.696 269.032C308 269.944 307.328 270.848 306.712 271.704C304.56 274.68 302.88 277.24 301.728 279.048L301.616 279.232L300.128 278.512C300.2 278.392 300.28 278.28 300.36 278.152C301.56 276.352 303.312 273.808 305.552 270.848C306.256 269.912 307.032 268.928 307.832 267.92C307.002 267.014 306.23 266.058 305.52 265.056C303.808 265.728 300.248 265.76 299.784 265.76C299.712 266.912 299.648 268.032 299.608 269.088C299.448 272.76 299.464 275.816 299.496 277.96C299.496 278.048 299.496 278.128 299.496 278.208L297.856 277.408C297.856 275.28 297.936 272.408 298.152 269.008C298.224 267.832 298.328 266.608 298.44 265.304C297.992 265.192 294.28 264.24 292.888 263.12C291.496 262 290.28 260.464 290.328 258.744C290.324 258.337 290.407 257.933 290.571 257.56C290.735 257.187 290.976 256.853 291.278 256.58C291.581 256.307 291.938 256.101 292.325 255.977C292.713 255.852 293.123 255.811 293.528 255.856C295.928 256.168 297.968 260.064 298.368 262.2C298.368 262.328 298.496 263.728 298.544 264.6C298.592 264.08 298.632 263.568 298.688 263C298.8 261.936 298.936 260.872 299.08 259.736C299.168 259.184 299.264 258.632 299.352 258.072C299.44 257.512 299.584 256.936 299.696 256.368C299.992 255.04 300.352 253.72 300.744 252.368C299.816 252.272 296.512 251.88 295.096 251.064C293.68 250.248 292.12 248.832 291.896 247.128C291.831 246.729 291.852 246.32 291.956 245.929C292.06 245.538 292.245 245.173 292.499 244.858C292.753 244.543 293.071 244.286 293.432 244.102C293.793 243.918 294.188 243.813 294.592 243.792C296.992 243.736 299.616 247.28 300.336 249.328C300.384 249.456 300.728 250.992 300.904 251.832C301.144 251.032 301.384 250.232 301.656 249.432C302.456 247.128 303.312 244.816 304.16 242.512C304.424 241.808 304.68 241.096 304.96 240.392C304.624 240.392 300.688 239.984 299.104 239.072C297.696 238.272 296.128 236.84 295.904 235.136C295.839 234.737 295.86 234.328 295.964 233.937C296.068 233.546 296.253 233.181 296.507 232.866C296.761 232.551 297.079 232.294 297.44 232.11C297.801 231.926 298.196 231.821 298.6 231.8C301 231.736 303.624 235.288 304.344 237.336C304.4 237.496 304.896 239.696 304.992 240.264C305.56 238.712 306.104 237.152 306.592 235.6C307.249 233.504 307.765 231.365 308.136 229.2C307.984 229.2 303.872 228.808 302.248 227.872C300.84 227.072 299.272 225.64 299.048 223.936C298.983 223.537 299.004 223.128 299.108 222.737C299.212 222.346 299.397 221.981 299.651 221.666C299.905 221.351 300.223 221.094 300.584 220.91C300.945 220.726 301.34 220.621 301.744 220.6C304.184 220.544 306.776 224.088 307.488 226.136C307.536 226.272 307.92 227.952 308.08 228.752H308.224C308.541 226.564 308.664 224.353 308.592 222.144C308.592 220.928 308.472 219.744 308.36 218.632C307.56 218.632 304.056 218.632 302.496 217.968C300.936 217.304 299.296 216.072 298.896 214.4C298.789 214.01 298.764 213.602 298.825 213.203C298.885 212.803 299.029 212.421 299.247 212.08C299.466 211.74 299.753 211.45 300.091 211.228C300.428 211.006 300.809 210.857 301.208 210.792C303.608 210.464 306.584 213.704 307.528 215.664C307.576 215.768 307.976 216.912 308.256 217.752C308.192 217.24 308.144 216.712 308.072 216.232C307.824 214.4 307.488 212.744 307.176 211.28C306.992 210.48 306.808 209.68 306.632 209.008C305.832 208.616 302.816 207.016 301.768 205.728C300.72 204.44 299.8 202.528 300.208 200.928C300.298 200.547 300.464 200.188 300.697 199.873C300.93 199.558 301.224 199.293 301.563 199.096C301.901 198.898 302.276 198.772 302.665 198.723C303.053 198.675 303.448 198.707 303.824 198.816Z" fill="white"/>
<path d="M347.856 236.36C345.952 236.28 342.144 234.328 342.144 234.328C342.144 234.328 344.192 232.208 344.336 232.096C346.04 230.736 350.12 229.12 352.152 230.496C352.482 230.73 352.759 231.031 352.965 231.379C353.171 231.727 353.302 232.115 353.35 232.516C353.397 232.918 353.36 233.325 353.241 233.712C353.121 234.098 352.922 234.455 352.656 234.76C351.56 236.056 349.48 236.424 347.856 236.36Z" fill="white"/>
</g>
<path d="M325.6 284C325.6 284 314.048 256.16 307.584 257.368C301.12 258.576 318.672 301.752 318.672 301.752C318.672 301.752 298.4 263.44 284.528 263.44C270.656 263.44 289.608 305.84 307.152 319.928C307.152 319.928 279.44 290.072 263.28 296.528C247.12 302.984 295.608 333.24 295.608 333.24C295.608 333.24 267.432 324.368 270.672 331.224C273.912 338.08 282.672 339.296 282.672 339.296L250.8 340.896H361.656L336.712 338.496C336.712 338.496 362.576 325.584 355.648 320.336C348.72 315.088 333.48 326.4 333.48 326.4C333.48 326.4 359.808 297.344 354.728 286.456C349.648 275.568 327.016 306.224 327.016 306.224C327.016 306.224 345.488 267.088 341.792 260.224C338.096 253.36 325.6 284 325.6 284Z" fill="#59C9A5"/>
<path opacity="0.4" d="M325.6 284C325.6 284 314.048 256.16 307.584 257.368C301.12 258.576 318.672 301.752 318.672 301.752C318.672 301.752 298.4 263.44 284.528 263.44C270.656 263.44 289.608 305.84 307.152 319.928C307.152 319.928 279.44 290.072 263.28 296.528C247.12 302.984 295.608 333.24 295.608 333.24C295.608 333.24 267.432 324.368 270.672 331.224C273.912 338.08 282.672 339.296 282.672 339.296L250.8 340.896H361.656L336.712 338.496C336.712 338.496 362.576 325.584 355.648 320.336C348.72 315.088 333.48 326.4 333.48 326.4C333.48 326.4 359.808 297.344 354.728 286.456C349.648 275.568 327.016 306.224 327.016 306.224C327.016 306.224 345.488 267.088 341.792 260.224C338.096 253.36 325.6 284 325.6 284Z" fill="white"/>
<path d="M329.328 285.488C319.2 315.504 319.2 336.752 319.2 336.752C319.2 336.752 331.2 337.216 343.672 327.952" stroke="#263238" stroke-linecap="round" stroke-linejoin="round"/>
<path d="M324.248 301.648C322.152 292.672 319.371 283.87 315.928 275.32" stroke="#263238" stroke-linecap="round" stroke-linejoin="round"/>
<path d="M294.224 284.096L320.088 322.4C320.088 322.4 337.64 307.624 343.64 299.312" stroke="#263238" stroke-linecap="round" stroke-linejoin="round"/>
<path d="M319.624 331.672C319.624 331.672 292.376 318.736 281.288 311.352" stroke="#263238" stroke-linecap="round" stroke-linejoin="round"/>
<path d="M177.04 83.736L170.952 74.024H117.336V83.736V87.232V257.624H338.032V83.736H177.04Z" fill="#263238"/>
<path d="M336.576 88.192H118.976V254.096H336.576V88.192Z" fill="white"/>
<mask id="mask0_183_455" style="mask-type:luminance" maskUnits="userSpaceOnUse" x="118" y="88" width="219" height="167">
<path d="M336.576 88.192H118.976V254.096H336.576V88.192Z" fill="white"/>
</mask>
<g mask="url(#mask0_183_455)">
<path opacity="0.17" d="M337.64 86.848H332.592V255.296H337.64V86.848Z" fill="black"/>
<path opacity="0.17" d="M337.64 183.4H332.592V253.992H337.64V183.4Z" fill="black"/>
<path d="M336.864 86.064H118.112V103.84H336.864V86.064Z" fill="#234F5B"/>
<path d="M275.52 91.728H184.648V101.872H275.52V91.728Z" fill="white"/>
<path d="M174.512 91.728H160.24V101.872H174.512V91.728Z" fill="white"/>
<path opacity="0.3" d="M275.52 91.728H263.672V101.872H275.52V91.728Z" fill="black"/>
<path d="M268.352 98.408C269.788 98.408 270.952 97.2439 270.952 95.808C270.952 94.3721 269.788 93.208 268.352 93.208C266.916 93.208 265.752 94.3721 265.752 95.808C265.752 97.2439 266.916 98.408 268.352 98.408Z" stroke="white" stroke-miterlimit="10"/>
<path d="M270.2 97.648L272.632 100.072" stroke="white" stroke-linecap="round" stroke-linejoin="round"/>
<path opacity="0.3" d="M199.624 119.336H180.864V138.096H199.624V119.336Z" fill="black"/>
<path d="M204.224 122.168H219.44" stroke="#263238" stroke-width="2" stroke-linecap="round" stroke-linejoin="round"/>
<path opacity="0.3" d="M204.224 127.824H236.08" stroke="#263238" stroke-width="2" stroke-linecap="round" stroke-linejoin="round"/>
<path opacity="0.3" d="M204.224 131.192H249.528" stroke="#263238" stroke-width="2" stroke-linecap="round" stroke-linejoin="round"/>
<path d="M266.864 125.704H253.064V131.72H266.864V125.704Z" fill="#234F5B"/>
<path opacity="0.3" d="M282.088 125.704H268.288V131.72H282.088V125.704Z" fill="black"/>
<path opacity="0.3" d="M199.624 145.88H180.864V164.64H199.624V145.88Z" fill="black"/>
<path d="M204.224 148.712H219.44" stroke="#263238" stroke-width="2" stroke-linecap="round" stroke-linejoin="round"/>
<path opacity="0.3" d="M204.224 154.376H236.08" stroke="#263238" stroke-width="2" stroke-linecap="round" stroke-linejoin="round"/>
<path opacity="0.3" d="M204.224 157.736H249.528" stroke="#263238" stroke-width="2" stroke-linecap="round" stroke-linejoin="round"/>
<path d="M266.864 152.248H253.064V158.264H266.864V152.248Z" fill="#234F5B"/>
<path opacity="0.3" d="M282.088 152.248H268.288V158.264H282.088V152.248Z" fill="black"/>
<path opacity="0.3" d="M199.624 172.424H180.864V191.184H199.624V172.424Z" fill="black"/>
<path d="M204.224 175.256H219.44" stroke="#263238" stroke-width="2" stroke-linecap="round" stroke-linejoin="round"/>
<path opacity="0.3" d="M204.224 180.92H236.08" stroke="#263238" stroke-width="2" stroke-linecap="round" stroke-linejoin="round"/>
<path opacity="0.3" d="M204.224 184.28H249.528" stroke="#263238" stroke-width="2" stroke-linecap="round" stroke-linejoin="round"/>
<path d="M266.864 178.792H253.064V184.808H266.864V178.792Z" fill="#234F5B"/>
<path opacity="0.3" d="M282.088 178.792H268.288V184.808H282.088V178.792Z" fill="black"/>
<path opacity="0.3" d="M199.624 198.968H180.864V217.728H199.624V198.968Z" fill="black"/>
<path d="M204.224 201.8H219.44" stroke="#263238" stroke-width="2" stroke-linecap="round" stroke-linejoin="round"/>
<path opacity="0.3" d="M204.224 207.464H236.08" stroke="#263238" stroke-width="2" stroke-linecap="round" stroke-linejoin="round"/>
<path opacity="0.3" d="M204.224 210.824H249.528" stroke="#263238" stroke-width="2" stroke-linecap="round" stroke-linejoin="round"/>
<path d="M266.864 205.336H253.064V211.352H266.864V205.336Z" fill="#234F5B"/>
<path opacity="0.3" d="M282.088 205.336H268.288V211.352H282.088V205.336Z" fill="black"/>
<path opacity="0.3" d="M199.624 225.512H180.864V244.272H199.624V225.512Z" fill="black"/>
<path d="M204.224 228.344H219.44" stroke="#263238" stroke-width="2" stroke-linecap="round" stroke-linejoin="round"/>
<path opacity="0.3" d="M204.224 234.008H236.08" stroke="#263238" stroke-width="2" stroke-linecap="round" stroke-linejoin="round"/>
<path opacity="0.3" d="M204.224 237.368H249.528" stroke="#263238" stroke-width="2" stroke-linecap="round" stroke-linejoin="round"/>
<path d="M266.864 231.88H253.064V237.896H266.864V231.88Z" fill="#234F5B"/>
<path opacity="0.3" d="M282.088 231.88H268.288V237.896H282.088V231.88Z" fill="black"/>
<path d="M184.328 111.024C185.291 111.024 186.072 110.243 186.072 109.28C186.072 108.317 185.291 107.536 184.328 107.536C183.365 107.536 182.584 108.317 182.584 109.28C182.584 110.243 183.365 111.024 184.328 111.024Z" stroke="#263238" stroke-miterlimit="10"/>
<path d="M185.568 110.512L187.2 112.144" stroke="#263238" stroke-linecap="round" stroke-linejoin="round"/>
<path d="M192.232 111.576H190.504L190.312 112.128C190.273 112.251 190.198 112.36 190.096 112.44C190.058 112.474 190.014 112.5 189.966 112.516C189.918 112.533 189.867 112.539 189.816 112.536C189.717 112.53 189.621 112.5 189.536 112.448C189.491 112.422 189.453 112.386 189.424 112.343C189.395 112.3 189.376 112.251 189.368 112.2C189.329 112.075 189.329 111.941 189.368 111.816L190.44 109.04C190.489 108.896 190.551 108.757 190.624 108.624C190.682 108.525 190.758 108.438 190.848 108.368C190.916 108.313 190.995 108.272 191.08 108.248C191.252 108.195 191.436 108.195 191.608 108.248C191.692 108.274 191.771 108.314 191.84 108.368C191.93 108.438 192.006 108.525 192.064 108.624C192.137 108.757 192.199 108.896 192.248 109.04L193.32 111.816C193.351 111.942 193.351 112.074 193.32 112.2C193.31 112.251 193.291 112.299 193.262 112.341C193.233 112.384 193.195 112.42 193.152 112.448C193.067 112.5 192.971 112.53 192.872 112.536C192.767 112.541 192.664 112.507 192.584 112.44C192.487 112.357 192.415 112.249 192.376 112.128L192.232 111.576ZM191.368 109.128L190.72 110.96H192L191.368 109.128Z" fill="#263238"/>
<path d="M194.064 112.392C193.984 112.248 193.948 112.084 193.96 111.92V108.904C193.948 108.74 193.984 108.576 194.064 108.432C194.103 108.379 194.156 108.338 194.216 108.311C194.276 108.284 194.342 108.274 194.408 108.28C194.477 108.274 194.547 108.285 194.611 108.311C194.675 108.338 194.731 108.379 194.776 108.432C194.861 108.574 194.9 108.739 194.888 108.904V111.92C194.9 112.085 194.861 112.25 194.776 112.392C194.731 112.445 194.675 112.486 194.611 112.513C194.547 112.539 194.477 112.55 194.408 112.544C194.342 112.55 194.276 112.54 194.216 112.513C194.156 112.486 194.103 112.445 194.064 112.392Z" fill="#263238"/>
<path d="M195.752 112.392C195.672 112.248 195.636 112.084 195.648 111.92V108.904C195.636 108.74 195.672 108.576 195.752 108.432C195.79 108.379 195.841 108.338 195.9 108.311C195.959 108.284 196.024 108.274 196.088 108.28C196.157 108.273 196.227 108.283 196.291 108.309C196.356 108.336 196.412 108.378 196.456 108.432C196.544 108.573 196.586 108.738 196.576 108.904V111.92C196.586 112.086 196.544 112.251 196.456 112.392C196.412 112.446 196.356 112.488 196.291 112.515C196.227 112.541 196.157 112.551 196.088 112.544C196.024 112.55 195.959 112.54 195.9 112.513C195.841 112.486 195.79 112.445 195.752 112.392Z" fill="#263238"/>
<path d="M199.2 112.384C199.092 112.26 199.038 112.1 199.048 111.936V108.84C199.044 108.759 199.059 108.678 199.092 108.605C199.126 108.531 199.176 108.466 199.24 108.416C199.376 108.315 199.543 108.264 199.712 108.272H200.896C201.064 108.263 201.232 108.263 201.4 108.272C201.552 108.288 201.703 108.32 201.848 108.368C201.981 108.406 202.106 108.469 202.216 108.552C202.317 108.638 202.399 108.744 202.456 108.864C202.517 109.008 202.547 109.164 202.544 109.32C202.544 109.88 202.232 110.216 201.6 110.32C201.731 110.332 201.859 110.359 201.984 110.4C202.081 110.435 202.167 110.496 202.232 110.576C202.302 110.654 202.354 110.747 202.384 110.848C202.421 110.982 202.447 111.118 202.464 111.256L202.52 111.648C202.563 111.869 202.538 112.098 202.448 112.304C202.404 112.375 202.341 112.431 202.265 112.467C202.19 112.502 202.106 112.515 202.024 112.504C201.949 112.509 201.873 112.497 201.804 112.468C201.734 112.439 201.673 112.393 201.624 112.336C201.519 112.171 201.461 111.98 201.456 111.784V111.4C201.449 111.224 201.384 111.055 201.272 110.92C201.204 110.863 201.124 110.82 201.039 110.794C200.954 110.768 200.865 110.759 200.776 110.768H200.168V111.896C200.175 111.978 200.164 112.061 200.138 112.139C200.112 112.218 200.071 112.29 200.016 112.352C199.965 112.404 199.904 112.444 199.836 112.47C199.769 112.496 199.696 112.508 199.624 112.504C199.549 112.518 199.471 112.515 199.398 112.494C199.324 112.473 199.257 112.435 199.2 112.384ZM200.592 110.112C200.698 110.121 200.806 110.121 200.912 110.112C201.008 110.096 201.102 110.069 201.192 110.032C201.279 109.994 201.354 109.934 201.408 109.856C201.459 109.763 201.484 109.658 201.48 109.552C201.489 109.483 201.489 109.413 201.48 109.344C201.462 109.288 201.438 109.234 201.408 109.184C201.376 109.142 201.335 109.106 201.288 109.08L201.144 109.016C201.088 109.009 201.032 109.009 200.976 109.016H200.792H200.136V110.192L200.592 110.112Z" fill="#263238"/>
<path d="M203.84 112.416C203.608 112.303 203.413 112.126 203.28 111.904C203.136 111.645 203.065 111.352 203.072 111.056C203.065 110.777 203.131 110.501 203.264 110.256C203.392 110.028 203.58 109.84 203.808 109.712C204.053 109.577 204.328 109.508 204.608 109.512C204.824 109.508 205.038 109.546 205.24 109.624C205.409 109.692 205.558 109.802 205.672 109.944C205.777 110.079 205.858 110.23 205.912 110.392C205.96 110.572 205.987 110.757 205.992 110.944C205.992 111.104 205.888 111.184 205.696 111.184H204C203.991 111.288 204.005 111.393 204.044 111.49C204.082 111.587 204.142 111.674 204.22 111.744C204.297 111.814 204.39 111.865 204.491 111.893C204.592 111.921 204.698 111.924 204.8 111.904C204.937 111.905 205.074 111.878 205.2 111.824C205.321 111.774 205.434 111.706 205.536 111.624C205.572 111.6 205.613 111.588 205.656 111.588C205.699 111.588 205.74 111.6 205.776 111.624C205.821 111.645 205.86 111.676 205.89 111.715C205.921 111.754 205.942 111.8 205.952 111.848C205.971 111.894 205.975 111.946 205.964 111.994C205.952 112.043 205.926 112.087 205.888 112.12C205.828 112.176 205.764 112.226 205.696 112.272C205.622 112.323 205.545 112.369 205.464 112.408C205.356 112.466 205.24 112.506 205.12 112.528C204.976 112.541 204.832 112.541 204.688 112.528C204.4 112.555 204.111 112.517 203.84 112.416ZM205.216 110.816C205.214 110.632 205.162 110.452 205.064 110.296C205.014 110.231 204.948 110.18 204.872 110.148C204.796 110.115 204.714 110.103 204.632 110.112C204.548 110.107 204.463 110.122 204.385 110.155C204.308 110.188 204.239 110.239 204.184 110.304C204.07 110.451 204.006 110.63 204 110.816H205.216Z" fill="#263238"/>
<path d="M206.584 112.224C206.533 112.19 206.496 112.139 206.48 112.08C206.464 112.025 206.464 111.967 206.48 111.912C206.498 111.856 206.528 111.804 206.568 111.76C206.609 111.719 206.662 111.694 206.72 111.688C206.79 111.683 206.86 111.7 206.92 111.736C206.959 111.751 206.997 111.77 207.032 111.792L207.184 111.872L207.376 111.936C207.461 111.944 207.547 111.944 207.632 111.936H207.824L208.024 111.896C208.081 111.884 208.134 111.856 208.176 111.816C208.216 111.772 208.239 111.715 208.24 111.656C208.238 111.625 208.228 111.595 208.211 111.568C208.194 111.542 208.171 111.52 208.144 111.504C208.069 111.447 207.981 111.408 207.888 111.392L207.48 111.28L207.12 111.168C207.023 111.136 206.93 111.096 206.84 111.048C206.756 111.009 206.682 110.952 206.624 110.88C206.571 110.816 206.531 110.743 206.504 110.664C206.47 110.564 206.454 110.458 206.456 110.352C206.458 110.219 206.494 110.088 206.56 109.972C206.625 109.856 206.719 109.759 206.832 109.688C207.131 109.52 207.476 109.453 207.816 109.496C207.932 109.497 208.047 109.51 208.16 109.536L208.4 109.608L208.624 109.704C208.688 109.731 208.742 109.779 208.776 109.84C208.794 109.895 208.794 109.954 208.776 110.008C208.769 110.065 208.75 110.12 208.72 110.168C208.706 110.193 208.686 110.214 208.662 110.231C208.639 110.247 208.612 110.259 208.584 110.264C208.516 110.283 208.444 110.283 208.376 110.264C208.185 110.192 207.987 110.143 207.784 110.12H207.56C207.485 110.121 207.411 110.141 207.344 110.176C207.314 110.186 207.287 110.205 207.269 110.231C207.25 110.257 207.24 110.288 207.24 110.32C207.241 110.351 207.248 110.381 207.262 110.409C207.276 110.437 207.296 110.461 207.32 110.48C207.399 110.529 207.485 110.564 207.576 110.584L207.984 110.68C208.122 110.718 208.259 110.763 208.392 110.816C208.502 110.854 208.605 110.911 208.696 110.984C208.784 111.047 208.853 111.133 208.896 111.232C208.946 111.342 208.971 111.463 208.968 111.584C208.978 111.782 208.918 111.977 208.8 112.136C208.681 112.291 208.52 112.408 208.336 112.472C208.119 112.541 207.891 112.568 207.664 112.552C207.28 112.551 206.904 112.437 206.584 112.224Z" fill="#263238"/>
<path d="M209.768 112.28C209.567 112.063 209.458 111.776 209.464 111.48V110.248C209.454 110.082 209.496 109.917 209.584 109.776C209.628 109.722 209.684 109.68 209.749 109.653C209.813 109.627 209.883 109.617 209.952 109.624C210.018 109.618 210.084 109.628 210.144 109.655C210.204 109.682 210.256 109.723 210.296 109.776C210.376 109.92 210.412 110.084 210.4 110.248V111.464C210.393 111.61 210.442 111.753 210.536 111.864C210.58 111.911 210.633 111.947 210.693 111.971C210.752 111.994 210.816 112.004 210.88 112C210.96 112.002 211.039 111.987 211.113 111.955C211.186 111.923 211.251 111.876 211.304 111.816C211.363 111.753 211.409 111.679 211.439 111.598C211.469 111.517 211.483 111.43 211.48 111.344V110.248C211.471 110.083 211.51 109.919 211.592 109.776C211.638 109.712 211.7 109.663 211.772 109.632C211.843 109.601 211.922 109.59 212 109.6C212.066 109.593 212.132 109.603 212.192 109.63C212.253 109.657 212.305 109.699 212.344 109.752C212.429 109.894 212.468 110.059 212.456 110.224V112.048C212.466 112.187 212.423 112.324 212.336 112.432C212.288 112.476 212.231 112.51 212.169 112.53C212.107 112.551 212.041 112.559 211.976 112.552C211.672 112.552 211.52 112.384 211.52 112.04C211.448 112.222 211.322 112.378 211.16 112.488C210.975 112.591 210.764 112.641 210.552 112.632C210.404 112.634 210.256 112.604 210.121 112.543C209.985 112.482 209.865 112.392 209.768 112.28Z" fill="#263238"/>
<path d="M213.272 112.392C213.192 112.248 213.156 112.084 213.168 111.92V108.904C213.156 108.74 213.192 108.576 213.272 108.432C213.31 108.379 213.361 108.338 213.42 108.311C213.479 108.284 213.544 108.274 213.608 108.28C213.678 108.274 213.749 108.285 213.814 108.311C213.88 108.337 213.938 108.379 213.984 108.432C214.069 108.574 214.108 108.739 214.096 108.904V111.92C214.108 112.085 214.069 112.25 213.984 112.392C213.938 112.445 213.88 112.487 213.814 112.513C213.749 112.539 213.678 112.55 213.608 112.544C213.544 112.55 213.479 112.54 213.42 112.513C213.361 112.486 213.31 112.445 213.272 112.392Z" fill="#263238"/>
<path d="M215.248 112.32C215.065 112.074 214.979 111.769 215.008 111.464V110.216H214.824C214.781 110.22 214.737 110.215 214.696 110.201C214.655 110.187 214.616 110.165 214.584 110.136C214.554 110.101 214.531 110.06 214.517 110.016C214.504 109.972 214.499 109.926 214.504 109.88C214.497 109.838 214.5 109.794 214.514 109.753C214.527 109.712 214.55 109.675 214.58 109.644C214.611 109.614 214.648 109.591 214.689 109.578C214.73 109.564 214.773 109.561 214.816 109.568H215.072L215.136 108.992C215.136 108.632 215.32 108.456 215.576 108.456C215.832 108.456 215.944 108.648 215.944 109.048V109.6H216.304C216.504 109.6 216.608 109.712 216.608 109.928C216.615 109.972 216.611 110.016 216.598 110.058C216.584 110.1 216.561 110.138 216.529 110.169C216.498 110.201 216.46 110.224 216.418 110.238C216.376 110.251 216.332 110.255 216.288 110.248H215.944V111.296C215.932 111.474 215.962 111.652 216.032 111.816C216.068 111.866 216.117 111.904 216.173 111.927C216.23 111.949 216.292 111.955 216.352 111.944H216.528C216.58 111.943 216.631 111.96 216.672 111.992C216.713 112.026 216.743 112.07 216.76 112.12C216.764 112.176 216.764 112.232 216.76 112.288C216.76 112.345 216.743 112.401 216.712 112.448C216.684 112.493 216.642 112.527 216.592 112.544C216.372 112.61 216.142 112.637 215.912 112.624C215.787 112.621 215.663 112.592 215.549 112.54C215.435 112.488 215.332 112.413 215.248 112.32Z" fill="#263238"/>
<path d="M217.248 112.224C217.2 112.187 217.164 112.137 217.144 112.08C217.128 112.025 217.128 111.967 217.144 111.912C217.162 111.856 217.192 111.804 217.232 111.76C217.273 111.719 217.327 111.694 217.384 111.688C217.454 111.682 217.524 111.698 217.584 111.736L217.696 111.792L217.848 111.872L218.04 111.936C218.125 111.944 218.211 111.944 218.296 111.936H218.496L218.688 111.896C218.745 111.884 218.798 111.856 218.84 111.816C218.863 111.797 218.882 111.774 218.895 111.747C218.908 111.72 218.915 111.69 218.915 111.66C218.915 111.63 218.908 111.6 218.895 111.573C218.882 111.546 218.863 111.523 218.84 111.504C218.761 111.448 218.671 111.41 218.576 111.392L218.176 111.28L217.808 111.168C217.712 111.135 217.618 111.095 217.528 111.048C217.444 111.009 217.37 110.952 217.312 110.88C217.259 110.816 217.219 110.743 217.192 110.664C217.174 110.561 217.174 110.455 217.192 110.352C217.189 110.219 217.221 110.087 217.286 109.97C217.351 109.853 217.445 109.756 217.56 109.688C217.861 109.519 218.209 109.451 218.552 109.496C218.665 109.497 218.778 109.51 218.888 109.536L219.136 109.608L219.352 109.704C219.416 109.731 219.47 109.779 219.504 109.84C219.536 109.89 219.55 109.949 219.544 110.008C219.54 110.064 219.524 110.119 219.496 110.168C219.462 110.217 219.411 110.252 219.352 110.264C219.287 110.283 219.217 110.283 219.152 110.264C218.959 110.192 218.757 110.143 218.552 110.12H218.328C218.253 110.121 218.179 110.141 218.112 110.176C218.083 110.187 218.059 110.207 218.042 110.233C218.024 110.259 218.015 110.289 218.016 110.32C218.015 110.351 218.021 110.382 218.035 110.41C218.049 110.438 218.07 110.462 218.096 110.48C218.174 110.531 218.261 110.566 218.352 110.584L218.752 110.68C218.893 110.717 219.032 110.762 219.168 110.816C219.275 110.856 219.375 110.913 219.464 110.984C219.552 111.049 219.623 111.134 219.672 111.232C219.716 111.344 219.738 111.464 219.736 111.584C219.751 111.782 219.691 111.979 219.568 112.136C219.451 112.293 219.289 112.41 219.104 112.472C218.887 112.542 218.659 112.569 218.432 112.552C218.013 112.571 217.598 112.456 217.248 112.224Z" fill="#263238"/>
<path opacity="0.3" d="M180.64 115.008H286.888" stroke="#263238" stroke-linecap="round" stroke-linejoin="round"/>
<path opacity="0.3" d="M176.032 105.408V244.76" stroke="#263238" stroke-linecap="round" stroke-linejoin="round"/>
<path opacity="0.3" d="M291.312 105.408V244.76" stroke="#263238" stroke-linecap="round" stroke-linejoin="round"/>
<path opacity="0.3" d="M173.792 114.744H127.464" stroke="#263238" stroke-linecap="round" stroke-linejoin="round"/>
<path opacity="0.3" d="M132.632 127.824H156.344" stroke="#263238" stroke-width="2" stroke-linecap="round" stroke-linejoin="round"/>
<path opacity="0.3" d="M132.632 131.192H166.352" stroke="#263238" stroke-width="2" stroke-linecap="round" stroke-linejoin="round"/>
<path opacity="0.3" d="M132.632 144.408H156.344" stroke="#263238" stroke-width="2" stroke-linecap="round" stroke-linejoin="round"/>
<path opacity="0.3" d="M132.632 147.776H166.352" stroke="#263238" stroke-width="2" stroke-linecap="round" stroke-linejoin="round"/>
<path opacity="0.3" d="M132.632 160.992H156.344" stroke="#263238" stroke-width="2" stroke-linecap="round" stroke-linejoin="round"/>
<path opacity="0.3" d="M132.632 164.36H166.352" stroke="#263238" stroke-width="2" stroke-linecap="round" stroke-linejoin="round"/>
<path opacity="0.3" d="M132.632 177.576H156.344" stroke="#263238" stroke-width="2" stroke-linecap="round" stroke-linejoin="round"/>
<path opacity="0.3" d="M132.632 180.944H166.352" stroke="#263238" stroke-width="2" stroke-linecap="round" stroke-linejoin="round"/>
<path opacity="0.3" d="M132.632 194.16H156.344" stroke="#263238" stroke-width="2" stroke-linecap="round" stroke-linejoin="round"/>
<path opacity="0.3" d="M132.632 197.528H166.352" stroke="#263238" stroke-width="2" stroke-linecap="round" stroke-linejoin="round"/>
<path opacity="0.3" d="M132.632 210.744H156.344" stroke="#263238" stroke-width="2" stroke-linecap="round" stroke-linejoin="round"/>
<path opacity="0.3" d="M132.632 214.112H166.352" stroke="#263238" stroke-width="2" stroke-linecap="round" stroke-linejoin="round"/>
<path opacity="0.3" d="M132.632 227.328H156.344" stroke="#263238" stroke-width="2" stroke-linecap="round" stroke-linejoin="round"/>
<path opacity="0.3" d="M132.632 230.696H166.352" stroke="#263238" stroke-width="2" stroke-linecap="round" stroke-linejoin="round"/>
</g>
<path d="M336.576 88.192H118.976V254.096H336.576V88.192Z" stroke="#263238" stroke-linecap="round" stroke-linejoin="round"/>
<path d="M74.808 338.144C74.808 338.144 74.432 339.832 70.136 342.072C65.84 344.312 60.984 347.488 63.408 348.792C65.832 350.096 74.432 347.112 76.864 344.872C79.296 342.632 82.088 341.32 82.088 339.456C82.088 337.592 79.848 336.464 77.984 336.464C77.3473 336.394 76.7042 336.517 76.138 336.816C75.5717 337.116 75.1084 337.578 74.808 338.144Z" fill="#263238" stroke="#263238" stroke-linecap="round" stroke-linejoin="round"/>
<path d="M78.544 329.184C77.424 332.544 74.432 334.408 74.432 335.344C74.4915 336.285 74.6171 337.221 74.808 338.144C76.1497 338.914 77.5971 339.483 79.104 339.832C81.16 340.2 82.088 339.456 82.088 339.456C82.088 339.456 84.336 337.776 84.896 337.216C85.456 336.656 86.952 335.72 86.76 333.848C86.568 331.976 85.824 331.232 86.576 329.552C87.328 327.872 103.2 302.096 103.2 302.096L90.128 297.048C90.128 297.048 79.664 325.816 78.544 329.184Z" fill="#263238" stroke="#263238" stroke-linecap="round" stroke-linejoin="round"/>
<path d="M141.12 341.136C141.12 341.136 152.888 346.552 153.08 347.864C153.272 349.176 144.856 349.352 141.12 348.984C137.384 348.616 134.96 345.432 134.96 345.432C134.96 345.432 136.264 340.576 141.12 341.136Z" fill="#263238" stroke="#263238" stroke-linecap="round" stroke-linejoin="round"/>
<path d="M123.936 297.424C123.936 297.424 128.792 327.688 130.664 333.48C132.536 339.272 130.096 338.704 131.032 340.392C132.217 342.165 133.53 343.849 134.96 345.432C134.96 345.432 138.32 342.44 139.816 342.232C141.312 342.024 142.432 341.856 142.432 341.856C142.432 341.856 141.68 338.12 141.12 337.376C140.56 336.632 140.184 334.016 139.624 331.96C139.064 329.904 138.136 295.904 138.136 295.904C138.136 295.904 127.856 297.8 123.936 297.424Z" fill="#263238" stroke="#263238" stroke-linecap="round" stroke-linejoin="round"/>
<path d="M104.32 170.584C101.758 172.408 99.323 174.405 97.032 176.56C92.552 180.672 85.08 186.648 84.704 187.96C84.328 189.272 89.752 213.736 91.808 221.56C93.864 229.384 94.424 265.456 91.808 277.784C90.1167 285.554 87.8053 293.176 84.896 300.576C90.651 304.521 97.5334 306.487 104.504 306.176C116.088 305.608 121.304 302.44 127.112 302.976C132.92 303.512 139.44 303.344 142.432 299.424C145.424 295.504 148.592 294.008 150.432 291.576C151.563 290.058 152.212 288.235 152.296 286.344C152.296 286.344 150.616 279.992 144.448 260.008C138.28 240.024 138.288 213.304 137.168 207.704C136.048 202.104 133.432 185.104 130.816 180.432C128.2 175.76 117.6 172.264 112.352 171.336C107.104 170.408 106.192 169.648 104.32 170.584Z" fill="#59C9A5"/>
<mask id="mask1_183_455" style="mask-type:luminance" maskUnits="userSpaceOnUse" x="84" y="170" width="69" height="137">
<path d="M104.32 170.584C101.758 172.408 99.323 174.405 97.032 176.56C92.552 180.672 85.08 186.648 84.704 187.96C84.328 189.272 89.752 213.736 91.808 221.56C93.864 229.384 94.424 265.456 91.808 277.784C90.1167 285.554 87.8053 293.176 84.896 300.576C90.651 304.521 97.5334 306.487 104.504 306.176C116.088 305.608 121.304 302.44 127.112 302.976C132.92 303.512 139.44 303.344 142.432 299.424C145.424 295.504 148.592 294.008 150.432 291.576C151.563 290.058 152.212 288.235 152.296 286.344C152.296 286.344 150.616 279.992 144.448 260.008C138.28 240.024 138.288 213.304 137.168 207.704C136.048 202.104 133.432 185.104 130.816 180.432C128.2 175.76 117.6 172.264 112.352 171.336C107.104 170.408 106.192 169.648 104.32 170.584Z" fill="white"/>
</mask>
<g mask="url(#mask1_183_455)">
<path opacity="0.15" d="M89.552 169.464H86.72V310.312H89.552V169.464Z" fill="black"/>
<path opacity="0.15" d="M99.296 169.464H96.464V310.312H99.296V169.464Z" fill="black"/>
<path opacity="0.15" d="M109.048 169.464H106.216V310.312H109.048V169.464Z" fill="black"/>
<path opacity="0.15" d="M118.8 169.464H115.968V310.312H118.8V169.464Z" fill="black"/>
<path opacity="0.15" d="M128.544 169.464H125.712V310.312H128.544V169.464Z" fill="black"/>
<path opacity="0.15" d="M138.296 169.464H135.464V310.312H138.296V169.464Z" fill="black"/>
<path opacity="0.15" d="M148.048 169.464H145.216V310.312H148.048V169.464Z" fill="black"/>
<path d="M80.984 172.648C105.44 172.824 129.352 172.824 153.84 172.744" stroke="white" stroke-miterlimit="10"/>
<path d="M80.984 174.216C105.44 174.32 129.352 174.32 153.84 174.272" stroke="white" stroke-miterlimit="10"/>
<path d="M80.984 180.8C105.44 181.024 129.352 181.024 153.84 180.92" stroke="white" stroke-miterlimit="10"/>
<path d="M80.984 182.4C105.44 182.552 129.352 182.552 153.84 182.488" stroke="white" stroke-miterlimit="10"/>
<path d="M80.984 189C105.44 189.264 129.352 189.264 153.84 189.152" stroke="white" stroke-miterlimit="10"/>
<path d="M80.984 190.568C105.44 190.76 129.352 190.76 153.84 190.68" stroke="white" stroke-miterlimit="10"/>
<path d="M80.984 197.176C105.44 197.488 129.352 197.488 153.84 197.352" stroke="white" stroke-miterlimit="10"/>
<path d="M80.984 198.752C105.44 198.976 129.352 198.976 153.84 198.88" stroke="white" stroke-miterlimit="10"/>
<path d="M80.984 205.352C105.44 205.704 129.352 205.704 153.84 205.552" stroke="white" stroke-miterlimit="10"/>
<path d="M80.984 206.928C105.44 207.2 129.352 207.2 153.84 207.08" stroke="white" stroke-miterlimit="10"/>
<path d="M80.984 213.528C104.696 213.176 129.352 213.176 153.328 213.328" stroke="white" stroke-miterlimit="10"/>
<path d="M80.984 215.104C105.44 215.416 129.352 215.416 153.84 215.28" stroke="white" stroke-miterlimit="10"/>
<path d="M80.984 221.704C105.44 221.392 129.352 221.392 153.84 221.536" stroke="white" stroke-miterlimit="10"/>
<path d="M80.984 223.28C105.44 223.64 129.352 223.64 153.84 223.48" stroke="white" stroke-miterlimit="10"/>
<path d="M80.984 229.88C105.44 229.616 129.352 229.616 153.84 229.736" stroke="white" stroke-miterlimit="10"/>
<path d="M80.984 231.456C105.44 231.112 129.352 231.112 153.84 231.264" stroke="white" stroke-miterlimit="10"/>
<path d="M80.984 238.064C105.44 237.832 129.352 237.832 153.84 237.936" stroke="white" stroke-miterlimit="10"/>
<path d="M80.984 239.632C105.44 239.328 129.352 239.328 153.84 239.464" stroke="white" stroke-miterlimit="10"/>
<path d="M80.984 246.24C105.44 246.056 129.352 246.056 153.84 246.136" stroke="white" stroke-miterlimit="10"/>
<path d="M80.984 247.808C105.44 247.552 129.352 247.552 153.84 247.664" stroke="white" stroke-miterlimit="10"/>
<path d="M80.984 254.4C105.44 254.256 129.352 254.256 153.84 254.32" stroke="white" stroke-miterlimit="10"/>
<path d="M80.984 256C105.44 255.784 129.352 255.784 153.84 255.88" stroke="white" stroke-miterlimit="10"/>
<path d="M80.984 262.592C105.44 262.496 129.352 262.496 153.84 262.536" stroke="white" stroke-miterlimit="10"/>
<path d="M80.984 264.16C105.44 263.984 129.352 263.984 153.84 264.064" stroke="white" stroke-miterlimit="10"/>
<path d="M80.984 270.768C105.44 270.712 129.352 270.712 153.84 270.768" stroke="white" stroke-miterlimit="10"/>
<path d="M80.984 272.344C105.44 272.208 129.352 272.208 153.84 272.264" stroke="white" stroke-miterlimit="10"/>
<path d="M80.984 278.944C105.44 278.944 129.352 278.944 153.84 278.944" stroke="white" stroke-miterlimit="10"/>
<path d="M80.984 280.52C105.44 280.424 129.352 280.424 153.84 280.464" stroke="white" stroke-miterlimit="10"/>
<path d="M80.984 287.12C105.44 287.12 129.352 287.12 153.84 287.12" stroke="white" stroke-miterlimit="10"/>
<path d="M80.984 288.696C105.44 288.648 129.352 288.648 153.84 288.696" stroke="white" stroke-miterlimit="10"/>
<path d="M80.984 295.296C105.44 295.368 129.352 295.368 153.84 295.336" stroke="white" stroke-miterlimit="10"/>
<path d="M80.984 296.872H153.84" stroke="white" stroke-miterlimit="10"/>
<path d="M80.984 303.472C105.44 303.592 129.352 303.592 153.84 303.536" stroke="white" stroke-miterlimit="10"/>
<path d="M80.984 305.048C105.44 305.048 129.352 305.048 153.84 305.048" stroke="white" stroke-miterlimit="10"/>
<path opacity="0.3" d="M109.424 218.4L109.928 221.384C109.928 221.384 99.712 221.64 97.472 221.64H93.984L94.984 236.584C94.984 236.584 96.224 247.288 97.472 261.984C98.72 276.68 94.272 297.6 94.272 300.096C94.272 302.592 91.784 305.328 97.76 306.568C103.736 307.808 111.712 307.568 112.96 304.328C114.208 301.088 119.192 274.688 118.192 280.416C117.192 286.144 112.216 306.072 115.704 307.064C119.192 308.056 128.408 304.328 134.384 304.576C140.36 304.824 145.584 302.832 146.088 300.344C146.592 297.856 143.096 274.936 143.096 274.936L150.568 295.608C150.568 295.608 151.568 296.856 146.568 302.808C141.568 308.76 119.176 310.808 107.216 310.808C95.256 310.808 80.568 302.096 80.568 302.096C80.568 302.096 93.52 280.672 91.024 262.744C88.528 244.816 88.784 213.144 88.784 213.144C88.784 213.144 95.512 215.136 100.24 215.136C104.968 215.136 109.424 218.4 109.424 218.4Z" fill="black"/>
<path opacity="0.3" d="M120.28 188.912L125.88 223.024C125.88 223.024 131.688 222.4 133.88 220.512C136.072 218.624 137.016 212.976 137.016 212.976L130.4 186.448L120.28 188.912Z" fill="black"/>
</g>
<path d="M104.32 170.584C101.758 172.408 99.323 174.405 97.032 176.56C92.552 180.672 85.08 186.648 84.704 187.96C84.328 189.272 89.752 213.736 91.808 221.56C93.864 229.384 94.424 265.456 91.808 277.784C90.1167 285.554 87.8053 293.176 84.896 300.576C90.651 304.521 97.5334 306.487 104.504 306.176C116.088 305.608 121.304 302.44 127.112 302.976C132.92 303.512 139.44 303.344 142.432 299.424C145.424 295.504 148.592 294.008 150.432 291.576C151.563 290.058 152.212 288.235 152.296 286.344C152.296 286.344 150.616 279.992 144.448 260.008C138.28 240.024 138.288 213.304 137.168 207.704C136.048 202.104 133.432 185.104 130.816 180.432C128.2 175.76 117.6 172.264 112.352 171.336C107.104 170.408 106.192 169.648 104.32 170.584Z" stroke="#263238" stroke-linecap="round" stroke-linejoin="round"/>
<path d="M105.24 191.44L115.824 206.344L122.032 187.488C122.032 187.488 121.6 179.36 118.448 176.512C115.296 173.664 111.776 169.456 106.512 173.168C101.248 176.88 102.216 181.76 102.456 184.368C102.696 186.976 105.24 191.44 105.24 191.44Z" fill="white" stroke="#263238" stroke-miterlimit="10"/>
<path d="M109.136 185.576L112.24 189.16L111.528 200.144L115.824 206.344L118.688 198.472L114.864 189.16L115.344 183.432L111.528 180.088L109.136 185.576Z" fill="#263238" stroke="#263238" stroke-miterlimit="10"/>
<path d="M111.944 184.224L105.24 191.424C105.24 191.424 101.76 180.6 101.24 176.864C100.72 173.128 101.88 172.352 103.816 171.192C105.752 170.032 108.792 170.528 111.16 171.064C113.528 171.6 114.776 172.608 115.288 173.64C115.8 174.672 121.344 188.208 121.344 188.208L111.944 184.224Z" fill="white" stroke="#263238" stroke-miterlimit="10"/>
<path d="M115.872 204C120.28 226.536 125.624 265.104 120.632 303.088" stroke="#263238" stroke-miterlimit="10"/>
<path d="M119.728 213.56C120.342 213.56 120.84 213.062 120.84 212.448C120.84 211.834 120.342 211.336 119.728 211.336C119.114 211.336 118.616 211.834 118.616 212.448C118.616 213.062 119.114 213.56 119.728 213.56Z" fill="#263238"/>
<path d="M122.92 238.752C123.534 238.752 124.032 238.254 124.032 237.64C124.032 237.026 123.534 236.528 122.92 236.528C122.306 236.528 121.808 237.026 121.808 237.64C121.808 238.254 122.306 238.752 122.92 238.752Z" fill="#263238"/>
<path d="M100.488 165.48C100.488 165.48 102.48 169.664 102.672 172.232C102.864 174.8 109.144 184.12 111.328 184.12C113.512 184.12 113.424 177.08 113.136 173.944C112.848 170.808 113.704 169.088 113.992 168.712C114.28 168.336 109.992 167.192 107.336 165.192C104.68 163.192 102.48 162.904 101.432 163.288C100.384 163.672 100.488 165.48 100.488 165.48Z" fill="white"/>
<mask id="mask2_183_455" style="mask-type:luminance" maskUnits="userSpaceOnUse" x="100" y="163" width="15" height="22">
<path d="M100.488 165.48C100.488 165.48 102.48 169.664 102.672 172.232C102.864 174.8 109.144 184.12 111.328 184.12C113.512 184.12 113.424 177.08 113.136 173.944C112.848 170.808 113.704 169.088 113.992 168.712C114.28 168.336 109.992 167.192 107.336 165.192C104.68 163.192 102.48 162.904 101.432 163.288C100.384 163.672 100.488 165.48 100.488 165.48Z" fill="white"/>
</mask>
<g mask="url(#mask2_183_455)">
<path d="M107.336 165.192C104.672 163.192 102.48 162.904 101.432 163.288C100.384 163.672 100.488 165.48 100.488 165.48C100.488 165.48 102.48 169.664 102.672 172.232C102.669 172.261 102.669 172.291 102.672 172.32C104.46 172.958 106.329 173.343 108.224 173.464C109.852 173.605 111.491 173.483 113.08 173.104C113 170.504 113.72 169.056 113.976 168.712C114.232 168.368 110 167.2 107.336 165.192Z" fill="#59C9A5"/>
<path opacity="0.5" d="M107.336 165.192C104.672 163.192 102.48 162.904 101.432 163.288C100.384 163.672 100.488 165.48 100.488 165.48C100.488 165.48 102.48 169.664 102.672 172.232C102.669 172.261 102.669 172.291 102.672 172.32C104.46 172.958 106.329 173.343 108.224 173.464C109.852 173.605 111.491 173.483 113.08 173.104C113 170.504 113.72 169.056 113.976 168.712C114.232 168.368 110 167.2 107.336 165.192Z" fill="white"/>
</g>
<path d="M100.488 165.48C100.488 165.48 102.48 169.664 102.672 172.232C102.864 174.8 109.144 184.12 111.328 184.12C113.512 184.12 113.424 177.08 113.136 173.944C112.848 170.808 113.704 169.088 113.992 168.712C114.28 168.336 109.992 167.192 107.336 165.192C104.68 163.192 102.48 162.904 101.432 163.288C100.384 163.672 100.488 165.48 100.488 165.48Z" stroke="#263238" stroke-linecap="round" stroke-linejoin="round"/>
<path d="M96.112 162.904C96.112 162.904 99.248 166.144 100.96 166.52C102.672 166.896 103.912 165.568 103.24 164.24C102.568 162.912 102.96 160.912 104.952 161.192C106.944 161.472 108.568 159.768 107.904 157.488C107.24 155.208 106.192 153.016 103.72 153.488C101.248 153.96 93.728 158.624 96.112 162.904Z" fill="#263238" stroke="#263238" stroke-linecap="round" stroke-linejoin="round"/>
<path d="M116.848 150.256C116.848 150.256 118.368 153.584 119.792 154.92C121.216 156.256 122.456 155.96 121.984 157.008C121.512 158.056 119.416 159.408 119.416 159.408C119.416 159.408 119.608 164.16 119.416 166.44C119.224 168.72 119.416 169.392 117.32 169.776C114.443 170.142 111.52 169.807 108.8 168.8C106.957 168.207 105.399 166.953 104.424 165.28C103.527 165.311 102.63 165.214 101.76 164.992C99.952 164.616 98.432 160.808 99.48 159.392C99.9343 158.814 100.599 158.438 101.329 158.349C102.059 158.259 102.795 158.461 103.376 158.912C104.048 159.712 104.808 160.432 105.376 160.432C105.944 160.432 107.088 159.96 106.424 158.72C105.76 157.48 104.992 156.44 106.04 155.584C107.088 154.728 115.136 150.16 116.848 150.256Z" fill="white"/>
<mask id="mask3_183_455" style="mask-type:luminance" maskUnits="userSpaceOnUse" x="99" y="150" width="24" height="20">
<path d="M116.848 150.256C116.848 150.256 118.368 153.584 119.792 154.92C121.216 156.256 122.456 155.96 121.984 157.008C121.512 158.056 119.416 159.408 119.416 159.408C119.416 159.408 119.608 164.16 119.416 166.44C119.224 168.72 119.416 169.392 117.32 169.776C114.443 170.142 111.52 169.807 108.8 168.8C106.957 168.207 105.399 166.953 104.424 165.28C103.527 165.311 102.63 165.214 101.76 164.992C99.952 164.616 98.432 160.808 99.48 159.392C99.9343 158.814 100.599 158.438 101.329 158.349C102.059 158.259 102.795 158.461 103.376 158.912C104.048 159.712 104.808 160.432 105.376 160.432C105.944 160.432 107.088 159.96 106.424 158.72C105.76 157.48 104.992 156.44 106.04 155.584C107.088 154.728 115.136 150.16 116.848 150.256Z" fill="white"/>
</mask>
<g mask="url(#mask3_183_455)">
<path d="M116.848 150.256C115.136 150.16 107.048 154.728 106 155.584C104.952 156.44 105.72 157.488 106.384 158.72C107.048 159.952 105.904 160.432 105.336 160.432C104.768 160.432 104.008 159.672 103.336 158.912C102.755 158.461 102.019 158.259 101.289 158.349C100.559 158.438 99.8943 158.814 99.44 159.392C98.392 160.816 99.912 164.624 101.72 164.992C101.928 165.04 102.128 165.072 102.312 165.104C107.317 160.639 112.877 156.84 118.856 153.8C118.095 152.673 117.424 151.488 116.848 150.256Z" fill="#59C9A5"/>
<path opacity="0.5" d="M116.848 150.256C115.136 150.16 107.048 154.728 106 155.584C104.952 156.44 105.72 157.488 106.384 158.72C107.048 159.952 105.904 160.432 105.336 160.432C104.768 160.432 104.008 159.672 103.336 158.912C102.755 158.461 102.019 158.259 101.289 158.349C100.559 158.438 99.8943 158.814 99.44 159.392C98.392 160.816 99.912 164.624 101.72 164.992C101.928 165.04 102.128 165.072 102.312 165.104C107.317 160.639 112.877 156.84 118.856 153.8C118.095 152.673 117.424 151.488 116.848 150.256Z" fill="white"/>
</g>
<path d="M116.848 150.256C116.848 150.256 118.368 153.584 119.792 154.92C121.216 156.256 122.456 155.96 121.984 157.008C121.512 158.056 119.416 159.408 119.416 159.408C119.416 159.408 119.608 164.16 119.416 166.44C119.224 168.72 119.416 169.392 117.32 169.776C114.443 170.142 111.52 169.807 108.8 168.8C106.957 168.207 105.399 166.953 104.424 165.28C103.527 165.311 102.63 165.214 101.76 164.992C99.952 164.616 98.432 160.808 99.48 159.392C99.9343 158.814 100.599 158.438 101.329 158.349C102.059 158.259 102.795 158.461 103.376 158.912C104.048 159.712 104.808 160.432 105.376 160.432C105.944 160.432 107.088 159.96 106.424 158.72C105.76 157.48 104.992 156.44 106.04 155.584C107.088 154.728 115.136 150.16 116.848 150.256Z" stroke="#263238" stroke-linecap="round" stroke-linejoin="round"/>
<path d="M119.416 159.392C118.559 159.563 117.745 159.903 117.021 160.392C116.298 160.881 115.678 161.509 115.2 162.24C113.696 164.64 115.2 165.048 116.136 164.48C117.072 163.912 118.752 162.616 119.688 162.08C120.624 161.544 120.856 159.2 119.416 159.392Z" fill="#263238" stroke="#263238" stroke-linecap="round" stroke-linejoin="round"/>
<path d="M115.45 156.621C115.743 156.51 115.77 155.867 115.511 155.186C115.252 154.504 114.804 154.043 114.51 154.154C114.217 154.266 114.19 154.909 114.449 155.59C114.709 156.271 115.157 156.733 115.45 156.621Z" fill="#263238"/>
<path d="M112.152 153.48C112.658 153.133 113.243 152.917 113.853 152.852C114.463 152.786 115.08 152.873 115.648 153.104" stroke="#263238" stroke-linecap="round" stroke-linejoin="round"/>
<path d="M92.8 170.04C94.749 166.104 97.3207 162.508 100.416 159.392C105.648 154.064 125.216 148.544 126.288 147.024C127.36 145.504 117.248 147.976 117.248 147.976C117.248 147.976 111.352 140.84 102.792 140.36C94.232 139.88 91.76 149.208 91.664 153.872C91.568 158.536 93.944 163.952 93.944 163.952C93.944 163.952 91.256 170.8 92.8 170.04Z" fill="#59C9A5"/>
<mask id="mask4_183_455" style="mask-type:luminance" maskUnits="userSpaceOnUse" x="91" y="140" width="36" height="31">
<path d="M92.8 170.04C94.749 166.104 97.3207 162.508 100.416 159.392C105.648 154.064 125.216 148.544 126.288 147.024C127.36 145.504 117.248 147.976 117.248 147.976C117.248 147.976 111.352 140.84 102.792 140.36C94.232 139.88 91.76 149.208 91.664 153.872C91.568 158.536 93.944 163.952 93.944 163.952C93.944 163.952 91.256 170.8 92.8 170.04Z" fill="white"/>
</mask>
<g mask="url(#mask4_183_455)">
<path opacity="0.15" d="M99.296 136.96H96.464V176.56H99.296V136.96Z" fill="black"/>
<path opacity="0.15" d="M109.048 136.96H106.216V176.56H109.048V136.96Z" fill="black"/>
<path opacity="0.15" d="M118.8 136.96H115.968V176.56H118.8V136.96Z" fill="black"/>
<path opacity="0.15" d="M128.544 136.96H125.712V176.56H128.544V136.96Z" fill="black"/>
<path d="M87.368 142.888C101.992 142.888 116.616 142.845 131.24 142.76" stroke="white" stroke-miterlimit="10"/>
<path d="M87.368 144.408C101.992 144.408 116.616 144.381 131.24 144.328" stroke="white" stroke-miterlimit="10"/>
<path d="M87.368 151.096C101.992 151.096 116.616 151.043 131.24 150.936" stroke="white" stroke-miterlimit="10"/>
<path d="M87.368 152.616C101.992 152.616 116.616 152.579 131.24 152.504" stroke="white" stroke-miterlimit="10"/>
<path d="M87.368 159.304C101.992 159.304 116.616 159.24 131.24 159.112" stroke="white" stroke-miterlimit="10"/>
<path d="M87.368 160.8C101.992 160.8 116.616 160.755 131.24 160.664" stroke="white" stroke-miterlimit="10"/>
<path d="M87.368 167.512C101.992 167.512 116.616 167.437 131.24 167.288" stroke="white" stroke-miterlimit="10"/>
<path d="M87.368 169.024C101.992 169.024 116.616 168.968 131.24 168.856" stroke="white" stroke-miterlimit="10"/>
</g>
<path d="M92.8 170.04C94.749 166.104 97.3207 162.508 100.416 159.392C105.648 154.064 125.216 148.544 126.288 147.024C127.36 145.504 117.248 147.976 117.248 147.976C117.248 147.976 111.352 140.84 102.792 140.36C94.232 139.88 91.76 149.208 91.664 153.872C91.568 158.536 93.944 163.952 93.944 163.952C93.944 163.952 91.256 170.8 92.8 170.04Z" stroke="#263238" stroke-linecap="round" stroke-linejoin="round"/>
<path d="M93.92 163.952C93.92 163.952 91.256 170.8 92.776 170.04C94.725 166.104 97.2967 162.508 100.392 159.392C105.624 154.064 125.192 148.544 126.264 147.024C127.336 145.504 117.224 147.976 117.224 147.976C117.224 147.976 110.472 151.496 104.864 155.176C101.002 157.824 97.344 160.758 93.92 163.952Z" fill="#59C9A5" stroke="#263238" stroke-linecap="round" stroke-linejoin="round"/>
<path d="M96.392 142.456C96.392 142.456 96.488 151.68 103.336 156.344" stroke="#263238" stroke-linecap="round" stroke-linejoin="round"/>
<path d="M94.144 231.2L97.056 232C97.056 232 102.088 228.488 102.656 228.384C103.224 228.28 107.984 231 109.496 232.208C111.008 233.416 112.912 234.72 112.408 235.12C111.904 235.52 110.808 235.016 110.096 234.616C109.384 234.216 105.072 232.104 105.072 232.104C105.072 232.104 108.272 234.216 109.392 235.12C110.512 236.024 112.104 236.528 111.704 237.032C111.609 237.189 111.483 237.324 111.333 237.43C111.184 237.536 111.014 237.61 110.835 237.647C110.656 237.685 110.47 237.685 110.291 237.648C110.112 237.611 109.942 237.537 109.792 237.432C108.792 236.928 103.664 234.016 103.664 234.016C103.664 234.016 107.984 236.928 108.792 237.632C109.6 238.336 109.592 239.344 108.688 239.344C107.784 239.344 105.272 238.032 104.368 237.536C103.464 237.04 100.848 235.72 100.848 235.72C101.972 236.955 103.012 238.265 103.96 239.64C104.568 240.752 105.472 242.16 104.464 242.16C103.456 242.16 102.064 239.848 101.352 239.04C100.64 238.232 98.032 237.328 98.032 237.328C96.8119 237.904 95.5322 238.344 94.216 238.64C92.504 238.936 89.088 235.32 89.088 235.32L94.144 231.2Z" fill="white" stroke="#263238" stroke-linecap="round" stroke-linejoin="round"/>
<path d="M97.056 232.032L94.568 235.024" stroke="#263238" stroke-linecap="round" stroke-linejoin="round"/>
<path d="M103.696 234.048L102.088 233.088" stroke="#263238" stroke-linecap="round" stroke-linejoin="round"/>
<path d="M105.104 232.136L103.296 231.144" stroke="#263238" stroke-linecap="round" stroke-linejoin="round"/>
<path d="M71.256 197.856C71.256 197.856 59.304 207.76 59.112 208.504C58.92 209.248 89.376 237.464 89.376 237.464L94.976 231.296L78.352 209.064L91.056 201.064C91.056 201.064 92.176 194.904 90.312 191.352C89.7352 190.299 88.935 189.386 87.9675 188.676C87.0001 187.965 85.8889 187.475 84.712 187.24L71.256 197.856Z" fill="#59C9A5"/>
<mask id="mask5_183_455" style="mask-type:luminance" maskUnits="userSpaceOnUse" x="59" y="187" width="36" height="51">
<path d="M71.256 197.856C71.256 197.856 59.304 207.76 59.112 208.504C58.92 209.248 89.376 237.464 89.376 237.464L94.976 231.296L78.352 209.064L91.056 201.064C91.056 201.064 92.176 194.904 90.312 191.352C89.7352 190.299 88.935 189.386 87.9675 188.676C87.0001 187.965 85.8889 187.475 84.712 187.24L71.256 197.856Z" fill="white"/>
</mask>
<g mask="url(#mask5_183_455)">
<path opacity="0.15" d="M60.304 183.288H57.472V243.44H60.304V183.288Z" fill="black"/>
<path opacity="0.15" d="M70.048 183.288H67.216V243.44H70.048V183.288Z" fill="black"/>
<path opacity="0.15" d="M79.8 183.288H76.968V243.44H79.8V183.288Z" fill="black"/>
<path opacity="0.15" d="M89.552 183.288H86.72V243.44H89.552V183.288Z" fill="black"/>
<path d="M51.256 189.168C73.312 189.264 95.728 189.264 117.776 189" stroke="white" stroke-miterlimit="10"/>
<path d="M51.256 190.688C73.312 190.76 95.728 190.76 117.776 190.568" stroke="white" stroke-miterlimit="10"/>
<path d="M51.256 197.368C73.312 197.488 95.728 197.488 117.776 197.176" stroke="white" stroke-miterlimit="10"/>
<path d="M51.256 198.896C73.312 198.976 95.728 198.976 117.776 198.752" stroke="white" stroke-miterlimit="10"/>
<path d="M51.256 205.6C73.312 205.728 95.728 205.728 117.776 205.376" stroke="white" stroke-miterlimit="10"/>
<path d="M51.256 207.096C73.312 207.2 95.728 207.2 117.776 206.928" stroke="white" stroke-miterlimit="10"/>
<path opacity="0.3" d="M65.096 200.472C65.096 200.472 71.072 204.208 73.56 205.208C76.048 206.208 81.032 208.448 81.032 208.448L86.76 205.456L73.312 194.496L65.096 200.472Z" fill="black"/>
<path d="M51.256 213.312C73.312 213.176 95.728 213.176 117.776 213.528" stroke="white" stroke-miterlimit="10"/>
<path d="M51.256 215.304C73.312 215.416 95.728 215.416 117.776 215.104" stroke="white" stroke-miterlimit="10"/>
<path d="M51.256 221.512C73.312 221.392 95.728 221.392 117.776 221.704" stroke="white" stroke-miterlimit="10"/>
<path d="M51.256 223.504C73.312 223.64 95.728 223.64 117.776 223.28" stroke="white" stroke-miterlimit="10"/>
<path d="M51.256 229.712C73.312 229.616 95.728 229.616 117.776 229.88" stroke="white" stroke-miterlimit="10"/>
<path d="M51.256 231.24C73.312 231.112 95.728 231.112 117.776 231.456" stroke="white" stroke-miterlimit="10"/>
<path d="M51.256 237.92C73.312 237.832 95.728 237.832 117.776 238.064" stroke="white" stroke-miterlimit="10"/>
</g>
<path d="M71.256 197.856C71.256 197.856 59.304 207.76 59.112 208.504C58.92 209.248 89.376 237.464 89.376 237.464L94.976 231.296L78.352 209.064L91.056 201.064C91.056 201.064 92.176 194.904 90.312 191.352C89.7352 190.299 88.935 189.386 87.9675 188.676C87.0001 187.965 85.8889 187.475 84.712 187.24L71.256 197.856Z" stroke="#263238" stroke-linecap="round" stroke-linejoin="round"/>
<path d="M154.76 197.456C154.76 197.456 143.104 190.816 138.272 186.096C133.44 181.376 131.44 179.16 130.936 180.968C130.432 182.776 135.16 206.568 136.064 207C136.968 207.432 156.064 214.24 159.888 214.44C163.712 214.64 166.288 214.944 166.728 213.24C167.168 211.536 164.328 206.304 160.792 202.176C157.256 198.048 154.76 197.456 154.76 197.456Z" fill="#59C9A5"/>
<mask id="mask6_183_455" style="mask-type:luminance" maskUnits="userSpaceOnUse" x="130" y="180" width="37" height="35">
<path d="M154.76 197.456C154.76 197.456 143.104 190.816 138.272 186.096C133.44 181.376 131.44 179.16 130.936 180.968C130.432 182.776 135.16 206.568 136.064 207C136.968 207.432 156.064 214.24 159.888 214.44C163.712 214.64 166.288 214.944 166.728 213.24C167.168 211.536 164.328 206.304 160.792 202.176C157.256 198.048 154.76 197.456 154.76 197.456Z" fill="white"/>
</mask>
<g mask="url(#mask6_183_455)">
<path opacity="0.15" d="M138.296 188.144H135.464V219.904H138.296V188.144Z" fill="black"/>
<path opacity="0.15" d="M148.048 188.144H145.216V219.904H148.048V188.144Z" fill="black"/>
<path opacity="0.15" d="M157.792 188.144H154.96V219.904H157.792V188.144Z" fill="black"/>
<path opacity="0.15" d="M167.544 188.144H164.712V219.904H167.544V188.144Z" fill="black"/>
<path d="M127.08 190.568C140.947 190.717 154.792 190.747 168.616 190.656" stroke="white" stroke-miterlimit="10"/>
<path d="M127.08 197.176C140.947 197.427 154.792 197.472 168.616 197.312" stroke="white" stroke-miterlimit="10"/>
<path d="M127.08 198.752C140.947 198.933 154.792 198.965 168.616 198.848" stroke="white" stroke-miterlimit="10"/>
<path d="M127.08 205.352C140.947 205.635 154.792 205.688 168.616 205.512" stroke="white" stroke-miterlimit="10"/>
<path d="M127.08 206.928C140.947 207.141 154.792 207.181 168.616 207.048" stroke="white" stroke-miterlimit="10"/>
<path opacity="0.3" d="M142.8 211.68C142.8 211.68 150.52 209.192 153.016 205.208C155.512 201.224 154.512 198.728 152.264 195.992C150.962 194.371 149.096 193.303 147.04 193C147.04 193 145.792 202.216 142.8 203.96C140.643 205.319 138.64 206.907 136.824 208.696L142.8 211.68Z" fill="black"/>
<path d="M127.08 213.528C140.947 213.245 154.792 213.195 168.616 213.376" stroke="white" stroke-miterlimit="10"/>
</g>
<path d="M154.76 197.456C154.76 197.456 143.104 190.816 138.272 186.096C133.44 181.376 131.44 179.16 130.936 180.968C130.432 182.776 135.16 206.568 136.064 207C136.968 207.432 156.064 214.24 159.888 214.44C163.712 214.64 166.288 214.944 166.728 213.24C167.168 211.536 164.328 206.304 160.792 202.176C157.256 198.048 154.76 197.456 154.76 197.456Z" stroke="#263238" stroke-linecap="round" stroke-linejoin="round"/>
<path d="M101.704 173.016C101.704 173.016 106.936 189.08 109.176 200.104C111.416 211.128 112.376 221.392 112.376 221.392C112.376 221.392 109.176 219.344 100.608 218.592C92.04 217.84 88.096 216.536 84.36 209.44C80.624 202.344 78.192 202.904 74.456 201.784C70.72 200.664 69.6 198.584 69.6 198.584C69.6 198.584 100.4 172.8 101.704 173.016ZM113.544 171.616C116.315 177.163 118.569 182.952 120.28 188.912C123.192 198.96 127.32 220.912 127.32 220.912C127.32 220.912 134.456 220.112 136.568 215.584C138.68 211.056 138.776 209.344 142.168 208.144C145.56 206.944 150.216 204.424 150.616 201.208C150.911 199.035 151.346 196.884 151.92 194.768C151.92 194.768 133.128 179.192 130.208 177.168C127.288 175.144 114.352 170.816 113.544 171.616Z" fill="#59C9A5"/>
<mask id="mask7_183_455" style="mask-type:luminance" maskUnits="userSpaceOnUse" x="69" y="171" width="83" height="51">
<path d="M101.704 173.016C101.704 173.016 106.936 189.08 109.176 200.104C111.416 211.128 112.376 221.392 112.376 221.392C112.376 221.392 109.176 219.344 100.608 218.592C92.04 217.84 88.096 216.536 84.36 209.44C80.624 202.344 78.192 202.904 74.456 201.784C70.72 200.664 69.6 198.584 69.6 198.584C69.6 198.584 100.4 172.8 101.704 173.016ZM113.544 171.616C116.315 177.163 118.569 182.952 120.28 188.912C123.192 198.96 127.32 220.912 127.32 220.912C127.32 220.912 134.456 220.112 136.568 215.584C138.68 211.056 138.776 209.344 142.168 208.144C145.56 206.944 150.216 204.424 150.616 201.208C150.911 199.035 151.346 196.884 151.92 194.768C151.92 194.768 133.128 179.192 130.208 177.168C127.288 175.144 114.352 170.816 113.544 171.616Z" fill="white"/>
</mask>
<g mask="url(#mask7_183_455)">
<path opacity="0.15" d="M70.048 182.848H67.216V236.608H70.048V182.848Z" fill="black"/>
<path opacity="0.15" d="M79.8 182.848H76.968V236.608H79.8V182.848Z" fill="black"/>
<path opacity="0.15" d="M89.552 165.688H86.72V236.616H89.552V165.688Z" fill="black"/>
<path opacity="0.15" d="M99.296 165.688H96.464V236.616H99.296V165.688Z" fill="black"/>
<path opacity="0.15" d="M109.048 165.688H106.216V236.616H109.048V165.688Z" fill="black"/>
<path opacity="0.15" d="M118.8 165.688H115.968V236.616H118.8V165.688Z" fill="black"/>
<path opacity="0.15" d="M128.544 165.688H125.712V236.616H128.544V165.688Z" fill="black"/>
<path opacity="0.15" d="M138.296 165.688H135.464V236.616H138.296V165.688Z" fill="black"/>
<path opacity="0.15" d="M148.048 165.688H145.216V236.616H148.048V165.688Z" fill="black"/>
<path d="M82.256 172.648C105.456 172.824 128.608 172.824 151.488 172.752" stroke="white" stroke-miterlimit="10"/>
<path d="M82.256 174.216C105.456 174.32 128.608 174.32 151.488 174.28" stroke="white" stroke-miterlimit="10"/>
<path d="M82.256 180.8C105.456 181.024 128.608 181.024 151.488 180.936" stroke="white" stroke-miterlimit="10"/>
<path d="M82.256 182.4C105.456 182.552 128.608 182.552 151.488 182.488" stroke="white" stroke-miterlimit="10"/>
<path d="M54.624 189C86.76 189.264 118.888 189.264 151.28 189.136" stroke="white" stroke-miterlimit="10"/>
<path d="M54.624 190.568C86.76 190.76 118.888 190.76 151.28 190.664" stroke="white" stroke-miterlimit="10"/>
<path d="M54.624 197.176C86.76 197.488 118.888 197.488 151.28 197.336" stroke="white" stroke-miterlimit="10"/>
<path d="M54.624 198.752C86.76 198.976 118.888 198.976 151.28 198.864" stroke="white" stroke-miterlimit="10"/>
<path d="M54.624 205.352C86.76 205.704 118.888 205.704 151.28 205.528" stroke="white" stroke-miterlimit="10"/>
<path d="M54.624 206.928C86.76 207.2 118.888 207.2 151.28 207.064" stroke="white" stroke-miterlimit="10"/>
<path d="M54.624 213.528C86.76 213.176 118.888 213.176 151.28 213.352" stroke="white" stroke-miterlimit="10"/>
<path d="M54.624 215.104C86.76 215.416 118.888 215.416 151.28 215.264" stroke="white" stroke-miterlimit="10"/>
<path d="M54.624 221.704C86.76 221.392 118.888 221.392 151.28 221.552" stroke="white" stroke-miterlimit="10"/>
</g>
<path d="M101.704 173.016C101.704 173.016 106.936 189.08 109.176 200.104C111.416 211.128 112.376 221.392 112.376 221.392C112.376 221.392 109.176 219.344 100.608 218.592C92.04 217.84 88.096 216.536 84.36 209.44C80.624 202.344 78.192 202.904 74.456 201.784C70.72 200.664 69.6 198.584 69.6 198.584C69.6 198.584 100.4 172.8 101.704 173.016ZM113.544 171.616C116.315 177.163 118.569 182.952 120.28 188.912C123.192 198.96 127.32 220.912 127.32 220.912C127.32 220.912 134.456 220.112 136.568 215.584C138.68 211.056 138.776 209.344 142.168 208.144C145.56 206.944 150.216 204.424 150.616 201.208C150.911 199.035 151.346 196.884 151.92 194.768C151.92 194.768 133.128 179.192 130.208 177.168C127.288 175.144 114.352 170.816 113.544 171.616Z" stroke="#263238" stroke-linecap="round" stroke-linejoin="round"/>
<path d="M146.176 171.048C146.176 171.048 146.928 175.512 147.184 176.576C147.44 177.64 149.88 180.728 149.88 180.728L145.8 183.304C144.829 181.55 143.761 179.851 142.6 178.216C141.912 177.52 138.456 176.616 137.448 175.256C136.44 173.896 136.696 172.304 136.44 171.296C136.184 170.288 133.864 167.4 134.432 166.96C135 166.52 136.192 166.896 136.752 167.592C137.312 168.288 137.32 169.288 137.552 169.792C137.784 170.296 140.88 172.192 140.88 172.192C140.88 172.192 139.496 168.232 139.28 167.672C139.228 167.519 139.21 167.357 139.227 167.196C139.245 167.035 139.298 166.88 139.381 166.742C139.465 166.604 139.579 166.486 139.713 166.397C139.848 166.307 140 166.248 140.16 166.224C140.784 166.224 143.616 168.992 143.616 168.992L146.176 171.048Z" stroke="#263238" stroke-linecap="round" stroke-linejoin="round"/>
<path d="M134.281 163.397C136.743 162.167 136.921 157.529 134.677 153.039C132.434 148.55 128.619 145.907 126.157 147.138C123.694 148.368 123.517 153.005 125.76 157.495C128.004 161.985 131.819 164.627 134.281 163.397Z" fill="white" stroke="#263238" stroke-linecap="round" stroke-linejoin="round"/>
<path d="M133.285 162.332C134.976 161.487 134.809 157.723 132.911 153.925C131.013 150.126 128.104 147.733 126.412 148.578C124.72 149.423 124.888 153.187 126.785 156.986C128.683 160.784 131.593 163.178 133.285 162.332Z" fill="white" stroke="#263238" stroke-linecap="round" stroke-linejoin="round"/>
<path d="M134.04 163.08L141.104 173.64C141.194 173.776 141.31 173.892 141.446 173.981C141.583 174.07 141.736 174.131 141.896 174.158C142.056 174.186 142.221 174.181 142.379 174.142C142.537 174.104 142.686 174.034 142.816 173.936C142.944 173.841 143.051 173.721 143.132 173.584C143.213 173.447 143.266 173.295 143.288 173.137C143.309 172.979 143.299 172.818 143.258 172.664C143.217 172.51 143.145 172.366 143.048 172.24L135.2 162.24C135.156 162.178 135.101 162.126 135.036 162.086C134.972 162.047 134.9 162.02 134.826 162.009C134.751 161.998 134.675 162.002 134.601 162.021C134.528 162.04 134.46 162.074 134.4 162.12L134.136 162.296C134.021 162.389 133.947 162.522 133.929 162.669C133.912 162.815 133.951 162.962 134.04 163.08Z" fill="#263238" stroke="#263238" stroke-linecap="round" stroke-linejoin="round"/>
<path d="M139.2 164.56C139.2 164.56 137.104 165.856 137.2 166.56C137.296 167.264 137.6 167.552 138.2 167.552C138.8 167.552 140.392 166.656 140.992 166.36C141.592 166.064 141.16 163.768 139.2 164.56Z" fill="white" stroke="#263238" stroke-linecap="round" stroke-linejoin="round"/>
<path d="M140 166.96C139.251 167.955 138.58 169.006 137.992 170.104C137.928 170.544 141.568 174.104 142.2 174.104C142.832 174.104 146.288 171.968 146.16 171.088C146.032 170.208 142.512 167.568 141.888 166.936C141.264 166.304 140.704 166.08 140 166.96Z" fill="white" stroke="#263238" stroke-linecap="round" stroke-linejoin="round"/>
<path d="M139.072 171.36L142.464 167.336" stroke="#263238" stroke-linecap="round" stroke-linejoin="round"/>
<path d="M144.352 169.288L140.96 173.12" stroke="#263238" stroke-linecap="round" stroke-linejoin="round"/>
<path d="M154.456 204.392L144.104 182.68L151.744 178.68C151.744 178.68 159.888 188.128 163.208 194.68C166.528 201.232 168.008 211.672 166.728 213.28C165.448 214.888 159.584 213.776 156.672 211.968" fill="#59C9A5"/>
<mask id="mask8_183_455" style="mask-type:luminance" maskUnits="userSpaceOnUse" x="144" y="178" width="24" height="37">
<path d="M154.456 204.392L144.104 182.68L151.744 178.68C151.744 178.68 159.888 188.128 163.208 194.68C166.528 201.232 168.008 211.672 166.728 213.28C165.448 214.888 159.584 213.776 156.672 211.968" fill="white"/>
</mask>
<g mask="url(#mask8_183_455)">
<path opacity="0.15" d="M148.048 175.072H145.216V218.784H148.048V175.072Z" fill="black"/>
<path opacity="0.15" d="M157.792 175.072H154.96V218.784H157.792V175.072Z" fill="black"/>
<path opacity="0.15" d="M167.544 175.072H164.712V218.784H167.544V175.072Z" fill="black"/>
<path d="M136.712 180.8C150.312 181.024 164.472 181.024 177.92 180.8" stroke="white" stroke-miterlimit="10"/>
<path d="M136.712 182.4C150.312 182.552 164.472 182.552 177.92 182.4" stroke="white" stroke-miterlimit="10"/>
<path d="M136.712 189C150.312 189.264 164.472 189.264 177.92 189" stroke="white" stroke-miterlimit="10"/>
<path d="M136.712 190.568C150.312 190.76 164.472 190.76 177.92 190.568" stroke="white" stroke-miterlimit="10"/>
<path d="M136.712 197.176C150.312 197.488 164.472 197.488 177.92 197.176" stroke="white" stroke-miterlimit="10"/>
<path d="M136.712 198.752C150.312 198.976 164.472 198.976 177.92 198.752" stroke="white" stroke-miterlimit="10"/>
<path d="M136.712 205.352C150.312 205.704 164.472 205.704 177.92 205.352" stroke="white" stroke-miterlimit="10"/>
<path d="M136.712 206.928C150.312 207.2 164.472 207.2 177.92 206.928" stroke="white" stroke-miterlimit="10"/>
<path d="M136.712 213.528C150.312 213.176 164.472 213.176 177.92 213.528" stroke="white" stroke-miterlimit="10"/>
</g>
<path d="M154.456 204.392L144.104 182.68L151.744 178.68C151.744 178.68 159.888 188.128 163.208 194.68C166.528 201.232 168.008 211.672 166.728 213.28C165.448 214.888 159.584 213.776 156.672 211.968" stroke="#263238" stroke-linecap="round" stroke-linejoin="round"/>
</svg>
