<svg width="40" height="40" viewBox="0 0 40 40" fill="none" xmlns="http://www.w3.org/2000/svg">
	<g clip-path="url(#clip0_233_1228)">
		<path d="M20 40C31.0457 40 40 31.0457 40 20C40 8.9543 31.0457 0 20 0C8.9543 0 0 8.9543 0 20C0 31.0457 8.9543 40 20 40Z" fill="#E0E0E0" />
		<path d="M17.8871 25.9148C17.5906 25.9437 16.6547 25.9148 16.6547 25.9148L17.4763 10.9209C17.4763 10.9209 19.6183 11.7425 19.9411 11.7425C20.2638 11.7425 22.3765 10.9209 22.3765 10.9209L23.4621 25.9148C23.4621 25.9148 22.7261 26.0038 22.2298 25.9148C21.2798 25.7444 21.7896 24.6237 20.0584 24.6237C18.3273 24.6237 18.9684 25.8094 17.8871 25.9148Z" fill="#59C9A5" />
		<path d="M13.163 9.04294L4.08984 21.5693L17.1545 23.4262L17.9463 10.9557C17.9463 10.9557 17.1198 9.75453 16.596 9.5124C15.8813 9.18203 15.3343 8.98428 14.5421 8.9549C13.7498 8.92557 13.4857 9.04294 13.163 9.04294Z" fill="#59C9A5" />
		<path d="M17.1545 23.4271L17.9463 10.9566L17.6817 10.5957L17.3002 10.1289L15.5306 20.2487L17.1545 23.4271Z" fill="#3F9479" fill-opacity="0.4" />
		<path d="M17.3002 24.2131C17.3002 28.1024 14.1736 31.2552 10.3168 31.2552C6.45994 31.2552 3.33331 28.1024 3.33331 24.2131C3.33331 20.3238 6.45994 17.1709 10.3168 17.1709C14.1736 17.1709 17.3002 20.3238 17.3002 24.2131Z" fill="white" />
		<path fill-rule="evenodd" clip-rule="evenodd" d="M10.3168 29.8468C13.4023 29.8468 15.9036 27.3245 15.9036 24.2131C15.9036 21.1016 13.4023 18.5794 10.3168 18.5794C7.23127 18.5794 4.73002 21.1016 4.73002 24.2131C4.73002 27.3245 7.23127 29.8468 10.3168 29.8468ZM10.3168 31.2552C14.1736 31.2552 17.3002 28.1024 17.3002 24.2131C17.3002 20.3238 14.1736 17.1709 10.3168 17.1709C6.45994 17.1709 3.33331 20.3238 3.33331 24.2131C3.33331 28.1024 6.45994 31.2552 10.3168 31.2552Z" fill="#455A64" />
		<path d="M26.837 9.01365L35.9101 21.54L22.8455 23.3969L22.0537 10.9264C22.0537 10.9264 22.8802 9.72523 23.404 9.4831C24.1187 9.15273 24.6657 8.95494 25.4579 8.9256C26.2502 8.89627 26.5143 9.01365 26.837 9.01365Z" fill="#59C9A5" />
		<path d="M22.8455 23.3977L22.0537 10.9273L22.3183 10.5664L22.6998 10.0996L24.4693 20.2193L22.8455 23.3977Z" fill="#3F9479" fill-opacity="0.4" />
		<path d="M22.6998 24.1837C22.6998 28.073 25.8264 31.2259 29.6832 31.2259C33.5401 31.2259 36.6667 28.073 36.6667 24.1837C36.6667 20.2945 33.5401 17.1416 29.6832 17.1416C25.8264 17.1416 22.6998 20.2945 22.6998 24.1837Z" fill="white" />
		<path fill-rule="evenodd" clip-rule="evenodd" d="M29.6832 29.8175C26.5977 29.8175 24.0964 27.2951 24.0964 24.1837C24.0964 21.0723 26.5977 18.55 29.6832 18.55C32.7687 18.55 35.27 21.0723 35.27 24.1837C35.27 27.2951 32.7687 29.8175 29.6832 29.8175ZM29.6832 31.2259C25.8264 31.2259 22.6998 28.073 22.6998 24.1837C22.6998 20.2945 25.8264 17.1416 29.6832 17.1416C33.5401 17.1416 36.6667 20.2945 36.6667 24.1837C36.6667 28.073 33.5401 31.2259 29.6832 31.2259Z" fill="#455A64" />
		<path d="M19.9997 23.4209C21.0369 23.4209 21.8776 22.5801 21.8776 21.5429C21.8776 20.5058 21.0369 19.665 19.9997 19.665C18.9626 19.665 18.1218 20.5058 18.1218 21.5429C18.1218 22.5801 18.9626 23.4209 19.9997 23.4209Z" fill="#455A64" />
		<path fill-rule="evenodd" clip-rule="evenodd" d="M8.90839 21.8369L9.84731 23.2453L9.84735 25.1232L8.90843 26.5317L7.96947 25.1232L7.96943 23.2454L8.90839 21.8369ZM9.84735 25.1232L11.2558 24.1843L9.84731 23.2453L9.84735 25.1232ZM6.56097 24.1843L7.96943 23.2454L7.96947 25.1232L6.56097 24.1843Z" fill="#979D9B" />
		<path fill-rule="evenodd" clip-rule="evenodd" d="M28.2743 21.6016L29.2133 23.01H27.3354L28.2743 21.6016ZM27.3354 23.01H29.2133V24.8879L28.2744 26.2963L27.3354 24.8879L27.3354 23.01ZM29.2133 24.8879L30.6217 23.9489L29.2133 23.01V24.8879ZM25.9269 23.9489L27.3354 23.01L27.3354 24.8879L25.9269 23.9489Z" fill="#979D9B" />
		<path fill-rule="evenodd" clip-rule="evenodd" d="M12.8989 21.0742L13.3684 21.7784H12.4294L12.8989 21.0742ZM13.3684 21.7784L14.0725 22.2479L13.3684 22.7173L12.8989 23.4216L12.4294 22.7174V21.7784H13.3684ZM11.7252 22.2479L12.4294 21.7784V22.7174L11.7252 22.2479Z" fill="#979D9B" />
		<path fill-rule="evenodd" clip-rule="evenodd" d="M32.2649 20.8389L32.7344 21.5431H31.7954L32.2649 20.8389ZM32.7344 21.5431L33.4386 22.0125L32.7344 22.482L32.2649 23.1862L31.7954 22.482L31.7954 21.5431H32.7344ZM31.0912 22.0125L31.7954 21.5431L31.7954 22.482L31.0912 22.0125Z" fill="#979D9B" />
		<path fill-rule="evenodd" clip-rule="evenodd" d="M11.7252 25.3574L12.1947 26.0616H11.2557L11.7252 25.3574ZM12.1947 26.0616L12.8989 26.5311L12.1947 27.0005L11.2557 27.0006V26.0616H12.1947ZM10.5515 26.5311L11.2557 26.0616V27.0006L10.5515 26.5311ZM11.2557 27.0006L11.7252 27.7048L12.1947 27.0005L11.2557 27.0006Z" fill="#979D9B" />
		<path fill-rule="evenodd" clip-rule="evenodd" d="M31.0912 25.123L31.5606 25.8273H30.6217L31.0912 25.123ZM31.5606 25.8273L32.2649 26.2968L31.5606 26.7662L31.0911 27.4704L30.6217 26.7662V25.8273H31.5606ZM29.9175 26.2968L30.6217 25.8273V26.7662L29.9175 26.2968Z" fill="#979D9B" />
	</g>
	<defs>
		<clipPath id="clip0_233_1228">
			<rect width="40" height="40" fill="white" />
		</clipPath>
	</defs>
</svg>
