<svg width="96" height="96" viewBox="0 0 96 96" fill="none" xmlns="http://www.w3.org/2000/svg">
	<path d="M96 48C96 74.5097 74.5097 96 48 96C21.4903 96 0 74.5097 0 48C0 21.4903 21.4903 0 48 0C74.5097 0 96 21.4903 96 48Z" fill="#D9D9D9" />
	<path d="M53 95.7427C51.3566 95.9128 49.6885 96 48 96V52H60C60.5522 52 61 51.5523 61 51V1.78125C69.4629 4.15674 76.9796 8.79413 82.8569 15H77C76.4478 15 76 15.4477 76 16V25.126C74.2748 25.5701 73 27.1362 73 29C73 31.2092 74.7909 33 77 33C79.2091 33 81 31.2092 81 29C81 27.1362 79.7252 25.5701 78 25.126V17H84.6483C91.1261 24.6503 95.2513 34.3558 95.9077 45H76.874C76.4299 43.2748 74.8638 42 73 42C70.7909 42 69 43.7908 69 46C69 48.2092 70.7909 50 73 50C74.8638 50 76.4299 48.7252 76.874 47H95.9897C95.9927 47.1429 95.995 47.2859 95.9967 47.4291C95.9989 47.6191 96 47.8094 96 48C96 49.6885 95.9127 51.3565 95.7427 53H87.2195C86.6672 53 86.2195 53.4477 86.2195 54V77.0434C78.7886 86.8071 67.7017 93.6373 55 95.4932V84H63.126C63.5701 85.7252 65.1361 87 67 87C69.2091 87 71 85.2092 71 83C71 80.7908 69.2091 79 67 79C65.1361 79 63.5701 80.2748 63.126 82H54C53.4478 82 53 82.4477 53 83V95.7427Z" fill="white" />
	<path d="M59 1.2663V50H46V95.9591C43.9647 95.8757 41.9622 95.6655 40 95.3364V86.2857C40 85.7335 39.5522 85.2857 39 85.2857H31V79H30C32.2091 79 34 77.2092 34 75C34 72.7908 32.2091 71 30 71C27.7908 71 26 72.7908 26 75C26 77.2092 27.7908 79 30 79H29V86.2857C29 86.838 29.4478 87.2857 30 87.2857H38V94.9568C32.6106 93.8148 27.5552 91.7682 23 88.9837V61C23 60.4477 22.5522 60 22 60H1.51221C0.525146 56.1646 0 52.1436 0 48C0 43.4948 0.620605 39.1345 1.78125 35H9V43.126C7.27466 43.5701 6 45.1362 6 47C6 49.2092 7.79077 51 10 51C12.2092 51 14 49.2092 14 47C14 45.1362 12.7253 43.5701 11 43.126V34C11 33.4477 10.5522 33 10 33H2.39038C8.39087 14.7441 25.0459 1.32269 45 0.0922241V17H30V18C30 15.7908 28.2092 14 26 14C23.7908 14 22 15.7908 22 18C22 20.2092 23.7908 22 26 22C28.2092 22 30 20.2092 30 18V19H46C46.5522 19 47 18.5523 47 18V0.0101929C47.3325 0.00341797 47.6659 0 48 0C51.7849 0 55.4677 0.438049 59 1.2663Z" fill="white" />
	<path d="M88.2195 55H95.4933C94.4691 62.0092 91.9302 68.5266 88.2195 74.2092V55Z" fill="white" />
	<path d="M2.07373 62C5.29321 72.5752 12.0654 81.6025 21 87.692V62H2.07373Z" fill="white" />
	<path d="M12 47C12 48.1046 11.1045 49 10 49C8.89551 49 8 48.1046 8 47C8 45.8954 8.89551 45 10 45C11.1045 45 12 45.8954 12 47Z" fill="white" />
	<path d="M69 83C69 81.8954 68.1046 81 67 81C65.8954 81 65 81.8954 65 83C65 84.1046 65.8954 85 67 85C68.1046 85 69 84.1046 69 83Z" fill="white" />
	<path d="M75 29C75 30.1046 75.8954 31 77 31C78.1046 31 79 30.1046 79 29C79 27.8954 78.1046 27 77 27C75.8954 27 75 27.8954 75 29Z" fill="white" />
	<path d="M26 20C27.1045 20 28 19.1046 28 18C28 16.8954 27.1045 16 26 16C24.8955 16 24 16.8954 24 18C24 19.1046 24.8955 20 26 20Z" fill="white" />
	<path d="M32 75C32 76.1046 31.1045 77 30 77C28.8955 77 28 76.1046 28 75C28 73.8954 28.8955 73 30 73C31.1045 73 32 73.8954 32 75Z" fill="white" />
	<path d="M73 48C74.1046 48 75 47.1046 75 46C75 44.8954 74.1046 44 73 44C71.8954 44 71 44.8954 71 46C71 47.1046 71.8954 48 73 48Z" fill="white" />
	<path d="M42.9291 62.1966C42.2175 62.266 39.9714 62.1966 39.9714 62.1966L41.9432 26.2112C41.9432 26.2112 47.084 28.183 47.8586 28.183C48.6333 28.183 53.7036 26.2112 53.7036 26.2112L56.3092 62.1966C56.3092 62.1966 54.5426 62.4102 53.3515 62.1966C51.0717 61.7877 52.2952 59.098 48.1403 59.098C43.9855 59.098 45.5242 61.9435 42.9291 62.1966Z" fill="#59C9A5" />
	<path d="M31.5912 21.7043L9.81567 51.7676L41.1708 56.2242L43.0711 26.2951C43.0711 26.2951 41.0876 23.4121 39.8305 22.8311C38.1151 22.0381 36.8024 21.5635 34.901 21.4931C32.9996 21.4226 32.3658 21.7043 31.5912 21.7043Z" fill="#59C9A5" />
	<path d="M41.1708 56.2242L43.0711 26.2951L42.4361 25.4288L41.5206 24.3087L37.2736 48.596L41.1708 56.2242Z" fill="#3F9479" fill-opacity="0.4" />
	<path d="M41.5206 58.1122C41.5206 67.4464 34.0168 75.0133 24.7603 75.0133C15.5039 75.0133 8 67.4464 8 58.1122C8 48.7779 15.5039 41.211 24.7603 41.211C34.0168 41.211 41.5206 48.7779 41.5206 58.1122Z" fill="white" />
	<path fill-rule="evenodd" clip-rule="evenodd" d="M24.7603 71.6331C32.1655 71.6331 38.1686 65.5796 38.1686 58.1122C38.1686 50.6448 32.1655 44.5912 24.7603 44.5912C17.3551 44.5912 11.3521 50.6448 11.3521 58.1122C11.3521 65.5796 17.3551 71.6331 24.7603 71.6331ZM24.7603 75.0133C34.0168 75.0133 41.5206 67.4464 41.5206 58.1122C41.5206 48.7779 34.0168 41.211 24.7603 41.211C15.5039 41.211 8 48.7779 8 58.1122C8 67.4464 15.5039 75.0133 24.7603 75.0133Z" fill="#455A64" />
	<mask id="path-6-inside-1_46_128" fill="white">
		<path d="M42.9993 25.6479C41.3092 23.1831 40.1825 22.4085 38.5628 21.7043C37.2952 21.1532 35.5347 21.0705 34.3375 21.0705C33.1403 21.0705 32.0136 21.2113 32.0136 21.2113C32.0136 21.2113 32.084 21.0705 31.5911 21.7043C31.5911 21.7043 32.4361 21.6573 33.5629 21.5634C34.1967 21.5634 36.1685 21.6339 37.0135 21.8451C37.8586 22.0564 39.267 22.4789 40.1825 23.2536C41.098 24.0282 43.0698 26.3521 43.0698 26.3521L42.9993 25.6479Z" />
	</mask>
	<path d="M42.9993 25.6479C41.3092 23.1831 40.1825 22.4085 38.5628 21.7043C37.2952 21.1532 35.5347 21.0705 34.3375 21.0705C33.1403 21.0705 32.0136 21.2113 32.0136 21.2113C32.0136 21.2113 32.084 21.0705 31.5911 21.7043C31.5911 21.7043 32.4361 21.6573 33.5629 21.5634C34.1967 21.5634 36.1685 21.6339 37.0135 21.8451C37.8586 22.0564 39.267 22.4789 40.1825 23.2536C41.098 24.0282 43.0698 26.3521 43.0698 26.3521L42.9993 25.6479Z" fill="#455A64" />
	<path d="M42.9993 25.6479L66.8802 23.2598L66.2687 17.1441L62.7928 12.0752L42.9993 25.6479ZM38.5628 21.7043L48.1322 -0.305393L38.5628 21.7043ZM31.5911 21.7043L12.6466 6.96972L-19.7265 48.5923L32.9223 45.6673L31.5911 21.7043ZM33.5629 21.5634V-2.43655H32.5646L31.5698 -2.35365L33.5629 21.5634ZM43.0698 26.3521L24.7696 41.8796L74.6171 100.628L66.9507 23.964L43.0698 26.3521ZM32.0136 21.2113L10.5473 10.4782L-9.50769 50.5883L34.9904 45.026L32.0136 21.2113ZM62.7928 12.0752C61.258 9.83684 59.1753 7.16939 56.278 4.71221C53.1627 2.07007 50.1842 0.586779 48.1322 -0.305393L28.9934 43.714C28.5611 43.526 26.9558 42.7822 25.2313 41.3196C23.7248 40.0419 23.0506 38.9942 23.2059 39.2206L62.7928 12.0752ZM48.1322 -0.305393C41.8042 -3.0567 35.4419 -2.9295 34.3375 -2.9295L34.3375 45.0705C34.4556 45.0705 34.1452 45.0793 33.5715 45.0106C33.2625 44.9737 32.729 44.8972 32.0348 44.7337C31.3624 44.5754 30.2893 44.2774 28.9934 43.714L48.1322 -0.305393ZM31.5911 21.7043C32.9223 45.6673 32.9228 45.6673 32.9232 45.6673C32.9234 45.6673 32.9238 45.6673 32.9241 45.6672C32.9247 45.6672 32.9253 45.6672 32.926 45.6671C32.9272 45.6671 32.9285 45.667 32.9299 45.6669C32.9327 45.6668 32.9356 45.6666 32.9388 45.6664C32.9451 45.6661 32.9523 45.6657 32.9603 45.6652C32.9764 45.6643 32.9959 45.6632 33.0186 45.6619C33.0639 45.6592 33.1223 45.6558 33.1926 45.6515C33.3329 45.643 33.5222 45.6312 33.7509 45.6159C34.2044 45.5857 34.8329 45.5408 35.556 45.4805L31.5698 -2.35365C31.1661 -2.32001 30.8086 -2.29448 30.558 -2.27777C30.4346 -2.26954 30.3421 -2.26379 30.2888 -2.26056C30.2623 -2.25895 30.2459 -2.25799 30.2406 -2.25768C30.238 -2.25753 30.2382 -2.25755 30.2413 -2.25772C30.2429 -2.25781 30.2452 -2.25794 30.2483 -2.25812C30.2498 -2.2582 30.2515 -2.2583 30.2534 -2.25841C30.2544 -2.25846 30.2554 -2.25852 30.2565 -2.25858C30.257 -2.2586 30.2575 -2.25863 30.2581 -2.25867C30.2584 -2.25868 30.2588 -2.2587 30.2589 -2.25871C30.2594 -2.25874 30.2598 -2.25876 31.5911 21.7043ZM33.5629 45.5634C33.3611 45.5634 33.312 45.5597 33.4235 45.5635C33.5043 45.5663 33.5913 45.5706 33.6538 45.5746C33.7382 45.5801 33.6581 45.5772 33.4465 45.5527C33.3346 45.5398 33.106 45.5116 32.7924 45.4605C32.511 45.4147 31.9374 45.3147 31.1927 45.1285L42.8344 -1.43828C40.0488 -2.13469 37.3317 -2.28764 36.7641 -2.3245C35.6361 -2.39775 34.462 -2.43655 33.5629 -2.43655V45.5634ZM31.1927 45.1285C31.0747 45.0991 30.4864 44.9528 29.6582 44.6215C29.2219 44.447 28.5692 44.1622 27.786 43.7281C27.0194 43.3032 25.9096 42.6154 24.6799 41.5748L55.6851 4.9323C50.0997 0.20615 43.6871 -1.22511 42.8344 -1.43828L31.1927 45.1285ZM24.6799 41.5748C23.6578 40.71 23.2918 40.2128 24.0958 41.11C24.2849 41.321 24.4672 41.5294 24.6051 41.6886C24.6719 41.7657 24.7229 41.8251 24.7529 41.8602C24.7678 41.8776 24.7772 41.8885 24.7802 41.8922C24.7818 41.8939 24.7817 41.8939 24.78 41.8918C24.7791 41.8908 24.7778 41.8893 24.7761 41.8872C24.7752 41.8862 24.7742 41.8851 24.7731 41.8838C24.7726 41.8832 24.772 41.8825 24.7714 41.8818C24.7711 41.8814 24.7707 41.8809 24.7705 41.8807C24.77 41.8801 24.7696 41.8796 43.0698 26.3521C61.37 10.8246 61.3695 10.8241 61.369 10.8235C61.3688 10.8233 61.3683 10.8226 61.3679 10.8222C61.3672 10.8214 61.3665 10.8205 61.3657 10.8196C61.3641 10.8177 61.3624 10.8157 61.3606 10.8136C61.357 10.8093 61.3528 10.8045 61.3482 10.799C61.339 10.7881 61.3277 10.7749 61.3146 10.7595C61.2883 10.7287 61.2544 10.6889 61.2136 10.6413C61.1322 10.5462 61.022 10.4181 60.8896 10.2652C60.6292 9.96447 60.2614 9.54346 59.8431 9.07668C59.4323 8.61826 57.6227 6.57178 55.6851 4.9323L24.6799 41.5748ZM66.9507 23.964L66.8802 23.2598L19.1185 28.036L19.1889 28.7402L66.9507 23.964ZM34.3375 -2.9295C32.871 -2.9295 31.596 -2.84662 30.7739 -2.77951C30.3371 -2.74385 29.963 -2.70717 29.6739 -2.67648C29.5282 -2.661 29.4009 -2.64671 29.2946 -2.63436C29.2413 -2.62817 29.193 -2.62243 29.15 -2.61724C29.1285 -2.61464 29.1083 -2.61218 29.0894 -2.60986C29.08 -2.6087 29.0709 -2.60757 29.0621 -2.60649C29.0577 -2.60594 29.0534 -2.60541 29.0492 -2.60488C29.0471 -2.60462 29.045 -2.60436 29.0429 -2.6041C29.0419 -2.60397 29.0403 -2.60378 29.0398 -2.60371C29.0383 -2.60352 29.0368 -2.60333 32.0136 21.2113C34.9904 45.026 34.9889 45.0262 34.9874 45.0264C34.9869 45.0264 34.9854 45.0266 34.9844 45.0268C34.9824 45.027 34.9804 45.0273 34.9784 45.0275C34.9745 45.028 34.9706 45.0285 34.9667 45.029C34.959 45.0299 34.9516 45.0308 34.9443 45.0317C34.9297 45.0335 34.916 45.0352 34.903 45.0368C34.8771 45.0399 34.8542 45.0426 34.8341 45.0449C34.794 45.0496 34.7641 45.0529 34.7428 45.0551C34.7024 45.0594 34.6848 45.0609 34.6793 45.0613C34.6759 45.0616 34.6595 45.063 34.6246 45.0647C34.5946 45.0661 34.4966 45.0705 34.3375 45.0705L34.3375 -2.9295ZM32.0136 21.2113C53.4798 31.9445 53.4851 31.9339 53.4904 31.9234C53.4922 31.9198 53.4975 31.9091 53.5011 31.9019C53.5082 31.8876 53.5155 31.873 53.5228 31.8581C53.5374 31.8285 53.5525 31.798 53.5679 31.7666C53.5986 31.7039 53.631 31.6369 53.665 31.5659C53.7322 31.4255 53.8091 31.2612 53.8923 31.0765C54.0447 30.7387 54.2822 30.1919 54.5359 29.5035C54.748 28.9278 55.2074 27.6261 55.5508 25.9093C55.6945 25.1906 56.8823 19.9007 54.7853 13.6098C53.5016 9.7588 50.6751 4.68562 45.0542 1.04858C39.5144 -2.53601 33.8957 -3.01757 30.1741 -2.73129C23.9685 -2.25393 19.7551 0.551241 19.1249 0.952328C16.7466 2.46577 15.1748 4.09139 15.0166 4.24958C13.7216 5.54462 12.6892 6.9149 12.6466 6.96972L50.5355 36.4389C50.9858 35.8599 50.1648 36.9837 48.9578 38.1907C48.8216 38.3269 47.2641 39.9404 44.8949 41.4481C44.1725 41.9078 43.0009 42.6007 41.4669 43.2581C40.0588 43.8616 37.3857 44.8558 33.8556 45.1273C30.1352 45.4135 24.5174 44.9321 18.9782 41.348C13.358 37.7114 10.5319 32.6388 9.2485 28.7887C8.05587 25.2108 7.98206 22.1716 8.02583 20.5523C8.07349 18.7887 8.30776 17.3714 8.48291 16.4957C8.82575 14.7815 9.28432 13.4826 9.49542 12.9096C9.7481 12.2237 9.98462 11.6794 10.1362 11.3433C10.2191 11.1595 10.2956 10.9959 10.3626 10.856C10.3964 10.7853 10.4288 10.7184 10.4594 10.6559C10.4748 10.6245 10.4898 10.594 10.5044 10.5645C10.5117 10.5497 10.519 10.5351 10.5261 10.5207C10.5297 10.5136 10.535 10.5029 10.5368 10.4993C10.5421 10.4888 10.5473 10.4782 32.0136 21.2113Z" fill="#455A64" mask="url(#path-6-inside-1_46_128)" />
	<path d="M64.4087 21.6338L86.1842 51.6971L54.829 56.1536L52.9288 26.2245C52.9288 26.2245 54.9123 23.3416 56.1694 22.7605C57.8848 21.9676 59.1975 21.4929 61.0989 21.4225C63.0003 21.3521 63.6341 21.6338 64.4087 21.6338Z" fill="#59C9A5" />
	<path d="M54.829 56.1536L52.9288 26.2245L53.5638 25.3583L54.4793 24.2381L58.7263 48.5254L54.829 56.1536Z" fill="#3F9479" fill-opacity="0.4" />
	<path d="M54.4794 58.0417C54.4794 67.376 61.9832 74.9429 71.2397 74.9429C80.4961 74.9429 88 67.376 88 58.0417C88 48.7075 80.4961 41.1406 71.2397 41.1406C61.9832 41.1406 54.4794 48.7075 54.4794 58.0417Z" fill="white" />
	<path fill-rule="evenodd" clip-rule="evenodd" d="M71.2397 71.5627C63.8345 71.5627 57.8314 65.5091 57.8314 58.0417C57.8314 50.5743 63.8345 44.5208 71.2397 44.5208C78.6449 44.5208 84.6479 50.5743 84.6479 58.0417C84.6479 65.5091 78.6449 71.5627 71.2397 71.5627ZM71.2397 74.9429C61.9832 74.9429 54.4794 67.376 54.4794 58.0417C54.4794 48.7075 61.9832 41.1406 71.2397 41.1406C80.4961 41.1406 88 48.7075 88 58.0417C88 67.376 80.4961 74.9429 71.2397 74.9429Z" fill="#455A64" />
	<mask id="path-11-inside-2_46_128" fill="white">
		<path d="M53.0008 25.5774C54.6909 23.1126 55.8176 22.338 57.4373 21.6338C58.7049 21.0827 60.4655 21 61.6626 21C62.8598 21 63.9865 21.1408 63.9865 21.1408C63.9865 21.1408 63.9161 21 64.4091 21.6338C64.4091 21.6338 63.564 21.5868 62.4373 21.493C61.8035 21.493 59.8317 21.5634 58.9866 21.7746C58.1415 21.9859 56.7331 22.4084 55.8176 23.1831C54.9022 23.9577 52.9304 26.2816 52.9304 26.2816L53.0008 25.5774Z" />
	</mask>
	<path d="M53.0008 25.5774C54.6909 23.1126 55.8176 22.338 57.4373 21.6338C58.7049 21.0827 60.4655 21 61.6626 21C62.8598 21 63.9865 21.1408 63.9865 21.1408C63.9865 21.1408 63.9161 21 64.4091 21.6338C64.4091 21.6338 63.564 21.5868 62.4373 21.493C61.8035 21.493 59.8317 21.5634 58.9866 21.7746C58.1415 21.9859 56.7331 22.4084 55.8176 23.1831C54.9022 23.9577 52.9304 26.2816 52.9304 26.2816L53.0008 25.5774Z" fill="#455A64" />
	<path d="M53.0008 25.5774L29.1199 23.1893L29.7314 17.0736L33.2073 12.0047L53.0008 25.5774ZM57.4373 21.6338L47.8679 -0.375889L57.4373 21.6338ZM64.4091 21.6338L83.3535 6.89922L115.727 48.5218L63.0778 45.5968L64.4091 21.6338ZM62.4373 21.493V-2.50705H63.4355L64.4303 -2.42415L62.4373 21.493ZM52.9304 26.2816L71.2306 41.8091L21.383 100.558L29.0495 23.8935L52.9304 26.2816ZM63.9865 21.1408L85.4528 10.4077L105.508 50.5178L61.0097 44.9555L63.9865 21.1408ZM33.2073 12.0047C34.7422 9.76635 36.8248 7.0989 39.7221 4.64171C42.8374 1.99957 45.8159 0.516283 47.8679 -0.375889L67.0068 43.6435C67.4391 43.4555 69.0443 42.7117 70.7688 41.2491C72.2753 39.9715 72.9495 38.9237 72.7943 39.1501L33.2073 12.0047ZM47.8679 -0.375889C54.1959 -3.12719 60.5582 -3 61.6626 -3L61.6626 45C61.5445 45 61.8549 45.0088 62.4287 44.9401C62.7376 44.9032 63.2711 44.8267 63.9654 44.6632C64.6377 44.5049 65.7108 44.2069 67.0068 43.6435L47.8679 -0.375889ZM64.4091 21.6338C63.0778 45.5968 63.0773 45.5968 63.0769 45.5968C63.0767 45.5968 63.0763 45.5968 63.076 45.5967C63.0754 45.5967 63.0748 45.5967 63.0742 45.5966C63.0729 45.5966 63.0716 45.5965 63.0702 45.5964C63.0675 45.5963 63.0645 45.5961 63.0613 45.5959C63.055 45.5956 63.0478 45.5952 63.0398 45.5947C63.0237 45.5938 63.0043 45.5927 62.9816 45.5914C62.9362 45.5887 62.8778 45.5853 62.8075 45.581C62.6672 45.5725 62.4779 45.5607 62.2492 45.5454C61.7957 45.5152 61.1673 45.4703 60.4442 45.41L64.4303 -2.42415C64.834 -2.39051 65.1915 -2.36497 65.4421 -2.34826C65.5656 -2.34003 65.658 -2.33428 65.7113 -2.33105C65.7378 -2.32944 65.7542 -2.32849 65.7595 -2.32818C65.7621 -2.32803 65.762 -2.32804 65.7588 -2.32822C65.7572 -2.32831 65.7549 -2.32844 65.7519 -2.32861C65.7503 -2.3287 65.7486 -2.32879 65.7467 -2.3289C65.7457 -2.32895 65.7447 -2.32901 65.7437 -2.32907C65.7431 -2.3291 65.7426 -2.32913 65.742 -2.32916C65.7418 -2.32918 65.7413 -2.3292 65.7412 -2.32921C65.7408 -2.32923 65.7403 -2.32925 64.4091 21.6338ZM62.4373 45.493C62.6391 45.493 62.6881 45.4892 62.5766 45.493C62.4958 45.4958 62.4088 45.5001 62.3463 45.5041C62.2619 45.5096 62.342 45.5067 62.5537 45.4822C62.6655 45.4693 62.8941 45.4411 63.2077 45.3901C63.4891 45.3442 64.0627 45.2442 64.8075 45.0581L53.1657 -1.50878C55.9513 -2.20518 58.6685 -2.35814 59.236 -2.39499C60.364 -2.46824 61.5381 -2.50705 62.4373 -2.50705V45.493ZM64.8075 45.0581C64.9255 45.0286 65.5137 44.8823 66.3419 44.551C66.7782 44.3765 67.4309 44.0917 68.2141 43.6576C68.9807 43.2328 70.0905 42.5449 71.3203 41.5043L40.315 4.8618C45.9005 0.135654 52.313 -1.2956 53.1657 -1.50878L64.8075 45.0581ZM71.3203 41.5043C72.3423 40.6395 72.7083 40.1423 71.9043 41.0395C71.7152 41.2505 71.5329 41.4589 71.395 41.6181C71.3283 41.6952 71.2772 41.7547 71.2472 41.7897C71.2323 41.8071 71.223 41.818 71.2199 41.8217C71.2184 41.8235 71.2184 41.8234 71.2202 41.8213C71.221 41.8203 71.2223 41.8188 71.2241 41.8167C71.2249 41.8157 71.2259 41.8146 71.227 41.8133C71.2275 41.8127 71.2281 41.812 71.2287 41.8113C71.229 41.8109 71.2295 41.8104 71.2296 41.8102C71.2301 41.8096 71.2306 41.8091 52.9304 26.2816C34.6301 10.7541 34.6306 10.7536 34.6311 10.753C34.6313 10.7528 34.6318 10.7521 34.6322 10.7517C34.6329 10.7509 34.6337 10.75 34.6344 10.7491C34.636 10.7472 34.6377 10.7452 34.6395 10.7431C34.6431 10.7388 34.6473 10.734 34.6519 10.7285C34.6612 10.7176 34.6724 10.7044 34.6856 10.689C34.7118 10.6582 34.7457 10.6184 34.7866 10.5708C34.8679 10.4757 34.9781 10.3476 35.1105 10.1947C35.3709 9.89397 35.7388 9.47297 36.157 9.00618C36.5678 8.54776 38.3774 6.50128 40.315 4.8618L71.3203 41.5043ZM29.0495 23.8935L29.1199 23.1893L76.8817 27.9655L76.8112 28.6697L29.0495 23.8935ZM61.6626 -3C63.1292 -3 64.4041 -2.91712 65.2262 -2.85001C65.663 -2.81435 66.0372 -2.77766 66.3262 -2.74697C66.4719 -2.7315 66.5992 -2.71721 66.7055 -2.70485C66.7588 -2.69866 66.8071 -2.69293 66.8501 -2.68774C66.8716 -2.68514 66.8918 -2.68267 66.9107 -2.68035C66.9201 -2.67919 66.9292 -2.67807 66.938 -2.67698C66.9424 -2.67644 66.9467 -2.6759 66.9509 -2.67537C66.9531 -2.67511 66.9551 -2.67485 66.9572 -2.67459C66.9582 -2.67447 66.9598 -2.67427 66.9603 -2.67421C66.9618 -2.67402 66.9634 -2.67383 63.9865 21.1408C61.0097 44.9555 61.0112 44.9557 61.0127 44.9559C61.0132 44.956 61.0147 44.9561 61.0157 44.9563C61.0177 44.9565 61.0197 44.9568 61.0217 44.957C61.0257 44.9575 61.0296 44.958 61.0334 44.9585C61.0411 44.9594 61.0486 44.9603 61.0558 44.9612C61.0704 44.963 61.0841 44.9647 61.0971 44.9663C61.123 44.9694 61.1459 44.9721 61.166 44.9744C61.2061 44.9791 61.236 44.9824 61.2574 44.9846C61.2977 44.9889 61.3153 44.9904 61.3208 44.9909C61.3242 44.9911 61.3406 44.9925 61.3755 44.9942C61.4056 44.9956 61.5035 45 61.6626 45L61.6626 -3ZM63.9865 21.1408C42.5203 31.874 42.515 31.8634 42.5097 31.8529C42.508 31.8493 42.5026 31.8386 42.4991 31.8314C42.4919 31.8171 42.4847 31.8025 42.4773 31.7877C42.4627 31.758 42.4476 31.7275 42.4323 31.6961C42.4016 31.6334 42.3691 31.5664 42.3351 31.4954C42.268 31.355 42.1911 31.1907 42.1078 31.006C41.9554 30.6682 41.7179 30.1214 41.4642 29.433C41.2522 28.8574 40.7927 27.5556 40.4493 25.8388C40.3056 25.1201 39.1178 19.8302 41.2148 13.5393C42.4985 9.68831 45.325 4.61512 50.9459 0.978086C56.4857 -2.6065 62.1044 -3.08806 65.826 -2.80179C72.0316 -2.32442 76.245 0.480745 76.8753 0.881832C79.2535 2.39527 80.8253 4.02089 80.9835 4.17909C82.2785 5.47412 83.3109 6.8444 83.3535 6.89922L45.4646 36.3684C45.0143 35.7894 45.8354 36.9132 47.0424 38.1202C47.1786 38.2564 48.736 39.8699 51.1052 41.3776C51.8277 41.8373 52.9993 42.5302 54.5332 43.1876C55.9414 43.7911 58.6145 44.7853 62.1445 45.0568C65.8649 45.343 71.4827 44.8617 77.0219 41.2775C82.6422 37.6409 85.4682 32.5683 86.7516 28.7182C87.9442 25.1403 88.0181 22.1012 87.9743 20.4818C87.9266 18.7182 87.6924 17.3009 87.5172 16.4252C87.1744 14.711 86.7158 13.4121 86.5047 12.8391C86.252 12.1533 86.0155 11.6089 85.8639 11.2728C85.781 11.089 85.7045 10.9254 85.6376 10.7855C85.6037 10.7148 85.5713 10.648 85.5407 10.5854C85.5253 10.554 85.5103 10.5236 85.4957 10.494C85.4884 10.4792 85.4811 10.4646 85.474 10.4502C85.4704 10.4431 85.4651 10.4324 85.4633 10.4288C85.4581 10.4183 85.4528 10.4077 63.9865 21.1408Z" fill="#455A64" mask="url(#path-11-inside-2_46_128)" />
	<circle cx="47.9995" cy="51.7037" r="4.50698" fill="#455A64" />
	<path fill-rule="evenodd" clip-rule="evenodd" d="M21.38 52.408L23.6335 55.7882H19.1265L21.38 52.408ZM19.1265 55.7882H23.6335L27.0138 58.0417L23.6335 60.2952H19.1265V55.7882ZM15.7461 58.0418L19.1263 55.7883V60.2952L15.7461 58.0418ZM19.1264 60.2953L21.3799 63.6755L23.6334 60.2953H19.1264Z" fill="#979D9B" />
	<path fill-rule="evenodd" clip-rule="evenodd" d="M67.8579 51.8445L70.1113 55.2248H65.6044L67.8579 51.8445ZM65.6044 55.2248H70.1113V59.7318H65.6045V59.7318L65.6044 59.7318H65.6044V59.7318L62.2242 57.4783L65.6044 55.2249V55.2248ZM70.1114 59.7318L73.4917 57.4783L70.1114 55.2248V59.7318ZM65.6046 59.7318L67.858 63.1121L70.1115 59.7318H65.6046Z" fill="#979D9B" />
	<path fill-rule="evenodd" clip-rule="evenodd" d="M30.9577 50.577L32.0844 52.2671H32.0845V52.2671V52.2672L33.7744 53.3938L32.0845 54.5205V54.5206H32.0843H29.831V54.5206H32.0844L30.9577 56.2107L29.8309 54.5206L28.1409 53.3939L29.831 52.2672V52.2671V52.2671H29.831L30.9577 50.577Z" fill="#979D9B" />
	<path fill-rule="evenodd" clip-rule="evenodd" d="M77.436 50.0137L78.5627 51.7037H78.5628V51.7038L80.2528 52.8305L78.5628 53.9572V53.9572H78.5627H76.3094V53.9573H78.5627L77.436 55.6474L76.3092 53.9573H76.3093L74.6193 52.8306L76.3093 51.7039V51.7038V51.7037H76.3093L77.436 50.0137Z" fill="#979D9B" />
	<path fill-rule="evenodd" clip-rule="evenodd" d="M28.1407 60.8586L29.2674 62.5487H27.0139L28.1407 60.8586ZM29.2672 62.5488H29.2674V62.5489L30.9574 63.6755L29.2674 64.8021V64.8023H29.2673L28.1406 66.4923L27.0138 64.8022H27.0139V62.5488H29.2672ZM25.3235 63.6754L27.0136 62.5487V64.8022L25.3235 63.6754Z" fill="#979D9B" />
	<path fill-rule="evenodd" clip-rule="evenodd" d="M74.6186 60.2952L75.7454 61.9853H75.7454V61.9853V61.9854L77.4353 63.112L75.7454 64.2387V64.2388L75.7453 64.2388L74.6186 65.9289L73.4918 64.2388H73.4919L71.8019 63.1121L73.4919 61.9854V61.9853V61.9853H73.4919L74.6186 60.2952Z" fill="#979D9B" />
</svg>
